<?xml version="1.0" encoding="UTF-8"?>
<svg xmlns="http://www.w3.org/2000/svg"
     xmlns:xlink="http://www.w3.org/1999/xlink"
     xmlns:gadfly="http://www.gadflyjl.org/ns"
     version="1.2"
     width="152.4mm" height="101.6mm" viewBox="0 0 152.4 101.6"
     stroke="none"
     fill="#000000"
     stroke-width="0.3"
     font-size="3.88"
>
<g class="plotroot xscalable yscalable" id="img-27ec6aa5-1">
  <g font-size="3.88" font-family="'PT Sans','Helvetica Neue','Helvetica',sans-serif" fill="#564A55" stroke="#000000" stroke-opacity="0.000" id="img-27ec6aa5-2">
    <text x="76.26" y="89.99" text-anchor="middle" dy="0.6em">test1</text>
  </g>
  <g class="guide xlabels" font-size="2.82" font-family="'PT Sans Caption','Helvetica Neue','Helvetica',sans-serif" fill="#6C606B" id="img-27ec6aa5-3">
    <text x="21.75" y="83.32" text-anchor="middle" dy="0.6em">-1.0</text>
    <text x="43.55" y="83.32" text-anchor="middle" dy="0.6em">-0.5</text>
    <text x="65.35" y="83.32" text-anchor="middle" dy="0.6em">0.0</text>
    <text x="87.16" y="83.32" text-anchor="middle" dy="0.6em">0.5</text>
    <text x="108.96" y="83.32" text-anchor="middle" dy="0.6em">1.0</text>
    <text x="130.77" y="83.32" text-anchor="middle" dy="0.6em">1.5</text>
  </g>
  <g class="guide colorkey" id="img-27ec6aa5-4">
    <g fill="#4C404B" font-size="2.82" font-family="'PT Sans','Helvetica Neue','Helvetica',sans-serif" id="img-27ec6aa5-5">
      <text x="136.58" y="46.46" dy="0.35em" id="img-27ec6aa5-6" class="color_accepted">accepted</text>
      <text x="136.58" y="50.09" dy="0.35em" id="img-27ec6aa5-7" class="color_rejected">rejected</text>
    </g>
    <g stroke="#000000" stroke-opacity="0.000" id="img-27ec6aa5-8">
      <rect x="133.77" y="45.56" width="1.81" height="1.81" id="img-27ec6aa5-9" class="color_accepted" fill="#00BFFF"/>
      <rect x="133.77" y="49.18" width="1.81" height="1.81" id="img-27ec6aa5-10" class="color_rejected" fill="#FFB6C1"/>
    </g>
    <g fill="#362A35" font-size="3.88" font-family="'PT Sans','Helvetica Neue','Helvetica',sans-serif" stroke="#000000" stroke-opacity="0.000" id="img-27ec6aa5-11">
      <text x="133.77" y="42.64" id="img-27ec6aa5-12">result</text>
    </g>
  </g>
<g clip-path="url(#img-27ec6aa5-13)">
  <g id="img-27ec6aa5-14">
    <g pointer-events="visible" opacity="1" fill="#000000" fill-opacity="0.000" stroke="#000000" stroke-opacity="0.000" class="guide background" id="img-27ec6aa5-15">
      <rect x="19.75" y="10.61" width="113.02" height="71.7" id="img-27ec6aa5-16"/>
    </g>
    <g class="guide ygridlines xfixed" stroke-dasharray="0.5,0.5" stroke-width="0.2" stroke="#D0D0E0" id="img-27ec6aa5-17">
      <path fill="none" d="M19.75,80.32 L 132.77 80.32" id="img-27ec6aa5-18"/>
      <path fill="none" d="M19.75,66.77 L 132.77 66.77" id="img-27ec6aa5-19"/>
      <path fill="none" d="M19.75,53.23 L 132.77 53.23" id="img-27ec6aa5-20"/>
      <path fill="none" d="M19.75,39.69 L 132.77 39.69" id="img-27ec6aa5-21"/>
      <path fill="none" d="M19.75,26.15 L 132.77 26.15" id="img-27ec6aa5-22"/>
      <path fill="none" d="M19.75,12.61 L 132.77 12.61" id="img-27ec6aa5-23"/>
    </g>
    <g class="guide xgridlines yfixed" stroke-dasharray="0.5,0.5" stroke-width="0.2" stroke="#D0D0E0" id="img-27ec6aa5-24">
      <path fill="none" d="M21.75,10.61 L 21.75 82.32" id="img-27ec6aa5-25"/>
      <path fill="none" d="M43.55,10.61 L 43.55 82.32" id="img-27ec6aa5-26"/>
      <path fill="none" d="M65.35,10.61 L 65.35 82.32" id="img-27ec6aa5-27"/>
      <path fill="none" d="M87.16,10.61 L 87.16 82.32" id="img-27ec6aa5-28"/>
      <path fill="none" d="M108.96,10.61 L 108.96 82.32" id="img-27ec6aa5-29"/>
      <path fill="none" d="M130.77,10.61 L 130.77 82.32" id="img-27ec6aa5-30"/>
    </g>
    <g class="plotpanel" id="img-27ec6aa5-31">
      <g stroke-width="0.35" fill="#000000" fill-opacity="0.000" class="geometry color_0.0" stroke-dasharray="none" stroke="#00BFFF" id="img-27ec6aa5-32">
        <path fill="none" d="M55.58,31.79 L 55.68 31.79 55.79 31.78 55.9 31.78 56.01 31.78 56.12 31.77 56.23 31.77 56.34 31.77 56.45 31.76 56.56 31.76 56.67 31.76 56.78 31.76 56.89 31.75 56.99 31.75 57.1 31.75 57.21 31.75 57.32 31.74 57.43 31.74 57.54 31.74 57.65 31.74 57.76 31.74 57.87 31.74 57.98 31.73 58.09 31.73 58.19 31.73 58.3 31.73 58.41 31.73 58.52 31.73 58.63 31.73 58.74 31.73 58.85 31.73 58.96 31.73 59.07 31.73 59.18 31.73 59.29 31.73 59.4 31.73 59.5 31.73 59.61 31.73 59.72 31.73 59.83 31.73 59.94 31.73 60.05 31.73 60.16 31.73 60.27 31.73 60.38 31.73 60.49 31.73 60.6 31.74 60.7 31.74 60.81 31.74 60.92 31.74 61.03 31.74 61.14 31.74 61.25 31.75 61.36 31.75 61.47 31.75 61.58 31.75 61.69 31.76 61.8 31.76 61.91 31.76 62.01 31.76 62.12 31.77 62.23 31.77 62.34 31.77 62.45 31.78 62.56 31.78 62.67 31.78 62.78 31.79 62.89 31.79 62.93 31.79 63 31.79 63.11 31.8 63.21 31.8 63.32 31.81 63.43 31.81 63.54 31.81 63.65 31.82 63.76 31.82 63.87 31.83 63.98 31.83 64.09 31.84 64.2 31.84 64.31 31.85 64.42 31.85 64.52 31.86 64.57 31.86 64.63 31.86 64.74 31.87 64.85 31.87 64.96 31.88 65.07 31.88 65.18 31.89 65.29 31.9 65.4 31.9 65.51 31.91 65.62 31.91 65.72 31.92 65.81 31.93 65.83 31.93 65.94 31.93 66.05 31.94 66.16 31.95 66.27 31.96 66.38 31.96 66.49 31.97 66.6 31.98 66.71 31.98 66.82 31.99 66.85 31.99 66.93 32 67.03 32.01 67.14 32.02 67.25 32.02 67.36 32.03 67.47 32.04 67.58 32.05 67.69 32.06 67.76 32.06 67.8 32.07 67.91 32.07 68.02 32.08 68.13 32.09 68.23 32.1 68.34 32.11 68.45 32.12 68.56 32.13 68.58 32.13 68.67 32.14 68.78 32.15 68.89 32.16 69 32.17 69.11 32.18 69.22 32.19 69.32 32.2 69.33 32.2 69.44 32.21 69.54 32.22 69.65 32.23 69.76 32.24 69.87 32.25 69.98 32.26 70.01 32.27 70.09 32.27 70.2 32.29 70.31 32.3 70.42 32.31 70.53 32.32 70.64 32.33 70.65 32.33 70.74 32.34 70.85 32.36 70.96 32.37 71.07 32.38 71.18 32.39 71.25 32.4 71.29 32.41 71.4 32.42 71.51 32.43 71.62 32.44 71.73 32.46 71.82 32.47 71.84 32.47 71.95 32.48 72.05 32.5 72.16 32.51 72.27 32.53 72.35 32.54 72.38 32.54 72.49 32.55 72.6 32.57 72.71 32.58 72.82 32.6 72.86 32.6 72.93 32.61 73.04 32.63 73.15 32.64 73.25 32.66 73.35 32.67 73.36 32.67 73.47 32.69 73.58 32.71 73.69 32.72 73.8 32.74 73.81 32.74 73.91 32.75 74.02 32.77 74.13 32.79 74.24 32.8 74.26 32.81 74.35 32.82 74.46 32.84 74.56 32.86 74.67 32.87 74.69 32.88 74.78 32.89 74.89 32.91 75 32.93 75.1 32.94 75.11 32.94 75.22 32.96 75.33 32.98 75.44 33 75.5 33.01 75.55 33.02 75.66 33.04 75.76 33.06 75.87 33.08 75.88 33.08 75.98 33.1 76.09 33.12 76.2 33.14 76.25 33.15 76.31 33.16 76.42 33.18 76.53 33.2 76.6 33.21 76.64 33.22 76.75 33.24 76.86 33.26 76.95 33.28 76.97 33.28 77.07 33.31 77.18 33.33 77.29 33.35 77.29 33.35 77.4 33.37 77.51 33.4 77.61 33.42 77.62 33.42 77.73 33.44 77.84 33.47 77.93 33.49 77.95 33.49 78.06 33.51 78.17 33.54 78.23 33.55 78.27 33.56 78.38 33.59 78.49 33.61 78.53 33.62 78.6 33.64 78.71 33.66 78.82 33.69 78.82 33.69 78.93 33.71 79.04 33.74 79.1 33.76 79.15 33.77 79.26 33.79 79.37 33.82 79.38 33.82 79.48 33.85 79.58 33.88 79.65 33.89 79.69 33.9 79.8 33.93 79.91 33.96 79.91 33.96 80.02 33.99 80.13 34.02 80.16 34.03 80.24 34.05 80.35 34.08 80.41 34.1 80.46 34.11 80.57 34.14 80.65 34.16 80.68 34.17 80.78 34.2 80.89 34.23 80.89 34.23 81 34.26 81.11 34.3 81.12 34.3 81.22 34.33 81.33 34.36 81.34 34.37 81.44 34.4 81.55 34.43 81.56 34.43 81.66 34.46 81.77 34.5 81.78 34.5 81.88 34.53 81.99 34.57 81.99 34.57 82.09 34.6 82.2 34.64 82.2 34.64 82.31 34.68 82.4 34.71 82.42 34.71 82.53 34.75 82.6 34.77 82.64 34.79 82.75 34.83 82.79 34.84 82.86 34.86 82.97 34.9 82.98 34.91 83.08 34.94 83.17 34.98 83.19 34.98 83.29 35.02 83.35 35.04 83.4 35.06 83.51 35.11 83.53 35.11 83.62 35.15 83.7 35.18 83.73 35.19 83.84 35.23 83.87 35.25 83.95 35.28 84.04 35.31 84.06 35.32 84.17 35.37 84.21 35.38 84.28 35.41 84.37 35.45 84.39 35.46 84.5 35.5 84.53 35.52 84.6 35.55 84.68 35.59 84.71 35.6 84.82 35.65 84.84 35.65 84.93 35.7 84.99 35.72 85.04 35.75 85.14 35.79 85.15 35.8 85.26 35.85 85.28 35.86 85.37 35.9 85.42 35.92 85.48 35.95 85.56 35.99 85.59 36 85.7 36.06 85.7 36.06 85.8 36.11 85.84 36.13 85.91 36.17 85.97 36.2 86.02 36.22 86.1 36.26 86.13 36.28 86.23 36.33 86.24 36.34 86.35 36.4 86.35 36.4 86.46 36.46 86.48 36.47 86.57 36.52 86.6 36.53 86.68 36.58 86.72 36.6 86.79 36.64 86.84 36.67 86.9 36.71 86.95 36.74 87.01 36.77 87.07 36.81 87.11 36.83 87.18 36.87 87.22 36.9 87.29 36.94 87.33 36.97 87.4 37.01 87.44 37.04 87.5 37.08 87.55 37.11 87.61 37.14 87.66 37.18 87.71 37.21 87.77 37.25 87.82 37.28 87.88 37.32 87.92 37.35 87.99 37.4 88.02 37.42 88.1 37.47 88.11 37.48 88.21 37.55 88.21 37.55 88.3 37.62 88.31 37.63 88.4 37.69 88.42 37.71 88.49 37.75 88.53 37.79 88.58 37.82 88.64 37.87 88.67 37.89 88.75 37.96 88.75 37.96 88.84 38.03 88.86 38.04 88.92 38.09 88.97 38.13 89.01 38.16 89.08 38.22 89.09 38.23 89.17 38.3 89.19 38.31 89.25 38.36 89.3 38.4 89.33 38.43 89.41 38.5 89.41 38.5 89.49 38.57 89.52 38.59 89.56 38.64 89.62 38.69 89.64 38.7 89.71 38.77 89.73 38.79 89.78 38.84 89.84 38.9 89.85 38.91 89.92 38.97 89.95 39 89.99 39.04 90.06 39.11 90.06 39.11 90.13 39.18 90.17 39.22 90.2 39.25 90.26 39.31 90.28 39.33 90.33 39.38 90.39 39.45 90.39 39.45 90.45 39.52 90.5 39.57 90.51 39.58 90.58 39.65 90.61 39.69 90.64 39.72 90.69 39.79 90.72 39.81 90.75 39.86 90.81 39.92 90.82 39.94 90.87 39.99 90.92 40.06 90.93 40.07 90.98 40.13 91.04 40.19 91.04 40.2 91.09 40.26 91.14 40.33 91.15 40.34 91.2 40.4 91.25 40.47 91.26 40.48 91.3 40.53 91.35 40.6 91.37 40.63 91.4 40.67 91.45 40.74 91.48 40.78 91.5 40.8 91.54 40.87 91.59 40.94 91.59 40.94 91.64 41.01 91.68 41.08 91.7 41.1 91.73 41.14 91.77 41.21 91.81 41.26 91.82 41.28 91.86 41.35 91.9 41.41 91.92 41.43 91.95 41.48 91.99 41.55 92.03 41.61 92.03 41.62 92.07 41.69 92.11 41.75 92.13 41.79 92.15 41.82 92.19 41.89 92.23 41.96 92.24 41.98 92.27 42.02 92.3 42.09 92.34 42.16 92.35 42.18 92.38 42.23 92.41 42.3 92.45 42.36 92.46 42.39 92.49 42.43 92.52 42.5 92.55 42.57 92.57 42.6 92.59 42.63 92.62 42.7 92.65 42.77 92.68 42.82 92.69 42.84 92.72 42.91 92.75 42.97 92.78 43.04 92.79 43.06 92.81 43.11 92.84 43.18 92.87 43.24 92.9 43.3 92.9 43.31 92.93 43.38 92.96 43.45 92.99 43.52 93.01 43.56 93.02 43.58 93.04 43.65 93.07 43.72 93.1 43.79 93.12 43.84 93.12 43.85 93.15 43.92 93.17 43.99 93.2 44.06 93.22 44.13 93.23 44.13 93.25 44.19 93.27 44.26 93.3 44.33 93.32 44.4 93.33 44.44 93.34 44.46 93.37 44.53 93.39 44.6 93.41 44.67 93.43 44.74 93.44 44.77 93.46 44.8 93.48 44.87 93.5 44.94 93.52 45.01 93.54 45.07 93.55 45.12 93.56 45.14 93.58 45.21 93.6 45.28 93.62 45.35 93.64 45.41 93.65 45.48 93.66 45.51 93.67 45.55 93.69 45.62 93.71 45.68 93.73 45.75 93.74 45.82 93.76 45.89 93.77 45.93 93.78 45.96 93.79 46.02 93.81 46.09 93.82 46.16 93.84 46.23 93.86 46.29 93.87 46.36 93.88 46.41 93.89 46.43 93.9 46.5 93.91 46.56 93.93 46.63 93.94 46.7 93.96 46.77 93.97 46.84 93.98 46.9 93.99 46.94 94 46.97 94.01 47.04 94.02 47.11 94.03 47.17 94.04 47.24 94.06 47.31 94.07 47.38 94.08 47.45 94.09 47.51 94.1 47.57 94.1 47.58 94.11 47.65 94.12 47.72 94.13 47.78 94.14 47.85 94.15 47.92 94.16 47.99 94.17 48.06 94.18 48.12 94.19 48.19 94.2 48.26 94.2 48.33 94.21 48.35 94.21 48.39 94.22 48.46 94.23 48.53 94.24 48.6 94.24 48.67 94.25 48.73 94.26 48.8 94.26 48.87 94.27 48.94 94.28 49 94.28 49.07 94.29 49.14 94.3 49.21 94.3 49.28 94.31 49.34 94.31 49.41 94.32 49.47 94.32 49.48 94.32 49.55 94.33 49.61 94.33 49.68 94.34 49.75 94.34 49.82 94.34 49.89 94.35 49.95 94.35 50.02 94.36 50.09 94.36 50.16 94.36 50.22 94.36 50.29 94.37 50.36 94.37 50.43 94.37 50.5 94.37 50.56 94.38 50.63 94.38 50.7 94.38 50.77 94.38 50.83 94.38 50.9 94.38 50.97 94.39 51.04 94.39 51.11 94.39 51.17 94.39 51.24 94.39 51.31 94.39 51.38 94.39 51.44 94.39 51.51 94.39 51.58 94.39 51.65 94.39 51.72 94.39 51.78 94.39 51.85 94.38 51.92 94.38 51.99 94.38 52.05 94.38 52.12 94.38 52.19 94.38 52.26 94.38 52.33 94.37 52.39 94.37 52.46 94.37 52.53 94.37 52.6 94.36 52.66 94.36 52.73 94.36 52.8 94.35 52.87 94.35 52.94 94.35 53 94.34 53.07 94.34 53.14 94.33 53.21 94.33 53.27 94.33 53.34 94.32 53.41 94.32 53.47 94.32 53.48 94.31 53.55 94.31 53.61 94.3 53.68 94.3 53.75 94.29 53.82 94.28 53.88 94.28 53.95 94.27 54.02 94.27 54.09 94.26 54.16 94.25 54.22 94.25 54.29 94.24 54.36 94.23 54.43 94.23 54.49 94.22 54.56 94.21 54.63 94.21 54.66 94.2 54.7 94.2 54.77 94.19 54.83 94.18 54.9 94.17 54.97 94.16 55.04 94.16 55.1 94.15 55.17 94.14 55.24 94.13 55.31 94.12 55.38 94.11 55.44 94.1 55.51 94.1 55.52 94.09 55.58 94.08 55.65 94.07 55.71 94.06 55.78 94.05 55.85 94.04 55.92 94.03 55.99 94.02 56.05 94.01 56.12 94 56.19 93.99 56.23 93.99 56.26 93.97 56.32 93.96 56.39 93.95 56.46 93.94 56.53 93.93 56.6 93.91 56.66 93.9 56.73 93.89 56.8 93.88 56.84 93.88 56.87 93.86 56.93 93.85 57 93.84 57.07 93.82 57.14 93.81 57.21 93.8 57.27 93.78 57.34 93.77 57.39 93.77 57.41 93.75 57.48 93.74 57.54 93.72 57.61 93.71 57.68 93.69 57.75 93.68 57.81 93.66 57.88 93.66 57.88 93.65 57.95 93.63 58.02 93.61 58.09 93.6 58.15 93.58 58.22 93.57 58.29 93.55 58.34 93.55 58.36 93.53 58.42 93.51 58.49 93.5 58.56 93.48 58.63 93.46 58.7 93.44 58.76 93.44 58.76 93.43 58.83 93.41 58.9 93.39 58.97 93.37 59.03 93.35 59.1 93.33 59.16 93.33 59.17 93.31 59.24 93.29 59.31 93.27 59.37 93.25 59.44 93.23 59.51 93.23 59.53 93.21 59.58 93.19 59.64 93.17 59.71 93.15 59.78 93.13 59.85 93.12 59.88 93.11 59.92 93.08 59.98 93.06 60.05 93.04 60.12 93.02 60.19 93.01 60.22 93 60.25 92.97 60.32 92.95 60.39 92.93 60.46 92.9 60.53 92.9 60.54 92.88 60.59 92.85 60.66 92.83 60.73 92.81 60.8 92.79 60.84 92.78 60.86 92.76 60.93 92.73 61 92.71 61.07 92.68 61.13 92.68 61.14 92.65 61.2 92.63 61.27 92.6 61.34 92.57 61.41 92.57 61.41 92.55 61.47 92.52 61.54 92.49 61.61 92.46 61.68 92.46 61.68 92.44 61.75 92.41 61.81 92.38 61.88 92.35 61.94 92.35 61.95 92.32 62.02 92.29 62.08 92.26 62.15 92.24 62.19 92.23 62.22 92.2 62.29 92.17 62.36 92.14 62.42 92.13 62.43 92.11 62.49 92.07 62.56 92.04 62.63 92.03 62.66 92.01 62.69 91.98 62.76 91.94 62.83 91.92 62.89 91.91 62.9 91.88 62.97 91.84 63.03 91.81 63.1 91.81 63.11 91.77 63.17 91.74 63.24 91.7 63.3 91.7 63.32 91.67 63.37 91.63 63.44 91.6 63.51 91.59 63.52 91.56 63.58 91.52 63.64 91.48 63.71 91.48 63.72 91.45 63.78 91.41 63.85 91.37 63.91 91.37 63.91 91.33 63.98 91.29 64.05 91.26 64.1 91.25 64.12 91.21 64.19 91.17 64.25 91.15 64.28 91.13 64.32 91.09 64.39 91.04 64.46 91.04 64.46 91 64.52 90.96 64.59 90.93 64.63 90.92 64.66 90.87 64.73 90.83 64.8 90.82 64.8 90.78 64.86 90.74 64.93 90.72 64.96 90.69 65 90.64 65.07 90.61 65.12 90.6 65.13 90.55 65.2 90.5 65.27 90.5 65.28 90.45 65.34 90.41 65.41 90.39 65.43 90.36 65.47 90.31 65.54 90.28 65.58 90.26 65.61 90.2 65.68 90.17 65.72 90.15 65.74 90.1 65.81 90.06 65.86 90.05 65.88 89.99 65.95 89.95 66 89.94 66.02 89.89 66.08 89.84 66.14 89.83 66.15 89.78 66.22 89.73 66.27 89.72 66.29 89.66 66.35 89.62 66.4 89.6 66.42 89.54 66.49 89.52 66.52 89.49 66.56 89.43 66.63 89.41 66.65 89.36 66.69 89.3 66.76 89.3 66.77 89.24 66.83 89.19 66.89 89.18 66.9 89.11 66.96 89.08 67 89.05 67.03 88.99 67.1 88.97 67.12 88.92 67.17 88.86 67.23 88.85 67.24 88.78 67.3 88.75 67.34 88.72 67.37 88.65 67.44 88.64 67.44 88.58 67.51 88.53 67.55 88.5 67.57 88.43 67.64 88.42 67.65 88.36 67.71 88.31 67.75 88.28 67.78 88.21 67.85 88.21 67.85 88.13 67.91 88.1 67.95 88.06 67.98 87.99 68.04 87.98 68.05 87.9 68.12 87.88 68.13 87.82 68.18 87.77 68.22 87.74 68.25 87.66 68.31 87.65 68.32 87.57 68.39 87.55 68.4 87.48 68.46 87.44 68.49 87.4 68.52 87.33 68.57 87.31 68.59 87.22 68.66 87.22 68.66 87.13 68.73 87.11 68.74 87.04 68.79 87.01 68.82 86.95 68.86 86.9 68.9 86.85 68.93 86.79 68.98 86.76 69 86.68 69.05 86.66 69.06 86.57 69.13 86.56 69.13 86.46 69.2 86.46 69.2 86.36 69.27 86.35 69.27 86.25 69.34 86.24 69.34 86.15 69.4 86.13 69.41 86.04 69.47 86.02 69.48 85.93 69.54 85.91 69.55 85.82 69.61 85.8 69.62 85.71 69.67 85.7 69.68 85.59 69.74 85.59 69.75 85.48 69.81 85.48 69.81 85.37 69.87 85.36 69.88 85.26 69.93 85.24 69.95 85.15 69.99 85.11 70.01 85.04 70.05 84.99 70.08 84.93 70.11 84.86 70.15 84.82 70.17 84.73 70.22 84.71 70.23 84.6 70.28 84.6 70.28 84.5 70.34 84.46 70.35 84.39 70.39 84.32 70.42 84.28 70.44 84.18 70.49 84.17 70.49 84.06 70.55 84.04 70.56 83.95 70.6 83.89 70.62 83.84 70.65 83.74 70.69 83.73 70.7 83.62 70.74 83.59 70.76 83.51 70.79 83.43 70.83 83.4 70.84 83.29 70.88 83.27 70.89 83.19 70.93 83.11 70.96 83.08 70.98 82.97 71.02 82.94 71.03 82.86 71.06 82.77 71.1 82.75 71.11 82.64 71.15 82.59 71.17 82.53 71.19 82.42 71.23 82.41 71.23 82.31 71.27 82.23 71.3 82.2 71.31 82.09 71.35 82.04 71.37 81.99 71.39 81.88 71.43 81.84 71.44 81.77 71.46 81.66 71.5 81.65 71.5 81.55 71.54 81.44 71.57 81.44 71.57 81.33 71.61 81.23 71.64 81.22 71.64 81.11 71.68 81.01 71.71 81 71.71 80.89 71.74 80.79 71.78 80.78 71.78 80.68 71.81 80.57 71.84 80.56 71.84 80.46 71.87 80.35 71.9 80.32 71.91 80.24 71.93 80.13 71.96 80.07 71.98 80.02 71.99 79.91 72.02 79.82 72.05 79.8 72.05 79.69 72.08 79.58 72.11 79.56 72.11 79.48 72.14 79.37 72.16 79.28 72.18 79.26 72.19 79.15 72.22 79.04 72.24 79 72.25 78.93 72.27 78.82 72.29 78.71 72.32 78.71 72.32 78.6 72.34 78.49 72.37 78.4 72.39 78.38 72.39 78.27 72.41 78.17 72.44 78.08 72.45 78.06 72.46 77.95 72.48 77.84 72.5 77.74 72.52 77.73 72.52 77.62 72.54 77.51 72.57 77.4 72.59 77.39 72.59 77.29 72.61 77.18 72.63 77.07 72.65 77.02 72.66 76.97 72.67 76.86 72.68 76.75 72.7 76.64 72.72 76.62 72.72 76.53 72.74 76.42 72.76 76.31 72.78 76.21 72.79 76.2 72.79 76.09 72.81 75.98 72.83 75.87 72.84 75.76 72.86 75.76 72.86 75.66 72.88 75.55 72.89 75.44 72.91 75.33 72.92 75.28 72.93 75.22 72.94 75.11 72.95 75 72.97 74.89 72.98 74.78 72.99 74.77 73 74.67 73.01 74.56 73.02 74.46 73.03 74.35 73.05 74.24 73.06 74.2 73.06 74.13 73.07 74.02 73.08 73.91 73.1 73.8 73.11 73.69 73.12 73.58 73.13 73.57 73.13 73.47 73.14 73.36 73.15 73.25 73.16 73.15 73.17 73.04 73.18 72.93 73.19 72.86 73.2 72.82 73.2 72.71 73.21 72.6 73.22 72.49 73.23 72.38 73.24 72.27 73.25 72.16 73.26 72.05 73.26 72.02 73.27 71.95 73.27 71.84 73.28 71.73 73.29 71.62 73.3 71.51 73.3 71.4 73.31 71.29 73.32 71.18 73.32 71.07 73.33 70.98 73.33 70.96 73.34 70.85 73.34 70.74 73.35 70.64 73.35 70.53 73.36 70.42 73.36 70.31 73.37 70.2 73.37 70.09 73.38 69.98 73.38 69.87 73.39 69.76 73.39 69.65 73.4 69.54 73.4 69.46 73.4 69.44 73.4 69.33 73.41 69.22 73.41 69.11 73.41 69 73.42 68.89 73.42 68.78 73.42 68.67 73.42 68.56 73.43 68.45 73.43 68.34 73.43 68.23 73.43 68.13 73.43 68.02 73.43 67.91 73.44 67.8 73.44 67.69 73.44 67.58 73.44 67.47 73.44 67.36 73.44 67.25 73.44 67.14 73.44 67.03 73.44 66.93 73.44 66.82 73.44 66.71 73.44 66.6 73.44 66.49 73.43 66.38 73.43 66.27 73.43 66.16 73.43 66.05 73.43 65.94 73.43 65.83 73.42 65.72 73.42 65.62 73.42 65.51 73.42 65.4 73.42 65.29 73.41 65.18 73.41 65.07 73.41 64.96 73.4 64.95 73.4 64.85 73.4 64.74 73.4 64.63 73.39 64.52 73.39 64.42 73.38 64.31 73.38 64.2 73.37 64.09 73.37 63.98 73.36 63.87 73.36 63.76 73.35 63.65 73.35 63.54 73.34 63.43 73.34 63.37 73.33 63.32 73.33 63.21 73.33 63.11 73.32 63 73.31 62.89 73.31 62.78 73.3 62.67 73.29 62.56 73.29 62.45 73.28 62.34 73.27 62.26 73.27 62.23 73.26 62.12 73.26 62.01 73.25 61.91 73.24 61.8 73.23 61.69 73.22 61.58 73.22 61.47 73.21 61.37 73.2 61.36 73.2 61.25 73.19 61.14 73.18 61.03 73.17 60.92 73.16 60.81 73.15 60.7 73.14 60.6 73.13 60.6 73.13 60.49 73.12 60.38 73.11 60.27 73.1 60.16 73.09 60.05 73.08 59.94 73.07 59.91 73.06 59.83 73.06 59.72 73.04 59.61 73.03 59.5 73.02 59.4 73.01 59.29 73 59.29 73 59.18 72.98 59.07 72.97 58.96 72.96 58.85 72.94 58.74 72.93 58.72 72.93 58.63 72.92 58.52 72.9 58.41 72.89 58.3 72.88 58.19 72.86 58.18 72.86 58.09 72.85 57.98 72.83 57.87 72.82 57.76 72.8 57.68 72.79 57.65 72.79 57.54 72.77 57.43 72.76 57.32 72.74 57.21 72.72 57.21 72.72 57.1 72.71 56.99 72.69 56.89 72.68 56.78 72.66 56.77 72.66 56.67 72.64 56.56 72.62 56.45 72.61 56.34 72.59 56.34 72.59 56.23 72.57 56.12 72.55 56.01 72.53 55.94 72.52 55.9 72.52 55.79 72.5 55.68 72.48 55.58 72.46 55.55 72.45 55.47 72.44 55.36 72.42 55.25 72.4 55.18 72.39 55.14 72.38 55.03 72.36 54.92 72.34 54.82 72.32 54.81 72.32 54.7 72.3 54.59 72.27 54.48 72.25 54.47 72.25 54.38 72.23 54.27 72.21 54.16 72.19 54.14 72.18 54.05 72.16 53.94 72.14 53.83 72.12 53.82 72.11 53.72 72.09 53.61 72.07 53.51 72.05 53.5 72.05 53.39 72.02 53.28 72 53.21 71.98 53.17 71.97 53.07 71.95 52.96 71.92 52.91 71.91 52.85 71.9 52.74 71.87 52.63 71.84 52.63 71.84 52.52 71.82 52.41 71.79 52.35 71.78 52.3 71.76 52.19 71.74 52.09 71.71 52.08 71.71 51.97 71.68 51.87 71.65 51.82 71.64 51.76 71.62 51.65 71.59 51.57 71.57 51.54 71.56 51.43 71.53 51.32 71.5 51.32 71.5 51.21 71.47 51.1 71.44 51.08 71.44 50.99 71.41 50.88 71.38 50.84 71.37 50.77 71.35 50.66 71.32 50.61 71.3 50.56 71.29 50.45 71.25 50.38 71.23 50.34 71.22 50.23 71.19 50.16 71.17 50.12 71.15 50.01 71.12 49.95 71.1 49.9 71.08 49.79 71.05 49.74 71.03 49.68 71.01 49.57 70.98 49.53 70.96 49.46 70.94 49.36 70.91 49.32 70.89 49.25 70.87 49.14 70.83 49.13 70.83 49.03 70.79 48.93 70.76 48.92 70.76 48.81 70.72 48.74 70.69 48.7 70.68 48.59 70.64 48.55 70.62 48.48 70.6 48.37 70.56 48.37 70.56 48.26 70.52 48.19 70.49 48.15 70.48 48.05 70.43 48.01 70.42 47.94 70.39 47.84 70.35 47.83 70.35 47.72 70.31 47.66 70.28 47.61 70.26 47.5 70.22 47.5 70.22 47.39 70.17 47.33 70.15 47.28 70.13 47.17 70.08 47.17 70.08 47.06 70.04 47.01 70.01 46.95 69.99 46.85 69.95 46.85 69.94 46.74 69.9 46.7 69.88 46.63 69.85 46.54 69.81 46.52 69.8 46.41 69.75 46.39 69.74 46.3 69.7 46.25 69.67 46.19 69.65 46.1 69.61 46.08 69.6 45.97 69.55 45.96 69.54 45.86 69.49 45.82 69.47 45.75 69.44 45.68 69.4 45.64 69.39 45.54 69.34 45.54 69.33 45.43 69.28 45.41 69.27 45.32 69.22 45.27 69.2 45.21 69.17 45.14 69.13 45.1 69.11 45.01 69.06 44.99 69.05 44.89 69 44.88 68.99 44.77 68.94 44.76 68.93 44.66 68.88 44.64 68.86 44.55 68.82 44.52 68.79 44.44 68.75 44.39 68.73 44.34 68.69 44.28 68.66 44.23 68.63 44.16 68.59 44.12 68.57 44.04 68.52 44.01 68.5 43.93 68.46 43.9 68.44 43.82 68.39 43.79 68.37 43.7 68.32 43.68 68.3 43.59 68.25 43.57 68.24 43.49 68.18 43.46 68.17 43.38 68.12 43.35 68.1 43.27 68.05 43.24 68.03 43.17 67.98 43.13 67.96 43.06 67.91 43.03 67.89 42.96 67.85 42.92 67.82 42.86 67.78 42.81 67.74 42.76 67.71 42.7 67.67 42.66 67.64 42.59 67.59 42.56 67.57 42.48 67.52 42.47 67.51 42.37 67.44 42.37 67.44 42.28 67.37 42.26 67.36 42.18 67.3 42.15 67.28 42.09 67.24 42.04 67.2 42 67.17 41.93 67.12 41.91 67.1 41.83 67.03 41.82 67.03 41.73 66.96 41.72 66.95 41.65 66.9 41.61 66.87 41.56 66.83 41.5 66.78 41.47 66.76 41.39 66.69 41.39 66.69 41.31 66.63 41.28 66.6 41.22 66.56 41.17 66.51 41.14 66.49 41.06 66.42 41.06 66.42 40.98 66.35 40.95 66.33 40.9 66.29 40.84 66.24 40.82 66.22 40.74 66.15 40.73 66.14 40.67 66.08 40.62 66.05 40.59 66.02 40.52 65.95 40.51 65.95 40.44 65.88 40.41 65.85 40.36 65.81 40.3 65.75 40.29 65.74 40.22 65.68 40.19 65.65 40.14 65.61 40.08 65.55 40.07 65.54 40 65.47 39.97 65.44 39.93 65.41 39.86 65.34 39.86 65.34 39.79 65.27 39.75 65.23 39.72 65.2 39.66 65.13 39.64 65.12 39.59 65.07 39.53 65.01 39.52 65 39.46 64.93 39.42 64.9 39.39 64.86 39.33 64.8 39.32 64.78 39.26 64.73 39.21 64.67 39.2 64.66 39.14 64.59 39.1 64.55 39.07 64.52 39.01 64.46 38.99 64.43 38.95 64.39 38.89 64.32 38.88 64.31 38.83 64.25 38.77 64.19 38.77 64.19 38.71 64.12 38.66 64.06 38.65 64.05 38.59 63.98 38.55 63.94 38.53 63.91 38.48 63.85 38.44 63.81 38.42 63.78 38.36 63.71 38.33 63.68 38.31 63.64 38.25 63.58 38.22 63.54 38.19 63.51 38.14 63.44 38.11 63.41 38.09 63.37 38.03 63.3 38.01 63.27 37.98 63.24 37.92 63.17 37.9 63.13 37.87 63.1 37.82 63.03 37.79 62.99 37.77 62.97 37.72 62.9 37.68 62.85 37.66 62.83 37.61 62.76 37.57 62.7 37.56 62.69 37.51 62.63 37.46 62.56 37.46 62.55 37.41 62.49 37.37 62.42 37.35 62.4 37.32 62.36 37.27 62.29 37.24 62.25 37.22 62.22 37.17 62.15 37.13 62.09 37.13 62.08 37.08 62.02 37.03 61.95 37.02 61.93 36.99 61.88 36.94 61.81 36.91 61.77 36.9 61.75 36.85 61.68 36.81 61.61 36.81 61.61 36.76 61.54 36.72 61.47 36.7 61.44 36.67 61.41 36.63 61.34 36.59 61.27 36.59 61.27 36.54 61.2 36.5 61.14 36.48 61.1 36.46 61.07 36.42 61 36.38 60.93 36.37 60.92 36.33 60.86 36.29 60.8 36.26 60.74 36.25 60.73 36.21 60.66 36.17 60.59 36.15 60.56 36.13 60.53 36.09 60.46 36.05 60.39 36.04 60.37 36.01 60.32 35.97 60.25 35.94 60.19 35.93 60.18 35.9 60.12 35.86 60.05 35.82 59.99 35.82 59.98 35.78 59.92 35.75 59.85 35.71 59.79 35.71 59.78 35.67 59.71 35.64 59.64 35.6 59.59 35.6 59.58 35.56 59.51 35.53 59.44 35.5 59.38 35.49 59.37 35.46 59.31 35.42 59.24 35.39 59.17 35.39 59.17 35.35 59.1 35.32 59.03 35.28 58.97 35.28 58.96 35.25 58.9 35.21 58.83 35.18 58.76 35.17 58.74 35.15 58.7 35.11 58.63 35.08 58.56 35.06 58.51 35.05 58.49 35.02 58.42 34.98 58.36 34.95 58.29 34.95 58.29 34.92 58.22 34.89 58.15 34.86 58.09 34.84 58.05 34.83 58.02 34.79 57.95 34.76 57.88 34.73 57.81 34.73 57.81 34.7 57.75 34.67 57.68 34.64 57.61 34.62 57.57 34.61 57.54 34.58 57.48 34.55 57.41 34.52 57.34 34.51 57.31 34.5 57.27 34.47 57.21 34.44 57.14 34.41 57.07 34.4 57.06 34.38 57 34.35 56.93 34.33 56.87 34.3 56.8 34.3 56.79 34.27 56.73 34.24 56.66 34.22 56.6 34.19 56.53 34.19 56.52 34.16 56.46 34.14 56.39 34.11 56.32 34.08 56.26 34.08 56.24 34.06 56.19 34.03 56.12 34.01 56.05 33.98 55.99 33.97 55.95 33.96 55.92 33.93 55.85 33.91 55.78 33.88 55.71 33.86 55.65 33.86 55.65 33.83 55.58 33.81 55.51 33.78 55.44 33.76 55.38 33.75 55.34 33.74 55.31 33.71 55.24 33.69 55.17 33.67 55.1 33.64 55.04 33.64 55.03 33.62 54.97 33.6 54.9 33.58 54.83 33.55 54.77 33.53 54.7 33.53 54.7 33.51 54.63 33.49 54.56 33.47 54.49 33.44 54.43 33.42 54.36 33.42 54.36 33.4 54.29 33.38 54.22 33.36 54.16 33.34 54.09 33.32 54.02 33.31 54 33.3 53.95 33.28 53.88 33.26 53.82 33.24 53.75 33.22 53.68 33.2 53.63 33.2 53.61 33.18 53.55 33.16 53.48 33.14 53.41 33.12 53.34 33.1 53.27 33.09 53.24 33.08 53.21 33.07 53.14 33.05 53.07 33.03 53 33.01 52.94 32.99 52.87 32.99 52.83 32.98 52.8 32.96 52.73 32.94 52.66 32.92 52.6 32.91 52.53 32.89 52.46 32.88 52.4 32.87 52.39 32.86 52.33 32.84 52.26 32.83 52.19 32.81 52.12 32.79 52.05 32.78 51.99 32.77 51.94 32.76 51.92 32.75 51.85 32.73 51.78 32.72 51.72 32.7 51.65 32.69 51.58 32.67 51.51 32.66 51.45 32.66 51.44 32.64 51.38 32.63 51.31 32.62 51.24 32.6 51.17 32.59 51.11 32.57 51.04 32.56 50.97 32.55 50.91 32.55 50.9 32.53 50.83 32.52 50.77 32.51 50.7 32.5 50.63 32.48 50.56 32.47 50.5 32.46 50.43 32.45 50.36 32.44 50.31 32.44 50.29 32.43 50.22 32.41 50.16 32.4 50.09 32.39 50.02 32.38 49.95 32.37 49.89 32.36 49.82 32.35 49.75 32.34 49.68 32.33 49.63 32.33 49.61 32.32 49.55 32.31 49.48 32.3 49.41 32.29 49.34 32.28 49.28 32.27 49.21 32.26 49.14 32.25 49.07 32.25 49 32.24 48.94 32.23 48.87 32.22 48.8 32.22 48.8 32.21 48.73 32.21 48.67 32.2 48.6 32.19 48.53 32.19 48.46 32.18 48.39 32.17 48.33 32.17 48.26 32.16 48.19 32.15 48.12 32.15 48.06 32.14 47.99 32.14 47.92 32.13 47.85 32.12 47.78 32.12 47.72 32.12 47.65 32.11 47.61 32.11 47.58 32.11 47.51 32.1 47.45 32.1 47.38 32.09 47.31 32.09 47.24 32.09 47.17 32.08 47.11 32.08 47.04 32.08 46.97 32.08 46.9 32.07 46.84 32.07 46.77 32.07 46.7 32.07 46.63 32.07 46.56 32.06 46.5 32.06 46.43 32.06 46.36 32.06 46.29 32.06 46.23 32.06 46.16 32.06 46.09 32.06 46.02 32.06 45.96 32.06 45.89 32.06 45.82 32.07 45.75 32.07 45.68 32.07 45.62 32.07 45.55 32.07 45.48 32.07 45.41 32.08 45.35 32.08 45.28 32.08 45.21 32.09 45.14 32.09 45.07 32.09 45.01 32.1 44.94 32.1 44.87 32.11 44.8 32.11 44.74 32.11 44.74 32.12 44.67 32.12 44.6 32.13 44.53 32.14 44.46 32.14 44.4 32.15 44.33 32.16 44.26 32.16 44.19 32.17 44.13 32.18 44.06 32.19 43.99 32.2 43.92 32.2 43.85 32.21 43.79 32.22 43.72 32.22 43.72 32.23 43.65 32.24 43.58 32.25 43.52 32.26 43.45 32.27 43.38 32.29 43.31 32.3 43.24 32.31 43.18 32.32 43.11 32.33 43.06 32.33 43.04 32.35 42.97 32.36 42.91 32.37 42.84 32.39 42.77 32.4 42.7 32.42 42.63 32.43 42.57 32.44 42.53 32.45 42.5 32.46 42.43 32.48 42.36 32.5 42.3 32.51 42.23 32.53 42.16 32.55 42.1 32.55 42.09 32.57 42.02 32.59 41.96 32.61 41.89 32.63 41.82 32.65 41.75 32.66 41.71 32.67 41.69 32.69 41.62 32.71 41.55 32.73 41.48 32.75 41.41 32.77 41.37 32.78 41.35 32.8 41.28 32.82 41.21 32.85 41.14 32.87 41.08 32.88 41.06 32.9 41.01 32.92 40.94 32.95 40.87 32.98 40.8 32.99 40.78 33 40.74 33.03 40.67 33.06 40.6 33.09 40.53 33.09 40.52 33.12 40.47 33.15 40.4 33.18 40.33 33.2 40.28 33.21 40.26 33.24 40.19 33.27 40.13 33.31 40.06 33.31 40.05 33.34 39.99 33.38 39.92 33.41 39.86 33.42 39.83 33.45 39.79 33.48 39.72 33.52 39.65 33.53 39.63 33.56 39.58 33.6 39.52 33.63 39.45 33.64 39.44 33.67 39.38 33.72 39.31 33.75 39.26 33.76 39.25 33.8 39.18 33.84 39.11 33.86 39.08 33.88 39.04 33.93 38.97 33.97 38.92 33.97 38.91 34.02 38.84 34.07 38.77 34.08 38.76 34.11 38.7 34.16 38.64 34.19 38.6 34.21 38.57 34.26 38.5 34.3 38.46 34.31 38.43 34.36 38.36 34.4 38.31 34.42 38.3 34.47 38.23 34.51 38.18 34.53 38.16 34.58 38.09 34.62 38.05 34.64 38.03 34.7 37.96 34.73 37.92 34.76 37.89 34.82 37.82 34.84 37.79 34.88 37.75 34.94 37.69 34.95 37.67 35 37.62 35.06 37.56 35.07 37.55 35.13 37.48 35.17 37.45 35.2 37.42 35.27 37.35 35.28 37.34 35.34 37.28 35.39 37.23 35.41 37.21 35.48 37.14 35.5 37.13 35.55 37.08 35.6 37.03 35.63 37.01 35.7 36.94 35.71 36.93 35.78 36.87 35.82 36.84 35.86 36.81 35.93 36.74 35.94 36.74 36.02 36.67 36.04 36.65 36.1 36.6 36.15 36.56 36.19 36.53 36.26 36.48 36.27 36.47 36.36 36.4 36.37 36.39 36.45 36.33 36.48 36.31 36.54 36.26 36.59 36.23 36.64 36.2 36.7 36.15 36.73 36.13 36.81 36.08 36.83 36.06 36.91 36 36.93 35.99 37.02 35.93 37.03 35.92 37.13 35.86 37.13 35.86 37.24 35.79 37.24 35.79 37.35 35.72 37.35 35.72 37.45 35.65 37.46 35.65 37.57 35.59 37.57 35.58 37.68 35.52 37.68 35.52 37.79 35.46 37.8 35.45 37.9 35.39 37.92 35.38 38.01 35.33 38.04 35.31 38.11 35.27 38.16 35.25 38.22 35.21 38.29 35.18 38.33 35.16 38.42 35.11 38.44 35.1 38.55 35.04 38.55 35.04 38.66 34.99 38.69 34.98 38.77 34.93 38.82 34.91 38.88 34.88 38.97 34.84 38.99 34.83 39.1 34.78 39.11 34.77 39.21 34.73 39.26 34.71 39.32 34.68 39.41 34.64 39.42 34.63 39.53 34.58 39.57 34.57 39.64 34.54 39.73 34.5 39.75 34.49 39.86 34.45 39.89 34.43 39.97 34.4 40.06 34.37 40.08 34.36 40.19 34.31 40.23 34.3 40.3 34.27 40.4 34.23 40.41 34.23 40.52 34.19 40.58 34.16 40.62 34.15 40.73 34.11 40.77 34.1 40.84 34.07 40.95 34.03 40.96 34.03 41.06 33.99 41.16 33.96 41.17 33.95 41.28 33.92 41.36 33.89 41.39 33.88 41.5 33.85 41.56 33.82 41.61 33.81 41.72 33.78 41.78 33.76 41.83 33.74 41.93 33.71 42 33.69 42.04 33.67 42.15 33.64 42.22 33.62 42.26 33.61 42.37 33.58 42.45 33.55 42.48 33.55 42.59 33.51 42.69 33.49 42.7 33.48 42.81 33.45 42.92 33.42 42.94 33.42 43.03 33.4 43.13 33.37 43.2 33.35 43.24 33.34 43.35 33.31 43.46 33.28 43.47 33.28 43.57 33.26 43.68 33.23 43.74 33.21 43.79 33.2 43.9 33.18 44.01 33.15 44.03 33.15 44.12 33.13 44.23 33.1 44.32 33.08 44.34 33.08 44.44 33.05 44.55 33.03 44.63 33.01 44.66 33 44.77 32.98 44.88 32.96 44.95 32.94 44.99 32.93 45.1 32.91 45.21 32.89 45.28 32.88 45.32 32.87 45.43 32.85 45.54 32.83 45.63 32.81 45.64 32.81 45.75 32.78 45.86 32.76 45.97 32.74 46 32.74 46.08 32.72 46.19 32.71 46.3 32.69 46.38 32.67 46.41 32.67 46.52 32.65 46.63 32.63 46.74 32.61 46.78 32.6 46.85 32.59 46.95 32.58 47.06 32.56 47.17 32.54 47.21 32.54 47.28 32.53 47.39 32.51 47.5 32.49 47.61 32.48 47.66 32.47 47.72 32.46 47.83 32.44 47.94 32.43 48.05 32.41 48.14 32.4 48.15 32.4 48.26 32.38 48.37 32.37 48.48 32.35 48.59 32.34 48.65 32.33 48.7 32.33 48.81 32.31 48.92 32.3 49.03 32.29 49.14 32.27 49.2 32.27 49.25 32.26 49.36 32.25 49.46 32.23 49.57 32.22 49.68 32.21 49.79 32.2 49.79 32.2 49.9 32.19 50.01 32.17 50.12 32.16 50.23 32.15 50.34 32.14 50.44 32.13 50.45 32.13 50.56 32.12 50.66 32.11 50.77 32.1 50.88 32.09 50.99 32.08 51.1 32.07 51.16 32.06 51.21 32.06 51.32 32.05 51.43 32.04 51.54 32.03 51.65 32.02 51.76 32.01 51.87 32 51.97 31.99 51.97 31.99 52.08 31.99 52.19 31.98 52.3 31.97 52.41 31.96 52.52 31.95 52.63 31.95 52.74 31.94 52.85 31.93 52.9 31.93 52.96 31.92 53.07 31.92 53.17 31.91 53.28 31.9 53.39 31.9 53.5 31.89 53.61 31.88 53.72 31.88 53.83 31.87 53.94 31.86 54.04 31.86 54.05 31.86 54.16 31.85 54.27 31.85 54.38 31.84 54.48 31.84 54.59 31.83 54.7 31.83 54.81 31.82 54.92 31.82 55.03 31.81 55.14 31.81 55.25 31.8 55.36 31.8 55.47 31.79 55.58 31.79 55.58 31.79" id="img-27ec6aa5-33"/>
      </g>
      <g class="geometry" id="img-27ec6aa5-34">
        <g stroke-width="0.3" id="img-27ec6aa5-35">
          <use xlink:href="#img-27ec6aa5-36" x="67.59" y="34.29" id="img-27ec6aa5-37" class="color_accepted" fill="#00BFFF" stroke="#FFFFFF"/>
          <use xlink:href="#img-27ec6aa5-36" x="61.31" y="34.68" id="img-27ec6aa5-38" class="color_accepted" fill="#00BFFF" stroke="#FFFFFF"/>
          <use xlink:href="#img-27ec6aa5-36" x="56.03" y="34.49" id="img-27ec6aa5-39" class="color_accepted" fill="#00BFFF" stroke="#FFFFFF"/>
          <use xlink:href="#img-27ec6aa5-36" x="49" y="39.63" id="img-27ec6aa5-40" class="color_accepted" fill="#00BFFF" stroke="#FFFFFF"/>
          <use xlink:href="#img-27ec6aa5-36" x="42.97" y="40.62" id="img-27ec6aa5-41" class="color_accepted" fill="#00BFFF" stroke="#FFFFFF"/>
          <use xlink:href="#img-27ec6aa5-36" x="42.47" y="47.55" id="img-27ec6aa5-42" class="color_accepted" fill="#00BFFF" stroke="#FFFFFF"/>
          <use xlink:href="#img-27ec6aa5-36" x="48" y="52.3" id="img-27ec6aa5-43" class="color_accepted" fill="#00BFFF" stroke="#FFFFFF"/>
          <use xlink:href="#img-27ec6aa5-36" x="52.01" y="58.44" id="img-27ec6aa5-44" class="color_accepted" fill="#00BFFF" stroke="#FFFFFF"/>
          <use xlink:href="#img-27ec6aa5-36" x="66.08" y="64.18" id="img-27ec6aa5-45" class="color_accepted" fill="#00BFFF" stroke="#FFFFFF"/>
          <use xlink:href="#img-27ec6aa5-36" x="71.11" y="67.15" id="img-27ec6aa5-46" class="color_accepted" fill="#00BFFF" stroke="#FFFFFF"/>
          <use xlink:href="#img-27ec6aa5-36" x="82.16" y="68.54" id="img-27ec6aa5-47" class="color_accepted" fill="#00BFFF" stroke="#FFFFFF"/>
          <use xlink:href="#img-27ec6aa5-36" x="88.44" y="67.35" id="img-27ec6aa5-48" class="color_accepted" fill="#00BFFF" stroke="#FFFFFF"/>
          <use xlink:href="#img-27ec6aa5-36" x="93.21" y="59.83" id="img-27ec6aa5-49" class="color_accepted" fill="#00BFFF" stroke="#FFFFFF"/>
          <use xlink:href="#img-27ec6aa5-36" x="97.48" y="58.24" id="img-27ec6aa5-50" class="color_accepted" fill="#00BFFF" stroke="#FFFFFF"/>
          <use xlink:href="#img-27ec6aa5-36" x="89.19" y="40.03" id="img-27ec6aa5-51" class="color_accepted" fill="#00BFFF" stroke="#FFFFFF"/>
          <use xlink:href="#img-27ec6aa5-36" x="79.4" y="37.46" id="img-27ec6aa5-52" class="color_accepted" fill="#00BFFF" stroke="#FFFFFF"/>
          <use xlink:href="#img-27ec6aa5-36" x="72.61" y="38.64" id="img-27ec6aa5-53" class="color_accepted" fill="#00BFFF" stroke="#FFFFFF"/>
          <use xlink:href="#img-27ec6aa5-36" x="63.32" y="31.12" id="img-27ec6aa5-54" class="color_accepted" fill="#00BFFF" stroke="#FFFFFF"/>
          <use xlink:href="#img-27ec6aa5-36" x="57.79" y="34.29" id="img-27ec6aa5-55" class="color_accepted" fill="#00BFFF" stroke="#FFFFFF"/>
          <use xlink:href="#img-27ec6aa5-36" x="44.48" y="36.07" id="img-27ec6aa5-56" class="color_accepted" fill="#00BFFF" stroke="#FFFFFF"/>
          <use xlink:href="#img-27ec6aa5-36" x="38.95" y="37.06" id="img-27ec6aa5-57" class="color_accepted" fill="#00BFFF" stroke="#FFFFFF"/>
          <use xlink:href="#img-27ec6aa5-36" x="37.95" y="44.19" id="img-27ec6aa5-58" class="color_accepted" fill="#00BFFF" stroke="#FFFFFF"/>
          <use xlink:href="#img-27ec6aa5-36" x="39.45" y="53.1" id="img-27ec6aa5-59" class="color_accepted" fill="#00BFFF" stroke="#FFFFFF"/>
          <use xlink:href="#img-27ec6aa5-36" x="46.99" y="60.62" id="img-27ec6aa5-60" class="color_accepted" fill="#00BFFF" stroke="#FFFFFF"/>
          <use xlink:href="#img-27ec6aa5-36" x="60.3" y="63.98" id="img-27ec6aa5-61" class="color_accepted" fill="#00BFFF" stroke="#FFFFFF"/>
          <use xlink:href="#img-27ec6aa5-36" x="74.12" y="69.53" id="img-27ec6aa5-62" class="color_accepted" fill="#00BFFF" stroke="#FFFFFF"/>
          <use xlink:href="#img-27ec6aa5-36" x="85.68" y="67.74" id="img-27ec6aa5-63" class="color_accepted" fill="#00BFFF" stroke="#FFFFFF"/>
          <use xlink:href="#img-27ec6aa5-36" x="94.72" y="67.74" id="img-27ec6aa5-64" class="color_accepted" fill="#00BFFF" stroke="#FFFFFF"/>
          <use xlink:href="#img-27ec6aa5-36" x="59.3" y="38.45" id="img-27ec6aa5-65" class="color_accepted" fill="#00BFFF" stroke="#FFFFFF"/>
          <use xlink:href="#img-27ec6aa5-36" x="52.52" y="32.11" id="img-27ec6aa5-66" class="color_accepted" fill="#00BFFF" stroke="#FFFFFF"/>
          <use xlink:href="#img-27ec6aa5-36" x="53.77" y="27.16" id="img-27ec6aa5-67" class="color_accepted" fill="#00BFFF" stroke="#FFFFFF"/>
          <use xlink:href="#img-27ec6aa5-36" x="58.29" y="31.52" id="img-27ec6aa5-68" class="color_accepted" fill="#00BFFF" stroke="#FFFFFF"/>
          <use xlink:href="#img-27ec6aa5-36" x="57.79" y="35.67" id="img-27ec6aa5-69" class="color_accepted" fill="#00BFFF" stroke="#FFFFFF"/>
          <use xlink:href="#img-27ec6aa5-36" x="53.02" y="40.43" id="img-27ec6aa5-70" class="color_accepted" fill="#00BFFF" stroke="#FFFFFF"/>
          <use xlink:href="#img-27ec6aa5-36" x="49.5" y="44.78" id="img-27ec6aa5-71" class="color_accepted" fill="#00BFFF" stroke="#FFFFFF"/>
          <use xlink:href="#img-27ec6aa5-36" x="52.27" y="52.5" id="img-27ec6aa5-72" class="color_accepted" fill="#00BFFF" stroke="#FFFFFF"/>
          <use xlink:href="#img-27ec6aa5-36" x="55.03" y="59.03" id="img-27ec6aa5-73" class="color_accepted" fill="#00BFFF" stroke="#FFFFFF"/>
          <use xlink:href="#img-27ec6aa5-36" x="62.57" y="58.24" id="img-27ec6aa5-74" class="color_accepted" fill="#00BFFF" stroke="#FFFFFF"/>
          <use xlink:href="#img-27ec6aa5-36" x="68.09" y="57.65" id="img-27ec6aa5-75" class="color_accepted" fill="#00BFFF" stroke="#FFFFFF"/>
          <use xlink:href="#img-27ec6aa5-36" x="75.38" y="64.38" id="img-27ec6aa5-76" class="color_accepted" fill="#00BFFF" stroke="#FFFFFF"/>
          <use xlink:href="#img-27ec6aa5-36" x="78.14" y="59.43" id="img-27ec6aa5-77" class="color_accepted" fill="#00BFFF" stroke="#FFFFFF"/>
          <use xlink:href="#img-27ec6aa5-36" x="86.43" y="58.24" id="img-27ec6aa5-78" class="color_accepted" fill="#00BFFF" stroke="#FFFFFF"/>
          <use xlink:href="#img-27ec6aa5-36" x="93.46" y="57.05" id="img-27ec6aa5-79" class="color_accepted" fill="#00BFFF" stroke="#FFFFFF"/>
          <use xlink:href="#img-27ec6aa5-36" x="85.42" y="52.9" id="img-27ec6aa5-80" class="color_accepted" fill="#00BFFF" stroke="#FFFFFF"/>
          <use xlink:href="#img-27ec6aa5-36" x="92.71" y="48.94" id="img-27ec6aa5-81" class="color_accepted" fill="#00BFFF" stroke="#FFFFFF"/>
          <use xlink:href="#img-27ec6aa5-36" x="90.45" y="45.97" id="img-27ec6aa5-82" class="color_accepted" fill="#00BFFF" stroke="#FFFFFF"/>
          <use xlink:href="#img-27ec6aa5-36" x="96.98" y="41.22" id="img-27ec6aa5-83" class="color_accepted" fill="#00BFFF" stroke="#FFFFFF"/>
          <use xlink:href="#img-27ec6aa5-36" x="75.13" y="39.04" id="img-27ec6aa5-84" class="color_accepted" fill="#00BFFF" stroke="#FFFFFF"/>
          <use xlink:href="#img-27ec6aa5-36" x="84.67" y="35.08" id="img-27ec6aa5-85" class="color_accepted" fill="#00BFFF" stroke="#FFFFFF"/>
          <use xlink:href="#img-27ec6aa5-36" x="79.4" y="34.49" id="img-27ec6aa5-86" class="color_accepted" fill="#00BFFF" stroke="#FFFFFF"/>
          <use xlink:href="#img-27ec6aa5-36" x="71.36" y="37.65" id="img-27ec6aa5-87" class="color_accepted" fill="#00BFFF" stroke="#FFFFFF"/>
          <use xlink:href="#img-27ec6aa5-36" x="65.08" y="42.41" id="img-27ec6aa5-88" class="color_accepted" fill="#00BFFF" stroke="#FFFFFF"/>
          <use xlink:href="#img-27ec6aa5-36" x="61.31" y="38.25" id="img-27ec6aa5-89" class="color_accepted" fill="#00BFFF" stroke="#FFFFFF"/>
          <use xlink:href="#img-27ec6aa5-36" x="56.29" y="43.59" id="img-27ec6aa5-90" class="color_accepted" fill="#00BFFF" stroke="#FFFFFF"/>
          <use xlink:href="#img-27ec6aa5-36" x="56.29" y="48.54" id="img-27ec6aa5-91" class="color_accepted" fill="#00BFFF" stroke="#FFFFFF"/>
          <use xlink:href="#img-27ec6aa5-36" x="46.24" y="47.35" id="img-27ec6aa5-92" class="color_accepted" fill="#00BFFF" stroke="#FFFFFF"/>
          <use xlink:href="#img-27ec6aa5-36" x="55.78" y="53.69" id="img-27ec6aa5-93" class="color_accepted" fill="#00BFFF" stroke="#FFFFFF"/>
          <use xlink:href="#img-27ec6aa5-36" x="59.3" y="60.62" id="img-27ec6aa5-94" class="color_accepted" fill="#00BFFF" stroke="#FFFFFF"/>
          <use xlink:href="#img-27ec6aa5-36" x="73.37" y="27.95" id="img-27ec6aa5-95" class="color_rejected" fill="#FFB6C1" stroke="#FFFFFF"/>
          <use xlink:href="#img-27ec6aa5-36" x="75.13" y="32.11" id="img-27ec6aa5-96" class="color_rejected" fill="#FFB6C1" stroke="#FFFFFF"/>
          <use xlink:href="#img-27ec6aa5-36" x="78.39" y="36.47" id="img-27ec6aa5-97" class="color_rejected" fill="#FFB6C1" stroke="#FFFFFF"/>
          <use xlink:href="#img-27ec6aa5-36" x="87.43" y="32.7" id="img-27ec6aa5-98" class="color_rejected" fill="#FFB6C1" stroke="#FFFFFF"/>
          <use xlink:href="#img-27ec6aa5-36" x="92.21" y="33.5" id="img-27ec6aa5-99" class="color_rejected" fill="#FFB6C1" stroke="#FFFFFF"/>
          <use xlink:href="#img-27ec6aa5-36" x="91.7" y="37.06" id="img-27ec6aa5-100" class="color_rejected" fill="#FFB6C1" stroke="#FFFFFF"/>
          <use xlink:href="#img-27ec6aa5-36" x="98.74" y="39.63" id="img-27ec6aa5-101" class="color_rejected" fill="#FFB6C1" stroke="#FFFFFF"/>
          <use xlink:href="#img-27ec6aa5-36" x="105.77" y="43.4" id="img-27ec6aa5-102" class="color_rejected" fill="#FFB6C1" stroke="#FFFFFF"/>
          <use xlink:href="#img-27ec6aa5-36" x="101.25" y="45.77" id="img-27ec6aa5-103" class="color_rejected" fill="#FFB6C1" stroke="#FFFFFF"/>
          <use xlink:href="#img-27ec6aa5-36" x="107.28" y="50.92" id="img-27ec6aa5-104" class="color_rejected" fill="#FFB6C1" stroke="#FFFFFF"/>
          <use xlink:href="#img-27ec6aa5-36" x="106.27" y="52.9" id="img-27ec6aa5-105" class="color_rejected" fill="#FFB6C1" stroke="#FFFFFF"/>
          <use xlink:href="#img-27ec6aa5-36" x="103.01" y="55.47" id="img-27ec6aa5-106" class="color_rejected" fill="#FFB6C1" stroke="#FFFFFF"/>
          <use xlink:href="#img-27ec6aa5-36" x="104.52" y="58.84" id="img-27ec6aa5-107" class="color_rejected" fill="#FFB6C1" stroke="#FFFFFF"/>
          <use xlink:href="#img-27ec6aa5-36" x="102.51" y="63.19" id="img-27ec6aa5-108" class="color_rejected" fill="#FFB6C1" stroke="#FFFFFF"/>
          <use xlink:href="#img-27ec6aa5-36" x="101.5" y="67.35" id="img-27ec6aa5-109" class="color_rejected" fill="#FFB6C1" stroke="#FFFFFF"/>
          <use xlink:href="#img-27ec6aa5-36" x="99.99" y="68.34" id="img-27ec6aa5-110" class="color_rejected" fill="#FFB6C1" stroke="#FFFFFF"/>
          <use xlink:href="#img-27ec6aa5-36" x="91.2" y="73.29" id="img-27ec6aa5-111" class="color_rejected" fill="#FFB6C1" stroke="#FFFFFF"/>
          <use xlink:href="#img-27ec6aa5-36" x="87.94" y="69.33" id="img-27ec6aa5-112" class="color_rejected" fill="#FFB6C1" stroke="#FFFFFF"/>
          <use xlink:href="#img-27ec6aa5-36" x="85.68" y="64.58" id="img-27ec6aa5-113" class="color_rejected" fill="#FFB6C1" stroke="#FFFFFF"/>
          <use xlink:href="#img-27ec6aa5-36" x="80.65" y="68.93" id="img-27ec6aa5-114" class="color_rejected" fill="#FFB6C1" stroke="#FFFFFF"/>
          <use xlink:href="#img-27ec6aa5-36" x="77.89" y="74.08" id="img-27ec6aa5-115" class="color_rejected" fill="#FFB6C1" stroke="#FFFFFF"/>
          <use xlink:href="#img-27ec6aa5-36" x="69.1" y="73.68" id="img-27ec6aa5-116" class="color_rejected" fill="#FFB6C1" stroke="#FFFFFF"/>
          <use xlink:href="#img-27ec6aa5-36" x="71.86" y="68.93" id="img-27ec6aa5-117" class="color_rejected" fill="#FFB6C1" stroke="#FFFFFF"/>
          <use xlink:href="#img-27ec6aa5-36" x="59.55" y="65.37" id="img-27ec6aa5-118" class="color_rejected" fill="#FFB6C1" stroke="#FFFFFF"/>
          <use xlink:href="#img-27ec6aa5-36" x="47.49" y="64.38" id="img-27ec6aa5-119" class="color_rejected" fill="#FFB6C1" stroke="#FFFFFF"/>
          <use xlink:href="#img-27ec6aa5-36" x="48.25" y="60.22" id="img-27ec6aa5-120" class="color_rejected" fill="#FFB6C1" stroke="#FFFFFF"/>
          <use xlink:href="#img-27ec6aa5-36" x="32.92" y="60.22" id="img-27ec6aa5-121" class="color_rejected" fill="#FFB6C1" stroke="#FFFFFF"/>
          <use xlink:href="#img-27ec6aa5-36" x="34.93" y="52.11" id="img-27ec6aa5-122" class="color_rejected" fill="#FFB6C1" stroke="#FFFFFF"/>
          <use xlink:href="#img-27ec6aa5-36" x="32.42" y="45.37" id="img-27ec6aa5-123" class="color_rejected" fill="#FFB6C1" stroke="#FFFFFF"/>
          <use xlink:href="#img-27ec6aa5-36" x="34.93" y="34.68" id="img-27ec6aa5-124" class="color_rejected" fill="#FFB6C1" stroke="#FFFFFF"/>
          <use xlink:href="#img-27ec6aa5-36" x="47.74" y="34.09" id="img-27ec6aa5-125" class="color_rejected" fill="#FFB6C1" stroke="#FFFFFF"/>
          <use xlink:href="#img-27ec6aa5-36" x="48.75" y="28.35" id="img-27ec6aa5-126" class="color_rejected" fill="#FFB6C1" stroke="#FFFFFF"/>
          <use xlink:href="#img-27ec6aa5-36" x="43.22" y="28.75" id="img-27ec6aa5-127" class="color_rejected" fill="#FFB6C1" stroke="#FFFFFF"/>
          <use xlink:href="#img-27ec6aa5-36" x="41.46" y="34.09" id="img-27ec6aa5-128" class="color_rejected" fill="#FFB6C1" stroke="#FFFFFF"/>
          <use xlink:href="#img-27ec6aa5-36" x="69.85" y="32.11" id="img-27ec6aa5-129" class="color_rejected" fill="#FFB6C1" stroke="#FFFFFF"/>
          <use xlink:href="#img-27ec6aa5-36" x="67.84" y="28.35" id="img-27ec6aa5-130" class="color_rejected" fill="#FFB6C1" stroke="#FFFFFF"/>
          <use xlink:href="#img-27ec6aa5-36" x="60.81" y="26.37" id="img-27ec6aa5-131" class="color_rejected" fill="#FFB6C1" stroke="#FFFFFF"/>
          <use xlink:href="#img-27ec6aa5-36" x="61.81" y="23.2" id="img-27ec6aa5-132" class="color_rejected" fill="#FFB6C1" stroke="#FFFFFF"/>
          <use xlink:href="#img-27ec6aa5-36" x="77.89" y="23.8" id="img-27ec6aa5-133" class="color_rejected" fill="#FFB6C1" stroke="#FFFFFF"/>
          <use xlink:href="#img-27ec6aa5-36" x="82.66" y="30.92" id="img-27ec6aa5-134" class="color_rejected" fill="#FFB6C1" stroke="#FFFFFF"/>
          <use xlink:href="#img-27ec6aa5-36" x="93.21" y="29.14" id="img-27ec6aa5-135" class="color_rejected" fill="#FFB6C1" stroke="#FFFFFF"/>
          <use xlink:href="#img-27ec6aa5-36" x="101.25" y="35.28" id="img-27ec6aa5-136" class="color_rejected" fill="#FFB6C1" stroke="#FFFFFF"/>
          <use xlink:href="#img-27ec6aa5-36" x="94.72" y="35.87" id="img-27ec6aa5-137" class="color_rejected" fill="#FFB6C1" stroke="#FFFFFF"/>
          <use xlink:href="#img-27ec6aa5-36" x="112.05" y="50.52" id="img-27ec6aa5-138" class="color_rejected" fill="#FFB6C1" stroke="#FFFFFF"/>
          <use xlink:href="#img-27ec6aa5-36" x="63.32" y="68.93" id="img-27ec6aa5-139" class="color_rejected" fill="#FFB6C1" stroke="#FFFFFF"/>
          <use xlink:href="#img-27ec6aa5-36" x="55.03" y="70.52" id="img-27ec6aa5-140" class="color_rejected" fill="#FFB6C1" stroke="#FFFFFF"/>
          <use xlink:href="#img-27ec6aa5-36" x="58.8" y="63.19" id="img-27ec6aa5-141" class="color_rejected" fill="#FFB6C1" stroke="#FFFFFF"/>
          <use xlink:href="#img-27ec6aa5-36" x="43.98" y="61.41" id="img-27ec6aa5-142" class="color_rejected" fill="#FFB6C1" stroke="#FFFFFF"/>
          <use xlink:href="#img-27ec6aa5-36" x="44.98" y="56.86" id="img-27ec6aa5-143" class="color_rejected" fill="#FFB6C1" stroke="#FFFFFF"/>
          <use xlink:href="#img-27ec6aa5-36" x="52.77" y="54.88" id="img-27ec6aa5-144" class="color_rejected" fill="#FFB6C1" stroke="#FFFFFF"/>
          <use xlink:href="#img-27ec6aa5-36" x="38.7" y="55.07" id="img-27ec6aa5-145" class="color_rejected" fill="#FFB6C1" stroke="#FFFFFF"/>
          <use xlink:href="#img-27ec6aa5-36" x="36.44" y="59.03" id="img-27ec6aa5-146" class="color_rejected" fill="#FFB6C1" stroke="#FFFFFF"/>
          <use xlink:href="#img-27ec6aa5-36" x="39.2" y="64.58" id="img-27ec6aa5-147" class="color_rejected" fill="#FFB6C1" stroke="#FFFFFF"/>
          <use xlink:href="#img-27ec6aa5-36" x="33.68" y="55.47" id="img-27ec6aa5-148" class="color_rejected" fill="#FFB6C1" stroke="#FFFFFF"/>
          <use xlink:href="#img-27ec6aa5-36" x="29.16" y="44.78" id="img-27ec6aa5-149" class="color_rejected" fill="#FFB6C1" stroke="#FFFFFF"/>
          <use xlink:href="#img-27ec6aa5-36" x="33.93" y="38.64" id="img-27ec6aa5-150" class="color_rejected" fill="#FFB6C1" stroke="#FFFFFF"/>
          <use xlink:href="#img-27ec6aa5-36" x="39.45" y="39.83" id="img-27ec6aa5-151" class="color_rejected" fill="#FFB6C1" stroke="#FFFFFF"/>
          <use xlink:href="#img-27ec6aa5-36" x="44.23" y="26.17" id="img-27ec6aa5-152" class="color_rejected" fill="#FFB6C1" stroke="#FFFFFF"/>
          <use xlink:href="#img-27ec6aa5-36" x="65.08" y="26.17" id="img-27ec6aa5-153" class="color_rejected" fill="#FFB6C1" stroke="#FFFFFF"/>
          <use xlink:href="#img-27ec6aa5-36" x="92.94" y="54.06" id="img-27ec6aa5-154" class="color_rejected" fill="#FFB6C1" stroke="#FFFFFF"/>
        </g>
      </g>
    </g>
  </g>
</g>
  <g class="guide ylabels" font-size="2.82" font-family="'PT Sans Caption','Helvetica Neue','Helvetica',sans-serif" fill="#6C606B" id="img-27ec6aa5-155">
    <text x="18.74" y="80.32" text-anchor="end" dy="0.35em" id="img-27ec6aa5-156">-1.0</text>
    <text x="18.74" y="66.77" text-anchor="end" dy="0.35em" id="img-27ec6aa5-157">-0.5</text>
    <text x="18.74" y="53.23" text-anchor="end" dy="0.35em" id="img-27ec6aa5-158">0.0</text>
    <text x="18.74" y="39.69" text-anchor="end" dy="0.35em" id="img-27ec6aa5-159">0.5</text>
    <text x="18.74" y="26.15" text-anchor="end" dy="0.35em" id="img-27ec6aa5-160">1.0</text>
    <text x="18.74" y="12.61" text-anchor="end" dy="0.35em" id="img-27ec6aa5-161">1.5</text>
  </g>
  <g font-size="3.88" font-family="'PT Sans','Helvetica Neue','Helvetica',sans-serif" fill="#564A55" stroke="#000000" stroke-opacity="0.000" id="img-27ec6aa5-162">
    <text x="8.81" y="44.46" text-anchor="middle" dy="0.35em" transform="rotate(-90, 8.81, 46.46)" id="img-27ec6aa5-163">test2</text>
  </g>
  <g font-size="3.88" font-family="'PT Sans','Helvetica Neue','Helvetica',sans-serif" fill="#564A55" stroke="#000000" stroke-opacity="0.000" id="img-27ec6aa5-164">
    <text x="76.26" y="5" text-anchor="middle" dy="0.6em" id="img-27ec6aa5-165">Regularization with  = 10</text>
  </g>
</g>
<defs>
  <clipPath id="img-27ec6aa5-13">
  <path d="M19.75,10.61 L 132.77 10.61 132.77 82.32 19.75 82.32" />
</clipPath>
  <g id="img-27ec6aa5-36">
    <circle cx="0" cy="0" r="0.9" id="img-27ec6aa5-166"/>
  </g>
</defs>
</svg>
