<?xml version="1.0" encoding="UTF-8"?>
<svg xmlns="http://www.w3.org/2000/svg"
     xmlns:xlink="http://www.w3.org/1999/xlink"
     xmlns:gadfly="http://www.gadflyjl.org/ns"
     version="1.2"
     width="152.4mm" height="101.6mm" viewBox="0 0 152.4 101.6"
     stroke="none"
     fill="#000000"
     stroke-width="0.3"
     font-size="3.88"
>
<g class="plotroot xscalable yscalable" id="img-d6ad139f-1">
  <g font-size="3.88" font-family="'PT Sans','Helvetica Neue','Helvetica',sans-serif" fill="#564A55" stroke="#000000" stroke-opacity="0.000" id="img-d6ad139f-2">
    <text x="76.26" y="89.99" text-anchor="middle" dy="0.6em">test1</text>
  </g>
  <g class="guide xlabels" font-size="2.82" font-family="'PT Sans Caption','Helvetica Neue','Helvetica',sans-serif" fill="#6C606B" id="img-d6ad139f-3">
    <text x="21.75" y="83.32" text-anchor="middle" dy="0.6em">-1.0</text>
    <text x="43.55" y="83.32" text-anchor="middle" dy="0.6em">-0.5</text>
    <text x="65.35" y="83.32" text-anchor="middle" dy="0.6em">0.0</text>
    <text x="87.16" y="83.32" text-anchor="middle" dy="0.6em">0.5</text>
    <text x="108.96" y="83.32" text-anchor="middle" dy="0.6em">1.0</text>
    <text x="130.77" y="83.32" text-anchor="middle" dy="0.6em">1.5</text>
  </g>
  <g class="guide colorkey" id="img-d6ad139f-4">
    <g fill="#4C404B" font-size="2.82" font-family="'PT Sans','Helvetica Neue','Helvetica',sans-serif" id="img-d6ad139f-5">
      <text x="136.58" y="46.46" dy="0.35em" id="img-d6ad139f-6" class="color_accepted">accepted</text>
      <text x="136.58" y="50.09" dy="0.35em" id="img-d6ad139f-7" class="color_rejected">rejected</text>
    </g>
    <g stroke="#000000" stroke-opacity="0.000" id="img-d6ad139f-8">
      <rect x="133.77" y="45.56" width="1.81" height="1.81" id="img-d6ad139f-9" class="color_accepted" fill="#00BFFF"/>
      <rect x="133.77" y="49.18" width="1.81" height="1.81" id="img-d6ad139f-10" class="color_rejected" fill="#FFB6C1"/>
    </g>
    <g fill="#362A35" font-size="3.88" font-family="'PT Sans','Helvetica Neue','Helvetica',sans-serif" stroke="#000000" stroke-opacity="0.000" id="img-d6ad139f-11">
      <text x="133.77" y="42.64" id="img-d6ad139f-12">result</text>
    </g>
  </g>
<g clip-path="url(#img-d6ad139f-13)">
  <g id="img-d6ad139f-14">
    <g pointer-events="visible" opacity="1" fill="#000000" fill-opacity="0.000" stroke="#000000" stroke-opacity="0.000" class="guide background" id="img-d6ad139f-15">
      <rect x="19.75" y="10.61" width="113.02" height="71.7" id="img-d6ad139f-16"/>
    </g>
    <g class="guide ygridlines xfixed" stroke-dasharray="0.5,0.5" stroke-width="0.2" stroke="#D0D0E0" id="img-d6ad139f-17">
      <path fill="none" d="M19.75,80.32 L 132.77 80.32" id="img-d6ad139f-18"/>
      <path fill="none" d="M19.75,66.77 L 132.77 66.77" id="img-d6ad139f-19"/>
      <path fill="none" d="M19.75,53.23 L 132.77 53.23" id="img-d6ad139f-20"/>
      <path fill="none" d="M19.75,39.69 L 132.77 39.69" id="img-d6ad139f-21"/>
      <path fill="none" d="M19.75,26.15 L 132.77 26.15" id="img-d6ad139f-22"/>
      <path fill="none" d="M19.75,12.61 L 132.77 12.61" id="img-d6ad139f-23"/>
    </g>
    <g class="guide xgridlines yfixed" stroke-dasharray="0.5,0.5" stroke-width="0.2" stroke="#D0D0E0" id="img-d6ad139f-24">
      <path fill="none" d="M21.75,10.61 L 21.75 82.32" id="img-d6ad139f-25"/>
      <path fill="none" d="M43.55,10.61 L 43.55 82.32" id="img-d6ad139f-26"/>
      <path fill="none" d="M65.35,10.61 L 65.35 82.32" id="img-d6ad139f-27"/>
      <path fill="none" d="M87.16,10.61 L 87.16 82.32" id="img-d6ad139f-28"/>
      <path fill="none" d="M108.96,10.61 L 108.96 82.32" id="img-d6ad139f-29"/>
      <path fill="none" d="M130.77,10.61 L 130.77 82.32" id="img-d6ad139f-30"/>
    </g>
    <g class="plotpanel" id="img-d6ad139f-31">
      <g stroke-width="0.35" fill="#000000" fill-opacity="0.000" class="geometry color_0.0" stroke-dasharray="none" stroke="#00BFFF" id="img-d6ad139f-32">
        <path fill="none" d="M80.96,64.46 L 80.9 64.52 80.89 64.53 80.85 64.59 80.79 64.66 80.78 64.67 80.74 64.73 80.68 64.8 80.68 64.8 80.62 64.86 80.57 64.93 80.57 64.93 80.51 65 80.46 65.05 80.45 65.07 80.39 65.13 80.35 65.18 80.33 65.2 80.26 65.27 80.24 65.3 80.2 65.34 80.14 65.41 80.13 65.41 80.07 65.47 80.02 65.53 80.01 65.54 79.94 65.61 79.91 65.64 79.88 65.68 79.81 65.74 79.8 65.75 79.74 65.81 79.69 65.86 79.67 65.88 79.6 65.95 79.58 65.96 79.53 66.02 79.48 66.06 79.45 66.08 79.38 66.15 79.37 66.16 79.31 66.22 79.26 66.26 79.23 66.29 79.15 66.35 79.15 66.36 79.07 66.42 79.04 66.45 79 66.49 78.93 66.55 78.92 66.56 78.83 66.63 78.82 66.64 78.75 66.69 78.71 66.73 78.67 66.76 78.6 66.81 78.58 66.83 78.5 66.9 78.49 66.9 78.41 66.96 78.38 66.98 78.32 67.03 78.27 67.06 78.23 67.1 78.17 67.15 78.14 67.17 78.06 67.23 78.04 67.24 77.95 67.3 77.95 67.3 77.85 67.37 77.84 67.38 77.75 67.44 77.73 67.45 77.65 67.51 77.62 67.53 77.55 67.57 77.51 67.6 77.45 67.64 77.4 67.67 77.34 67.71 77.29 67.74 77.24 67.78 77.18 67.81 77.13 67.85 77.07 67.88 77.02 67.91 76.97 67.95 76.91 67.98 76.86 68.01 76.79 68.05 76.75 68.08 76.68 68.12 76.64 68.14 76.56 68.18 76.53 68.2 76.44 68.25 76.42 68.26 76.32 68.32 76.31 68.32 76.2 68.38 76.19 68.39 76.09 68.44 76.06 68.46 75.98 68.5 75.93 68.52 75.87 68.55 75.8 68.59 75.76 68.61 75.66 68.66 75.66 68.66 75.55 68.72 75.53 68.73 75.44 68.77 75.39 68.79 75.33 68.82 75.24 68.86 75.22 68.87 75.11 68.92 75.09 68.93 75 68.97 74.94 69 74.89 69.02 74.79 69.06 74.78 69.07 74.67 69.12 74.63 69.13 74.56 69.16 74.47 69.2 74.46 69.21 74.35 69.25 74.31 69.27 74.24 69.3 74.14 69.34 74.13 69.34 74.02 69.38 73.97 69.4 73.91 69.43 73.8 69.47 73.79 69.47 73.69 69.51 73.61 69.54 73.58 69.55 73.47 69.59 73.43 69.61 73.36 69.63 73.25 69.67 73.24 69.67 73.15 69.71 73.04 69.74 73.04 69.74 72.93 69.78 72.84 69.81 72.82 69.82 72.71 69.85 72.63 69.88 72.6 69.89 72.49 69.92 72.42 69.95 72.38 69.96 72.27 69.99 72.2 70.01 72.16 70.02 72.05 70.06 71.97 70.08 71.95 70.09 71.84 70.12 71.74 70.15 71.73 70.15 71.62 70.18 71.51 70.21 71.5 70.22 71.4 70.24 71.29 70.27 71.25 70.28 71.18 70.3 71.07 70.33 70.99 70.35 70.96 70.36 70.85 70.39 70.74 70.41 70.72 70.42 70.64 70.44 70.53 70.47 70.44 70.49 70.42 70.49 70.31 70.52 70.2 70.54 70.14 70.56 70.09 70.57 69.98 70.59 69.87 70.62 69.84 70.62 69.76 70.64 69.65 70.66 69.54 70.69 69.52 70.69 69.44 70.71 69.33 70.73 69.22 70.75 69.19 70.76 69.11 70.77 69 70.8 68.89 70.82 68.83 70.83 68.78 70.84 68.67 70.86 68.56 70.88 68.46 70.89 68.45 70.9 68.34 70.92 68.23 70.93 68.13 70.95 68.06 70.96 68.02 70.97 67.91 70.99 67.8 71.01 67.69 71.02 67.64 71.03 67.58 71.04 67.47 71.06 67.36 71.07 67.25 71.09 67.19 71.1 67.14 71.1 67.03 71.12 66.93 71.13 66.82 71.15 66.71 71.16 66.69 71.17 66.6 71.18 66.49 71.19 66.38 71.21 66.27 71.22 66.16 71.23 66.15 71.23 66.05 71.24 65.94 71.26 65.83 71.27 65.72 71.28 65.62 71.29 65.54 71.3 65.51 71.3 65.4 71.32 65.29 71.33 65.18 71.34 65.07 71.35 64.96 71.36 64.85 71.37 64.83 71.37 64.74 71.38 64.63 71.39 64.52 71.4 64.42 71.4 64.31 71.41 64.2 71.42 64.09 71.43 63.99 71.44 63.98 71.44 63.87 71.45 63.76 71.45 63.65 71.46 63.54 71.47 63.43 71.47 63.32 71.48 63.21 71.49 63.11 71.49 63 71.5 62.89 71.5 62.85 71.5 62.78 71.51 62.67 71.51 62.56 71.52 62.45 71.52 62.34 71.53 62.23 71.53 62.12 71.53 62.01 71.54 61.91 71.54 61.8 71.54 61.69 71.55 61.58 71.55 61.47 71.55 61.36 71.55 61.25 71.56 61.14 71.56 61.03 71.56 60.92 71.56 60.81 71.56 60.7 71.56 60.6 71.56 60.49 71.56 60.38 71.56 60.27 71.56 60.16 71.56 60.05 71.56 59.94 71.56 59.83 71.56 59.72 71.56 59.61 71.56 59.5 71.56 59.4 71.56 59.29 71.55 59.18 71.55 59.07 71.55 58.96 71.55 58.85 71.54 58.74 71.54 58.63 71.54 58.52 71.53 58.41 71.53 58.3 71.53 58.19 71.52 58.09 71.52 57.98 71.51 57.87 71.51 57.83 71.5 57.76 71.5 57.65 71.5 57.54 71.49 57.43 71.48 57.32 71.48 57.21 71.47 57.1 71.46 56.99 71.46 56.89 71.45 56.78 71.44 56.68 71.44 56.67 71.44 56.56 71.43 56.45 71.42 56.34 71.41 56.23 71.4 56.12 71.39 56.01 71.39 55.9 71.38 55.83 71.37 55.79 71.37 55.68 71.36 55.58 71.35 55.47 71.34 55.36 71.33 55.25 71.31 55.14 71.3 55.12 71.3 55.03 71.29 54.92 71.28 54.81 71.27 54.7 71.26 54.59 71.24 54.5 71.23 54.48 71.23 54.38 71.22 54.27 71.21 54.16 71.19 54.05 71.18 53.95 71.17 53.94 71.16 53.83 71.15 53.72 71.14 53.61 71.12 53.5 71.11 53.44 71.1 53.39 71.09 53.28 71.08 53.17 71.06 53.07 71.04 52.98 71.03 52.96 71.03 52.85 71.01 52.74 70.99 52.63 70.98 52.55 70.96 52.52 70.96 52.41 70.94 52.3 70.92 52.19 70.9 52.14 70.89 52.08 70.88 51.97 70.86 51.87 70.85 51.76 70.83 51.76 70.83 51.65 70.81 51.54 70.78 51.43 70.76 51.4 70.76 51.32 70.74 51.21 70.72 51.1 70.7 51.06 70.69 50.99 70.68 50.88 70.65 50.77 70.63 50.73 70.62 50.66 70.61 50.56 70.59 50.45 70.56 50.42 70.56 50.34 70.54 50.23 70.51 50.12 70.49 50.12 70.49 50.01 70.46 49.9 70.44 49.83 70.42 49.79 70.41 49.68 70.38 49.57 70.36 49.56 70.35 49.46 70.33 49.36 70.3 49.29 70.28 49.25 70.27 49.14 70.24 49.03 70.22 49.03 70.22 48.92 70.19 48.81 70.16 48.78 70.15 48.7 70.13 48.59 70.1 48.54 70.08 48.48 70.06 48.37 70.03 48.31 70.01 48.26 70 48.15 69.97 48.08 69.95 48.05 69.94 47.94 69.9 47.86 69.88 47.83 69.87 47.72 69.83 47.65 69.81 47.61 69.8 47.5 69.76 47.44 69.74 47.39 69.73 47.28 69.69 47.23 69.67 47.17 69.65 47.06 69.62 47.04 69.61 46.95 69.58 46.85 69.54 46.84 69.54 46.74 69.5 46.66 69.47 46.63 69.46 46.52 69.42 46.47 69.4 46.41 69.38 46.3 69.34 46.29 69.34 46.19 69.3 46.12 69.27 46.08 69.25 45.97 69.21 45.95 69.2 45.86 69.17 45.78 69.13 45.75 69.12 45.64 69.08 45.61 69.06 45.54 69.03 45.45 69 45.43 68.99 45.32 68.94 45.3 68.93 45.21 68.89 45.14 68.86 45.1 68.84 44.99 68.79 44.99 68.79 44.88 68.74 44.84 68.73 44.77 68.69 44.7 68.66 44.66 68.64 44.56 68.59 44.55 68.59 44.44 68.54 44.42 68.52 44.34 68.48 44.28 68.46 44.23 68.43 44.14 68.39 44.12 68.37 44.01 68.32 44.01 68.32 43.9 68.26 43.88 68.25 43.79 68.2 43.75 68.18 43.68 68.14 43.63 68.12 43.57 68.08 43.51 68.05 43.46 68.02 43.38 67.98 43.35 67.96 43.27 67.91 43.24 67.9 43.15 67.85 43.13 67.84 43.03 67.78 43.03 67.77 42.92 67.71 42.92 67.71 42.81 67.64 42.81 67.64 42.7 67.58 42.7 67.57 42.59 67.51 42.59 67.51 42.48 67.44 42.48 67.44 42.38 67.37 42.37 67.37 42.27 67.3 42.26 67.3 42.17 67.24 42.15 67.22 42.07 67.17 42.04 67.15 41.97 67.1 41.93 67.07 41.87 67.03 41.83 67 41.78 66.96 41.72 66.92 41.68 66.9 41.61 66.84 41.59 66.83 41.5 66.76 41.49 66.76 41.4 66.69 41.39 66.68 41.31 66.63 41.28 66.6 41.22 66.56 41.17 66.52 41.14 66.49 41.06 66.43 41.05 66.42 40.96 66.35 40.95 66.34 40.88 66.29 40.84 66.26 40.8 66.22 40.73 66.17 40.71 66.15 40.63 66.08 40.62 66.08 40.55 66.02 40.52 65.98 40.47 65.95 40.41 65.89 40.4 65.88 40.32 65.81 40.3 65.79 40.24 65.74 40.19 65.7 40.17 65.68 40.09 65.61 40.08 65.6 40.02 65.54 39.97 65.5 39.95 65.47 39.87 65.41 39.86 65.39 39.8 65.34 39.75 65.29 39.73 65.27 39.66 65.2 39.64 65.18 39.59 65.13 39.53 65.08 39.52 65.07 39.46 65 39.42 64.97 39.39 64.93 39.32 64.86 39.32 64.85 39.26 64.8 39.21 64.74 39.2 64.73 39.13 64.66 39.1 64.62 39.07 64.59 39.01 64.52 38.99 64.5 38.94 64.46 38.88 64.39 38.88 64.38 38.82 64.32 38.77 64.26 38.76 64.25 38.7 64.19 38.66 64.14 38.65 64.12 38.59 64.05 38.55 64.01 38.53 63.98 38.47 63.91 38.44 63.88 38.42 63.85 38.36 63.78 38.33 63.74 38.31 63.71 38.25 63.64 38.22 63.61 38.2 63.58 38.14 63.51 38.11 63.47 38.09 63.44 38.04 63.37 38.01 63.33 37.99 63.3 37.93 63.24 37.9 63.19 37.88 63.17 37.83 63.1 37.79 63.04 37.78 63.03 37.73 62.97 37.68 62.9 37.68 62.89 37.63 62.83 37.59 62.76 37.57 62.74 37.54 62.69 37.49 62.63 37.46 62.58 37.44 62.56 37.4 62.49 37.35 62.42 37.35 62.42 37.31 62.36 37.26 62.29 37.24 62.26 37.22 62.22 37.17 62.15 37.13 62.09 37.13 62.08 37.08 62.02 37.04 61.95 37.02 61.92 37 61.88 36.96 61.81 36.91 61.75 36.91 61.75 36.87 61.68 36.83 61.61 36.81 61.57 36.79 61.54 36.75 61.47 36.71 61.41 36.7 61.39 36.67 61.34 36.63 61.27 36.59 61.2 36.59 61.2 36.55 61.14 36.51 61.07 36.48 61.01 36.47 61 36.44 60.93 36.4 60.86 36.37 60.81 36.36 60.8 36.32 60.73 36.29 60.66 36.26 60.61 36.25 60.59 36.22 60.53 36.18 60.46 36.15 60.4 36.14 60.39 36.11 60.32 36.07 60.25 36.04 60.19 36.04 60.19 36.01 60.12 35.97 60.05 35.94 59.98 35.93 59.97 35.91 59.92 35.87 59.85 35.84 59.78 35.82 59.74 35.81 59.71 35.78 59.64 35.74 59.58 35.71 59.51 35.71 59.51 35.68 59.44 35.65 59.37 35.62 59.31 35.6 59.27 35.59 59.24 35.56 59.17 35.53 59.1 35.5 59.03 35.5 59.03 35.47 58.97 35.44 58.9 35.41 58.83 35.39 58.77 35.38 58.76 35.35 58.7 35.33 58.63 35.3 58.56 35.28 58.51 35.27 58.49 35.24 58.42 35.22 58.36 35.19 58.29 35.17 58.24 35.16 58.22 35.14 58.15 35.11 58.09 35.08 58.02 35.06 57.95 35.06 57.95 35.03 57.88 35.01 57.81 34.98 57.75 34.96 57.68 34.95 57.66 34.93 57.61 34.91 57.54 34.88 57.48 34.86 57.41 34.84 57.35 34.84 57.34 34.81 57.27 34.79 57.21 34.77 57.14 34.74 57.07 34.73 57.03 34.72 57 34.7 56.93 34.68 56.87 34.66 56.8 34.63 56.73 34.62 56.69 34.61 56.66 34.59 56.6 34.57 56.53 34.55 56.46 34.53 56.39 34.51 56.34 34.51 56.32 34.49 56.26 34.47 56.19 34.45 56.12 34.43 56.05 34.41 55.99 34.4 55.96 34.39 55.92 34.37 55.85 34.35 55.78 34.34 55.71 34.32 55.65 34.3 55.58 34.3 55.56 34.28 55.51 34.26 55.44 34.25 55.38 34.23 55.31 34.21 55.24 34.2 55.17 34.19 55.13 34.18 55.1 34.16 55.04 34.15 54.97 34.13 54.9 34.11 54.83 34.1 54.77 34.08 54.7 34.08 54.67 34.07 54.63 34.05 54.56 34.04 54.49 34.02 54.43 34.01 54.36 34 54.29 33.98 54.22 33.97 54.16 33.97 54.15 33.95 54.09 33.94 54.02 33.93 53.95 33.92 53.88 33.9 53.82 33.89 53.75 33.88 53.68 33.87 53.61 33.86 53.57 33.85 53.55 33.84 53.48 33.83 53.41 33.82 53.34 33.81 53.27 33.8 53.21 33.79 53.14 33.78 53.07 33.77 53 33.76 52.94 33.75 52.89 33.75 52.87 33.74 52.8 33.73 52.73 33.72 52.66 33.71 52.6 33.7 52.53 33.69 52.46 33.68 52.39 33.68 52.33 33.67 52.26 33.66 52.19 33.65 52.12 33.65 52.05 33.64 52 33.64 51.99 33.63 51.92 33.63 51.85 33.62 51.78 33.61 51.72 33.61 51.65 33.6 51.58 33.6 51.51 33.59 51.44 33.59 51.38 33.58 51.31 33.58 51.24 33.57 51.17 33.57 51.11 33.56 51.04 33.56 50.97 33.56 50.9 33.55 50.83 33.55 50.77 33.55 50.7 33.55 50.63 33.54 50.56 33.54 50.5 33.54 50.43 33.54 50.36 33.54 50.29 33.54 50.22 33.54 50.16 33.53 50.09 33.53 50.02 33.53 49.95 33.53 49.89 33.54 49.82 33.54 49.75 33.54 49.68 33.54 49.61 33.54 49.55 33.54 49.48 33.54 49.41 33.55 49.34 33.55 49.28 33.55 49.21 33.55 49.14 33.56 49.07 33.56 49 33.57 48.94 33.57 48.87 33.57 48.8 33.58 48.73 33.59 48.67 33.59 48.6 33.6 48.53 33.6 48.46 33.61 48.39 33.62 48.33 33.62 48.26 33.63 48.19 33.64 48.12 33.64 48.1 33.65 48.06 33.65 47.99 33.66 47.92 33.67 47.85 33.68 47.78 33.69 47.72 33.7 47.65 33.71 47.58 33.72 47.51 33.73 47.45 33.74 47.38 33.75 47.34 33.75 47.31 33.77 47.24 33.78 47.17 33.79 47.11 33.8 47.04 33.82 46.97 33.83 46.9 33.85 46.84 33.86 46.78 33.86 46.77 33.88 46.7 33.89 46.63 33.91 46.56 33.92 46.5 33.94 46.43 33.96 46.36 33.97 46.32 33.97 46.29 33.99 46.23 34.01 46.16 34.03 46.09 34.05 46.02 34.07 45.96 34.08 45.93 34.09 45.89 34.11 45.82 34.13 45.75 34.15 45.68 34.17 45.62 34.19 45.58 34.2 45.55 34.22 45.48 34.24 45.41 34.27 45.35 34.29 45.28 34.3 45.27 34.32 45.21 34.34 45.14 34.37 45.07 34.39 45.01 34.4 44.98 34.42 44.94 34.45 44.87 34.48 44.8 34.51 44.74 34.51 44.72 34.54 44.67 34.57 44.6 34.6 44.53 34.62 44.48 34.63 44.46 34.66 44.4 34.69 44.33 34.73 44.26 34.73 44.25 34.76 44.19 34.79 44.13 34.83 44.06 34.84 44.04 34.87 43.99 34.9 43.92 34.94 43.85 34.95 43.83 34.98 43.79 35.02 43.72 35.06 43.65 35.06 43.64 35.1 43.58 35.14 43.52 35.17 43.46 35.18 43.45 35.22 43.38 35.26 43.31 35.28 43.29 35.31 43.24 35.35 43.18 35.39 43.13 35.4 43.11 35.45 43.04 35.49 42.97 35.5 42.97 35.54 42.91 35.59 42.84 35.6 42.82 35.64 42.77 35.7 42.7 35.71 42.68 35.75 42.63 35.8 42.57 35.82 42.54 35.86 42.5 35.91 42.43 35.93 42.41 35.97 42.36 36.03 42.3 36.04 42.28 36.08 42.23 36.14 42.16 36.15 42.15 36.21 42.09 36.26 42.03 36.27 42.02 36.33 41.96 36.37 41.92 36.4 41.89 36.46 41.82 36.48 41.81 36.53 41.75 36.59 41.7 36.6 41.69 36.67 41.62 36.7 41.59 36.74 41.55 36.81 41.49 36.81 41.48 36.89 41.41 36.91 41.39 36.96 41.35 37.02 41.3 37.04 41.28 37.12 41.21 37.13 41.2 37.2 41.14 37.24 41.11 37.28 41.08 37.35 41.02 37.37 41.01 37.45 40.94 37.46 40.94 37.54 40.87 37.57 40.85 37.63 40.8 37.68 40.77 37.72 40.74 37.79 40.69 37.82 40.67 37.9 40.61 37.91 40.6 38.01 40.54 38.01 40.53 38.11 40.47 38.11 40.46 38.21 40.4 38.22 40.39 38.32 40.33 38.33 40.32 38.42 40.26 38.44 40.25 38.53 40.19 38.55 40.18 38.64 40.13 38.66 40.12 38.76 40.06 38.77 40.05 38.87 39.99 38.88 39.99 38.99 39.93 38.99 39.92 39.1 39.87 39.12 39.86 39.21 39.81 39.24 39.79 39.32 39.75 39.37 39.72 39.42 39.69 39.5 39.65 39.53 39.64 39.64 39.58 39.64 39.58 39.75 39.53 39.77 39.52 39.86 39.48 39.92 39.45 39.97 39.42 40.06 39.38 40.08 39.37 40.19 39.32 40.21 39.31 40.3 39.28 40.37 39.25 40.41 39.23 40.52 39.18 40.52 39.18 40.62 39.14 40.69 39.11 40.73 39.09 40.84 39.05 40.86 39.04 40.95 39 41.03 38.97 41.06 38.96 41.17 38.92 41.21 38.91 41.28 38.88 41.39 38.84 41.39 38.84 41.5 38.8 41.58 38.77 41.61 38.76 41.72 38.72 41.77 38.7 41.83 38.69 41.93 38.65 41.97 38.64 42.04 38.61 42.15 38.58 42.18 38.57 42.26 38.54 42.37 38.51 42.4 38.5 42.48 38.47 42.59 38.44 42.62 38.43 42.7 38.41 42.81 38.38 42.85 38.36 42.92 38.35 43.03 38.32 43.09 38.3 43.13 38.28 43.24 38.26 43.34 38.23 43.35 38.23 43.46 38.2 43.57 38.17 43.6 38.16 43.68 38.14 43.79 38.11 43.87 38.09 43.9 38.09 44.01 38.06 44.12 38.03 44.16 38.03 44.23 38.01 44.34 37.98 44.44 37.96 44.45 37.96 44.55 37.94 44.66 37.91 44.76 37.89 44.77 37.89 44.88 37.87 44.99 37.84 45.09 37.82 45.1 37.82 45.21 37.8 45.32 37.78 45.43 37.76 45.43 37.75 45.54 37.74 45.64 37.72 45.75 37.7 45.8 37.69 45.86 37.68 45.97 37.66 46.08 37.64 46.19 37.62 46.19 37.62 46.3 37.6 46.41 37.58 46.52 37.56 46.6 37.55 46.63 37.55 46.74 37.53 46.85 37.51 46.95 37.5 47.05 37.48 47.06 37.48 47.17 37.47 47.28 37.45 47.39 37.43 47.5 37.42 47.53 37.42 47.61 37.41 47.72 37.39 47.83 37.38 47.94 37.36 48.05 37.35 48.06 37.35 48.15 37.34 48.26 37.32 48.37 37.31 48.48 37.3 48.59 37.29 48.64 37.28 48.7 37.27 48.81 37.26 48.92 37.25 49.03 37.24 49.14 37.23 49.25 37.22 49.3 37.21 49.36 37.21 49.46 37.2 49.57 37.19 49.68 37.18 49.79 37.17 49.9 37.16 50.01 37.15 50.06 37.14 50.12 37.14 50.23 37.13 50.34 37.12 50.45 37.11 50.56 37.11 50.66 37.1 50.77 37.09 50.88 37.08 50.98 37.08 50.99 37.08 51.1 37.07 51.21 37.06 51.32 37.06 51.43 37.05 51.54 37.04 51.65 37.04 51.76 37.03 51.87 37.03 51.97 37.02 52.08 37.02 52.19 37.01 52.22 37.01 52.3 37.01 52.41 37 52.52 37 52.63 36.99 52.74 36.99 52.85 36.98 52.96 36.98 53.07 36.98 53.17 36.97 53.28 36.97 53.39 36.97 53.5 36.96 53.61 36.96 53.72 36.96 53.83 36.96 53.94 36.96 54.05 36.95 54.16 36.95 54.27 36.95 54.38 36.95 54.48 36.95 54.59 36.95 54.7 36.95 54.81 36.95 54.92 36.94 55.03 36.94 55.14 36.94 55.25 36.94 55.36 36.94 55.47 36.94 55.58 36.94 55.68 36.95 55.79 36.95 55.9 36.95 56.01 36.95 56.12 36.95 56.23 36.95 56.34 36.95 56.45 36.95 56.56 36.96 56.67 36.96 56.78 36.96 56.89 36.96 56.99 36.97 57.1 36.97 57.21 36.97 57.32 36.97 57.43 36.98 57.54 36.98 57.65 36.98 57.76 36.99 57.87 36.99 57.98 37 58.09 37 58.19 37 58.3 37.01 58.3 37.01 58.41 37.01 58.52 37.02 58.63 37.02 58.74 37.03 58.85 37.03 58.96 37.04 59.07 37.05 59.18 37.05 59.29 37.06 59.4 37.06 59.5 37.07 59.61 37.08 59.63 37.08 59.72 37.08 59.83 37.09 59.94 37.1 60.05 37.1 60.16 37.11 60.27 37.12 60.38 37.13 60.49 37.13 60.6 37.14 60.64 37.14 60.7 37.15 60.81 37.16 60.92 37.17 61.03 37.17 61.14 37.18 61.25 37.19 61.36 37.2 61.47 37.21 61.49 37.21 61.58 37.22 61.69 37.23 61.8 37.24 61.91 37.25 62.01 37.26 62.12 37.27 62.23 37.28 62.24 37.28 62.34 37.29 62.45 37.3 62.56 37.31 62.67 37.32 62.78 37.33 62.89 37.35 62.91 37.35 63 37.36 63.11 37.37 63.21 37.38 63.32 37.39 63.43 37.41 63.52 37.42 63.54 37.42 63.65 37.43 63.76 37.44 63.87 37.46 63.98 37.47 64.09 37.48 64.09 37.48 64.2 37.5 64.31 37.51 64.42 37.53 64.52 37.54 64.62 37.55 64.63 37.55 64.74 37.57 64.85 37.58 64.96 37.6 65.07 37.61 65.11 37.62 65.18 37.63 65.29 37.64 65.4 37.66 65.51 37.68 65.58 37.69 65.62 37.69 65.72 37.71 65.83 37.72 65.94 37.74 66.03 37.75 66.05 37.76 66.16 37.78 66.27 37.79 66.38 37.81 66.45 37.82 66.49 37.83 66.6 37.85 66.71 37.86 66.82 37.88 66.86 37.89 66.93 37.9 67.03 37.92 67.14 37.94 67.24 37.96 67.25 37.96 67.36 37.98 67.47 38 67.58 38.02 67.62 38.03 67.69 38.04 67.8 38.06 67.91 38.08 67.97 38.09 68.02 38.1 68.13 38.12 68.23 38.14 68.32 38.16 68.34 38.17 68.45 38.19 68.56 38.21 68.65 38.23 68.67 38.23 68.78 38.26 68.89 38.28 68.97 38.3 69 38.3 69.11 38.33 69.22 38.35 69.28 38.36 69.33 38.37 69.44 38.4 69.54 38.42 69.58 38.43 69.65 38.45 69.76 38.47 69.87 38.5 69.87 38.5 69.98 38.53 70.09 38.55 70.16 38.57 70.2 38.58 70.31 38.61 70.42 38.63 70.43 38.64 70.53 38.66 70.64 38.69 70.7 38.7 70.74 38.72 70.85 38.74 70.96 38.77 70.96 38.77 71.07 38.8 71.18 38.83 71.21 38.84 71.29 38.86 71.4 38.89 71.45 38.91 71.51 38.92 71.62 38.95 71.69 38.97 71.73 38.98 71.84 39.02 71.93 39.04 71.95 39.05 72.05 39.08 72.15 39.11 72.16 39.11 72.27 39.15 72.38 39.18 72.38 39.18 72.49 39.21 72.59 39.25 72.6 39.25 72.71 39.28 72.8 39.31 72.82 39.32 72.93 39.35 73.01 39.38 73.04 39.39 73.15 39.43 73.21 39.45 73.25 39.46 73.36 39.5 73.41 39.52 73.47 39.54 73.58 39.58 73.6 39.58 73.69 39.62 73.79 39.65 73.8 39.65 73.91 39.69 73.98 39.72 74.02 39.73 74.13 39.78 74.16 39.79 74.24 39.82 74.34 39.86 74.35 39.86 74.46 39.9 74.51 39.92 74.56 39.94 74.67 39.99 74.68 39.99 74.78 40.03 74.85 40.06 74.89 40.08 75 40.12 75.01 40.13 75.11 40.17 75.17 40.19 75.22 40.21 75.33 40.26 75.33 40.26 75.44 40.31 75.48 40.33 75.55 40.36 75.64 40.4 75.66 40.41 75.76 40.46 75.78 40.47 75.87 40.51 75.93 40.53 75.98 40.56 76.07 40.6 76.09 40.61 76.2 40.66 76.21 40.67 76.31 40.72 76.35 40.74 76.42 40.77 76.49 40.8 76.53 40.83 76.62 40.87 76.64 40.88 76.75 40.94 76.75 40.94 76.86 41 76.88 41.01 76.97 41.05 77 41.08 77.07 41.11 77.13 41.14 77.18 41.17 77.25 41.21 77.29 41.24 77.37 41.28 77.4 41.3 77.49 41.35 77.51 41.36 77.6 41.41 77.62 41.42 77.72 41.48 77.73 41.49 77.83 41.55 77.84 41.56 77.94 41.62 77.95 41.62 78.05 41.69 78.06 41.69 78.15 41.75 78.17 41.76 78.26 41.82 78.27 41.83 78.36 41.89 78.38 41.91 78.46 41.96 78.49 41.98 78.56 42.02 78.6 42.05 78.66 42.09 78.71 42.13 78.75 42.16 78.82 42.21 78.85 42.23 78.93 42.29 78.94 42.3 79.04 42.36 79.04 42.37 79.13 42.43 79.15 42.45 79.21 42.5 79.26 42.53 79.3 42.57 79.37 42.62 79.39 42.63 79.47 42.7 79.48 42.7 79.56 42.77 79.58 42.79 79.64 42.84 79.69 42.88 79.72 42.91 79.8 42.97 79.8 42.97 79.88 43.04 79.91 43.07 79.96 43.11 80.02 43.16 80.03 43.18 80.11 43.24 80.13 43.26 80.18 43.31 80.24 43.36 80.26 43.38 80.33 43.45 80.35 43.47 80.4 43.52 80.46 43.57 80.47 43.58 80.54 43.65 80.57 43.68 80.61 43.72 80.67 43.79 80.68 43.79 80.74 43.85 80.78 43.9 80.8 43.92 80.87 43.99 80.89 44.02 80.93 44.06 80.99 44.13 81 44.14 81.05 44.19 81.11 44.26 81.12 44.26 81.17 44.33 81.22 44.38 81.23 44.4 81.29 44.46 81.33 44.51 81.35 44.53 81.4 44.6 81.44 44.64 81.46 44.67 81.51 44.74 81.55 44.78 81.57 44.8 81.62 44.87 81.66 44.92 81.67 44.94 81.72 45.01 81.77 45.06 81.78 45.07 81.83 45.14 81.87 45.21 81.88 45.21 81.92 45.28 81.97 45.35 81.99 45.36 82.02 45.41 82.07 45.48 82.09 45.52 82.11 45.55 82.16 45.62 82.2 45.68 82.2 45.69 82.24 45.75 82.29 45.82 82.31 45.86 82.33 45.89 82.37 45.96 82.41 46.02 82.42 46.03 82.46 46.09 82.5 46.16 82.53 46.22 82.54 46.23 82.57 46.29 82.61 46.36 82.64 46.41 82.65 46.43 82.69 46.5 82.73 46.56 82.75 46.61 82.76 46.63 82.8 46.7 82.83 46.77 82.86 46.82 82.87 46.84 82.9 46.9 82.94 46.97 82.97 47.04 82.97 47.04 83 47.11 83.03 47.17 83.07 47.24 83.08 47.27 83.1 47.31 83.13 47.38 83.16 47.45 83.19 47.51 83.19 47.51 83.22 47.58 83.25 47.65 83.28 47.72 83.29 47.76 83.3 47.78 83.33 47.85 83.36 47.92 83.39 47.99 83.4 48.04 83.41 48.06 83.44 48.12 83.46 48.19 83.49 48.26 83.51 48.33 83.51 48.33 83.54 48.39 83.56 48.46 83.58 48.53 83.61 48.6 83.62 48.64 83.63 48.67 83.65 48.73 83.67 48.8 83.7 48.87 83.72 48.94 83.73 48.98 83.74 49 83.76 49.07 83.78 49.14 83.8 49.21 83.82 49.28 83.84 49.34 83.84 49.36 83.86 49.41 83.87 49.48 83.89 49.55 83.91 49.61 83.93 49.68 83.94 49.75 83.95 49.77 83.96 49.82 83.98 49.89 83.99 49.95 84.01 50.02 84.02 50.09 84.04 50.16 84.05 50.22 84.06 50.25 84.07 50.29 84.08 50.36 84.1 50.43 84.11 50.5 84.12 50.56 84.14 50.63 84.15 50.7 84.16 50.77 84.17 50.81 84.17 50.83 84.18 50.9 84.19 50.97 84.21 51.04 84.22 51.11 84.23 51.17 84.24 51.24 84.25 51.31 84.26 51.38 84.27 51.44 84.27 51.51 84.28 51.53 84.28 51.58 84.29 51.65 84.3 51.72 84.31 51.78 84.32 51.85 84.32 51.92 84.33 51.99 84.34 52.05 84.34 52.12 84.35 52.19 84.36 52.26 84.36 52.33 84.37 52.39 84.37 52.46 84.38 52.53 84.38 52.6 84.39 52.66 84.39 52.66 84.39 52.73 84.39 52.8 84.4 52.87 84.4 52.94 84.4 53 84.41 53.07 84.41 53.14 84.41 53.21 84.41 53.27 84.42 53.34 84.42 53.41 84.42 53.48 84.42 53.55 84.42 53.61 84.42 53.68 84.42 53.75 84.42 53.82 84.42 53.88 84.42 53.95 84.42 54.02 84.42 54.09 84.42 54.16 84.42 54.22 84.42 54.29 84.41 54.36 84.41 54.43 84.41 54.49 84.41 54.56 84.4 54.63 84.4 54.7 84.4 54.77 84.39 54.83 84.39 54.9 84.39 54.96 84.39 54.97 84.38 55.04 84.38 55.1 84.37 55.17 84.37 55.24 84.36 55.31 84.36 55.38 84.35 55.44 84.34 55.51 84.34 55.58 84.33 55.65 84.32 55.71 84.32 55.78 84.31 55.85 84.3 55.92 84.3 55.99 84.29 56.05 84.28 56.12 84.28 56.14 84.27 56.19 84.26 56.26 84.25 56.32 84.24 56.39 84.23 56.46 84.22 56.53 84.21 56.6 84.2 56.66 84.19 56.73 84.18 56.8 84.17 56.87 84.17 56.89 84.16 56.93 84.15 57 84.14 57.07 84.13 57.14 84.11 57.21 84.1 57.27 84.09 57.34 84.08 57.41 84.06 57.48 84.06 57.5 84.05 57.54 84.04 57.61 84.02 57.68 84.01 57.75 83.99 57.81 83.98 57.88 83.96 57.95 83.95 58.01 83.95 58.02 83.93 58.09 83.92 58.15 83.9 58.22 83.88 58.29 83.87 58.36 83.85 58.42 83.84 58.46 83.83 58.49 83.81 58.56 83.8 58.63 83.78 58.7 83.76 58.76 83.74 58.83 83.73 58.87 83.72 58.9 83.7 58.97 83.68 59.03 83.66 59.1 83.64 59.17 83.62 59.24 83.62 59.25 83.6 59.31 83.58 59.37 83.56 59.44 83.54 59.51 83.52 59.58 83.51 59.59 83.5 59.64 83.47 59.71 83.45 59.78 83.43 59.85 83.41 59.92 83.4 59.92 83.38 59.98 83.36 60.05 83.33 60.12 83.31 60.19 83.29 60.22 83.28 60.25 83.26 60.32 83.23 60.39 83.21 60.46 83.19 60.51 83.18 60.53 83.15 60.59 83.13 60.66 83.1 60.73 83.08 60.79 83.07 60.8 83.04 60.86 83.02 60.93 82.99 61 82.97 61.05 82.96 61.07 82.93 61.14 82.9 61.2 82.87 61.27 82.86 61.3 82.84 61.34 82.81 61.41 82.78 61.47 82.75 61.53 82.75 61.54 82.71 61.61 82.68 61.68 82.65 61.75 82.64 61.76 82.61 61.81 82.58 61.88 82.55 61.95 82.53 61.98 82.51 62.02 82.48 62.08 82.44 62.15 82.42 62.19 82.41 62.22 82.37 62.29 82.33 62.36 82.31 62.4 82.3 62.42 82.26 62.49 82.22 62.56 82.2 62.59 82.18 62.63 82.15 62.69 82.11 62.76 82.09 62.78 82.07 62.83 82.03 62.9 81.99 62.97 81.99 62.97 81.94 63.03 81.9 63.1 81.88 63.14 81.86 63.17 81.82 63.24 81.78 63.3 81.77 63.32 81.73 63.37 81.69 63.44 81.66 63.49 81.64 63.51 81.6 63.58 81.55 63.64 81.55 63.65 81.51 63.71 81.46 63.78 81.44 63.81 81.41 63.85 81.36 63.91 81.33 63.96 81.31 63.98 81.26 64.05 81.22 64.11 81.21 64.12 81.16 64.19 81.11 64.25 81.11 64.25 81.06 64.32 81.01 64.39 81 64.4 80.96 64.46" id="img-d6ad139f-33"/>
      </g>
      <g class="geometry" id="img-d6ad139f-34">
        <g stroke-width="0.3" id="img-d6ad139f-35">
          <use xlink:href="#img-d6ad139f-36" x="67.59" y="34.29" id="img-d6ad139f-37" class="color_accepted" fill="#00BFFF" stroke="#FFFFFF"/>
          <use xlink:href="#img-d6ad139f-36" x="61.31" y="34.68" id="img-d6ad139f-38" class="color_accepted" fill="#00BFFF" stroke="#FFFFFF"/>
          <use xlink:href="#img-d6ad139f-36" x="56.03" y="34.49" id="img-d6ad139f-39" class="color_accepted" fill="#00BFFF" stroke="#FFFFFF"/>
          <use xlink:href="#img-d6ad139f-36" x="49" y="39.63" id="img-d6ad139f-40" class="color_accepted" fill="#00BFFF" stroke="#FFFFFF"/>
          <use xlink:href="#img-d6ad139f-36" x="42.97" y="40.62" id="img-d6ad139f-41" class="color_accepted" fill="#00BFFF" stroke="#FFFFFF"/>
          <use xlink:href="#img-d6ad139f-36" x="42.47" y="47.55" id="img-d6ad139f-42" class="color_accepted" fill="#00BFFF" stroke="#FFFFFF"/>
          <use xlink:href="#img-d6ad139f-36" x="48" y="52.3" id="img-d6ad139f-43" class="color_accepted" fill="#00BFFF" stroke="#FFFFFF"/>
          <use xlink:href="#img-d6ad139f-36" x="52.01" y="58.44" id="img-d6ad139f-44" class="color_accepted" fill="#00BFFF" stroke="#FFFFFF"/>
          <use xlink:href="#img-d6ad139f-36" x="66.08" y="64.18" id="img-d6ad139f-45" class="color_accepted" fill="#00BFFF" stroke="#FFFFFF"/>
          <use xlink:href="#img-d6ad139f-36" x="71.11" y="67.15" id="img-d6ad139f-46" class="color_accepted" fill="#00BFFF" stroke="#FFFFFF"/>
          <use xlink:href="#img-d6ad139f-36" x="82.16" y="68.54" id="img-d6ad139f-47" class="color_accepted" fill="#00BFFF" stroke="#FFFFFF"/>
          <use xlink:href="#img-d6ad139f-36" x="88.44" y="67.35" id="img-d6ad139f-48" class="color_accepted" fill="#00BFFF" stroke="#FFFFFF"/>
          <use xlink:href="#img-d6ad139f-36" x="93.21" y="59.83" id="img-d6ad139f-49" class="color_accepted" fill="#00BFFF" stroke="#FFFFFF"/>
          <use xlink:href="#img-d6ad139f-36" x="97.48" y="58.24" id="img-d6ad139f-50" class="color_accepted" fill="#00BFFF" stroke="#FFFFFF"/>
          <use xlink:href="#img-d6ad139f-36" x="89.19" y="40.03" id="img-d6ad139f-51" class="color_accepted" fill="#00BFFF" stroke="#FFFFFF"/>
          <use xlink:href="#img-d6ad139f-36" x="79.4" y="37.46" id="img-d6ad139f-52" class="color_accepted" fill="#00BFFF" stroke="#FFFFFF"/>
          <use xlink:href="#img-d6ad139f-36" x="72.61" y="38.64" id="img-d6ad139f-53" class="color_accepted" fill="#00BFFF" stroke="#FFFFFF"/>
          <use xlink:href="#img-d6ad139f-36" x="63.32" y="31.12" id="img-d6ad139f-54" class="color_accepted" fill="#00BFFF" stroke="#FFFFFF"/>
          <use xlink:href="#img-d6ad139f-36" x="57.79" y="34.29" id="img-d6ad139f-55" class="color_accepted" fill="#00BFFF" stroke="#FFFFFF"/>
          <use xlink:href="#img-d6ad139f-36" x="44.48" y="36.07" id="img-d6ad139f-56" class="color_accepted" fill="#00BFFF" stroke="#FFFFFF"/>
          <use xlink:href="#img-d6ad139f-36" x="38.95" y="37.06" id="img-d6ad139f-57" class="color_accepted" fill="#00BFFF" stroke="#FFFFFF"/>
          <use xlink:href="#img-d6ad139f-36" x="37.95" y="44.19" id="img-d6ad139f-58" class="color_accepted" fill="#00BFFF" stroke="#FFFFFF"/>
          <use xlink:href="#img-d6ad139f-36" x="39.45" y="53.1" id="img-d6ad139f-59" class="color_accepted" fill="#00BFFF" stroke="#FFFFFF"/>
          <use xlink:href="#img-d6ad139f-36" x="46.99" y="60.62" id="img-d6ad139f-60" class="color_accepted" fill="#00BFFF" stroke="#FFFFFF"/>
          <use xlink:href="#img-d6ad139f-36" x="60.3" y="63.98" id="img-d6ad139f-61" class="color_accepted" fill="#00BFFF" stroke="#FFFFFF"/>
          <use xlink:href="#img-d6ad139f-36" x="74.12" y="69.53" id="img-d6ad139f-62" class="color_accepted" fill="#00BFFF" stroke="#FFFFFF"/>
          <use xlink:href="#img-d6ad139f-36" x="85.68" y="67.74" id="img-d6ad139f-63" class="color_accepted" fill="#00BFFF" stroke="#FFFFFF"/>
          <use xlink:href="#img-d6ad139f-36" x="94.72" y="67.74" id="img-d6ad139f-64" class="color_accepted" fill="#00BFFF" stroke="#FFFFFF"/>
          <use xlink:href="#img-d6ad139f-36" x="59.3" y="38.45" id="img-d6ad139f-65" class="color_accepted" fill="#00BFFF" stroke="#FFFFFF"/>
          <use xlink:href="#img-d6ad139f-36" x="52.52" y="32.11" id="img-d6ad139f-66" class="color_accepted" fill="#00BFFF" stroke="#FFFFFF"/>
          <use xlink:href="#img-d6ad139f-36" x="53.77" y="27.16" id="img-d6ad139f-67" class="color_accepted" fill="#00BFFF" stroke="#FFFFFF"/>
          <use xlink:href="#img-d6ad139f-36" x="58.29" y="31.52" id="img-d6ad139f-68" class="color_accepted" fill="#00BFFF" stroke="#FFFFFF"/>
          <use xlink:href="#img-d6ad139f-36" x="57.79" y="35.67" id="img-d6ad139f-69" class="color_accepted" fill="#00BFFF" stroke="#FFFFFF"/>
          <use xlink:href="#img-d6ad139f-36" x="53.02" y="40.43" id="img-d6ad139f-70" class="color_accepted" fill="#00BFFF" stroke="#FFFFFF"/>
          <use xlink:href="#img-d6ad139f-36" x="49.5" y="44.78" id="img-d6ad139f-71" class="color_accepted" fill="#00BFFF" stroke="#FFFFFF"/>
          <use xlink:href="#img-d6ad139f-36" x="52.27" y="52.5" id="img-d6ad139f-72" class="color_accepted" fill="#00BFFF" stroke="#FFFFFF"/>
          <use xlink:href="#img-d6ad139f-36" x="55.03" y="59.03" id="img-d6ad139f-73" class="color_accepted" fill="#00BFFF" stroke="#FFFFFF"/>
          <use xlink:href="#img-d6ad139f-36" x="62.57" y="58.24" id="img-d6ad139f-74" class="color_accepted" fill="#00BFFF" stroke="#FFFFFF"/>
          <use xlink:href="#img-d6ad139f-36" x="68.09" y="57.65" id="img-d6ad139f-75" class="color_accepted" fill="#00BFFF" stroke="#FFFFFF"/>
          <use xlink:href="#img-d6ad139f-36" x="75.38" y="64.38" id="img-d6ad139f-76" class="color_accepted" fill="#00BFFF" stroke="#FFFFFF"/>
          <use xlink:href="#img-d6ad139f-36" x="78.14" y="59.43" id="img-d6ad139f-77" class="color_accepted" fill="#00BFFF" stroke="#FFFFFF"/>
          <use xlink:href="#img-d6ad139f-36" x="86.43" y="58.24" id="img-d6ad139f-78" class="color_accepted" fill="#00BFFF" stroke="#FFFFFF"/>
          <use xlink:href="#img-d6ad139f-36" x="93.46" y="57.05" id="img-d6ad139f-79" class="color_accepted" fill="#00BFFF" stroke="#FFFFFF"/>
          <use xlink:href="#img-d6ad139f-36" x="85.42" y="52.9" id="img-d6ad139f-80" class="color_accepted" fill="#00BFFF" stroke="#FFFFFF"/>
          <use xlink:href="#img-d6ad139f-36" x="92.71" y="48.94" id="img-d6ad139f-81" class="color_accepted" fill="#00BFFF" stroke="#FFFFFF"/>
          <use xlink:href="#img-d6ad139f-36" x="90.45" y="45.97" id="img-d6ad139f-82" class="color_accepted" fill="#00BFFF" stroke="#FFFFFF"/>
          <use xlink:href="#img-d6ad139f-36" x="96.98" y="41.22" id="img-d6ad139f-83" class="color_accepted" fill="#00BFFF" stroke="#FFFFFF"/>
          <use xlink:href="#img-d6ad139f-36" x="75.13" y="39.04" id="img-d6ad139f-84" class="color_accepted" fill="#00BFFF" stroke="#FFFFFF"/>
          <use xlink:href="#img-d6ad139f-36" x="84.67" y="35.08" id="img-d6ad139f-85" class="color_accepted" fill="#00BFFF" stroke="#FFFFFF"/>
          <use xlink:href="#img-d6ad139f-36" x="79.4" y="34.49" id="img-d6ad139f-86" class="color_accepted" fill="#00BFFF" stroke="#FFFFFF"/>
          <use xlink:href="#img-d6ad139f-36" x="71.36" y="37.65" id="img-d6ad139f-87" class="color_accepted" fill="#00BFFF" stroke="#FFFFFF"/>
          <use xlink:href="#img-d6ad139f-36" x="65.08" y="42.41" id="img-d6ad139f-88" class="color_accepted" fill="#00BFFF" stroke="#FFFFFF"/>
          <use xlink:href="#img-d6ad139f-36" x="61.31" y="38.25" id="img-d6ad139f-89" class="color_accepted" fill="#00BFFF" stroke="#FFFFFF"/>
          <use xlink:href="#img-d6ad139f-36" x="56.29" y="43.59" id="img-d6ad139f-90" class="color_accepted" fill="#00BFFF" stroke="#FFFFFF"/>
          <use xlink:href="#img-d6ad139f-36" x="56.29" y="48.54" id="img-d6ad139f-91" class="color_accepted" fill="#00BFFF" stroke="#FFFFFF"/>
          <use xlink:href="#img-d6ad139f-36" x="46.24" y="47.35" id="img-d6ad139f-92" class="color_accepted" fill="#00BFFF" stroke="#FFFFFF"/>
          <use xlink:href="#img-d6ad139f-36" x="55.78" y="53.69" id="img-d6ad139f-93" class="color_accepted" fill="#00BFFF" stroke="#FFFFFF"/>
          <use xlink:href="#img-d6ad139f-36" x="59.3" y="60.62" id="img-d6ad139f-94" class="color_accepted" fill="#00BFFF" stroke="#FFFFFF"/>
          <use xlink:href="#img-d6ad139f-36" x="73.37" y="27.95" id="img-d6ad139f-95" class="color_rejected" fill="#FFB6C1" stroke="#FFFFFF"/>
          <use xlink:href="#img-d6ad139f-36" x="75.13" y="32.11" id="img-d6ad139f-96" class="color_rejected" fill="#FFB6C1" stroke="#FFFFFF"/>
          <use xlink:href="#img-d6ad139f-36" x="78.39" y="36.47" id="img-d6ad139f-97" class="color_rejected" fill="#FFB6C1" stroke="#FFFFFF"/>
          <use xlink:href="#img-d6ad139f-36" x="87.43" y="32.7" id="img-d6ad139f-98" class="color_rejected" fill="#FFB6C1" stroke="#FFFFFF"/>
          <use xlink:href="#img-d6ad139f-36" x="92.21" y="33.5" id="img-d6ad139f-99" class="color_rejected" fill="#FFB6C1" stroke="#FFFFFF"/>
          <use xlink:href="#img-d6ad139f-36" x="91.7" y="37.06" id="img-d6ad139f-100" class="color_rejected" fill="#FFB6C1" stroke="#FFFFFF"/>
          <use xlink:href="#img-d6ad139f-36" x="98.74" y="39.63" id="img-d6ad139f-101" class="color_rejected" fill="#FFB6C1" stroke="#FFFFFF"/>
          <use xlink:href="#img-d6ad139f-36" x="105.77" y="43.4" id="img-d6ad139f-102" class="color_rejected" fill="#FFB6C1" stroke="#FFFFFF"/>
          <use xlink:href="#img-d6ad139f-36" x="101.25" y="45.77" id="img-d6ad139f-103" class="color_rejected" fill="#FFB6C1" stroke="#FFFFFF"/>
          <use xlink:href="#img-d6ad139f-36" x="107.28" y="50.92" id="img-d6ad139f-104" class="color_rejected" fill="#FFB6C1" stroke="#FFFFFF"/>
          <use xlink:href="#img-d6ad139f-36" x="106.27" y="52.9" id="img-d6ad139f-105" class="color_rejected" fill="#FFB6C1" stroke="#FFFFFF"/>
          <use xlink:href="#img-d6ad139f-36" x="103.01" y="55.47" id="img-d6ad139f-106" class="color_rejected" fill="#FFB6C1" stroke="#FFFFFF"/>
          <use xlink:href="#img-d6ad139f-36" x="104.52" y="58.84" id="img-d6ad139f-107" class="color_rejected" fill="#FFB6C1" stroke="#FFFFFF"/>
          <use xlink:href="#img-d6ad139f-36" x="102.51" y="63.19" id="img-d6ad139f-108" class="color_rejected" fill="#FFB6C1" stroke="#FFFFFF"/>
          <use xlink:href="#img-d6ad139f-36" x="101.5" y="67.35" id="img-d6ad139f-109" class="color_rejected" fill="#FFB6C1" stroke="#FFFFFF"/>
          <use xlink:href="#img-d6ad139f-36" x="99.99" y="68.34" id="img-d6ad139f-110" class="color_rejected" fill="#FFB6C1" stroke="#FFFFFF"/>
          <use xlink:href="#img-d6ad139f-36" x="91.2" y="73.29" id="img-d6ad139f-111" class="color_rejected" fill="#FFB6C1" stroke="#FFFFFF"/>
          <use xlink:href="#img-d6ad139f-36" x="87.94" y="69.33" id="img-d6ad139f-112" class="color_rejected" fill="#FFB6C1" stroke="#FFFFFF"/>
          <use xlink:href="#img-d6ad139f-36" x="85.68" y="64.58" id="img-d6ad139f-113" class="color_rejected" fill="#FFB6C1" stroke="#FFFFFF"/>
          <use xlink:href="#img-d6ad139f-36" x="80.65" y="68.93" id="img-d6ad139f-114" class="color_rejected" fill="#FFB6C1" stroke="#FFFFFF"/>
          <use xlink:href="#img-d6ad139f-36" x="77.89" y="74.08" id="img-d6ad139f-115" class="color_rejected" fill="#FFB6C1" stroke="#FFFFFF"/>
          <use xlink:href="#img-d6ad139f-36" x="69.1" y="73.68" id="img-d6ad139f-116" class="color_rejected" fill="#FFB6C1" stroke="#FFFFFF"/>
          <use xlink:href="#img-d6ad139f-36" x="71.86" y="68.93" id="img-d6ad139f-117" class="color_rejected" fill="#FFB6C1" stroke="#FFFFFF"/>
          <use xlink:href="#img-d6ad139f-36" x="59.55" y="65.37" id="img-d6ad139f-118" class="color_rejected" fill="#FFB6C1" stroke="#FFFFFF"/>
          <use xlink:href="#img-d6ad139f-36" x="47.49" y="64.38" id="img-d6ad139f-119" class="color_rejected" fill="#FFB6C1" stroke="#FFFFFF"/>
          <use xlink:href="#img-d6ad139f-36" x="48.25" y="60.22" id="img-d6ad139f-120" class="color_rejected" fill="#FFB6C1" stroke="#FFFFFF"/>
          <use xlink:href="#img-d6ad139f-36" x="32.92" y="60.22" id="img-d6ad139f-121" class="color_rejected" fill="#FFB6C1" stroke="#FFFFFF"/>
          <use xlink:href="#img-d6ad139f-36" x="34.93" y="52.11" id="img-d6ad139f-122" class="color_rejected" fill="#FFB6C1" stroke="#FFFFFF"/>
          <use xlink:href="#img-d6ad139f-36" x="32.42" y="45.37" id="img-d6ad139f-123" class="color_rejected" fill="#FFB6C1" stroke="#FFFFFF"/>
          <use xlink:href="#img-d6ad139f-36" x="34.93" y="34.68" id="img-d6ad139f-124" class="color_rejected" fill="#FFB6C1" stroke="#FFFFFF"/>
          <use xlink:href="#img-d6ad139f-36" x="47.74" y="34.09" id="img-d6ad139f-125" class="color_rejected" fill="#FFB6C1" stroke="#FFFFFF"/>
          <use xlink:href="#img-d6ad139f-36" x="48.75" y="28.35" id="img-d6ad139f-126" class="color_rejected" fill="#FFB6C1" stroke="#FFFFFF"/>
          <use xlink:href="#img-d6ad139f-36" x="43.22" y="28.75" id="img-d6ad139f-127" class="color_rejected" fill="#FFB6C1" stroke="#FFFFFF"/>
          <use xlink:href="#img-d6ad139f-36" x="41.46" y="34.09" id="img-d6ad139f-128" class="color_rejected" fill="#FFB6C1" stroke="#FFFFFF"/>
          <use xlink:href="#img-d6ad139f-36" x="69.85" y="32.11" id="img-d6ad139f-129" class="color_rejected" fill="#FFB6C1" stroke="#FFFFFF"/>
          <use xlink:href="#img-d6ad139f-36" x="67.84" y="28.35" id="img-d6ad139f-130" class="color_rejected" fill="#FFB6C1" stroke="#FFFFFF"/>
          <use xlink:href="#img-d6ad139f-36" x="60.81" y="26.37" id="img-d6ad139f-131" class="color_rejected" fill="#FFB6C1" stroke="#FFFFFF"/>
          <use xlink:href="#img-d6ad139f-36" x="61.81" y="23.2" id="img-d6ad139f-132" class="color_rejected" fill="#FFB6C1" stroke="#FFFFFF"/>
          <use xlink:href="#img-d6ad139f-36" x="77.89" y="23.8" id="img-d6ad139f-133" class="color_rejected" fill="#FFB6C1" stroke="#FFFFFF"/>
          <use xlink:href="#img-d6ad139f-36" x="82.66" y="30.92" id="img-d6ad139f-134" class="color_rejected" fill="#FFB6C1" stroke="#FFFFFF"/>
          <use xlink:href="#img-d6ad139f-36" x="93.21" y="29.14" id="img-d6ad139f-135" class="color_rejected" fill="#FFB6C1" stroke="#FFFFFF"/>
          <use xlink:href="#img-d6ad139f-36" x="101.25" y="35.28" id="img-d6ad139f-136" class="color_rejected" fill="#FFB6C1" stroke="#FFFFFF"/>
          <use xlink:href="#img-d6ad139f-36" x="94.72" y="35.87" id="img-d6ad139f-137" class="color_rejected" fill="#FFB6C1" stroke="#FFFFFF"/>
          <use xlink:href="#img-d6ad139f-36" x="112.05" y="50.52" id="img-d6ad139f-138" class="color_rejected" fill="#FFB6C1" stroke="#FFFFFF"/>
          <use xlink:href="#img-d6ad139f-36" x="63.32" y="68.93" id="img-d6ad139f-139" class="color_rejected" fill="#FFB6C1" stroke="#FFFFFF"/>
          <use xlink:href="#img-d6ad139f-36" x="55.03" y="70.52" id="img-d6ad139f-140" class="color_rejected" fill="#FFB6C1" stroke="#FFFFFF"/>
          <use xlink:href="#img-d6ad139f-36" x="58.8" y="63.19" id="img-d6ad139f-141" class="color_rejected" fill="#FFB6C1" stroke="#FFFFFF"/>
          <use xlink:href="#img-d6ad139f-36" x="43.98" y="61.41" id="img-d6ad139f-142" class="color_rejected" fill="#FFB6C1" stroke="#FFFFFF"/>
          <use xlink:href="#img-d6ad139f-36" x="44.98" y="56.86" id="img-d6ad139f-143" class="color_rejected" fill="#FFB6C1" stroke="#FFFFFF"/>
          <use xlink:href="#img-d6ad139f-36" x="52.77" y="54.88" id="img-d6ad139f-144" class="color_rejected" fill="#FFB6C1" stroke="#FFFFFF"/>
          <use xlink:href="#img-d6ad139f-36" x="38.7" y="55.07" id="img-d6ad139f-145" class="color_rejected" fill="#FFB6C1" stroke="#FFFFFF"/>
          <use xlink:href="#img-d6ad139f-36" x="36.44" y="59.03" id="img-d6ad139f-146" class="color_rejected" fill="#FFB6C1" stroke="#FFFFFF"/>
          <use xlink:href="#img-d6ad139f-36" x="39.2" y="64.58" id="img-d6ad139f-147" class="color_rejected" fill="#FFB6C1" stroke="#FFFFFF"/>
          <use xlink:href="#img-d6ad139f-36" x="33.68" y="55.47" id="img-d6ad139f-148" class="color_rejected" fill="#FFB6C1" stroke="#FFFFFF"/>
          <use xlink:href="#img-d6ad139f-36" x="29.16" y="44.78" id="img-d6ad139f-149" class="color_rejected" fill="#FFB6C1" stroke="#FFFFFF"/>
          <use xlink:href="#img-d6ad139f-36" x="33.93" y="38.64" id="img-d6ad139f-150" class="color_rejected" fill="#FFB6C1" stroke="#FFFFFF"/>
          <use xlink:href="#img-d6ad139f-36" x="39.45" y="39.83" id="img-d6ad139f-151" class="color_rejected" fill="#FFB6C1" stroke="#FFFFFF"/>
          <use xlink:href="#img-d6ad139f-36" x="44.23" y="26.17" id="img-d6ad139f-152" class="color_rejected" fill="#FFB6C1" stroke="#FFFFFF"/>
          <use xlink:href="#img-d6ad139f-36" x="65.08" y="26.17" id="img-d6ad139f-153" class="color_rejected" fill="#FFB6C1" stroke="#FFFFFF"/>
          <use xlink:href="#img-d6ad139f-36" x="92.94" y="54.06" id="img-d6ad139f-154" class="color_rejected" fill="#FFB6C1" stroke="#FFFFFF"/>
        </g>
      </g>
    </g>
  </g>
</g>
  <g class="guide ylabels" font-size="2.82" font-family="'PT Sans Caption','Helvetica Neue','Helvetica',sans-serif" fill="#6C606B" id="img-d6ad139f-155">
    <text x="18.74" y="80.32" text-anchor="end" dy="0.35em" id="img-d6ad139f-156">-1.0</text>
    <text x="18.74" y="66.77" text-anchor="end" dy="0.35em" id="img-d6ad139f-157">-0.5</text>
    <text x="18.74" y="53.23" text-anchor="end" dy="0.35em" id="img-d6ad139f-158">0.0</text>
    <text x="18.74" y="39.69" text-anchor="end" dy="0.35em" id="img-d6ad139f-159">0.5</text>
    <text x="18.74" y="26.15" text-anchor="end" dy="0.35em" id="img-d6ad139f-160">1.0</text>
    <text x="18.74" y="12.61" text-anchor="end" dy="0.35em" id="img-d6ad139f-161">1.5</text>
  </g>
  <g font-size="3.88" font-family="'PT Sans','Helvetica Neue','Helvetica',sans-serif" fill="#564A55" stroke="#000000" stroke-opacity="0.000" id="img-d6ad139f-162">
    <text x="8.81" y="44.46" text-anchor="middle" dy="0.35em" transform="rotate(-90, 8.81, 46.46)" id="img-d6ad139f-163">test2</text>
  </g>
  <g font-size="3.88" font-family="'PT Sans','Helvetica Neue','Helvetica',sans-serif" fill="#564A55" stroke="#000000" stroke-opacity="0.000" id="img-d6ad139f-164">
    <text x="76.26" y="5" text-anchor="middle" dy="0.6em" id="img-d6ad139f-165">Regularization with λ = 100</text>
  </g>
</g>
<defs>
  <clipPath id="img-d6ad139f-13">
  <path d="M19.75,10.61 L 132.77 10.61 132.77 82.32 19.75 82.32" />
</clipPath>
  <g id="img-d6ad139f-36">
    <circle cx="0" cy="0" r="0.9" id="img-d6ad139f-166"/>
  </g>
</defs>
</svg>
