<?xml version="1.0" encoding="UTF-8"?>
<svg xmlns="http://www.w3.org/2000/svg"
     xmlns:xlink="http://www.w3.org/1999/xlink"
     xmlns:gadfly="http://www.gadflyjl.org/ns"
     version="1.2"
     width="152.4mm" height="101.6mm" viewBox="0 0 152.4 101.6"
     stroke="none"
     fill="#000000"
     stroke-width="0.3"
     font-size="3.88"
>
<g class="plotroot xscalable yscalable" id="img-1bbd2441-1">
  <g font-size="3.88" font-family="'PT Sans','Helvetica Neue','Helvetica',sans-serif" fill="#564A55" stroke="#000000" stroke-opacity="0.000" id="img-1bbd2441-2">
    <text x="72.6" y="89.99" text-anchor="middle" dy="0.6em">exam1</text>
  </g>
  <g class="guide xlabels" font-size="2.82" font-family="'PT Sans Caption','Helvetica Neue','Helvetica',sans-serif" fill="#6C606B" id="img-1bbd2441-3">
    <text x="19.83" y="83.32" text-anchor="middle" dy="0.6em">0</text>
    <text x="72.6" y="83.32" text-anchor="middle" dy="0.6em">50</text>
    <text x="125.37" y="83.32" text-anchor="middle" dy="0.6em">100</text>
  </g>
  <g class="guide colorkey" id="img-1bbd2441-4">
    <g fill="#4C404B" font-size="2.82" font-family="'PT Sans','Helvetica Neue','Helvetica',sans-serif" id="img-1bbd2441-5">
      <text x="131.18" y="43.66" dy="0.35em" id="img-1bbd2441-6" class="color_Not_Admitted">Not Admitted</text>
      <text x="131.18" y="47.28" dy="0.35em" id="img-1bbd2441-7" class="color_Admitted">Admitted</text>
    </g>
    <g stroke="#000000" stroke-opacity="0.000" id="img-1bbd2441-8">
      <rect x="128.37" y="42.75" width="1.81" height="1.81" id="img-1bbd2441-9" class="color_Not_Admitted" fill="#00BFFF"/>
      <rect x="128.37" y="46.38" width="1.81" height="1.81" id="img-1bbd2441-10" class="color_Admitted" fill="#FFB6C1"/>
    </g>
    <g fill="#362A35" font-size="3.88" font-family="'PT Sans','Helvetica Neue','Helvetica',sans-serif" stroke="#000000" stroke-opacity="0.000" id="img-1bbd2441-11">
      <text x="128.37" y="39.84" id="img-1bbd2441-12">admission</text>
    </g>
  </g>
<g clip-path="url(#img-1bbd2441-13)">
  <g id="img-1bbd2441-14">
    <g pointer-events="visible" opacity="1" fill="#000000" fill-opacity="0.000" stroke="#000000" stroke-opacity="0.000" class="guide background" id="img-1bbd2441-15">
      <rect x="17.83" y="5" width="109.54" height="77.32" id="img-1bbd2441-16"/>
    </g>
    <g class="guide ygridlines xfixed" stroke-dasharray="0.5,0.5" stroke-width="0.2" stroke="#D0D0E0" id="img-1bbd2441-17">
      <path fill="none" d="M17.83,80.32 L 127.37 80.32" id="img-1bbd2441-18"/>
      <path fill="none" d="M17.83,43.66 L 127.37 43.66" id="img-1bbd2441-19"/>
      <path fill="none" d="M17.83,7 L 127.37 7" id="img-1bbd2441-20"/>
    </g>
    <g class="guide xgridlines yfixed" stroke-dasharray="0.5,0.5" stroke-width="0.2" stroke="#D0D0E0" id="img-1bbd2441-21">
      <path fill="none" d="M19.83,5 L 19.83 82.32" id="img-1bbd2441-22"/>
      <path fill="none" d="M72.6,5 L 72.6 82.32" id="img-1bbd2441-23"/>
      <path fill="none" d="M125.37,5 L 125.37 82.32" id="img-1bbd2441-24"/>
    </g>
    <g class="plotpanel" id="img-1bbd2441-25">
      <g class="geometry" id="img-1bbd2441-26">
        <g stroke-width="0.3" id="img-1bbd2441-27">
          <use xlink:href="#img-1bbd2441-28" x="56.37" y="23.11" id="img-1bbd2441-29" class="color_Not_Admitted" fill="#00BFFF" stroke="#FFFFFF"/>
          <use xlink:href="#img-1bbd2441-28" x="51.79" y="48.13" id="img-1bbd2441-30" class="color_Not_Admitted" fill="#00BFFF" stroke="#FFFFFF"/>
          <use xlink:href="#img-1bbd2441-28" x="57.66" y="26.87" id="img-1bbd2441-31" class="color_Not_Admitted" fill="#00BFFF" stroke="#FFFFFF"/>
          <use xlink:href="#img-1bbd2441-28" x="83.34" y="17.04" id="img-1bbd2441-32" class="color_Admitted" fill="#FFB6C1" stroke="#FFFFFF"/>
          <use xlink:href="#img-1bbd2441-28" x="103.24" y="25.08" id="img-1bbd2441-33" class="color_Admitted" fill="#FFB6C1" stroke="#FFFFFF"/>
          <use xlink:href="#img-1bbd2441-28" x="67.41" y="39.03" id="img-1bbd2441-34" class="color_Not_Admitted" fill="#00BFFF" stroke="#FFFFFF"/>
          <use xlink:href="#img-1bbd2441-28" x="84.32" y="9.56" id="img-1bbd2441-35" class="color_Admitted" fill="#FFB6C1" stroke="#FFFFFF"/>
          <use xlink:href="#img-1bbd2441-28" x="99.01" y="46.18" id="img-1bbd2441-36" class="color_Admitted" fill="#FFB6C1" stroke="#FFFFFF"/>
          <use xlink:href="#img-1bbd2441-28" x="100.14" y="16.22" id="img-1bbd2441-37" class="color_Admitted" fill="#FFB6C1" stroke="#FFFFFF"/>
          <use xlink:href="#img-1bbd2441-28" x="108.94" y="48.4" id="img-1bbd2441-38" class="color_Admitted" fill="#FFB6C1" stroke="#FFFFFF"/>
          <use xlink:href="#img-1bbd2441-28" x="121" y="52.29" id="img-1bbd2441-39" class="color_Not_Admitted" fill="#00BFFF" stroke="#FFFFFF"/>
          <use xlink:href="#img-1bbd2441-28" x="99" y="57.88" id="img-1bbd2441-40" class="color_Not_Admitted" fill="#00BFFF" stroke="#FFFFFF"/>
          <use xlink:href="#img-1bbd2441-28" x="106.69" y="24.24" id="img-1bbd2441-41" class="color_Admitted" fill="#FFB6C1" stroke="#FFFFFF"/>
          <use xlink:href="#img-1bbd2441-28" x="93.03" y="8.67" id="img-1bbd2441-42" class="color_Admitted" fill="#FFB6C1" stroke="#FFFFFF"/>
          <use xlink:href="#img-1bbd2441-28" x="61.55" y="24.57" id="img-1bbd2441-43" class="color_Not_Admitted" fill="#00BFFF" stroke="#FFFFFF"/>
          <use xlink:href="#img-1bbd2441-28" x="76.79" y="14.91" id="img-1bbd2441-44" class="color_Admitted" fill="#FFB6C1" stroke="#FFFFFF"/>
          <use xlink:href="#img-1bbd2441-28" x="92.72" y="41.65" id="img-1bbd2441-45" class="color_Admitted" fill="#FFB6C1" stroke="#FFFFFF"/>
          <use xlink:href="#img-1bbd2441-28" x="91.54" y="46.09" id="img-1bbd2441-46" class="color_Not_Admitted" fill="#00BFFF" stroke="#FFFFFF"/>
          <use xlink:href="#img-1bbd2441-28" x="94.4" y="12.19" id="img-1bbd2441-47" class="color_Admitted" fill="#FFB6C1" stroke="#FFFFFF"/>
          <use xlink:href="#img-1bbd2441-28" x="101.07" y="45.43" id="img-1bbd2441-48" class="color_Admitted" fill="#FFB6C1" stroke="#FFFFFF"/>
          <use xlink:href="#img-1bbd2441-28" x="90.93" y="48.91" id="img-1bbd2441-49" class="color_Not_Admitted" fill="#00BFFF" stroke="#FFFFFF"/>
          <use xlink:href="#img-1bbd2441-28" x="114.47" y="32.07" id="img-1bbd2441-50" class="color_Admitted" fill="#FFB6C1" stroke="#FFFFFF"/>
          <use xlink:href="#img-1bbd2441-28" x="73.16" y="44.5" id="img-1bbd2441-51" class="color_Not_Admitted" fill="#00BFFF" stroke="#FFFFFF"/>
          <use xlink:href="#img-1bbd2441-28" x="55.93" y="47.9" id="img-1bbd2441-52" class="color_Not_Admitted" fill="#00BFFF" stroke="#FFFFFF"/>
          <use xlink:href="#img-1bbd2441-28" x="102.07" y="29.75" id="img-1bbd2441-53" class="color_Admitted" fill="#FFB6C1" stroke="#FFFFFF"/>
          <use xlink:href="#img-1bbd2441-28" x="85.55" y="29.03" id="img-1bbd2441-54" class="color_Admitted" fill="#FFB6C1" stroke="#FFFFFF"/>
          <use xlink:href="#img-1bbd2441-28" x="104.46" y="47.45" id="img-1bbd2441-55" class="color_Admitted" fill="#FFB6C1" stroke="#FFFFFF"/>
          <use xlink:href="#img-1bbd2441-28" x="118.1" y="51.87" id="img-1bbd2441-56" class="color_Not_Admitted" fill="#00BFFF" stroke="#FFFFFF"/>
          <use xlink:href="#img-1bbd2441-28" x="85.08" y="43.47" id="img-1bbd2441-57" class="color_Not_Admitted" fill="#00BFFF" stroke="#FFFFFF"/>
          <use xlink:href="#img-1bbd2441-28" x="60.76" y="32.66" id="img-1bbd2441-58" class="color_Not_Admitted" fill="#00BFFF" stroke="#FFFFFF"/>
          <use xlink:href="#img-1bbd2441-28" x="84.61" y="26.94" id="img-1bbd2441-59" class="color_Admitted" fill="#FFB6C1" stroke="#FFFFFF"/>
          <use xlink:href="#img-1bbd2441-28" x="109.96" y="38.49" id="img-1bbd2441-60" class="color_Admitted" fill="#FFB6C1" stroke="#FFFFFF"/>
          <use xlink:href="#img-1bbd2441-28" x="74.82" y="34.03" id="img-1bbd2441-61" class="color_Not_Admitted" fill="#00BFFF" stroke="#FFFFFF"/>
          <use xlink:href="#img-1bbd2441-28" x="74.75" y="29.41" id="img-1bbd2441-62" class="color_Admitted" fill="#FFB6C1" stroke="#FFFFFF"/>
          <use xlink:href="#img-1bbd2441-28" x="62.29" y="28.14" id="img-1bbd2441-63" class="color_Not_Admitted" fill="#00BFFF" stroke="#FFFFFF"/>
          <use xlink:href="#img-1bbd2441-28" x="77.49" y="42.03" id="img-1bbd2441-64" class="color_Not_Admitted" fill="#00BFFF" stroke="#FFFFFF"/>
          <use xlink:href="#img-1bbd2441-28" x="55.62" y="7.83" id="img-1bbd2441-65" class="color_Not_Admitted" fill="#00BFFF" stroke="#FFFFFF"/>
          <use xlink:href="#img-1bbd2441-28" x="87.56" y="21" id="img-1bbd2441-66" class="color_Admitted" fill="#FFB6C1" stroke="#FFFFFF"/>
          <use xlink:href="#img-1bbd2441-28" x="98.76" y="49.84" id="img-1bbd2441-67" class="color_Not_Admitted" fill="#00BFFF" stroke="#FFFFFF"/>
          <use xlink:href="#img-1bbd2441-28" x="55.9" y="25.15" id="img-1bbd2441-68" class="color_Not_Admitted" fill="#00BFFF" stroke="#FFFFFF"/>
          <use xlink:href="#img-1bbd2441-28" x="108.38" y="39.03" id="img-1bbd2441-69" class="color_Admitted" fill="#FFB6C1" stroke="#FFFFFF"/>
          <use xlink:href="#img-1bbd2441-28" x="74.23" y="45.96" id="img-1bbd2441-70" class="color_Not_Admitted" fill="#00BFFF" stroke="#FFFFFF"/>
          <use xlink:href="#img-1bbd2441-28" x="119.5" y="32.24" id="img-1bbd2441-71" class="color_Admitted" fill="#FFB6C1" stroke="#FFFFFF"/>
          <use xlink:href="#img-1bbd2441-28" x="106.76" y="50.54" id="img-1bbd2441-72" class="color_Not_Admitted" fill="#00BFFF" stroke="#FFFFFF"/>
          <use xlink:href="#img-1bbd2441-28" x="73.7" y="46.72" id="img-1bbd2441-73" class="color_Not_Admitted" fill="#00BFFF" stroke="#FFFFFF"/>
          <use xlink:href="#img-1bbd2441-28" x="85.5" y="42.15" id="img-1bbd2441-74" class="color_Not_Admitted" fill="#00BFFF" stroke="#FFFFFF"/>
          <use xlink:href="#img-1bbd2441-28" x="101.3" y="28.66" id="img-1bbd2441-75" class="color_Admitted" fill="#FFB6C1" stroke="#FFFFFF"/>
          <use xlink:href="#img-1bbd2441-28" x="123.01" y="16.73" id="img-1bbd2441-76" class="color_Admitted" fill="#FFB6C1" stroke="#FFFFFF"/>
          <use xlink:href="#img-1bbd2441-28" x="85.34" y="9.37" id="img-1bbd2441-77" class="color_Admitted" fill="#FFB6C1" stroke="#FFFFFF"/>
          <use xlink:href="#img-1bbd2441-28" x="116.46" y="15.29" id="img-1bbd2441-78" class="color_Admitted" fill="#FFB6C1" stroke="#FFFFFF"/>
          <use xlink:href="#img-1bbd2441-28" x="104.2" y="25.94" id="img-1bbd2441-79" class="color_Admitted" fill="#FFB6C1" stroke="#FFFFFF"/>
          <use xlink:href="#img-1bbd2441-28" x="124.6" y="35.59" id="img-1bbd2441-80" class="color_Admitted" fill="#FFB6C1" stroke="#FFFFFF"/>
          <use xlink:href="#img-1bbd2441-28" x="115.39" y="48.5" id="img-1bbd2441-81" class="color_Admitted" fill="#FFB6C1" stroke="#FFFFFF"/>
          <use xlink:href="#img-1bbd2441-28" x="56.26" y="36.04" id="img-1bbd2441-82" class="color_Not_Admitted" fill="#00BFFF" stroke="#FFFFFF"/>
          <use xlink:href="#img-1bbd2441-28" x="72.9" y="43.8" id="img-1bbd2441-83" class="color_Not_Admitted" fill="#00BFFF" stroke="#FFFFFF"/>
          <use xlink:href="#img-1bbd2441-28" x="72.16" y="36.47" id="img-1bbd2441-84" class="color_Not_Admitted" fill="#00BFFF" stroke="#FFFFFF"/>
          <use xlink:href="#img-1bbd2441-28" x="122.88" y="29.83" id="img-1bbd2441-85" class="color_Admitted" fill="#FFB6C1" stroke="#FFFFFF"/>
          <use xlink:href="#img-1bbd2441-28" x="54.21" y="10.23" id="img-1bbd2441-86" class="color_Not_Admitted" fill="#00BFFF" stroke="#FFFFFF"/>
          <use xlink:href="#img-1bbd2441-28" x="98.19" y="29.12" id="img-1bbd2441-87" class="color_Admitted" fill="#FFB6C1" stroke="#FFFFFF"/>
          <use xlink:href="#img-1bbd2441-28" x="95.6" y="22.8" id="img-1bbd2441-88" class="color_Admitted" fill="#FFB6C1" stroke="#FFFFFF"/>
          <use xlink:href="#img-1bbd2441-28" x="99.4" y="17.44" id="img-1bbd2441-89" class="color_Admitted" fill="#FFB6C1" stroke="#FFFFFF"/>
          <use xlink:href="#img-1bbd2441-28" x="57.07" y="45.84" id="img-1bbd2441-90" class="color_Not_Admitted" fill="#00BFFF" stroke="#FFFFFF"/>
          <use xlink:href="#img-1bbd2441-28" x="79.2" y="51.53" id="img-1bbd2441-91" class="color_Not_Admitted" fill="#00BFFF" stroke="#FFFFFF"/>
          <use xlink:href="#img-1bbd2441-28" x="51.55" y="43.96" id="img-1bbd2441-92" class="color_Not_Admitted" fill="#00BFFF" stroke="#FFFFFF"/>
          <use xlink:href="#img-1bbd2441-28" x="66.97" y="31.6" id="img-1bbd2441-93" class="color_Not_Admitted" fill="#00BFFF" stroke="#FFFFFF"/>
          <use xlink:href="#img-1bbd2441-28" x="90.07" y="50.19" id="img-1bbd2441-94" class="color_Not_Admitted" fill="#00BFFF" stroke="#FFFFFF"/>
          <use xlink:href="#img-1bbd2441-28" x="62.53" y="8.81" id="img-1bbd2441-95" class="color_Admitted" fill="#FFB6C1" stroke="#FFFFFF"/>
          <use xlink:href="#img-1bbd2441-28" x="71.62" y="42.28" id="img-1bbd2441-96" class="color_Not_Admitted" fill="#00BFFF" stroke="#FFFFFF"/>
          <use xlink:href="#img-1bbd2441-28" x="104.55" y="12.78" id="img-1bbd2441-97" class="color_Admitted" fill="#FFB6C1" stroke="#FFFFFF"/>
          <use xlink:href="#img-1bbd2441-28" x="90.27" y="35.6" id="img-1bbd2441-98" class="color_Admitted" fill="#FFB6C1" stroke="#FFFFFF"/>
          <use xlink:href="#img-1bbd2441-28" x="54.36" y="48.56" id="img-1bbd2441-99" class="color_Not_Admitted" fill="#00BFFF" stroke="#FFFFFF"/>
          <use xlink:href="#img-1bbd2441-28" x="87.41" y="23.11" id="img-1bbd2441-100" class="color_Admitted" fill="#FFB6C1" stroke="#FFFFFF"/>
          <use xlink:href="#img-1bbd2441-28" x="96.18" y="9.77" id="img-1bbd2441-101" class="color_Admitted" fill="#FFB6C1" stroke="#FFFFFF"/>
          <use xlink:href="#img-1bbd2441-28" x="83.63" y="26.73" id="img-1bbd2441-102" class="color_Admitted" fill="#FFB6C1" stroke="#FFFFFF"/>
          <use xlink:href="#img-1bbd2441-28" x="81.93" y="24.7" id="img-1bbd2441-103" class="color_Admitted" fill="#FFB6C1" stroke="#FFFFFF"/>
          <use xlink:href="#img-1bbd2441-28" x="125.18" y="27.26" id="img-1bbd2441-104" class="color_Admitted" fill="#FFB6C1" stroke="#FFFFFF"/>
          <use xlink:href="#img-1bbd2441-28" x="69.71" y="15.45" id="img-1bbd2441-105" class="color_Admitted" fill="#FFB6C1" stroke="#FFFFFF"/>
          <use xlink:href="#img-1bbd2441-28" x="73.08" y="24.74" id="img-1bbd2441-106" class="color_Admitted" fill="#FFB6C1" stroke="#FFFFFF"/>
          <use xlink:href="#img-1bbd2441-28" x="83.63" y="49.15" id="img-1bbd2441-107" class="color_Not_Admitted" fill="#00BFFF" stroke="#FFFFFF"/>
          <use xlink:href="#img-1bbd2441-28" x="106.61" y="48.99" id="img-1bbd2441-108" class="color_Not_Admitted" fill="#00BFFF" stroke="#FFFFFF"/>
          <use xlink:href="#img-1bbd2441-28" x="113.67" y="29.14" id="img-1bbd2441-109" class="color_Admitted" fill="#FFB6C1" stroke="#FFFFFF"/>
          <use xlink:href="#img-1bbd2441-28" x="119.91" y="46.81" id="img-1bbd2441-110" class="color_Admitted" fill="#FFB6C1" stroke="#FFFFFF"/>
          <use xlink:href="#img-1bbd2441-28" x="90.88" y="31.5" id="img-1bbd2441-111" class="color_Admitted" fill="#FFB6C1" stroke="#FFFFFF"/>
          <use xlink:href="#img-1bbd2441-28" x="80.24" y="36.68" id="img-1bbd2441-112" class="color_Admitted" fill="#FFB6C1" stroke="#FFFFFF"/>
          <use xlink:href="#img-1bbd2441-28" x="104.65" y="13.63" id="img-1bbd2441-113" class="color_Admitted" fill="#FFB6C1" stroke="#FFFFFF"/>
          <use xlink:href="#img-1bbd2441-28" x="92.09" y="17.56" id="img-1bbd2441-114" class="color_Admitted" fill="#FFB6C1" stroke="#FFFFFF"/>
          <use xlink:href="#img-1bbd2441-28" x="64.23" y="22.51" id="img-1bbd2441-115" class="color_Not_Admitted" fill="#00BFFF" stroke="#FFFFFF"/>
          <use xlink:href="#img-1bbd2441-28" x="99.49" y="14.02" id="img-1bbd2441-116" class="color_Admitted" fill="#FFB6C1" stroke="#FFFFFF"/>
          <use xlink:href="#img-1bbd2441-28" x="102.82" y="9.46" id="img-1bbd2441-117" class="color_Admitted" fill="#FFB6C1" stroke="#FFFFFF"/>
          <use xlink:href="#img-1bbd2441-28" x="75.07" y="35.76" id="img-1bbd2441-118" class="color_Not_Admitted" fill="#00BFFF" stroke="#FFFFFF"/>
          <use xlink:href="#img-1bbd2441-28" x="119.13" y="23.75" id="img-1bbd2441-119" class="color_Admitted" fill="#FFB6C1" stroke="#FFFFFF"/>
          <use xlink:href="#img-1bbd2441-28" x="115.29" y="16.16" id="img-1bbd2441-120" class="color_Admitted" fill="#FFB6C1" stroke="#FFFFFF"/>
          <use xlink:href="#img-1bbd2441-28" x="78.38" y="54.24" id="img-1bbd2441-121" class="color_Not_Admitted" fill="#00BFFF" stroke="#FFFFFF"/>
          <use xlink:href="#img-1bbd2441-28" x="98.45" y="18.11" id="img-1bbd2441-122" class="color_Admitted" fill="#FFB6C1" stroke="#FFFFFF"/>
          <use xlink:href="#img-1bbd2441-28" x="114.65" y="47.06" id="img-1bbd2441-123" class="color_Admitted" fill="#FFB6C1" stroke="#FFFFFF"/>
          <use xlink:href="#img-1bbd2441-28" x="107.94" y="44.84" id="img-1bbd2441-124" class="color_Admitted" fill="#FFB6C1" stroke="#FFFFFF"/>
          <use xlink:href="#img-1bbd2441-28" x="64.43" y="16.45" id="img-1bbd2441-125" class="color_Admitted" fill="#FFB6C1" stroke="#FFFFFF"/>
          <use xlink:href="#img-1bbd2441-28" x="124.64" y="29.89" id="img-1bbd2441-126" class="color_Admitted" fill="#FFB6C1" stroke="#FFFFFF"/>
          <use xlink:href="#img-1bbd2441-28" x="78.23" y="32.71" id="img-1bbd2441-127" class="color_Admitted" fill="#FFB6C1" stroke="#FFFFFF"/>
          <use xlink:href="#img-1bbd2441-28" x="98.74" y="14.68" id="img-1bbd2441-128" class="color_Admitted" fill="#FFB6C1" stroke="#FFFFFF"/>
        </g>
      </g>
      <g stroke-width="0.3" fill="#000000" fill-opacity="0.000" class="geometry" stroke-dasharray="none" stroke="#00BFFF" id="img-1bbd2441-129">
        <path fill="none" d="M19.83,-11.25 L 20.25 -10.95 20.67 -10.64 21.1 -10.34 21.52 -10.04 21.95 -9.74 22.37 -9.44 22.79 -9.14 23.22 -8.84 23.64 -8.53 24.06 -8.23 24.49 -7.93 24.91 -7.63 25.34 -7.33 25.76 -7.03 26.18 -6.73 26.61 -6.42 27.03 -6.12 27.46 -5.82 27.88 -5.52 28.3 -5.22 28.73 -4.92 29.15 -4.62 29.57 -4.31 30 -4.01 30.42 -3.71 30.85 -3.41 31.27 -3.11 31.69 -2.81 32.12 -2.51 32.54 -2.2 32.97 -1.9 33.39 -1.6 33.81 -1.3 34.24 -1 34.66 -0.7 35.08 -0.4 35.51 -0.09 35.93 0.21 36.36 0.51 36.78 0.81 37.2 1.11 37.63 1.41 38.05 1.71 38.48 2.01 38.9 2.32 39.32 2.62 39.75 2.92 40.17 3.22 40.59 3.52 41.02 3.82 41.44 4.12 41.87 4.43 42.29 4.73 42.71 5.03 43.14 5.33 43.56 5.63 43.99 5.93 44.41 6.23 44.83 6.54 45.26 6.84 45.68 7.14 46.11 7.44 46.53 7.74 46.95 8.04 47.38 8.34 47.8 8.65 48.22 8.95 48.65 9.25 49.07 9.55 49.5 9.85 49.92 10.15 50.34 10.45 50.77 10.76 51.19 11.06 51.62 11.36 52.04 11.66 52.46 11.96 52.89 12.26 53.31 12.56 53.73 12.87 54.16 13.17 54.58 13.47 55.01 13.77 55.43 14.07 55.85 14.37 56.28 14.67 56.7 14.97 57.13 15.28 57.55 15.58 57.97 15.88 58.4 16.18 58.82 16.48 59.24 16.78 59.67 17.08 60.09 17.39 60.52 17.69 60.94 17.99 61.36 18.29 61.79 18.59 62.21 18.89 62.64 19.19 63.06 19.5 63.48 19.8 63.91 20.1 64.33 20.4 64.75 20.7 65.18 21 65.6 21.3 66.03 21.61 66.45 21.91 66.87 22.21 67.3 22.51 67.72 22.81 68.15 23.11 68.57 23.41 68.99 23.72 69.42 24.02 69.84 24.32 70.27 24.62 70.69 24.92 71.11 25.22 71.54 25.52 71.96 25.83 72.38 26.13 72.81 26.43 73.23 26.73 73.66 27.03 74.08 27.33 74.5 27.63 74.93 27.93 75.35 28.24 75.78 28.54 76.2 28.84 76.62 29.14 77.05 29.44 77.47 29.74 77.89 30.04 78.32 30.35 78.74 30.65 79.17 30.95 79.59 31.25 80.01 31.55 80.44 31.85 80.86 32.15 81.29 32.46 81.71 32.76 82.13 33.06 82.56 33.36 82.98 33.66 83.4 33.96 83.83 34.26 84.25 34.57 84.68 34.87 85.1 35.17 85.52 35.47 85.95 35.77 86.37 36.07 86.8 36.37 87.22 36.68 87.64 36.98 88.07 37.28 88.49 37.58 88.91 37.88 89.34 38.18 89.76 38.48 90.19 38.79 90.61 39.09 91.03 39.39 91.46 39.69 91.88 39.99 92.31 40.29 92.73 40.59 93.15 40.89 93.58 41.2 94 41.5 94.42 41.8 94.85 42.1 95.27 42.4 95.7 42.7 96.12 43 96.54 43.31 96.97 43.61 97.39 43.91 97.82 44.21 98.24 44.51 98.66 44.81 99.09 45.11 99.51 45.42 99.94 45.72 100.36 46.02 100.78 46.32 101.21 46.62 101.63 46.92 102.05 47.22 102.48 47.53 102.9 47.83 103.33 48.13 103.75 48.43 104.17 48.73 104.6 49.03 105.02 49.33 105.45 49.64 105.87 49.94 106.29 50.24 106.72 50.54 107.14 50.84 107.56 51.14 107.99 51.44 108.41 51.74 108.84 52.05 109.26 52.35 109.68 52.65 110.11 52.95 110.53 53.25 110.96 53.55 111.38 53.85 111.8 54.16 112.23 54.46 112.65 54.76 113.07 55.06 113.5 55.36 113.92 55.66 114.35 55.96 114.77 56.27 115.19 56.57 115.62 56.87 116.04 57.17 116.47 57.47 116.89 57.77 117.31 58.07 117.74 58.38 118.16 58.68 118.58 58.98 119.01 59.28 119.43 59.58 119.86 59.88 120.28 60.18 120.7 60.49 121.13 60.79 121.55 61.09 121.98 61.39 122.4 61.69 122.82 61.99 123.25 62.29 123.67 62.6 124.1 62.9 124.52 63.2 124.94 63.5 125.37 63.8" id="img-1bbd2441-130"/>
      </g>
      <g stroke-width="0.3" fill="#000000" fill-opacity="0.000" class="geometry" stroke-dasharray="none" stroke="#00BFFF" id="img-1bbd2441-131">
        <path fill="none" d="M19.83,-11.25 L 20.25 -10.95 20.67 -10.64 21.1 -10.34 21.52 -10.04 21.95 -9.74 22.37 -9.44 22.79 -9.14 23.22 -8.84 23.64 -8.53 24.06 -8.23 24.49 -7.93 24.91 -7.63 25.34 -7.33 25.76 -7.03 26.18 -6.73 26.61 -6.42 27.03 -6.12 27.46 -5.82 27.88 -5.52 28.3 -5.22 28.73 -4.92 29.15 -4.62 29.57 -4.31 30 -4.01 30.42 -3.71 30.85 -3.41 31.27 -3.11 31.69 -2.81 32.12 -2.51 32.54 -2.2 32.97 -1.9 33.39 -1.6 33.81 -1.3 34.24 -1 34.66 -0.7 35.08 -0.4 35.51 -0.09 35.93 0.21 36.36 0.51 36.78 0.81 37.2 1.11 37.63 1.41 38.05 1.71 38.48 2.01 38.9 2.32 39.32 2.62 39.75 2.92 40.17 3.22 40.59 3.52 41.02 3.82 41.44 4.12 41.87 4.43 42.29 4.73 42.71 5.03 43.14 5.33 43.56 5.63 43.99 5.93 44.41 6.23 44.83 6.54 45.26 6.84 45.68 7.14 46.11 7.44 46.53 7.74 46.95 8.04 47.38 8.34 47.8 8.65 48.22 8.95 48.65 9.25 49.07 9.55 49.5 9.85 49.92 10.15 50.34 10.45 50.77 10.76 51.19 11.06 51.62 11.36 52.04 11.66 52.46 11.96 52.89 12.26 53.31 12.56 53.73 12.87 54.16 13.17 54.58 13.47 55.01 13.77 55.43 14.07 55.85 14.37 56.28 14.67 56.7 14.97 57.13 15.28 57.55 15.58 57.97 15.88 58.4 16.18 58.82 16.48 59.24 16.78 59.67 17.08 60.09 17.39 60.52 17.69 60.94 17.99 61.36 18.29 61.79 18.59 62.21 18.89 62.64 19.19 63.06 19.5 63.48 19.8 63.91 20.1 64.33 20.4 64.75 20.7 65.18 21 65.6 21.3 66.03 21.61 66.45 21.91 66.87 22.21 67.3 22.51 67.72 22.81 68.15 23.11 68.57 23.41 68.99 23.72 69.42 24.02 69.84 24.32 70.27 24.62 70.69 24.92 71.11 25.22 71.54 25.52 71.96 25.83 72.38 26.13 72.81 26.43 73.23 26.73 73.66 27.03 74.08 27.33 74.5 27.63 74.93 27.93 75.35 28.24 75.78 28.54 76.2 28.84 76.62 29.14 77.05 29.44 77.47 29.74 77.89 30.04 78.32 30.35 78.74 30.65 79.17 30.95 79.59 31.25 80.01 31.55 80.44 31.85 80.86 32.15 81.29 32.46 81.71 32.76 82.13 33.06 82.56 33.36 82.98 33.66 83.4 33.96 83.83 34.26 84.25 34.57 84.68 34.87 85.1 35.17 85.52 35.47 85.95 35.77 86.37 36.07 86.8 36.37 87.22 36.68 87.64 36.98 88.07 37.28 88.49 37.58 88.91 37.88 89.34 38.18 89.76 38.48 90.19 38.79 90.61 39.09 91.03 39.39 91.46 39.69 91.88 39.99 92.31 40.29 92.73 40.59 93.15 40.89 93.58 41.2 94 41.5 94.42 41.8 94.85 42.1 95.27 42.4 95.7 42.7 96.12 43 96.54 43.31 96.97 43.61 97.39 43.91 97.82 44.21 98.24 44.51 98.66 44.81 99.09 45.11 99.51 45.42 99.94 45.72 100.36 46.02 100.78 46.32 101.21 46.62 101.63 46.92 102.05 47.22 102.48 47.53 102.9 47.83 103.33 48.13 103.75 48.43 104.17 48.73 104.6 49.03 105.02 49.33 105.45 49.64 105.87 49.94 106.29 50.24 106.72 50.54 107.14 50.84 107.56 51.14 107.99 51.44 108.41 51.74 108.84 52.05 109.26 52.35 109.68 52.65 110.11 52.95 110.53 53.25 110.96 53.55 111.38 53.85 111.8 54.16 112.23 54.46 112.65 54.76 113.07 55.06 113.5 55.36 113.92 55.66 114.35 55.96 114.77 56.27 115.19 56.57 115.62 56.87 116.04 57.17 116.47 57.47 116.89 57.77 117.31 58.07 117.74 58.38 118.16 58.68 118.58 58.98 119.01 59.28 119.43 59.58 119.86 59.88 120.28 60.18 120.7 60.49 121.13 60.79 121.55 61.09 121.98 61.39 122.4 61.69 122.82 61.99 123.25 62.29 123.67 62.6 124.1 62.9 124.52 63.2 124.94 63.5 125.37 63.8" id="img-1bbd2441-132"/>
      </g>
    </g>
  </g>
</g>
  <g class="guide ylabels" font-size="2.82" font-family="'PT Sans Caption','Helvetica Neue','Helvetica',sans-serif" fill="#6C606B" id="img-1bbd2441-133">
    <text x="16.83" y="80.32" text-anchor="end" dy="0.35em" id="img-1bbd2441-134">0</text>
    <text x="16.83" y="43.66" text-anchor="end" dy="0.35em" id="img-1bbd2441-135">50</text>
    <text x="16.83" y="7" text-anchor="end" dy="0.35em" id="img-1bbd2441-136">100</text>
  </g>
  <g font-size="3.88" font-family="'PT Sans','Helvetica Neue','Helvetica',sans-serif" fill="#564A55" stroke="#000000" stroke-opacity="0.000" id="img-1bbd2441-137">
    <text x="8.81" y="43.66" text-anchor="end" dy="0.35em" id="img-1bbd2441-138">y</text>
  </g>
</g>
<defs>
  <clipPath id="img-1bbd2441-13">
  <path d="M17.83,5 L 127.37 5 127.37 82.32 17.83 82.32" />
</clipPath>
  <g id="img-1bbd2441-28">
    <circle cx="0" cy="0" r="0.9" id="img-1bbd2441-139"/>
  </g>
</defs>
</svg>
