<?xml version="1.0" encoding="UTF-8"?>
<svg xmlns="http://www.w3.org/2000/svg"
     xmlns:xlink="http://www.w3.org/1999/xlink"
     xmlns:gadfly="http://www.gadflyjl.org/ns"
     version="1.2"
     width="152.4mm" height="101.6mm" viewBox="0 0 152.4 101.6"
     stroke="none"
     fill="#000000"
     stroke-width="0.3"
     font-size="3.88"
>
<g class="plotroot xscalable yscalable" id="img-83ec78bf-1">
  <g font-size="3.88" font-family="'PT Sans','Helvetica Neue','Helvetica',sans-serif" fill="#564A55" stroke="#000000" stroke-opacity="0.000" id="img-83ec78bf-2">
    <text x="76.26" y="89.99" text-anchor="middle" dy="0.6em">test1</text>
  </g>
  <g class="guide xlabels" font-size="2.82" font-family="'PT Sans Caption','Helvetica Neue','Helvetica',sans-serif" fill="#6C606B" id="img-83ec78bf-3">
    <text x="21.75" y="83.32" text-anchor="middle" dy="0.6em">-1.0</text>
    <text x="43.55" y="83.32" text-anchor="middle" dy="0.6em">-0.5</text>
    <text x="65.35" y="83.32" text-anchor="middle" dy="0.6em">0.0</text>
    <text x="87.16" y="83.32" text-anchor="middle" dy="0.6em">0.5</text>
    <text x="108.96" y="83.32" text-anchor="middle" dy="0.6em">1.0</text>
    <text x="130.77" y="83.32" text-anchor="middle" dy="0.6em">1.5</text>
  </g>
  <g class="guide colorkey" id="img-83ec78bf-4">
    <g fill="#4C404B" font-size="2.82" font-family="'PT Sans','Helvetica Neue','Helvetica',sans-serif" id="img-83ec78bf-5">
      <text x="136.58" y="46.46" dy="0.35em" id="img-83ec78bf-6" class="color_accepted">accepted</text>
      <text x="136.58" y="50.09" dy="0.35em" id="img-83ec78bf-7" class="color_rejected">rejected</text>
    </g>
    <g stroke="#000000" stroke-opacity="0.000" id="img-83ec78bf-8">
      <rect x="133.77" y="45.56" width="1.81" height="1.81" id="img-83ec78bf-9" class="color_accepted" fill="#00BFFF"/>
      <rect x="133.77" y="49.18" width="1.81" height="1.81" id="img-83ec78bf-10" class="color_rejected" fill="#FFB6C1"/>
    </g>
    <g fill="#362A35" font-size="3.88" font-family="'PT Sans','Helvetica Neue','Helvetica',sans-serif" stroke="#000000" stroke-opacity="0.000" id="img-83ec78bf-11">
      <text x="133.77" y="42.64" id="img-83ec78bf-12">result</text>
    </g>
  </g>
<g clip-path="url(#img-83ec78bf-13)">
  <g id="img-83ec78bf-14">
    <g pointer-events="visible" opacity="1" fill="#000000" fill-opacity="0.000" stroke="#000000" stroke-opacity="0.000" class="guide background" id="img-83ec78bf-15">
      <rect x="19.75" y="10.61" width="113.02" height="71.7" id="img-83ec78bf-16"/>
    </g>
    <g class="guide ygridlines xfixed" stroke-dasharray="0.5,0.5" stroke-width="0.2" stroke="#D0D0E0" id="img-83ec78bf-17">
      <path fill="none" d="M19.75,80.32 L 132.77 80.32" id="img-83ec78bf-18"/>
      <path fill="none" d="M19.75,66.77 L 132.77 66.77" id="img-83ec78bf-19"/>
      <path fill="none" d="M19.75,53.23 L 132.77 53.23" id="img-83ec78bf-20"/>
      <path fill="none" d="M19.75,39.69 L 132.77 39.69" id="img-83ec78bf-21"/>
      <path fill="none" d="M19.75,26.15 L 132.77 26.15" id="img-83ec78bf-22"/>
      <path fill="none" d="M19.75,12.61 L 132.77 12.61" id="img-83ec78bf-23"/>
    </g>
    <g class="guide xgridlines yfixed" stroke-dasharray="0.5,0.5" stroke-width="0.2" stroke="#D0D0E0" id="img-83ec78bf-24">
      <path fill="none" d="M21.75,10.61 L 21.75 82.32" id="img-83ec78bf-25"/>
      <path fill="none" d="M43.55,10.61 L 43.55 82.32" id="img-83ec78bf-26"/>
      <path fill="none" d="M65.35,10.61 L 65.35 82.32" id="img-83ec78bf-27"/>
      <path fill="none" d="M87.16,10.61 L 87.16 82.32" id="img-83ec78bf-28"/>
      <path fill="none" d="M108.96,10.61 L 108.96 82.32" id="img-83ec78bf-29"/>
      <path fill="none" d="M130.77,10.61 L 130.77 82.32" id="img-83ec78bf-30"/>
    </g>
    <g class="plotpanel" id="img-83ec78bf-31">
      <g stroke-width="0.35" fill="#000000" fill-opacity="0.000" class="geometry color_0.0" stroke-dasharray="none" stroke="#00BFFF" id="img-83ec78bf-32">
        <path fill="none" d="M44.52,65.27 L 44.55 65.29 44.61 65.34 44.66 65.37 44.71 65.41 44.77 65.45 44.8 65.47 44.88 65.53 44.89 65.54 44.99 65.61 44.99 65.61 45.09 65.68 45.1 65.69 45.18 65.74 45.21 65.76 45.28 65.81 45.32 65.84 45.38 65.88 45.43 65.91 45.48 65.95 45.54 65.98 45.58 66.02 45.64 66.06 45.69 66.08 45.75 66.13 45.79 66.15 45.86 66.2 45.89 66.22 45.97 66.27 46 66.29 46.08 66.34 46.11 66.35 46.19 66.41 46.22 66.42 46.3 66.47 46.32 66.49 46.41 66.54 46.44 66.56 46.52 66.61 46.55 66.63 46.63 66.67 46.66 66.69 46.74 66.74 46.78 66.76 46.85 66.8 46.89 66.83 46.95 66.87 47.01 66.9 47.06 66.93 47.13 66.96 47.17 66.99 47.25 67.03 47.28 67.05 47.37 67.1 47.39 67.11 47.49 67.17 47.5 67.17 47.61 67.23 47.62 67.24 47.72 67.29 47.74 67.3 47.83 67.35 47.87 67.37 47.94 67.41 48 67.44 48.05 67.46 48.13 67.51 48.15 67.52 48.26 67.57 48.26 67.58 48.37 67.63 48.4 67.64 48.48 67.68 48.53 67.71 48.59 67.74 48.67 67.78 48.7 67.79 48.81 67.85 48.81 67.85 48.92 67.9 48.95 67.91 49.03 67.95 49.09 67.98 49.14 68 49.24 68.05 49.25 68.05 49.36 68.1 49.39 68.12 49.46 68.15 49.54 68.18 49.57 68.2 49.68 68.25 49.69 68.25 49.79 68.3 49.84 68.32 49.9 68.34 50 68.39 50.01 68.39 50.12 68.44 50.16 68.46 50.23 68.48 50.32 68.52 50.34 68.53 50.45 68.58 50.48 68.59 50.56 68.62 50.65 68.66 50.66 68.66 50.77 68.71 50.82 68.73 50.88 68.75 50.99 68.79 50.99 68.8 51.1 68.84 51.16 68.86 51.21 68.88 51.32 68.92 51.34 68.93 51.43 68.96 51.52 69 51.54 69 51.65 69.04 51.7 69.06 51.76 69.08 51.87 69.12 51.89 69.13 51.97 69.16 52.08 69.2 52.08 69.2 52.19 69.24 52.27 69.27 52.3 69.28 52.41 69.32 52.47 69.34 52.52 69.35 52.63 69.39 52.67 69.4 52.74 69.43 52.85 69.46 52.87 69.47 52.96 69.5 53.07 69.54 53.08 69.54 53.17 69.57 53.28 69.61 53.29 69.61 53.39 69.64 53.5 69.67 53.51 69.67 53.61 69.71 53.72 69.74 53.73 69.74 53.83 69.77 53.94 69.81 53.95 69.81 54.05 69.84 54.16 69.87 54.18 69.88 54.27 69.9 54.38 69.93 54.42 69.95 54.48 69.97 54.59 70 54.66 70.01 54.7 70.03 54.81 70.06 54.9 70.08 54.92 70.09 55.03 70.12 55.14 70.15 55.15 70.15 55.25 70.17 55.36 70.2 55.41 70.22 55.47 70.23 55.58 70.26 55.67 70.28 55.68 70.29 55.79 70.32 55.9 70.34 55.94 70.35 56.01 70.37 56.12 70.4 56.22 70.42 56.23 70.42 56.34 70.45 56.45 70.48 56.5 70.49 56.56 70.5 56.67 70.53 56.78 70.55 56.8 70.56 56.89 70.58 56.99 70.6 57.1 70.62 57.1 70.62 57.21 70.65 57.32 70.67 57.41 70.69 57.43 70.7 57.54 70.72 57.65 70.74 57.73 70.76 57.76 70.77 57.87 70.79 57.98 70.81 58.06 70.83 58.09 70.83 58.19 70.85 58.3 70.88 58.4 70.89 58.41 70.9 58.52 70.92 58.63 70.94 58.74 70.96 58.76 70.96 58.85 70.98 58.96 71 59.07 71.02 59.13 71.03 59.18 71.04 59.29 71.06 59.4 71.08 59.5 71.1 59.51 71.1 59.61 71.12 59.72 71.13 59.83 71.15 59.91 71.17 59.94 71.17 60.05 71.19 60.16 71.21 60.27 71.22 60.33 71.23 60.38 71.24 60.49 71.26 60.6 71.28 60.7 71.29 60.77 71.3 60.81 71.31 60.92 71.32 61.03 71.34 61.14 71.36 61.23 71.37 61.25 71.37 61.36 71.39 61.47 71.4 61.58 71.42 61.69 71.43 61.72 71.44 61.8 71.45 61.91 71.46 62.01 71.48 62.12 71.49 62.23 71.5 62.24 71.5 62.34 71.52 62.45 71.53 62.56 71.54 62.67 71.56 62.78 71.57 62.8 71.57 62.89 71.58 63 71.59 63.11 71.61 63.21 71.62 63.32 71.63 63.41 71.64 63.43 71.64 63.54 71.65 63.65 71.67 63.76 71.68 63.87 71.69 63.98 71.7 64.08 71.71 64.09 71.71 64.2 71.72 64.31 71.73 64.42 71.74 64.52 71.75 64.63 71.76 64.74 71.77 64.83 71.78 64.85 71.78 64.96 71.79 65.07 71.8 65.18 71.8 65.29 71.81 65.4 71.82 65.51 71.83 65.62 71.84 65.71 71.84 65.72 71.84 65.83 71.85 65.94 71.86 66.05 71.87 66.16 71.87 66.27 71.88 66.38 71.89 66.49 71.89 66.6 71.9 66.71 71.91 66.79 71.91 66.82 71.91 66.93 71.92 67.03 71.92 67.14 71.93 67.25 71.93 67.36 71.94 67.47 71.94 67.58 71.95 67.69 71.95 67.8 71.96 67.91 71.96 68.02 71.97 68.13 71.97 68.23 71.97 68.34 71.98 68.41 71.98 68.45 71.98 68.56 71.98 68.67 71.99 68.78 71.99 68.89 71.99 69 71.99 69.11 72 69.22 72 69.33 72 69.44 72 69.54 72 69.65 72 69.76 72 69.87 72.01 69.98 72.01 70.09 72.01 70.2 72.01 70.31 72.01 70.42 72.01 70.53 72.01 70.64 72.01 70.74 72.01 70.85 72 70.96 72 71.07 72 71.18 72 71.29 72 71.4 72 71.51 71.99 71.62 71.99 71.73 71.99 71.84 71.99 71.95 71.98 72.05 71.98 72.14 71.98 72.16 71.98 72.27 71.97 72.38 71.97 72.49 71.97 72.6 71.96 72.71 71.96 72.82 71.95 72.93 71.95 73.04 71.94 73.15 71.94 73.25 71.93 73.36 71.93 73.47 71.92 73.58 71.92 73.68 71.91 73.69 71.91 73.8 71.9 73.91 71.9 74.02 71.89 74.13 71.88 74.24 71.88 74.35 71.87 74.46 71.86 74.56 71.85 74.67 71.84 74.68 71.84 74.78 71.84 74.89 71.83 75 71.82 75.11 71.81 75.22 71.8 75.33 71.79 75.44 71.78 75.48 71.78 75.55 71.77 75.66 71.76 75.76 71.75 75.87 71.74 75.98 71.73 76.09 71.71 76.15 71.71 76.2 71.7 76.31 71.69 76.42 71.68 76.53 71.67 76.64 71.65 76.75 71.64 76.75 71.64 76.86 71.63 76.97 71.61 77.07 71.6 77.18 71.58 77.28 71.57 77.29 71.57 77.4 71.56 77.51 71.54 77.62 71.53 77.73 71.51 77.76 71.5 77.84 71.49 77.95 71.48 78.06 71.46 78.17 71.44 78.21 71.44 78.27 71.43 78.38 71.41 78.49 71.39 78.6 71.37 78.63 71.37 78.71 71.35 78.82 71.34 78.93 71.32 79.01 71.3 79.04 71.3 79.15 71.28 79.26 71.26 79.37 71.24 79.38 71.23 79.48 71.22 79.58 71.19 79.69 71.17 79.73 71.17 79.8 71.15 79.91 71.13 80.02 71.11 80.06 71.1 80.13 71.08 80.24 71.06 80.35 71.04 80.37 71.03 80.46 71.01 80.57 70.99 80.67 70.96 80.68 70.96 80.78 70.94 80.89 70.91 80.96 70.89 81 70.88 81.11 70.86 81.22 70.83 81.23 70.83 81.33 70.8 81.44 70.77 81.5 70.76 81.55 70.75 81.66 70.72 81.75 70.69 81.77 70.69 81.88 70.66 81.99 70.63 82 70.62 82.09 70.6 82.2 70.56 82.23 70.56 82.31 70.53 82.42 70.5 82.46 70.49 82.53 70.47 82.64 70.43 82.68 70.42 82.75 70.4 82.86 70.37 82.9 70.35 82.97 70.33 83.08 70.29 83.11 70.28 83.19 70.26 83.29 70.22 83.31 70.22 83.4 70.18 83.51 70.15 83.51 70.15 83.62 70.11 83.7 70.08 83.73 70.07 83.84 70.03 83.88 70.01 83.95 69.99 84.06 69.95 84.06 69.95 84.17 69.91 84.24 69.88 84.28 69.86 84.39 69.82 84.41 69.81 84.5 69.78 84.58 69.74 84.6 69.73 84.71 69.69 84.74 69.67 84.82 69.64 84.9 69.61 84.93 69.6 85.04 69.55 85.06 69.54 85.15 69.5 85.21 69.47 85.26 69.45 85.36 69.4 85.37 69.4 85.48 69.35 85.51 69.34 85.59 69.3 85.65 69.27 85.7 69.25 85.79 69.2 85.8 69.2 85.91 69.14 85.93 69.13 86.02 69.09 86.07 69.06 86.13 69.03 86.2 69 86.24 68.98 86.33 68.93 86.35 68.92 86.46 68.86 86.46 68.86 86.57 68.8 86.58 68.79 86.68 68.74 86.7 68.73 86.79 68.68 86.82 68.66 86.9 68.62 86.94 68.59 87.01 68.55 87.06 68.52 87.11 68.49 87.17 68.46 87.22 68.42 87.28 68.39 87.33 68.36 87.39 68.32 87.44 68.29 87.5 68.25 87.55 68.22 87.61 68.18 87.66 68.15 87.71 68.12 87.77 68.08 87.81 68.05 87.88 68 87.91 67.98 87.99 67.93 88.01 67.91 88.1 67.85 88.11 67.85 88.21 67.78 88.21 67.78 88.3 67.71 88.31 67.7 88.39 67.64 88.42 67.62 88.49 67.57 88.53 67.54 88.58 67.51 88.64 67.46 88.67 67.44 88.75 67.37 88.75 67.37 88.84 67.3 88.86 67.29 88.93 67.24 88.97 67.2 89.01 67.17 89.08 67.11 89.09 67.1 89.17 67.03 89.19 67.02 89.26 66.96 89.3 66.93 89.33 66.9 89.41 66.83 89.41 66.83 89.49 66.76 89.52 66.74 89.57 66.69 89.62 66.64 89.64 66.63 89.72 66.56 89.73 66.54 89.79 66.49 89.84 66.44 89.86 66.42 89.93 66.35 89.95 66.34 90 66.29 90.06 66.23 90.07 66.22 90.14 66.15 90.17 66.12 90.21 66.08 90.28 66.02 90.28 66.01 90.34 65.95 90.39 65.9 90.41 65.88 90.47 65.81 90.5 65.78 90.53 65.74 90.6 65.68 90.61 65.67 90.66 65.61 90.72 65.55 90.72 65.54 90.78 65.47 90.82 65.42 90.84 65.41 90.9 65.34 90.93 65.3 90.96 65.27 91.02 65.2 91.04 65.17 91.07 65.13 91.13 65.07 91.15 65.04 91.19 65 91.24 64.93 91.26 64.91 91.29 64.86 91.35 64.8 91.37 64.77 91.4 64.73 91.45 64.66 91.48 64.63 91.51 64.59 91.56 64.52 91.59 64.48 91.61 64.46 91.66 64.39 91.7 64.34 91.71 64.32 91.76 64.25 91.81 64.19 91.81 64.19 91.85 64.12 91.9 64.05 91.92 64.03 91.95 63.98 92 63.91 92.03 63.87 92.04 63.85 92.09 63.78 92.13 63.71 92.13 63.71 92.18 63.64 92.22 63.58 92.24 63.54 92.27 63.51 92.31 63.44 92.35 63.37 92.35 63.37 92.39 63.3 92.44 63.24 92.46 63.19 92.48 63.17 92.52 63.1 92.56 63.03 92.57 63.01 92.6 62.97 92.64 62.9 92.68 62.83 92.68 62.83 92.72 62.76 92.75 62.69 92.79 62.63 92.79 62.63 92.83 62.56 92.87 62.49 92.9 62.44 92.9 62.42 92.94 62.36 92.98 62.29 93.01 62.23 93.01 62.22 93.05 62.15 93.08 62.08 93.12 62.02 93.12 62.02 93.15 61.95 93.19 61.88 93.22 61.81 93.23 61.8 93.25 61.75 93.29 61.68 93.32 61.61 93.33 61.58 93.35 61.54 93.38 61.47 93.42 61.41 93.44 61.35 93.45 61.34 93.48 61.27 93.51 61.2 93.54 61.14 93.55 61.11 93.57 61.07 93.6 61 93.63 60.93 93.66 60.86 93.66 60.86 93.69 60.8 93.72 60.73 93.74 60.66 93.77 60.6 93.77 60.59 93.8 60.53 93.83 60.46 93.86 60.39 93.88 60.33 93.88 60.32 93.91 60.25 93.94 60.19 93.96 60.12 93.99 60.05 93.99 60.05 94.01 59.98 94.04 59.92 94.06 59.85 94.09 59.78 94.1 59.75 94.11 59.71 94.14 59.64 94.16 59.58 94.19 59.51 94.21 59.45 94.21 59.44 94.23 59.37 94.26 59.31 94.28 59.24 94.3 59.17 94.32 59.12 94.32 59.1 94.35 59.03 94.37 58.97 94.39 58.9 94.41 58.83 94.43 58.78 94.43 58.76 94.45 58.7 94.47 58.63 94.49 58.56 94.52 58.49 94.54 58.43 94.54 58.42 94.56 58.36 94.58 58.29 94.59 58.22 94.61 58.15 94.63 58.09 94.64 58.05 94.65 58.02 94.67 57.95 94.69 57.88 94.71 57.81 94.73 57.75 94.74 57.68 94.75 57.64 94.76 57.61 94.78 57.54 94.8 57.48 94.81 57.41 94.83 57.34 94.85 57.27 94.86 57.21 94.86 57.2 94.88 57.14 94.89 57.07 94.91 57 94.93 56.93 94.94 56.87 94.96 56.8 94.97 56.73 94.97 56.73 94.99 56.66 95 56.6 95.02 56.53 95.03 56.46 95.04 56.39 95.06 56.32 95.07 56.26 95.08 56.21 95.09 56.19 95.1 56.12 95.11 56.05 95.12 55.99 95.14 55.92 95.15 55.85 95.16 55.78 95.17 55.71 95.19 55.65 95.19 55.63 95.2 55.58 95.21 55.51 95.22 55.44 95.23 55.38 95.24 55.31 95.26 55.24 95.27 55.17 95.28 55.1 95.29 55.04 95.3 54.97 95.3 54.96 95.31 54.9 95.32 54.83 95.33 54.77 95.34 54.7 95.35 54.63 95.36 54.56 95.37 54.49 95.37 54.43 95.38 54.36 95.39 54.29 95.4 54.22 95.41 54.16 95.41 54.16 95.42 54.09 95.43 54.02 95.43 53.95 95.44 53.88 95.45 53.82 95.46 53.75 95.46 53.68 95.47 53.61 95.48 53.55 95.48 53.48 95.49 53.41 95.5 53.34 95.5 53.27 95.51 53.21 95.51 53.14 95.52 53.09 95.52 53.07 95.52 53 95.53 52.94 95.54 52.87 95.54 52.8 95.54 52.73 95.55 52.66 95.55 52.6 95.56 52.53 95.56 52.46 95.57 52.39 95.57 52.33 95.57 52.26 95.58 52.19 95.58 52.12 95.58 52.05 95.59 51.99 95.59 51.92 95.59 51.85 95.59 51.78 95.6 51.72 95.6 51.65 95.6 51.58 95.6 51.51 95.6 51.44 95.61 51.38 95.61 51.31 95.61 51.24 95.61 51.17 95.61 51.11 95.61 51.04 95.61 50.97 95.61 50.9 95.61 50.83 95.61 50.77 95.61 50.7 95.61 50.63 95.61 50.56 95.61 50.5 95.61 50.43 95.61 50.36 95.61 50.29 95.6 50.22 95.6 50.16 95.6 50.09 95.6 50.02 95.6 49.95 95.59 49.89 95.59 49.82 95.59 49.75 95.59 49.68 95.58 49.61 95.58 49.55 95.58 49.48 95.57 49.41 95.57 49.34 95.56 49.28 95.56 49.21 95.56 49.14 95.55 49.07 95.55 49 95.54 48.94 95.54 48.87 95.53 48.8 95.53 48.73 95.52 48.67 95.52 48.63 95.51 48.6 95.51 48.53 95.5 48.46 95.5 48.39 95.49 48.33 95.48 48.26 95.47 48.19 95.47 48.12 95.46 48.06 95.45 47.99 95.44 47.92 95.44 47.85 95.43 47.78 95.42 47.72 95.41 47.65 95.41 47.63 95.4 47.58 95.39 47.51 95.38 47.45 95.37 47.38 95.36 47.31 95.35 47.24 95.34 47.17 95.33 47.11 95.32 47.04 95.31 46.97 95.3 46.9 95.3 46.9 95.29 46.84 95.28 46.77 95.26 46.7 95.25 46.63 95.24 46.56 95.23 46.5 95.22 46.43 95.2 46.36 95.19 46.3 95.19 46.29 95.18 46.23 95.16 46.16 95.15 46.09 95.13 46.02 95.12 45.96 95.1 45.89 95.09 45.82 95.08 45.78 95.07 45.75 95.06 45.68 95.04 45.62 95.03 45.55 95.01 45.48 94.99 45.41 94.98 45.35 94.97 45.33 94.96 45.28 94.94 45.21 94.92 45.14 94.91 45.07 94.89 45.01 94.87 44.94 94.86 44.92 94.85 44.87 94.83 44.8 94.81 44.74 94.79 44.67 94.77 44.6 94.75 44.54 94.75 44.53 94.73 44.46 94.71 44.4 94.69 44.33 94.67 44.26 94.64 44.19 94.64 44.19 94.62 44.13 94.6 44.06 94.58 43.99 94.55 43.92 94.54 43.87 94.53 43.85 94.51 43.79 94.48 43.72 94.46 43.65 94.43 43.58 94.43 43.57 94.41 43.52 94.38 43.45 94.35 43.38 94.33 43.31 94.32 43.28 94.3 43.24 94.27 43.18 94.25 43.11 94.22 43.04 94.21 43.01 94.19 42.97 94.16 42.91 94.13 42.84 94.1 42.77 94.1 42.76 94.07 42.7 94.04 42.63 94.01 42.57 93.99 42.52 93.98 42.5 93.95 42.43 93.92 42.36 93.89 42.3 93.88 42.29 93.85 42.23 93.82 42.16 93.79 42.09 93.77 42.06 93.75 42.02 93.72 41.96 93.68 41.89 93.66 41.85 93.65 41.82 93.61 41.75 93.57 41.69 93.55 41.65 93.54 41.62 93.5 41.55 93.46 41.48 93.44 41.45 93.42 41.41 93.38 41.35 93.34 41.28 93.33 41.26 93.3 41.21 93.26 41.14 93.23 41.08 93.22 41.08 93.18 41.01 93.14 40.94 93.12 40.91 93.09 40.87 93.05 40.8 93.01 40.74 93.01 40.74 92.96 40.67 92.92 40.6 92.9 40.57 92.87 40.53 92.83 40.47 92.79 40.41 92.78 40.4 92.73 40.33 92.68 40.26 92.68 40.26 92.63 40.19 92.58 40.13 92.57 40.11 92.53 40.06 92.48 39.99 92.46 39.96 92.43 39.92 92.38 39.86 92.35 39.82 92.33 39.79 92.27 39.72 92.24 39.68 92.22 39.65 92.16 39.58 92.13 39.55 92.11 39.52 92.05 39.45 92.03 39.42 91.99 39.38 91.94 39.31 91.92 39.29 91.88 39.25 91.82 39.18 91.81 39.17 91.76 39.11 91.7 39.04 91.7 39.04 91.63 38.97 91.59 38.93 91.57 38.91 91.51 38.84 91.48 38.81 91.44 38.77 91.38 38.7 91.37 38.7 91.31 38.64 91.26 38.59 91.24 38.57 91.17 38.5 91.15 38.48 91.11 38.43 91.04 38.37 91.04 38.36 90.96 38.3 90.93 38.27 90.89 38.23 90.82 38.17 90.82 38.16 90.74 38.09 90.72 38.07 90.67 38.03 90.61 37.97 90.59 37.96 90.51 37.89 90.5 37.88 90.44 37.82 90.39 37.78 90.36 37.75 90.28 37.69 90.28 37.69 90.19 37.62 90.17 37.6 90.11 37.55 90.06 37.51 90.03 37.48 89.95 37.43 89.94 37.42 89.85 37.35 89.84 37.34 89.76 37.28 89.73 37.26 89.67 37.21 89.62 37.17 89.58 37.14 89.52 37.09 89.49 37.08 89.41 37.01 89.4 37.01 89.3 36.94 89.3 36.94 89.21 36.87 89.19 36.86 89.11 36.81 89.08 36.79 89.01 36.74 88.97 36.71 88.91 36.67 88.86 36.64 88.81 36.6 88.75 36.57 88.7 36.53 88.64 36.5 88.6 36.47 88.53 36.43 88.49 36.4 88.42 36.36 88.38 36.33 88.31 36.29 88.27 36.26 88.21 36.23 88.16 36.2 88.1 36.16 88.04 36.13 87.99 36.1 87.93 36.06 87.88 36.03 87.81 35.99 87.77 35.97 87.69 35.92 87.66 35.91 87.57 35.86 87.55 35.85 87.44 35.79 87.44 35.79 87.33 35.73 87.32 35.72 87.22 35.67 87.19 35.65 87.11 35.62 87.06 35.59 87.01 35.56 86.92 35.52 86.9 35.5 86.79 35.45 86.79 35.45 86.68 35.39 86.65 35.38 86.57 35.34 86.51 35.31 86.46 35.29 86.37 35.25 86.35 35.24 86.24 35.19 86.23 35.18 86.13 35.14 86.08 35.11 86.02 35.09 85.93 35.04 85.91 35.04 85.8 34.99 85.78 34.98 85.7 34.94 85.62 34.91 85.59 34.89 85.48 34.85 85.47 34.84 85.37 34.8 85.3 34.77 85.26 34.75 85.15 34.71 85.14 34.71 85.04 34.66 84.97 34.64 84.93 34.62 84.82 34.58 84.8 34.57 84.71 34.53 84.63 34.5 84.6 34.49 84.5 34.45 84.45 34.43 84.39 34.41 84.28 34.37 84.27 34.37 84.17 34.33 84.09 34.3 84.06 34.29 83.95 34.25 83.9 34.23 83.84 34.21 83.73 34.17 83.71 34.16 83.62 34.13 83.52 34.1 83.51 34.09 83.4 34.06 83.32 34.03 83.29 34.02 83.19 33.98 83.11 33.96 83.08 33.95 82.97 33.91 82.9 33.89 82.86 33.88 82.75 33.84 82.69 33.82 82.64 33.81 82.53 33.77 82.48 33.76 82.42 33.74 82.31 33.71 82.25 33.69 82.2 33.67 82.09 33.64 82.03 33.62 81.99 33.61 81.88 33.58 81.79 33.55 81.77 33.55 81.66 33.51 81.56 33.49 81.55 33.48 81.44 33.45 81.33 33.42 81.31 33.42 81.22 33.39 81.11 33.36 81.06 33.35 81 33.33 80.89 33.3 80.81 33.28 80.78 33.28 80.68 33.25 80.57 33.22 80.55 33.21 80.46 33.19 80.35 33.16 80.28 33.15 80.24 33.14 80.13 33.11 80.02 33.08 80.01 33.08 79.91 33.06 79.8 33.03 79.72 33.01 79.69 33 79.58 32.98 79.48 32.95 79.43 32.94 79.37 32.93 79.26 32.9 79.15 32.88 79.14 32.88 79.04 32.85 78.93 32.83 78.83 32.81 78.82 32.81 78.71 32.78 78.6 32.76 78.51 32.74 78.49 32.74 78.38 32.71 78.27 32.69 78.19 32.67 78.17 32.67 78.06 32.64 77.95 32.62 77.85 32.6 77.84 32.6 77.73 32.58 77.62 32.56 77.51 32.54 77.51 32.54 77.4 32.52 77.29 32.49 77.18 32.47 77.15 32.47 77.07 32.45 76.97 32.43 76.86 32.41 76.79 32.4 76.75 32.39 76.64 32.37 76.53 32.35 76.42 32.34 76.4 32.33 76.31 32.32 76.2 32.3 76.09 32.28 76.01 32.27 75.98 32.26 75.87 32.24 75.76 32.22 75.66 32.21 75.6 32.2 75.55 32.19 75.44 32.17 75.33 32.15 75.22 32.14 75.18 32.13 75.11 32.12 75 32.1 74.89 32.09 74.78 32.07 74.73 32.06 74.67 32.05 74.56 32.04 74.46 32.02 74.35 32.01 74.27 31.99 74.24 31.99 74.13 31.97 74.02 31.96 73.91 31.94 73.8 31.93 73.79 31.93 73.69 31.91 73.58 31.9 73.47 31.88 73.36 31.87 73.28 31.86 73.25 31.86 73.15 31.84 73.04 31.83 72.93 31.81 72.82 31.8 72.75 31.79 72.71 31.79 72.6 31.77 72.49 31.76 72.38 31.75 72.27 31.73 72.19 31.72 72.16 31.72 72.05 31.71 71.95 31.69 71.84 31.68 71.73 31.67 71.62 31.66 71.59 31.66 71.51 31.65 71.4 31.63 71.29 31.62 71.18 31.61 71.07 31.6 70.96 31.59 70.96 31.59 70.85 31.58 70.74 31.57 70.64 31.55 70.53 31.54 70.42 31.53 70.31 31.52 70.28 31.52 70.2 31.51 70.09 31.5 69.98 31.49 69.87 31.48 69.76 31.47 69.65 31.46 69.54 31.45 69.54 31.45 69.44 31.44 69.33 31.43 69.22 31.42 69.11 31.41 69 31.41 68.89 31.4 68.78 31.39 68.74 31.38 68.67 31.38 68.56 31.37 68.45 31.36 68.34 31.35 68.23 31.35 68.13 31.34 68.02 31.33 67.91 31.32 67.84 31.32 67.8 31.31 67.69 31.31 67.58 31.3 67.47 31.29 67.36 31.28 67.25 31.28 67.14 31.27 67.03 31.26 66.93 31.26 66.82 31.25 66.81 31.25 66.71 31.24 66.6 31.24 66.49 31.23 66.38 31.22 66.27 31.22 66.16 31.21 66.05 31.21 65.94 31.2 65.83 31.19 65.72 31.19 65.62 31.18 65.57 31.18 65.51 31.18 65.4 31.17 65.29 31.17 65.18 31.16 65.07 31.16 64.96 31.15 64.85 31.15 64.74 31.14 64.63 31.14 64.52 31.13 64.42 31.13 64.31 31.13 64.2 31.12 64.09 31.12 63.98 31.11 63.93 31.11 63.87 31.11 63.76 31.11 63.65 31.1 63.54 31.1 63.43 31.1 63.32 31.09 63.21 31.09 63.11 31.09 63 31.09 62.89 31.08 62.78 31.08 62.67 31.08 62.56 31.08 62.45 31.07 62.34 31.07 62.23 31.07 62.12 31.07 62.01 31.07 61.91 31.06 61.8 31.06 61.69 31.06 61.58 31.06 61.47 31.06 61.36 31.06 61.25 31.06 61.14 31.06 61.03 31.06 60.92 31.06 60.81 31.05 60.7 31.05 60.6 31.05 60.49 31.05 60.38 31.05 60.27 31.05 60.16 31.05 60.05 31.05 59.94 31.05 59.83 31.06 59.72 31.06 59.61 31.06 59.5 31.06 59.4 31.06 59.29 31.06 59.18 31.06 59.07 31.06 58.96 31.06 58.85 31.07 58.74 31.07 58.63 31.07 58.52 31.07 58.41 31.07 58.3 31.08 58.19 31.08 58.09 31.08 57.98 31.08 57.87 31.09 57.76 31.09 57.65 31.09 57.54 31.1 57.43 31.1 57.32 31.1 57.21 31.11 57.1 31.11 57 31.11 56.99 31.11 56.89 31.12 56.78 31.12 56.67 31.13 56.56 31.13 56.45 31.13 56.34 31.14 56.23 31.14 56.12 31.15 56.01 31.15 55.9 31.16 55.79 31.16 55.68 31.17 55.58 31.18 55.47 31.18 55.46 31.18 55.36 31.19 55.25 31.19 55.14 31.2 55.03 31.21 54.92 31.21 54.81 31.22 54.7 31.23 54.59 31.23 54.48 31.24 54.38 31.25 54.34 31.25 54.27 31.25 54.16 31.26 54.05 31.27 53.94 31.28 53.83 31.28 53.72 31.29 53.61 31.3 53.5 31.31 53.41 31.32 53.39 31.32 53.28 31.33 53.17 31.34 53.07 31.34 52.96 31.35 52.85 31.36 52.74 31.37 52.63 31.38 52.62 31.38 52.52 31.39 52.41 31.4 52.3 31.41 52.19 31.42 52.08 31.43 51.97 31.45 51.91 31.45 51.87 31.46 51.76 31.47 51.65 31.48 51.54 31.49 51.43 31.5 51.32 31.51 51.27 31.52 51.21 31.53 51.1 31.54 50.99 31.55 50.88 31.56 50.77 31.58 50.69 31.59 50.66 31.59 50.56 31.6 50.45 31.62 50.34 31.63 50.23 31.65 50.15 31.66 50.12 31.66 50.01 31.67 49.9 31.69 49.79 31.7 49.68 31.72 49.65 31.72 49.57 31.73 49.46 31.75 49.36 31.77 49.25 31.78 49.19 31.79 49.14 31.8 49.03 31.81 48.92 31.83 48.81 31.85 48.74 31.86 48.7 31.87 48.59 31.88 48.48 31.9 48.37 31.92 48.33 31.93 48.26 31.94 48.15 31.96 48.05 31.97 47.94 31.99 47.93 31.99 47.83 32.01 47.72 32.03 47.61 32.05 47.56 32.06 47.5 32.07 47.39 32.09 47.28 32.11 47.2 32.13 47.17 32.14 47.06 32.16 46.95 32.18 46.86 32.2 46.85 32.2 46.74 32.22 46.63 32.24 46.53 32.27 46.52 32.27 46.41 32.29 46.3 32.31 46.22 32.33 46.19 32.34 46.08 32.36 45.97 32.39 45.91 32.4 45.86 32.41 45.75 32.44 45.64 32.46 45.62 32.47 45.54 32.49 45.43 32.52 45.34 32.54 45.32 32.54 45.21 32.57 45.1 32.6 45.07 32.6 44.99 32.63 44.88 32.65 44.81 32.67 44.77 32.68 44.66 32.71 44.56 32.74 44.55 32.74 44.44 32.77 44.34 32.8 44.32 32.81 44.23 32.83 44.12 32.86 44.08 32.88 44.01 32.9 43.9 32.93 43.85 32.94 43.79 32.96 43.68 33 43.63 33.01 43.57 33.03 43.46 33.06 43.41 33.08 43.35 33.1 43.24 33.13 43.2 33.15 43.13 33.17 43.03 33.21 43 33.21 42.92 33.24 42.81 33.28 42.8 33.28 42.7 33.32 42.61 33.35 42.59 33.36 42.48 33.4 42.42 33.42 42.37 33.44 42.26 33.48 42.24 33.49 42.15 33.52 42.06 33.55 42.04 33.56 41.93 33.6 41.89 33.62 41.83 33.65 41.72 33.69 41.72 33.69 41.61 33.74 41.56 33.76 41.5 33.78 41.4 33.82 41.39 33.83 41.28 33.88 41.24 33.89 41.17 33.92 41.09 33.96 41.06 33.97 40.95 34.02 40.94 34.03 40.84 34.07 40.79 34.1 40.73 34.12 40.65 34.16 40.62 34.18 40.52 34.23 40.51 34.23 40.41 34.28 40.38 34.3 40.3 34.34 40.24 34.37 40.19 34.39 40.11 34.43 40.08 34.45 39.98 34.5 39.97 34.51 39.86 34.57 39.86 34.57 39.75 34.63 39.74 34.64 39.64 34.69 39.62 34.71 39.53 34.75 39.5 34.77 39.42 34.82 39.39 34.84 39.32 34.88 39.28 34.91 39.21 34.95 39.17 34.98 39.1 35.02 39.06 35.04 38.99 35.09 38.95 35.11 38.88 35.16 38.85 35.18 38.77 35.23 38.75 35.25 38.66 35.31 38.65 35.31 38.55 35.38 38.55 35.38 38.46 35.45 38.44 35.46 38.36 35.52 38.33 35.54 38.27 35.59 38.22 35.62 38.18 35.65 38.11 35.71 38.09 35.72 38.01 35.79 38.01 35.79 37.92 35.86 37.9 35.88 37.84 35.92 37.79 35.97 37.76 35.99 37.68 36.06 37.68 36.06 37.6 36.13 37.57 36.16 37.52 36.2 37.46 36.25 37.45 36.26 37.37 36.33 37.35 36.35 37.3 36.4 37.24 36.45 37.23 36.47 37.16 36.53 37.13 36.56 37.09 36.6 37.02 36.67 37.02 36.67 36.96 36.74 36.91 36.78 36.89 36.81 36.83 36.87 36.81 36.9 36.76 36.94 36.7 37.01 36.7 37.02 36.64 37.08 36.59 37.14 36.58 37.14 36.52 37.21 36.48 37.27 36.47 37.28 36.41 37.35 36.37 37.4 36.36 37.42 36.3 37.48 36.26 37.54 36.25 37.55 36.2 37.62 36.15 37.68 36.14 37.69 36.09 37.75 36.04 37.82 36.04 37.83 36 37.89 35.95 37.96 35.93 37.98 35.9 38.03 35.86 38.09 35.82 38.14 35.81 38.16 35.77 38.23 35.72 38.3 35.71 38.31 35.68 38.36 35.64 38.43 35.6 38.49 35.6 38.5 35.56 38.57 35.52 38.64 35.5 38.68 35.48 38.7 35.44 38.77 35.4 38.84 35.39 38.87 35.37 38.91 35.33 38.97 35.3 39.04 35.28 39.08 35.26 39.11 35.23 39.18 35.2 39.25 35.17 39.3 35.16 39.31 35.13 39.38 35.1 39.45 35.07 39.52 35.06 39.54 35.04 39.58 35.01 39.65 34.98 39.72 34.95 39.79 34.95 39.79 34.93 39.86 34.9 39.92 34.87 39.99 34.85 40.06 34.84 40.07 34.82 40.13 34.8 40.19 34.77 40.26 34.75 40.33 34.73 40.37 34.72 40.4 34.7 40.47 34.68 40.53 34.66 40.6 34.64 40.67 34.62 40.71 34.61 40.74 34.59 40.8 34.57 40.87 34.56 40.94 34.54 41.01 34.52 41.08 34.51 41.09 34.5 41.14 34.48 41.21 34.47 41.28 34.45 41.35 34.43 41.41 34.42 41.48 34.4 41.54 34.4 41.55 34.39 41.62 34.37 41.69 34.36 41.75 34.34 41.82 34.33 41.89 34.32 41.96 34.3 42.02 34.3 42.08 34.29 42.09 34.28 42.16 34.27 42.23 34.26 42.3 34.25 42.36 34.24 42.43 34.23 42.5 34.22 42.57 34.21 42.63 34.2 42.7 34.19 42.77 34.19 42.81 34.18 42.84 34.17 42.91 34.17 42.97 34.16 43.04 34.15 43.11 34.15 43.18 34.14 43.24 34.13 43.31 34.13 43.38 34.12 43.45 34.12 43.52 34.11 43.58 34.11 43.65 34.1 43.72 34.1 43.79 34.1 43.85 34.09 43.92 34.09 43.99 34.09 44.06 34.09 44.13 34.08 44.19 34.08 44.26 34.08 44.33 34.08 44.4 34.08 44.46 34.08 44.53 34.08 44.6 34.08 44.67 34.08 44.74 34.08 44.8 34.08 44.87 34.08 44.94 34.08 45.01 34.08 45.07 34.08 45.14 34.08 45.21 34.09 45.28 34.09 45.35 34.09 45.41 34.09 45.48 34.1 45.55 34.1 45.62 34.1 45.68 34.11 45.75 34.11 45.82 34.12 45.89 34.12 45.96 34.13 46.02 34.13 46.09 34.14 46.16 34.14 46.23 34.15 46.29 34.15 46.36 34.16 46.43 34.17 46.5 34.17 46.56 34.18 46.63 34.19 46.7 34.19 46.7 34.19 46.77 34.2 46.84 34.21 46.9 34.22 46.97 34.22 47.04 34.23 47.11 34.24 47.17 34.25 47.24 34.26 47.31 34.27 47.38 34.28 47.45 34.29 47.51 34.3 47.58 34.3 47.58 34.31 47.65 34.32 47.72 34.33 47.78 34.34 47.85 34.35 47.92 34.36 47.99 34.37 48.06 34.38 48.12 34.39 48.19 34.4 48.26 34.4 48.27 34.41 48.33 34.43 48.39 34.44 48.46 34.45 48.53 34.46 48.6 34.48 48.67 34.49 48.73 34.5 48.8 34.51 48.86 34.52 48.87 34.53 48.94 34.54 49 34.56 49.07 34.57 49.14 34.59 49.21 34.6 49.28 34.61 49.34 34.62 49.38 34.63 49.41 34.64 49.48 34.66 49.55 34.67 49.61 34.69 49.68 34.71 49.75 34.72 49.82 34.73 49.86 34.74 49.89 34.75 49.95 34.77 50.02 34.79 50.09 34.8 50.16 34.82 50.22 34.84 50.29 34.84 50.3 34.86 50.36 34.87 50.43 34.89 50.5 34.91 50.56 34.93 50.63 34.95 50.7 34.95 50.72 34.96 50.77 34.98 50.83 35 50.9 35.02 50.97 35.04 51.04 35.06 51.11 35.06 51.11 35.08 51.17 35.1 51.24 35.12 51.31 35.14 51.38 35.16 51.44 35.17 51.48 35.18 51.51 35.2 51.58 35.22 51.65 35.24 51.72 35.26 51.78 35.28 51.83 35.28 51.85 35.3 51.92 35.33 51.99 35.35 52.05 35.37 52.12 35.39 52.17 35.39 52.19 35.41 52.26 35.44 52.33 35.46 52.39 35.48 52.46 35.5 52.5 35.51 52.53 35.53 52.6 35.55 52.66 35.58 52.73 35.6 52.8 35.6 52.82 35.62 52.87 35.65 52.94 35.67 53 35.7 53.07 35.71 53.12 35.72 53.14 35.75 53.21 35.77 53.27 35.8 53.34 35.82 53.41 35.82 53.41 35.85 53.48 35.87 53.55 35.9 53.61 35.93 53.68 35.93 53.7 35.95 53.75 35.98 53.82 36.01 53.88 36.03 53.95 36.04 53.97 36.06 54.02 36.09 54.09 36.11 54.16 36.14 54.22 36.15 54.24 36.17 54.29 36.2 54.36 36.23 54.43 36.25 54.49 36.26 54.5 36.28 54.56 36.31 54.63 36.34 54.7 36.37 54.76 36.37 54.77 36.4 54.83 36.43 54.9 36.46 54.97 36.48 55.01 36.49 55.04 36.52 55.1 36.55 55.17 36.58 55.24 36.59 55.25 36.61 55.31 36.64 55.38 36.68 55.44 36.7 55.49 36.71 55.51 36.74 55.58 36.77 55.65 36.8 55.71 36.81 55.72 36.84 55.78 36.87 55.85 36.9 55.92 36.91 55.95 36.93 55.99 36.97 56.05 37 56.12 37.02 56.17 37.03 56.19 37.07 56.26 37.1 56.32 37.13 56.38 37.14 56.39 37.17 56.46 37.21 56.53 37.24 56.6 37.24 56.6 37.28 56.66 37.31 56.73 37.35 56.8 37.35 56.8 37.38 56.87 37.42 56.93 37.46 57 37.46 57.01 37.49 57.07 37.53 57.14 37.57 57.21 37.57 57.21 37.6 57.27 37.64 57.34 37.68 57.4 37.68 57.41 37.72 57.48 37.76 57.54 37.79 57.6 37.8 57.61 37.83 57.68 37.87 57.75 37.9 57.79 37.91 57.81 37.95 57.88 37.99 57.95 38.01 57.97 38.03 58.02 38.07 58.09 38.11 58.15 38.11 58.16 38.15 58.22 38.2 58.29 38.22 58.33 38.24 58.36 38.28 58.42 38.32 58.49 38.33 58.51 38.36 58.56 38.41 58.63 38.44 58.68 38.45 58.7 38.49 58.76 38.54 58.83 38.55 58.85 38.58 58.9 38.62 58.97 38.66 59.02 38.67 59.03 38.71 59.1 38.76 59.17 38.77 59.19 38.8 59.24 38.85 59.31 38.88 59.35 38.89 59.37 38.94 59.44 38.99 59.51 38.99 59.51 39.03 59.58 39.08 59.64 39.1 59.67 39.13 59.71 39.18 59.78 39.21 59.82 39.22 59.85 39.27 59.92 39.32 59.97 39.32 59.98 39.37 60.05 39.42 60.12 39.42 60.12 39.47 60.19 39.52 60.25 39.53 60.27 39.57 60.32 39.62 60.39 39.64 60.42 39.67 60.46 39.72 60.53 39.75 60.56 39.78 60.59 39.83 60.66 39.86 60.7 39.88 60.73 39.93 60.8 39.97 60.84 39.99 60.86 40.04 60.93 40.08 60.98 40.1 61 40.15 61.07 40.19 61.12 40.2 61.14 40.26 61.2 40.3 61.25 40.32 61.27 40.37 61.34 40.41 61.38 40.43 61.41 40.49 61.47 40.52 61.51 40.54 61.54 40.6 61.61 40.62 61.64 40.66 61.68 40.72 61.75 40.73 61.76 40.78 61.81 40.84 61.88 40.84 61.89 40.9 61.95 40.95 62.01 40.96 62.02 41.02 62.08 41.06 62.13 41.08 62.15 41.14 62.22 41.17 62.25 41.2 62.29 41.27 62.36 41.28 62.37 41.33 62.42 41.39 62.49 41.39 62.49 41.46 62.56 41.5 62.6 41.52 62.63 41.59 62.69 41.61 62.72 41.65 62.76 41.72 62.83 41.72 62.83 41.79 62.9 41.83 62.94 41.85 62.97 41.92 63.03 41.93 63.05 41.99 63.1 42.04 63.15 42.06 63.17 42.13 63.24 42.15 63.26 42.2 63.3 42.26 63.37 42.27 63.37 42.34 63.44 42.37 63.47 42.41 63.51 42.48 63.57 42.48 63.58 42.56 63.64 42.59 63.67 42.63 63.71 42.7 63.77 42.71 63.78 42.78 63.85 42.81 63.87 42.86 63.91 42.92 63.97 42.93 63.98 43.01 64.05 43.03 64.06 43.09 64.12 43.13 64.16 43.17 64.19 43.24 64.25 43.24 64.25 43.32 64.32 43.35 64.34 43.41 64.39 43.46 64.44 43.49 64.46 43.57 64.52 43.57 64.53 43.65 64.59 43.68 64.62 43.73 64.66 43.79 64.7 43.82 64.73 43.9 64.79 43.9 64.8 43.99 64.86 44.01 64.88 44.08 64.93 44.12 64.96 44.16 65 44.23 65.05 44.25 65.07 44.34 65.13 44.34 65.13 44.43 65.2 44.44 65.21 44.52 65.27" id="img-83ec78bf-33"/>
      </g>
      <g class="geometry" id="img-83ec78bf-34">
        <g stroke-width="0.3" id="img-83ec78bf-35">
          <use xlink:href="#img-83ec78bf-36" x="67.59" y="34.29" id="img-83ec78bf-37" class="color_accepted" fill="#00BFFF" stroke="#FFFFFF"/>
          <use xlink:href="#img-83ec78bf-36" x="61.31" y="34.68" id="img-83ec78bf-38" class="color_accepted" fill="#00BFFF" stroke="#FFFFFF"/>
          <use xlink:href="#img-83ec78bf-36" x="56.03" y="34.49" id="img-83ec78bf-39" class="color_accepted" fill="#00BFFF" stroke="#FFFFFF"/>
          <use xlink:href="#img-83ec78bf-36" x="49" y="39.63" id="img-83ec78bf-40" class="color_accepted" fill="#00BFFF" stroke="#FFFFFF"/>
          <use xlink:href="#img-83ec78bf-36" x="42.97" y="40.62" id="img-83ec78bf-41" class="color_accepted" fill="#00BFFF" stroke="#FFFFFF"/>
          <use xlink:href="#img-83ec78bf-36" x="42.47" y="47.55" id="img-83ec78bf-42" class="color_accepted" fill="#00BFFF" stroke="#FFFFFF"/>
          <use xlink:href="#img-83ec78bf-36" x="48" y="52.3" id="img-83ec78bf-43" class="color_accepted" fill="#00BFFF" stroke="#FFFFFF"/>
          <use xlink:href="#img-83ec78bf-36" x="52.01" y="58.44" id="img-83ec78bf-44" class="color_accepted" fill="#00BFFF" stroke="#FFFFFF"/>
          <use xlink:href="#img-83ec78bf-36" x="66.08" y="64.18" id="img-83ec78bf-45" class="color_accepted" fill="#00BFFF" stroke="#FFFFFF"/>
          <use xlink:href="#img-83ec78bf-36" x="71.11" y="67.15" id="img-83ec78bf-46" class="color_accepted" fill="#00BFFF" stroke="#FFFFFF"/>
          <use xlink:href="#img-83ec78bf-36" x="82.16" y="68.54" id="img-83ec78bf-47" class="color_accepted" fill="#00BFFF" stroke="#FFFFFF"/>
          <use xlink:href="#img-83ec78bf-36" x="88.44" y="67.35" id="img-83ec78bf-48" class="color_accepted" fill="#00BFFF" stroke="#FFFFFF"/>
          <use xlink:href="#img-83ec78bf-36" x="93.21" y="59.83" id="img-83ec78bf-49" class="color_accepted" fill="#00BFFF" stroke="#FFFFFF"/>
          <use xlink:href="#img-83ec78bf-36" x="97.48" y="58.24" id="img-83ec78bf-50" class="color_accepted" fill="#00BFFF" stroke="#FFFFFF"/>
          <use xlink:href="#img-83ec78bf-36" x="89.19" y="40.03" id="img-83ec78bf-51" class="color_accepted" fill="#00BFFF" stroke="#FFFFFF"/>
          <use xlink:href="#img-83ec78bf-36" x="79.4" y="37.46" id="img-83ec78bf-52" class="color_accepted" fill="#00BFFF" stroke="#FFFFFF"/>
          <use xlink:href="#img-83ec78bf-36" x="72.61" y="38.64" id="img-83ec78bf-53" class="color_accepted" fill="#00BFFF" stroke="#FFFFFF"/>
          <use xlink:href="#img-83ec78bf-36" x="63.32" y="31.12" id="img-83ec78bf-54" class="color_accepted" fill="#00BFFF" stroke="#FFFFFF"/>
          <use xlink:href="#img-83ec78bf-36" x="57.79" y="34.29" id="img-83ec78bf-55" class="color_accepted" fill="#00BFFF" stroke="#FFFFFF"/>
          <use xlink:href="#img-83ec78bf-36" x="44.48" y="36.07" id="img-83ec78bf-56" class="color_accepted" fill="#00BFFF" stroke="#FFFFFF"/>
          <use xlink:href="#img-83ec78bf-36" x="38.95" y="37.06" id="img-83ec78bf-57" class="color_accepted" fill="#00BFFF" stroke="#FFFFFF"/>
          <use xlink:href="#img-83ec78bf-36" x="37.95" y="44.19" id="img-83ec78bf-58" class="color_accepted" fill="#00BFFF" stroke="#FFFFFF"/>
          <use xlink:href="#img-83ec78bf-36" x="39.45" y="53.1" id="img-83ec78bf-59" class="color_accepted" fill="#00BFFF" stroke="#FFFFFF"/>
          <use xlink:href="#img-83ec78bf-36" x="46.99" y="60.62" id="img-83ec78bf-60" class="color_accepted" fill="#00BFFF" stroke="#FFFFFF"/>
          <use xlink:href="#img-83ec78bf-36" x="60.3" y="63.98" id="img-83ec78bf-61" class="color_accepted" fill="#00BFFF" stroke="#FFFFFF"/>
          <use xlink:href="#img-83ec78bf-36" x="74.12" y="69.53" id="img-83ec78bf-62" class="color_accepted" fill="#00BFFF" stroke="#FFFFFF"/>
          <use xlink:href="#img-83ec78bf-36" x="85.68" y="67.74" id="img-83ec78bf-63" class="color_accepted" fill="#00BFFF" stroke="#FFFFFF"/>
          <use xlink:href="#img-83ec78bf-36" x="94.72" y="67.74" id="img-83ec78bf-64" class="color_accepted" fill="#00BFFF" stroke="#FFFFFF"/>
          <use xlink:href="#img-83ec78bf-36" x="59.3" y="38.45" id="img-83ec78bf-65" class="color_accepted" fill="#00BFFF" stroke="#FFFFFF"/>
          <use xlink:href="#img-83ec78bf-36" x="52.52" y="32.11" id="img-83ec78bf-66" class="color_accepted" fill="#00BFFF" stroke="#FFFFFF"/>
          <use xlink:href="#img-83ec78bf-36" x="53.77" y="27.16" id="img-83ec78bf-67" class="color_accepted" fill="#00BFFF" stroke="#FFFFFF"/>
          <use xlink:href="#img-83ec78bf-36" x="58.29" y="31.52" id="img-83ec78bf-68" class="color_accepted" fill="#00BFFF" stroke="#FFFFFF"/>
          <use xlink:href="#img-83ec78bf-36" x="57.79" y="35.67" id="img-83ec78bf-69" class="color_accepted" fill="#00BFFF" stroke="#FFFFFF"/>
          <use xlink:href="#img-83ec78bf-36" x="53.02" y="40.43" id="img-83ec78bf-70" class="color_accepted" fill="#00BFFF" stroke="#FFFFFF"/>
          <use xlink:href="#img-83ec78bf-36" x="49.5" y="44.78" id="img-83ec78bf-71" class="color_accepted" fill="#00BFFF" stroke="#FFFFFF"/>
          <use xlink:href="#img-83ec78bf-36" x="52.27" y="52.5" id="img-83ec78bf-72" class="color_accepted" fill="#00BFFF" stroke="#FFFFFF"/>
          <use xlink:href="#img-83ec78bf-36" x="55.03" y="59.03" id="img-83ec78bf-73" class="color_accepted" fill="#00BFFF" stroke="#FFFFFF"/>
          <use xlink:href="#img-83ec78bf-36" x="62.57" y="58.24" id="img-83ec78bf-74" class="color_accepted" fill="#00BFFF" stroke="#FFFFFF"/>
          <use xlink:href="#img-83ec78bf-36" x="68.09" y="57.65" id="img-83ec78bf-75" class="color_accepted" fill="#00BFFF" stroke="#FFFFFF"/>
          <use xlink:href="#img-83ec78bf-36" x="75.38" y="64.38" id="img-83ec78bf-76" class="color_accepted" fill="#00BFFF" stroke="#FFFFFF"/>
          <use xlink:href="#img-83ec78bf-36" x="78.14" y="59.43" id="img-83ec78bf-77" class="color_accepted" fill="#00BFFF" stroke="#FFFFFF"/>
          <use xlink:href="#img-83ec78bf-36" x="86.43" y="58.24" id="img-83ec78bf-78" class="color_accepted" fill="#00BFFF" stroke="#FFFFFF"/>
          <use xlink:href="#img-83ec78bf-36" x="93.46" y="57.05" id="img-83ec78bf-79" class="color_accepted" fill="#00BFFF" stroke="#FFFFFF"/>
          <use xlink:href="#img-83ec78bf-36" x="85.42" y="52.9" id="img-83ec78bf-80" class="color_accepted" fill="#00BFFF" stroke="#FFFFFF"/>
          <use xlink:href="#img-83ec78bf-36" x="92.71" y="48.94" id="img-83ec78bf-81" class="color_accepted" fill="#00BFFF" stroke="#FFFFFF"/>
          <use xlink:href="#img-83ec78bf-36" x="90.45" y="45.97" id="img-83ec78bf-82" class="color_accepted" fill="#00BFFF" stroke="#FFFFFF"/>
          <use xlink:href="#img-83ec78bf-36" x="96.98" y="41.22" id="img-83ec78bf-83" class="color_accepted" fill="#00BFFF" stroke="#FFFFFF"/>
          <use xlink:href="#img-83ec78bf-36" x="75.13" y="39.04" id="img-83ec78bf-84" class="color_accepted" fill="#00BFFF" stroke="#FFFFFF"/>
          <use xlink:href="#img-83ec78bf-36" x="84.67" y="35.08" id="img-83ec78bf-85" class="color_accepted" fill="#00BFFF" stroke="#FFFFFF"/>
          <use xlink:href="#img-83ec78bf-36" x="79.4" y="34.49" id="img-83ec78bf-86" class="color_accepted" fill="#00BFFF" stroke="#FFFFFF"/>
          <use xlink:href="#img-83ec78bf-36" x="71.36" y="37.65" id="img-83ec78bf-87" class="color_accepted" fill="#00BFFF" stroke="#FFFFFF"/>
          <use xlink:href="#img-83ec78bf-36" x="65.08" y="42.41" id="img-83ec78bf-88" class="color_accepted" fill="#00BFFF" stroke="#FFFFFF"/>
          <use xlink:href="#img-83ec78bf-36" x="61.31" y="38.25" id="img-83ec78bf-89" class="color_accepted" fill="#00BFFF" stroke="#FFFFFF"/>
          <use xlink:href="#img-83ec78bf-36" x="56.29" y="43.59" id="img-83ec78bf-90" class="color_accepted" fill="#00BFFF" stroke="#FFFFFF"/>
          <use xlink:href="#img-83ec78bf-36" x="56.29" y="48.54" id="img-83ec78bf-91" class="color_accepted" fill="#00BFFF" stroke="#FFFFFF"/>
          <use xlink:href="#img-83ec78bf-36" x="46.24" y="47.35" id="img-83ec78bf-92" class="color_accepted" fill="#00BFFF" stroke="#FFFFFF"/>
          <use xlink:href="#img-83ec78bf-36" x="55.78" y="53.69" id="img-83ec78bf-93" class="color_accepted" fill="#00BFFF" stroke="#FFFFFF"/>
          <use xlink:href="#img-83ec78bf-36" x="59.3" y="60.62" id="img-83ec78bf-94" class="color_accepted" fill="#00BFFF" stroke="#FFFFFF"/>
          <use xlink:href="#img-83ec78bf-36" x="73.37" y="27.95" id="img-83ec78bf-95" class="color_rejected" fill="#FFB6C1" stroke="#FFFFFF"/>
          <use xlink:href="#img-83ec78bf-36" x="75.13" y="32.11" id="img-83ec78bf-96" class="color_rejected" fill="#FFB6C1" stroke="#FFFFFF"/>
          <use xlink:href="#img-83ec78bf-36" x="78.39" y="36.47" id="img-83ec78bf-97" class="color_rejected" fill="#FFB6C1" stroke="#FFFFFF"/>
          <use xlink:href="#img-83ec78bf-36" x="87.43" y="32.7" id="img-83ec78bf-98" class="color_rejected" fill="#FFB6C1" stroke="#FFFFFF"/>
          <use xlink:href="#img-83ec78bf-36" x="92.21" y="33.5" id="img-83ec78bf-99" class="color_rejected" fill="#FFB6C1" stroke="#FFFFFF"/>
          <use xlink:href="#img-83ec78bf-36" x="91.7" y="37.06" id="img-83ec78bf-100" class="color_rejected" fill="#FFB6C1" stroke="#FFFFFF"/>
          <use xlink:href="#img-83ec78bf-36" x="98.74" y="39.63" id="img-83ec78bf-101" class="color_rejected" fill="#FFB6C1" stroke="#FFFFFF"/>
          <use xlink:href="#img-83ec78bf-36" x="105.77" y="43.4" id="img-83ec78bf-102" class="color_rejected" fill="#FFB6C1" stroke="#FFFFFF"/>
          <use xlink:href="#img-83ec78bf-36" x="101.25" y="45.77" id="img-83ec78bf-103" class="color_rejected" fill="#FFB6C1" stroke="#FFFFFF"/>
          <use xlink:href="#img-83ec78bf-36" x="107.28" y="50.92" id="img-83ec78bf-104" class="color_rejected" fill="#FFB6C1" stroke="#FFFFFF"/>
          <use xlink:href="#img-83ec78bf-36" x="106.27" y="52.9" id="img-83ec78bf-105" class="color_rejected" fill="#FFB6C1" stroke="#FFFFFF"/>
          <use xlink:href="#img-83ec78bf-36" x="103.01" y="55.47" id="img-83ec78bf-106" class="color_rejected" fill="#FFB6C1" stroke="#FFFFFF"/>
          <use xlink:href="#img-83ec78bf-36" x="104.52" y="58.84" id="img-83ec78bf-107" class="color_rejected" fill="#FFB6C1" stroke="#FFFFFF"/>
          <use xlink:href="#img-83ec78bf-36" x="102.51" y="63.19" id="img-83ec78bf-108" class="color_rejected" fill="#FFB6C1" stroke="#FFFFFF"/>
          <use xlink:href="#img-83ec78bf-36" x="101.5" y="67.35" id="img-83ec78bf-109" class="color_rejected" fill="#FFB6C1" stroke="#FFFFFF"/>
          <use xlink:href="#img-83ec78bf-36" x="99.99" y="68.34" id="img-83ec78bf-110" class="color_rejected" fill="#FFB6C1" stroke="#FFFFFF"/>
          <use xlink:href="#img-83ec78bf-36" x="91.2" y="73.29" id="img-83ec78bf-111" class="color_rejected" fill="#FFB6C1" stroke="#FFFFFF"/>
          <use xlink:href="#img-83ec78bf-36" x="87.94" y="69.33" id="img-83ec78bf-112" class="color_rejected" fill="#FFB6C1" stroke="#FFFFFF"/>
          <use xlink:href="#img-83ec78bf-36" x="85.68" y="64.58" id="img-83ec78bf-113" class="color_rejected" fill="#FFB6C1" stroke="#FFFFFF"/>
          <use xlink:href="#img-83ec78bf-36" x="80.65" y="68.93" id="img-83ec78bf-114" class="color_rejected" fill="#FFB6C1" stroke="#FFFFFF"/>
          <use xlink:href="#img-83ec78bf-36" x="77.89" y="74.08" id="img-83ec78bf-115" class="color_rejected" fill="#FFB6C1" stroke="#FFFFFF"/>
          <use xlink:href="#img-83ec78bf-36" x="69.1" y="73.68" id="img-83ec78bf-116" class="color_rejected" fill="#FFB6C1" stroke="#FFFFFF"/>
          <use xlink:href="#img-83ec78bf-36" x="71.86" y="68.93" id="img-83ec78bf-117" class="color_rejected" fill="#FFB6C1" stroke="#FFFFFF"/>
          <use xlink:href="#img-83ec78bf-36" x="59.55" y="65.37" id="img-83ec78bf-118" class="color_rejected" fill="#FFB6C1" stroke="#FFFFFF"/>
          <use xlink:href="#img-83ec78bf-36" x="47.49" y="64.38" id="img-83ec78bf-119" class="color_rejected" fill="#FFB6C1" stroke="#FFFFFF"/>
          <use xlink:href="#img-83ec78bf-36" x="48.25" y="60.22" id="img-83ec78bf-120" class="color_rejected" fill="#FFB6C1" stroke="#FFFFFF"/>
          <use xlink:href="#img-83ec78bf-36" x="32.92" y="60.22" id="img-83ec78bf-121" class="color_rejected" fill="#FFB6C1" stroke="#FFFFFF"/>
          <use xlink:href="#img-83ec78bf-36" x="34.93" y="52.11" id="img-83ec78bf-122" class="color_rejected" fill="#FFB6C1" stroke="#FFFFFF"/>
          <use xlink:href="#img-83ec78bf-36" x="32.42" y="45.37" id="img-83ec78bf-123" class="color_rejected" fill="#FFB6C1" stroke="#FFFFFF"/>
          <use xlink:href="#img-83ec78bf-36" x="34.93" y="34.68" id="img-83ec78bf-124" class="color_rejected" fill="#FFB6C1" stroke="#FFFFFF"/>
          <use xlink:href="#img-83ec78bf-36" x="47.74" y="34.09" id="img-83ec78bf-125" class="color_rejected" fill="#FFB6C1" stroke="#FFFFFF"/>
          <use xlink:href="#img-83ec78bf-36" x="48.75" y="28.35" id="img-83ec78bf-126" class="color_rejected" fill="#FFB6C1" stroke="#FFFFFF"/>
          <use xlink:href="#img-83ec78bf-36" x="43.22" y="28.75" id="img-83ec78bf-127" class="color_rejected" fill="#FFB6C1" stroke="#FFFFFF"/>
          <use xlink:href="#img-83ec78bf-36" x="41.46" y="34.09" id="img-83ec78bf-128" class="color_rejected" fill="#FFB6C1" stroke="#FFFFFF"/>
          <use xlink:href="#img-83ec78bf-36" x="69.85" y="32.11" id="img-83ec78bf-129" class="color_rejected" fill="#FFB6C1" stroke="#FFFFFF"/>
          <use xlink:href="#img-83ec78bf-36" x="67.84" y="28.35" id="img-83ec78bf-130" class="color_rejected" fill="#FFB6C1" stroke="#FFFFFF"/>
          <use xlink:href="#img-83ec78bf-36" x="60.81" y="26.37" id="img-83ec78bf-131" class="color_rejected" fill="#FFB6C1" stroke="#FFFFFF"/>
          <use xlink:href="#img-83ec78bf-36" x="61.81" y="23.2" id="img-83ec78bf-132" class="color_rejected" fill="#FFB6C1" stroke="#FFFFFF"/>
          <use xlink:href="#img-83ec78bf-36" x="77.89" y="23.8" id="img-83ec78bf-133" class="color_rejected" fill="#FFB6C1" stroke="#FFFFFF"/>
          <use xlink:href="#img-83ec78bf-36" x="82.66" y="30.92" id="img-83ec78bf-134" class="color_rejected" fill="#FFB6C1" stroke="#FFFFFF"/>
          <use xlink:href="#img-83ec78bf-36" x="93.21" y="29.14" id="img-83ec78bf-135" class="color_rejected" fill="#FFB6C1" stroke="#FFFFFF"/>
          <use xlink:href="#img-83ec78bf-36" x="101.25" y="35.28" id="img-83ec78bf-136" class="color_rejected" fill="#FFB6C1" stroke="#FFFFFF"/>
          <use xlink:href="#img-83ec78bf-36" x="94.72" y="35.87" id="img-83ec78bf-137" class="color_rejected" fill="#FFB6C1" stroke="#FFFFFF"/>
          <use xlink:href="#img-83ec78bf-36" x="112.05" y="50.52" id="img-83ec78bf-138" class="color_rejected" fill="#FFB6C1" stroke="#FFFFFF"/>
          <use xlink:href="#img-83ec78bf-36" x="63.32" y="68.93" id="img-83ec78bf-139" class="color_rejected" fill="#FFB6C1" stroke="#FFFFFF"/>
          <use xlink:href="#img-83ec78bf-36" x="55.03" y="70.52" id="img-83ec78bf-140" class="color_rejected" fill="#FFB6C1" stroke="#FFFFFF"/>
          <use xlink:href="#img-83ec78bf-36" x="58.8" y="63.19" id="img-83ec78bf-141" class="color_rejected" fill="#FFB6C1" stroke="#FFFFFF"/>
          <use xlink:href="#img-83ec78bf-36" x="43.98" y="61.41" id="img-83ec78bf-142" class="color_rejected" fill="#FFB6C1" stroke="#FFFFFF"/>
          <use xlink:href="#img-83ec78bf-36" x="44.98" y="56.86" id="img-83ec78bf-143" class="color_rejected" fill="#FFB6C1" stroke="#FFFFFF"/>
          <use xlink:href="#img-83ec78bf-36" x="52.77" y="54.88" id="img-83ec78bf-144" class="color_rejected" fill="#FFB6C1" stroke="#FFFFFF"/>
          <use xlink:href="#img-83ec78bf-36" x="38.7" y="55.07" id="img-83ec78bf-145" class="color_rejected" fill="#FFB6C1" stroke="#FFFFFF"/>
          <use xlink:href="#img-83ec78bf-36" x="36.44" y="59.03" id="img-83ec78bf-146" class="color_rejected" fill="#FFB6C1" stroke="#FFFFFF"/>
          <use xlink:href="#img-83ec78bf-36" x="39.2" y="64.58" id="img-83ec78bf-147" class="color_rejected" fill="#FFB6C1" stroke="#FFFFFF"/>
          <use xlink:href="#img-83ec78bf-36" x="33.68" y="55.47" id="img-83ec78bf-148" class="color_rejected" fill="#FFB6C1" stroke="#FFFFFF"/>
          <use xlink:href="#img-83ec78bf-36" x="29.16" y="44.78" id="img-83ec78bf-149" class="color_rejected" fill="#FFB6C1" stroke="#FFFFFF"/>
          <use xlink:href="#img-83ec78bf-36" x="33.93" y="38.64" id="img-83ec78bf-150" class="color_rejected" fill="#FFB6C1" stroke="#FFFFFF"/>
          <use xlink:href="#img-83ec78bf-36" x="39.45" y="39.83" id="img-83ec78bf-151" class="color_rejected" fill="#FFB6C1" stroke="#FFFFFF"/>
          <use xlink:href="#img-83ec78bf-36" x="44.23" y="26.17" id="img-83ec78bf-152" class="color_rejected" fill="#FFB6C1" stroke="#FFFFFF"/>
          <use xlink:href="#img-83ec78bf-36" x="65.08" y="26.17" id="img-83ec78bf-153" class="color_rejected" fill="#FFB6C1" stroke="#FFFFFF"/>
          <use xlink:href="#img-83ec78bf-36" x="92.94" y="54.06" id="img-83ec78bf-154" class="color_rejected" fill="#FFB6C1" stroke="#FFFFFF"/>
        </g>
      </g>
    </g>
  </g>
</g>
  <g class="guide ylabels" font-size="2.82" font-family="'PT Sans Caption','Helvetica Neue','Helvetica',sans-serif" fill="#6C606B" id="img-83ec78bf-155">
    <text x="18.74" y="80.32" text-anchor="end" dy="0.35em" id="img-83ec78bf-156">-1.0</text>
    <text x="18.74" y="66.77" text-anchor="end" dy="0.35em" id="img-83ec78bf-157">-0.5</text>
    <text x="18.74" y="53.23" text-anchor="end" dy="0.35em" id="img-83ec78bf-158">0.0</text>
    <text x="18.74" y="39.69" text-anchor="end" dy="0.35em" id="img-83ec78bf-159">0.5</text>
    <text x="18.74" y="26.15" text-anchor="end" dy="0.35em" id="img-83ec78bf-160">1.0</text>
    <text x="18.74" y="12.61" text-anchor="end" dy="0.35em" id="img-83ec78bf-161">1.5</text>
  </g>
  <g font-size="3.88" font-family="'PT Sans','Helvetica Neue','Helvetica',sans-serif" fill="#564A55" stroke="#000000" stroke-opacity="0.000" id="img-83ec78bf-162">
    <text x="8.81" y="44.46" text-anchor="middle" dy="0.35em" transform="rotate(-90, 8.81, 46.46)" id="img-83ec78bf-163">test2</text>
  </g>
  <g font-size="3.88" font-family="'PT Sans','Helvetica Neue','Helvetica',sans-serif" fill="#564A55" stroke="#000000" stroke-opacity="0.000" id="img-83ec78bf-164">
    <text x="76.26" y="5" text-anchor="middle" dy="0.6em" id="img-83ec78bf-165">Regularization with λ = 5</text>
  </g>
</g>
<defs>
  <clipPath id="img-83ec78bf-13">
  <path d="M19.75,10.61 L 132.77 10.61 132.77 82.32 19.75 82.32" />
</clipPath>
  <g id="img-83ec78bf-36">
    <circle cx="0" cy="0" r="0.9" id="img-83ec78bf-166"/>
  </g>
</defs>
</svg>
