<?xml version="1.0" encoding="UTF-8"?>
<svg xmlns="http://www.w3.org/2000/svg"
     xmlns:xlink="http://www.w3.org/1999/xlink"
     xmlns:gadfly="http://www.gadflyjl.org/ns"
     version="1.2"
     width="152.4mm" height="101.6mm" viewBox="0 0 152.4 101.6"
     stroke="none"
     fill="#000000"
     stroke-width="0.3"
     font-size="3.88"
>
<g class="plotroot xscalable yscalable" id="img-fcb1ec8f-1">
  <g font-size="3.88" font-family="'PT Sans','Helvetica Neue','Helvetica',sans-serif" fill="#564A55" stroke="#000000" stroke-opacity="0.000" id="img-fcb1ec8f-2">
    <text x="76.26" y="89.99" text-anchor="middle" dy="0.6em">test1</text>
  </g>
  <g class="guide xlabels" font-size="2.82" font-family="'PT Sans Caption','Helvetica Neue','Helvetica',sans-serif" fill="#6C606B" id="img-fcb1ec8f-3">
    <text x="21.75" y="83.32" text-anchor="middle" dy="0.6em">-1.0</text>
    <text x="43.55" y="83.32" text-anchor="middle" dy="0.6em">-0.5</text>
    <text x="65.35" y="83.32" text-anchor="middle" dy="0.6em">0.0</text>
    <text x="87.16" y="83.32" text-anchor="middle" dy="0.6em">0.5</text>
    <text x="108.96" y="83.32" text-anchor="middle" dy="0.6em">1.0</text>
    <text x="130.77" y="83.32" text-anchor="middle" dy="0.6em">1.5</text>
  </g>
  <g class="guide colorkey" id="img-fcb1ec8f-4">
    <g fill="#4C404B" font-size="2.82" font-family="'PT Sans','Helvetica Neue','Helvetica',sans-serif" id="img-fcb1ec8f-5">
      <text x="136.58" y="46.46" dy="0.35em" id="img-fcb1ec8f-6" class="color_accepted">accepted</text>
      <text x="136.58" y="50.09" dy="0.35em" id="img-fcb1ec8f-7" class="color_rejected">rejected</text>
    </g>
    <g stroke="#000000" stroke-opacity="0.000" id="img-fcb1ec8f-8">
      <rect x="133.77" y="45.56" width="1.81" height="1.81" id="img-fcb1ec8f-9" class="color_accepted" fill="#00BFFF"/>
      <rect x="133.77" y="49.18" width="1.81" height="1.81" id="img-fcb1ec8f-10" class="color_rejected" fill="#FFB6C1"/>
    </g>
    <g fill="#362A35" font-size="3.88" font-family="'PT Sans','Helvetica Neue','Helvetica',sans-serif" stroke="#000000" stroke-opacity="0.000" id="img-fcb1ec8f-11">
      <text x="133.77" y="42.64" id="img-fcb1ec8f-12">result</text>
    </g>
  </g>
<g clip-path="url(#img-fcb1ec8f-13)">
  <g id="img-fcb1ec8f-14">
    <g pointer-events="visible" opacity="1" fill="#000000" fill-opacity="0.000" stroke="#000000" stroke-opacity="0.000" class="guide background" id="img-fcb1ec8f-15">
      <rect x="19.75" y="10.61" width="113.02" height="71.7" id="img-fcb1ec8f-16"/>
    </g>
    <g class="guide ygridlines xfixed" stroke-dasharray="0.5,0.5" stroke-width="0.2" stroke="#D0D0E0" id="img-fcb1ec8f-17">
      <path fill="none" d="M19.75,80.32 L 132.77 80.32" id="img-fcb1ec8f-18"/>
      <path fill="none" d="M19.75,66.77 L 132.77 66.77" id="img-fcb1ec8f-19"/>
      <path fill="none" d="M19.75,53.23 L 132.77 53.23" id="img-fcb1ec8f-20"/>
      <path fill="none" d="M19.75,39.69 L 132.77 39.69" id="img-fcb1ec8f-21"/>
      <path fill="none" d="M19.75,26.15 L 132.77 26.15" id="img-fcb1ec8f-22"/>
      <path fill="none" d="M19.75,12.61 L 132.77 12.61" id="img-fcb1ec8f-23"/>
    </g>
    <g class="guide xgridlines yfixed" stroke-dasharray="0.5,0.5" stroke-width="0.2" stroke="#D0D0E0" id="img-fcb1ec8f-24">
      <path fill="none" d="M21.75,10.61 L 21.75 82.32" id="img-fcb1ec8f-25"/>
      <path fill="none" d="M43.55,10.61 L 43.55 82.32" id="img-fcb1ec8f-26"/>
      <path fill="none" d="M65.35,10.61 L 65.35 82.32" id="img-fcb1ec8f-27"/>
      <path fill="none" d="M87.16,10.61 L 87.16 82.32" id="img-fcb1ec8f-28"/>
      <path fill="none" d="M108.96,10.61 L 108.96 82.32" id="img-fcb1ec8f-29"/>
      <path fill="none" d="M130.77,10.61 L 130.77 82.32" id="img-fcb1ec8f-30"/>
    </g>
    <g class="plotpanel" id="img-fcb1ec8f-31">
      <g stroke-width="0.35" fill="#000000" fill-opacity="0.000" class="geometry color_0.0" stroke-dasharray="none" stroke="#00BFFF" id="img-fcb1ec8f-32">
        <path fill="none" d="M72.6,69.82 L 72.49 69.81 72.47 69.81 72.38 69.8 72.27 69.8 72.16 69.79 72.05 69.78 71.95 69.77 71.84 69.77 71.73 69.76 71.62 69.75 71.55 69.74 71.51 69.74 71.4 69.73 71.29 69.72 71.18 69.71 71.07 69.7 70.96 69.69 70.85 69.68 70.77 69.67 70.74 69.67 70.64 69.66 70.53 69.65 70.42 69.64 70.31 69.63 70.2 69.62 70.09 69.61 70.08 69.61 69.98 69.6 69.87 69.59 69.76 69.57 69.65 69.56 69.54 69.55 69.46 69.54 69.44 69.54 69.33 69.52 69.22 69.51 69.11 69.5 69 69.49 68.89 69.47 68.88 69.47 68.78 69.46 68.67 69.45 68.56 69.43 68.45 69.42 68.35 69.4 68.34 69.4 68.23 69.39 68.13 69.37 68.02 69.36 67.91 69.34 67.84 69.34 67.8 69.33 67.69 69.31 67.58 69.3 67.47 69.28 67.37 69.27 67.36 69.27 67.25 69.25 67.14 69.24 67.03 69.22 66.93 69.2 66.92 69.2 66.82 69.19 66.71 69.17 66.6 69.15 66.49 69.13 66.48 69.13 66.38 69.12 66.27 69.1 66.16 69.08 66.07 69.06 66.05 69.06 65.94 69.04 65.83 69.03 65.72 69.01 65.67 69 65.62 68.99 65.51 68.97 65.4 68.95 65.29 68.93 65.29 68.93 65.18 68.91 65.07 68.89 64.96 68.87 64.92 68.86 64.85 68.85 64.74 68.83 64.63 68.81 64.56 68.79 64.52 68.79 64.42 68.77 64.31 68.74 64.21 68.73 64.2 68.72 64.09 68.7 63.98 68.68 63.88 68.66 63.87 68.66 63.76 68.63 63.65 68.61 63.55 68.59 63.54 68.59 63.43 68.57 63.32 68.54 63.23 68.52 63.21 68.52 63.11 68.5 63 68.47 62.92 68.46 62.89 68.45 62.78 68.42 62.67 68.4 62.62 68.39 62.56 68.37 62.45 68.35 62.34 68.32 62.32 68.32 62.23 68.3 62.12 68.27 62.04 68.25 62.01 68.25 61.91 68.22 61.8 68.19 61.75 68.18 61.69 68.17 61.58 68.14 61.48 68.12 61.47 68.11 61.36 68.09 61.25 68.06 61.21 68.05 61.14 68.03 61.03 68 60.94 67.98 60.92 67.98 60.81 67.95 60.7 67.92 60.69 67.91 60.6 67.89 60.49 67.86 60.43 67.85 60.38 67.83 60.27 67.8 60.18 67.78 60.16 67.77 60.05 67.74 59.94 67.71 59.94 67.71 59.83 67.68 59.72 67.65 59.7 67.64 59.61 67.62 59.5 67.59 59.46 67.57 59.4 67.55 59.29 67.52 59.23 67.51 59.18 67.49 59.07 67.46 59.01 67.44 58.96 67.42 58.85 67.39 58.78 67.37 58.74 67.36 58.63 67.32 58.56 67.3 58.52 67.29 58.41 67.26 58.35 67.24 58.3 67.22 58.19 67.19 58.13 67.17 58.09 67.15 57.98 67.12 57.92 67.1 57.87 67.08 57.76 67.05 57.72 67.03 57.65 67.01 57.54 66.97 57.51 66.96 57.43 66.94 57.32 66.9 57.31 66.9 57.21 66.86 57.12 66.83 57.1 66.82 56.99 66.79 56.92 66.76 56.89 66.75 56.78 66.71 56.73 66.69 56.67 66.67 56.56 66.63 56.54 66.63 56.45 66.59 56.36 66.56 56.34 66.55 56.23 66.51 56.17 66.49 56.12 66.47 56.01 66.43 55.99 66.42 55.9 66.39 55.81 66.35 55.79 66.35 55.68 66.3 55.64 66.29 55.58 66.26 55.47 66.22 55.46 66.22 55.36 66.18 55.29 66.15 55.25 66.13 55.14 66.09 55.12 66.08 55.03 66.05 54.96 66.02 54.92 66 54.81 65.96 54.79 65.95 54.7 65.91 54.63 65.88 54.59 65.87 54.48 65.82 54.47 65.81 54.38 65.77 54.31 65.74 54.27 65.73 54.16 65.68 54.15 65.68 54.05 65.63 53.99 65.61 53.94 65.58 53.84 65.54 53.83 65.54 53.72 65.49 53.69 65.47 53.61 65.44 53.54 65.41 53.5 65.39 53.39 65.34 53.39 65.34 53.28 65.29 53.24 65.27 53.17 65.24 53.1 65.2 53.07 65.19 52.96 65.13 52.96 65.13 52.85 65.08 52.81 65.07 52.74 65.03 52.67 65 52.63 64.98 52.53 64.93 52.52 64.92 52.41 64.87 52.4 64.86 52.3 64.82 52.26 64.8 52.19 64.76 52.13 64.73 52.08 64.71 51.99 64.66 51.97 64.65 51.87 64.59 51.86 64.59 51.76 64.54 51.73 64.52 51.65 64.48 51.6 64.46 51.54 64.42 51.47 64.39 51.43 64.36 51.35 64.32 51.32 64.31 51.22 64.25 51.21 64.25 51.1 64.19 51.1 64.19 50.99 64.13 50.98 64.12 50.88 64.07 50.85 64.05 50.77 64 50.73 63.98 50.66 63.94 50.62 63.91 50.56 63.88 50.5 63.85 50.45 63.82 50.38 63.78 50.34 63.75 50.26 63.71 50.23 63.69 50.15 63.64 50.12 63.63 50.04 63.58 50.01 63.56 49.92 63.51 49.9 63.49 49.81 63.44 49.79 63.43 49.7 63.37 49.68 63.36 49.59 63.3 49.57 63.29 49.48 63.24 49.46 63.22 49.38 63.17 49.36 63.16 49.27 63.1 49.25 63.09 49.16 63.03 49.14 63.02 49.06 62.97 49.03 62.95 48.96 62.9 48.92 62.87 48.85 62.83 48.81 62.8 48.75 62.76 48.7 62.73 48.65 62.69 48.59 62.66 48.55 62.63 48.48 62.58 48.45 62.56 48.37 62.51 48.35 62.49 48.26 62.43 48.25 62.42 48.16 62.36 48.15 62.35 48.06 62.29 48.05 62.28 47.96 62.22 47.94 62.2 47.87 62.15 47.83 62.12 47.78 62.08 47.72 62.04 47.68 62.02 47.61 61.96 47.59 61.95 47.5 61.88 47.5 61.88 47.41 61.81 47.39 61.8 47.32 61.75 47.28 61.72 47.23 61.68 47.17 61.63 47.14 61.61 47.06 61.55 47.05 61.54 46.97 61.47 46.95 61.46 46.88 61.41 46.85 61.38 46.79 61.34 46.74 61.29 46.71 61.27 46.63 61.21 46.62 61.2 46.54 61.14 46.52 61.12 46.46 61.07 46.41 61.03 46.38 61 46.3 60.94 46.29 60.93 46.21 60.86 46.19 60.85 46.13 60.8 46.08 60.75 46.05 60.73 45.97 60.66 45.97 60.66 45.89 60.59 45.86 60.57 45.82 60.53 45.75 60.47 45.74 60.46 45.66 60.39 45.64 60.38 45.58 60.32 45.54 60.28 45.51 60.25 45.43 60.19 45.43 60.18 45.36 60.12 45.32 60.08 45.28 60.05 45.21 59.98 45.21 59.98 45.14 59.92 45.1 59.88 45.06 59.85 44.99 59.78 44.99 59.78 44.92 59.71 44.88 59.68 44.85 59.64 44.78 59.58 44.77 59.57 44.71 59.51 44.66 59.46 44.64 59.44 44.57 59.37 44.55 59.36 44.5 59.31 44.44 59.25 44.43 59.24 44.36 59.17 44.34 59.14 44.3 59.1 44.23 59.03 44.23 59.03 44.16 58.97 44.12 58.92 44.1 58.9 44.03 58.83 44.01 58.8 43.97 58.76 43.9 58.7 43.9 58.69 43.84 58.63 43.79 58.57 43.78 58.56 43.71 58.49 43.68 58.46 43.65 58.42 43.59 58.36 43.57 58.34 43.53 58.29 43.46 58.22 43.46 58.22 43.4 58.15 43.35 58.1 43.34 58.09 43.28 58.02 43.24 57.97 43.22 57.95 43.16 57.88 43.13 57.85 43.1 57.81 43.05 57.75 43.03 57.72 42.99 57.68 42.93 57.61 42.92 57.6 42.87 57.54 42.82 57.48 42.81 57.47 42.76 57.41 42.7 57.34 42.7 57.34 42.65 57.27 42.59 57.21 42.59 57.2 42.54 57.14 42.48 57.07 42.48 57.07 42.43 57 42.37 56.93 42.37 56.93 42.32 56.87 42.26 56.8 42.26 56.79 42.21 56.73 42.16 56.66 42.15 56.66 42.11 56.6 42.05 56.53 42.04 56.51 42 56.46 41.95 56.39 41.93 56.37 41.9 56.32 41.85 56.26 41.83 56.22 41.8 56.19 41.75 56.12 41.72 56.08 41.7 56.05 41.65 55.99 41.61 55.93 41.6 55.92 41.55 55.85 41.5 55.78 41.5 55.77 41.46 55.71 41.41 55.65 41.39 55.62 41.36 55.58 41.31 55.51 41.28 55.46 41.27 55.44 41.22 55.38 41.17 55.31 41.17 55.3 41.13 55.24 41.08 55.17 41.06 55.14 41.04 55.1 40.99 55.04 40.95 54.98 40.95 54.97 40.9 54.9 40.86 54.83 40.84 54.81 40.81 54.77 40.77 54.7 40.73 54.64 40.73 54.63 40.68 54.56 40.64 54.49 40.62 54.47 40.6 54.43 40.55 54.36 40.52 54.3 40.51 54.29 40.47 54.22 40.43 54.16 40.41 54.12 40.39 54.09 40.35 54.02 40.31 53.95 40.3 53.94 40.27 53.88 40.23 53.82 40.19 53.75 40.19 53.75 40.15 53.68 40.11 53.61 40.08 53.56 40.07 53.55 40.03 53.48 39.99 53.41 39.97 53.37 39.95 53.34 39.91 53.27 39.88 53.21 39.86 53.18 39.84 53.14 39.8 53.07 39.76 53 39.75 52.98 39.73 52.94 39.69 52.87 39.66 52.8 39.64 52.78 39.62 52.73 39.58 52.66 39.55 52.6 39.53 52.57 39.51 52.53 39.48 52.46 39.44 52.39 39.42 52.36 39.41 52.33 39.37 52.26 39.34 52.19 39.32 52.14 39.31 52.12 39.27 52.05 39.24 51.99 39.21 51.92 39.21 51.92 39.17 51.85 39.14 51.78 39.11 51.72 39.1 51.69 39.08 51.65 39.04 51.58 39.01 51.51 38.99 51.46 38.98 51.44 38.95 51.38 38.92 51.31 38.89 51.24 38.88 51.22 38.86 51.17 38.83 51.11 38.8 51.04 38.77 50.98 38.77 50.97 38.74 50.9 38.71 50.83 38.68 50.77 38.66 50.73 38.65 50.7 38.62 50.63 38.59 50.56 38.56 50.5 38.55 50.47 38.54 50.43 38.51 50.36 38.48 50.29 38.45 50.22 38.44 50.2 38.42 50.16 38.4 50.09 38.37 50.02 38.34 49.95 38.33 49.92 38.32 49.89 38.29 49.82 38.27 49.75 38.24 49.68 38.22 49.64 38.22 49.61 38.19 49.55 38.16 49.48 38.14 49.41 38.12 49.34 38.11 49.34 38.09 49.28 38.07 49.21 38.04 49.14 38.02 49.07 38.01 49.03 38 49 37.97 48.94 37.95 48.87 37.93 48.8 37.9 48.73 37.9 48.71 37.88 48.67 37.86 48.6 37.84 48.53 37.82 48.46 37.79 48.39 37.79 48.37 37.77 48.33 37.75 48.26 37.73 48.19 37.71 48.12 37.69 48.06 37.68 48.02 37.67 47.99 37.65 47.92 37.63 47.85 37.61 47.78 37.59 47.72 37.57 47.65 37.57 47.64 37.55 47.58 37.54 47.51 37.52 47.45 37.5 47.38 37.48 47.31 37.46 47.24 37.46 47.23 37.45 47.17 37.43 47.11 37.41 47.04 37.39 46.97 37.38 46.9 37.36 46.84 37.35 46.79 37.34 46.77 37.33 46.7 37.31 46.63 37.3 46.56 37.28 46.5 37.27 46.43 37.25 46.36 37.24 46.31 37.24 46.29 37.22 46.23 37.21 46.16 37.2 46.09 37.18 46.02 37.17 45.96 37.16 45.89 37.14 45.82 37.13 45.76 37.13 45.75 37.12 45.68 37.11 45.62 37.09 45.55 37.08 45.48 37.07 45.41 37.06 45.35 37.05 45.28 37.04 45.21 37.03 45.14 37.02 45.11 37.02 45.07 37.01 45.01 37 44.94 36.99 44.87 36.98 44.8 36.97 44.74 36.96 44.67 36.95 44.6 36.95 44.53 36.94 44.46 36.93 44.4 36.92 44.33 36.92 44.26 36.91 44.25 36.91 44.19 36.9 44.13 36.9 44.06 36.89 43.99 36.88 43.92 36.88 43.85 36.87 43.79 36.87 43.72 36.86 43.65 36.86 43.58 36.86 43.52 36.85 43.45 36.85 43.38 36.84 43.31 36.84 43.24 36.84 43.18 36.84 43.11 36.84 43.04 36.83 42.97 36.83 42.91 36.83 42.84 36.83 42.77 36.83 42.7 36.83 42.63 36.83 42.57 36.83 42.5 36.83 42.43 36.83 42.36 36.83 42.3 36.84 42.23 36.84 42.16 36.84 42.09 36.84 42.02 36.85 41.96 36.85 41.89 36.85 41.82 36.86 41.75 36.86 41.69 36.87 41.62 36.87 41.55 36.88 41.48 36.88 41.41 36.89 41.35 36.9 41.28 36.9 41.21 36.91 41.14 36.91 41.11 36.92 41.08 36.93 41.01 36.93 40.94 36.94 40.87 36.95 40.8 36.96 40.74 36.97 40.67 36.98 40.6 36.99 40.53 37.01 40.47 37.02 40.4 37.02 40.37 37.03 40.33 37.04 40.26 37.06 40.19 37.07 40.13 37.08 40.06 37.1 39.99 37.11 39.92 37.13 39.86 37.13 39.84 37.14 39.79 37.16 39.72 37.18 39.65 37.19 39.58 37.21 39.52 37.23 39.45 37.24 39.41 37.25 39.38 37.27 39.31 37.29 39.25 37.31 39.18 37.33 39.11 37.35 39.04 37.35 39.04 37.37 38.97 37.39 38.91 37.42 38.84 37.44 38.77 37.46 38.72 37.46 38.7 37.49 38.64 37.51 38.57 37.54 38.5 37.57 38.43 37.57 38.43 37.59 38.36 37.62 38.3 37.65 38.23 37.68 38.16 37.68 38.16 37.71 38.09 37.74 38.03 37.77 37.96 37.79 37.92 37.8 37.89 37.83 37.82 37.86 37.75 37.9 37.69 37.9 37.69 37.93 37.62 37.97 37.55 38 37.48 38.01 37.48 38.04 37.42 38.08 37.35 38.11 37.28 38.11 37.28 38.15 37.21 38.19 37.14 38.22 37.09 38.23 37.08 38.27 37.01 38.31 36.94 38.33 36.91 38.36 36.87 38.4 36.81 38.44 36.74 38.45 36.74 38.49 36.67 38.54 36.6 38.55 36.58 38.58 36.53 38.63 36.47 38.66 36.43 38.68 36.4 38.73 36.33 38.77 36.28 38.78 36.26 38.83 36.2 38.88 36.14 38.89 36.13 38.94 36.06 38.99 36 38.99 35.99 39.05 35.92 39.1 35.87 39.11 35.86 39.17 35.79 39.21 35.74 39.22 35.72 39.29 35.65 39.32 35.62 39.35 35.59 39.41 35.52 39.42 35.5 39.47 35.45 39.53 35.39 39.54 35.38 39.61 35.31 39.64 35.28 39.67 35.25 39.74 35.18 39.75 35.17 39.81 35.11 39.86 35.07 39.88 35.04 39.96 34.98 39.97 34.96 40.03 34.91 40.08 34.87 40.11 34.84 40.19 34.77 40.19 34.77 40.27 34.71 40.3 34.68 40.35 34.64 40.41 34.59 40.43 34.57 40.51 34.5 40.52 34.5 40.6 34.43 40.62 34.41 40.69 34.37 40.73 34.33 40.78 34.3 40.84 34.25 40.87 34.23 40.95 34.17 40.96 34.16 41.05 34.1 41.06 34.09 41.15 34.03 41.17 34.01 41.25 33.96 41.28 33.94 41.35 33.89 41.39 33.87 41.45 33.82 41.5 33.8 41.56 33.76 41.61 33.73 41.67 33.69 41.72 33.66 41.78 33.62 41.83 33.59 41.89 33.55 41.93 33.53 42.01 33.49 42.04 33.46 42.12 33.42 42.15 33.4 42.24 33.35 42.26 33.34 42.37 33.28 42.37 33.28 42.48 33.22 42.49 33.21 42.59 33.16 42.62 33.15 42.7 33.11 42.75 33.08 42.81 33.05 42.89 33.01 42.92 33 43.03 32.94 43.03 32.94 43.13 32.89 43.17 32.88 43.24 32.84 43.31 32.81 43.35 32.79 43.46 32.74 43.46 32.74 43.57 32.69 43.61 32.67 43.68 32.64 43.77 32.6 43.79 32.6 43.9 32.55 43.93 32.54 44.01 32.5 44.1 32.47 44.12 32.46 44.23 32.42 44.27 32.4 44.34 32.37 44.44 32.33 44.44 32.33 44.55 32.29 44.62 32.27 44.66 32.25 44.77 32.21 44.8 32.2 44.88 32.17 44.99 32.13 44.99 32.13 45.1 32.09 45.19 32.06 45.21 32.06 45.32 32.02 45.39 31.99 45.43 31.98 45.54 31.95 45.6 31.93 45.64 31.91 45.75 31.88 45.81 31.86 45.86 31.84 45.97 31.81 46.03 31.79 46.08 31.78 46.19 31.74 46.26 31.72 46.3 31.71 46.41 31.68 46.5 31.66 46.52 31.65 46.63 31.62 46.74 31.59 46.75 31.59 46.85 31.56 46.95 31.53 47 31.52 47.06 31.5 47.17 31.48 47.27 31.45 47.28 31.45 47.39 31.42 47.5 31.4 47.55 31.38 47.61 31.37 47.72 31.34 47.83 31.32 47.83 31.32 47.94 31.29 48.05 31.27 48.14 31.25 48.15 31.24 48.26 31.22 48.37 31.2 48.45 31.18 48.48 31.17 48.59 31.15 48.7 31.13 48.78 31.11 48.81 31.11 48.92 31.09 49.03 31.06 49.13 31.05 49.14 31.04 49.25 31.02 49.36 31 49.46 30.98 49.5 30.98 49.57 30.96 49.68 30.94 49.79 30.93 49.88 30.91 49.9 30.91 50.01 30.89 50.12 30.87 50.23 30.85 50.3 30.84 50.34 30.84 50.45 30.82 50.56 30.8 50.66 30.79 50.74 30.77 50.77 30.77 50.88 30.75 50.99 30.74 51.1 30.72 51.21 30.71 51.21 30.71 51.32 30.69 51.43 30.68 51.54 30.66 51.65 30.65 51.73 30.64 51.76 30.64 51.87 30.62 51.97 30.61 52.08 30.6 52.19 30.58 52.29 30.57 52.3 30.57 52.41 30.56 52.52 30.55 52.63 30.53 52.74 30.52 52.85 30.51 52.92 30.5 52.96 30.5 53.07 30.49 53.17 30.48 53.28 30.47 53.39 30.46 53.5 30.45 53.61 30.44 53.62 30.44 53.72 30.43 53.83 30.42 53.94 30.41 54.05 30.4 54.16 30.39 54.27 30.38 54.38 30.37 54.45 30.37 54.48 30.36 54.59 30.36 54.7 30.35 54.81 30.34 54.92 30.33 55.03 30.33 55.14 30.32 55.25 30.31 55.36 30.31 55.45 30.3 55.47 30.3 55.58 30.29 55.68 30.29 55.79 30.28 55.9 30.27 56.01 30.27 56.12 30.26 56.23 30.26 56.34 30.25 56.45 30.25 56.56 30.24 56.67 30.24 56.78 30.23 56.84 30.23 56.89 30.23 56.99 30.23 57.1 30.22 57.21 30.22 57.32 30.22 57.43 30.21 57.54 30.21 57.65 30.21 57.76 30.2 57.87 30.2 57.98 30.2 58.09 30.19 58.19 30.19 58.3 30.19 58.41 30.19 58.52 30.19 58.63 30.18 58.74 30.18 58.85 30.18 58.96 30.18 59.07 30.18 59.18 30.18 59.29 30.18 59.4 30.18 59.5 30.18 59.61 30.18 59.72 30.18 59.83 30.17 59.94 30.18 60.05 30.18 60.16 30.18 60.27 30.18 60.38 30.18 60.49 30.18 60.6 30.18 60.7 30.18 60.81 30.18 60.92 30.18 61.03 30.18 61.14 30.18 61.25 30.19 61.36 30.19 61.47 30.19 61.58 30.19 61.69 30.19 61.8 30.2 61.91 30.2 62.01 30.2 62.12 30.2 62.23 30.21 62.34 30.21 62.45 30.21 62.56 30.22 62.67 30.22 62.78 30.22 62.89 30.23 63 30.23 63.01 30.23 63.11 30.24 63.21 30.24 63.32 30.24 63.43 30.25 63.54 30.25 63.65 30.26 63.76 30.26 63.87 30.27 63.98 30.27 64.09 30.28 64.2 30.28 64.31 30.29 64.42 30.29 64.52 30.3 64.55 30.3 64.63 30.3 64.74 30.31 64.85 30.32 64.96 30.32 65.07 30.33 65.18 30.33 65.29 30.34 65.4 30.35 65.51 30.35 65.62 30.36 65.72 30.37 65.72 30.37 65.83 30.38 65.94 30.38 66.05 30.39 66.16 30.4 66.27 30.4 66.38 30.41 66.49 30.42 66.6 30.43 66.7 30.44 66.71 30.44 66.82 30.44 66.93 30.45 67.03 30.46 67.14 30.47 67.25 30.48 67.36 30.49 67.47 30.5 67.56 30.5 67.58 30.51 67.69 30.51 67.8 30.52 67.91 30.53 68.02 30.54 68.13 30.55 68.23 30.56 68.33 30.57 68.34 30.57 68.45 30.58 68.56 30.59 68.67 30.6 68.78 30.61 68.89 30.62 69 30.63 69.04 30.64 69.11 30.65 69.22 30.66 69.33 30.67 69.44 30.68 69.54 30.69 69.65 30.7 69.7 30.71 69.76 30.71 69.87 30.72 69.98 30.74 70.09 30.75 70.2 30.76 70.31 30.77 70.32 30.77 70.42 30.79 70.53 30.8 70.64 30.81 70.74 30.82 70.85 30.84 70.9 30.84 70.96 30.85 71.07 30.86 71.18 30.88 71.29 30.89 71.4 30.9 71.46 30.91 71.51 30.92 71.62 30.93 71.73 30.94 71.84 30.96 71.95 30.97 71.98 30.98 72.05 30.99 72.16 31 72.27 31.02 72.38 31.03 72.49 31.05 72.49 31.05 72.6 31.06 72.71 31.08 72.82 31.09 72.93 31.11 72.97 31.11 73.04 31.12 73.15 31.14 73.25 31.15 73.36 31.17 73.43 31.18 73.47 31.19 73.58 31.2 73.69 31.22 73.8 31.24 73.88 31.25 73.91 31.25 74.02 31.27 74.13 31.29 74.24 31.3 74.31 31.32 74.35 31.32 74.46 31.34 74.56 31.36 74.67 31.38 74.73 31.38 74.78 31.39 74.89 31.41 75 31.43 75.11 31.45 75.13 31.45 75.22 31.47 75.33 31.49 75.44 31.51 75.52 31.52 75.55 31.52 75.66 31.54 75.76 31.56 75.87 31.58 75.9 31.59 75.98 31.6 76.09 31.62 76.2 31.64 76.27 31.66 76.31 31.66 76.42 31.68 76.53 31.7 76.63 31.72 76.64 31.73 76.75 31.75 76.86 31.77 76.97 31.79 76.97 31.79 77.07 31.81 77.18 31.83 77.29 31.85 77.31 31.86 77.4 31.88 77.51 31.9 77.62 31.92 77.64 31.93 77.73 31.94 77.84 31.97 77.95 31.99 77.96 31.99 78.06 32.01 78.17 32.04 78.27 32.06 78.28 32.06 78.38 32.09 78.49 32.11 78.59 32.13 78.6 32.13 78.71 32.16 78.82 32.18 78.89 32.2 78.93 32.21 79.04 32.23 79.15 32.26 79.18 32.27 79.26 32.28 79.37 32.31 79.46 32.33 79.48 32.34 79.58 32.36 79.69 32.39 79.74 32.4 79.8 32.42 79.91 32.44 80.02 32.47 80.02 32.47 80.13 32.5 80.24 32.52 80.29 32.54 80.35 32.55 80.46 32.58 80.55 32.6 80.57 32.61 80.68 32.64 80.78 32.67 80.8 32.67 80.89 32.7 81 32.73 81.06 32.74 81.11 32.75 81.22 32.78 81.3 32.81 81.33 32.81 81.44 32.85 81.55 32.88 81.55 32.88 81.66 32.91 81.77 32.94 81.78 32.94 81.88 32.97 81.99 33 82.02 33.01 82.09 33.03 82.2 33.07 82.24 33.08 82.31 33.1 82.42 33.13 82.47 33.15 82.53 33.17 82.64 33.2 82.69 33.21 82.75 33.23 82.86 33.27 82.9 33.28 82.97 33.3 83.08 33.34 83.12 33.35 83.19 33.37 83.29 33.41 83.32 33.42 83.4 33.44 83.51 33.48 83.53 33.49 83.62 33.52 83.73 33.55 83.73 33.55 83.84 33.59 83.93 33.62 83.95 33.63 84.06 33.67 84.12 33.69 84.17 33.7 84.28 33.74 84.31 33.76 84.39 33.78 84.5 33.82 84.5 33.82 84.6 33.86 84.69 33.89 84.71 33.9 84.82 33.94 84.87 33.96 84.93 33.98 85.04 34.03 85.05 34.03 85.15 34.07 85.22 34.1 85.26 34.11 85.37 34.15 85.39 34.16 85.48 34.2 85.56 34.23 85.59 34.24 85.7 34.28 85.73 34.3 85.8 34.33 85.9 34.37 85.91 34.37 86.02 34.42 86.06 34.43 86.13 34.47 86.22 34.5 86.24 34.51 86.35 34.56 86.38 34.57 86.46 34.61 86.53 34.64 86.57 34.65 86.68 34.7 86.68 34.71 86.79 34.75 86.83 34.77 86.9 34.8 86.98 34.84 87.01 34.85 87.11 34.9 87.13 34.91 87.22 34.95 87.27 34.98 87.33 35.01 87.41 35.04 87.44 35.06 87.55 35.11 87.55 35.11 87.66 35.17 87.69 35.18 87.77 35.22 87.82 35.25 87.88 35.28 87.96 35.31 87.99 35.33 88.09 35.38 88.1 35.39 88.21 35.44 88.22 35.45 88.31 35.5 88.35 35.52 88.42 35.56 88.47 35.59 88.53 35.62 88.6 35.65 88.64 35.68 88.72 35.72 88.75 35.74 88.84 35.79 88.86 35.8 88.96 35.86 88.97 35.86 89.08 35.92 89.08 35.93 89.19 35.99 89.19 35.99 89.3 36.05 89.31 36.06 89.41 36.12 89.42 36.13 89.52 36.19 89.53 36.2 89.62 36.25 89.64 36.26 89.73 36.32 89.75 36.33 89.84 36.39 89.86 36.4 89.95 36.46 89.96 36.47 90.06 36.53 90.07 36.53 90.17 36.6 90.17 36.6 90.27 36.67 90.28 36.68 90.37 36.74 90.39 36.75 90.47 36.81 90.5 36.83 90.57 36.87 90.61 36.9 90.66 36.94 90.72 36.98 90.76 37.01 90.82 37.06 90.85 37.08 90.93 37.14 90.94 37.14 91.04 37.21 91.04 37.22 91.13 37.28 91.15 37.3 91.21 37.35 91.26 37.38 91.3 37.42 91.37 37.47 91.39 37.48 91.48 37.55 91.48 37.55 91.56 37.62 91.59 37.64 91.64 37.69 91.7 37.73 91.73 37.75 91.81 37.82 91.81 37.82 91.89 37.89 91.92 37.91 91.97 37.96 92.03 38.01 92.05 38.03 92.13 38.09 92.13 38.1 92.2 38.16 92.24 38.2 92.28 38.23 92.35 38.3 92.35 38.3 92.43 38.36 92.46 38.4 92.5 38.43 92.57 38.5 92.57 38.5 92.64 38.57 92.68 38.6 92.71 38.64 92.78 38.7 92.79 38.71 92.85 38.77 92.9 38.82 92.92 38.84 92.99 38.91 93.01 38.93 93.05 38.97 93.12 39.04 93.12 39.04 93.19 39.11 93.23 39.15 93.25 39.18 93.31 39.25 93.33 39.27 93.38 39.31 93.44 39.38 93.44 39.39 93.5 39.45 93.55 39.51 93.56 39.52 93.62 39.58 93.66 39.63 93.68 39.65 93.74 39.72 93.77 39.76 93.79 39.79 93.85 39.86 93.88 39.89 93.91 39.92 93.96 39.99 93.99 40.02 94.02 40.06 94.07 40.13 94.1 40.16 94.13 40.19 94.18 40.26 94.21 40.3 94.23 40.33 94.28 40.4 94.32 40.44 94.34 40.47 94.39 40.53 94.43 40.59 94.44 40.6 94.49 40.67 94.54 40.74 94.54 40.74 94.58 40.8 94.63 40.87 94.64 40.89 94.68 40.94 94.73 41.01 94.75 41.05 94.77 41.08 94.82 41.14 94.86 41.21 94.86 41.21 94.91 41.28 94.95 41.35 94.97 41.38 95 41.41 95.04 41.48 95.08 41.55 95.08 41.55 95.12 41.62 95.17 41.69 95.19 41.73 95.21 41.75 95.25 41.82 95.29 41.89 95.3 41.91 95.33 41.96 95.37 42.02 95.41 42.09 95.41 42.1 95.44 42.16 95.48 42.23 95.52 42.29 95.52 42.3 95.56 42.36 95.59 42.43 95.63 42.49 95.63 42.5 95.67 42.57 95.7 42.63 95.74 42.7 95.74 42.7 95.77 42.77 95.81 42.84 95.84 42.91 95.84 42.92 95.87 42.97 95.91 43.04 95.94 43.11 95.95 43.14 95.97 43.18 96 43.24 96.03 43.31 96.06 43.37 96.07 43.38 96.1 43.45 96.13 43.52 96.16 43.58 96.17 43.62 96.19 43.65 96.22 43.72 96.24 43.79 96.27 43.85 96.28 43.87 96.3 43.92 96.33 43.99 96.36 44.06 96.38 44.13 96.39 44.14 96.41 44.19 96.44 44.26 96.46 44.33 96.49 44.4 96.5 44.42 96.52 44.46 96.54 44.53 96.57 44.6 96.59 44.67 96.61 44.72 96.61 44.74 96.64 44.8 96.66 44.87 96.69 44.94 96.71 45.01 96.72 45.03 96.73 45.07 96.75 45.14 96.78 45.21 96.8 45.28 96.82 45.35 96.83 45.37 96.84 45.41 96.86 45.48 96.88 45.55 96.9 45.62 96.92 45.68 96.94 45.73 96.94 45.75 96.96 45.82 96.98 45.89 97 45.96 97.02 46.02 97.04 46.09 97.05 46.11 97.06 46.16 97.08 46.23 97.09 46.29 97.11 46.36 97.13 46.43 97.14 46.5 97.15 46.54 97.16 46.56 97.18 46.63 97.19 46.7 97.21 46.77 97.23 46.84 97.24 46.9 97.26 46.97 97.26 47 97.27 47.04 97.29 47.11 97.3 47.17 97.32 47.24 97.33 47.31 97.34 47.38 97.36 47.45 97.37 47.51 97.37 47.53 97.38 47.58 97.4 47.65 97.41 47.72 97.42 47.78 97.43 47.85 97.45 47.92 97.46 47.99 97.47 48.06 97.48 48.12 97.48 48.14 97.49 48.19 97.5 48.26 97.51 48.33 97.52 48.39 97.53 48.46 97.54 48.53 97.55 48.6 97.56 48.67 97.57 48.73 97.58 48.8 97.59 48.87 97.59 48.88 97.6 48.94 97.61 49 97.61 49.07 97.62 49.14 97.63 49.21 97.64 49.28 97.65 49.34 97.65 49.41 97.66 49.48 97.67 49.55 97.67 49.61 97.68 49.68 97.69 49.75 97.69 49.82 97.7 49.89 97.7 49.91 97.7 49.95 97.71 50.02 97.71 50.09 97.72 50.16 97.72 50.22 97.73 50.29 97.73 50.36 97.74 50.43 97.74 50.5 97.75 50.56 97.75 50.63 97.75 50.7 97.76 50.77 97.76 50.83 97.76 50.9 97.76 50.97 97.77 51.04 97.77 51.11 97.77 51.17 97.77 51.24 97.77 51.31 97.78 51.38 97.78 51.44 97.78 51.51 97.78 51.58 97.78 51.65 97.78 51.72 97.78 51.78 97.78 51.85 97.78 51.92 97.78 51.99 97.78 52.05 97.78 52.12 97.78 52.19 97.78 52.26 97.78 52.33 97.78 52.39 97.77 52.46 97.77 52.53 97.77 52.6 97.77 52.66 97.77 52.73 97.76 52.8 97.76 52.87 97.76 52.94 97.76 53 97.75 53.07 97.75 53.14 97.74 53.21 97.74 53.27 97.74 53.34 97.73 53.41 97.73 53.48 97.72 53.55 97.72 53.61 97.71 53.68 97.71 53.75 97.7 53.82 97.7 53.86 97.7 53.88 97.69 53.95 97.69 54.02 97.68 54.09 97.67 54.16 97.67 54.22 97.66 54.29 97.65 54.36 97.65 54.43 97.64 54.49 97.63 54.56 97.62 54.63 97.62 54.7 97.61 54.77 97.6 54.83 97.59 54.9 97.59 54.9 97.58 54.97 97.57 55.04 97.56 55.1 97.56 55.17 97.55 55.24 97.54 55.31 97.53 55.38 97.52 55.44 97.51 55.51 97.49 55.58 97.48 55.65 97.48 55.66 97.47 55.71 97.46 55.78 97.45 55.85 97.44 55.92 97.43 55.99 97.41 56.05 97.4 56.12 97.39 56.19 97.38 56.26 97.37 56.28 97.36 56.32 97.35 56.39 97.34 56.46 97.32 56.53 97.31 56.6 97.3 56.66 97.28 56.73 97.27 56.8 97.26 56.82 97.25 56.87 97.24 56.93 97.22 57 97.21 57.07 97.19 57.14 97.18 57.21 97.16 57.27 97.15 57.29 97.14 57.34 97.13 57.41 97.11 57.48 97.09 57.54 97.08 57.61 97.06 57.68 97.05 57.73 97.04 57.75 97.02 57.81 97 57.88 96.98 57.95 96.97 58.02 96.95 58.09 96.94 58.12 96.93 58.15 96.91 58.22 96.89 58.29 96.87 58.36 96.85 58.42 96.83 58.49 96.83 58.49 96.81 58.56 96.78 58.63 96.76 58.7 96.74 58.76 96.72 58.83 96.72 58.83 96.7 58.9 96.67 58.97 96.65 59.03 96.63 59.1 96.61 59.15 96.6 59.17 96.58 59.24 96.56 59.31 96.53 59.37 96.51 59.44 96.5 59.46 96.48 59.51 96.46 59.58 96.43 59.64 96.4 59.71 96.39 59.75 96.38 59.78 96.35 59.85 96.32 59.92 96.3 59.98 96.28 60.02 96.27 60.05 96.24 60.12 96.21 60.19 96.18 60.25 96.17 60.28 96.15 60.32 96.13 60.39 96.1 60.46 96.07 60.53 96.06 60.53 96.03 60.59 96 60.66 95.97 60.73 95.95 60.77 95.94 60.8 95.91 60.86 95.88 60.93 95.84 61 95.84 61 95.81 61.07 95.78 61.14 95.74 61.2 95.74 61.22 95.71 61.27 95.67 61.34 95.64 61.41 95.63 61.43 95.6 61.47 95.57 61.54 95.53 61.61 95.52 61.64 95.49 61.68 95.46 61.75 95.42 61.81 95.41 61.83 95.38 61.88 95.34 61.95 95.3 62.02 95.3 62.02 95.26 62.08 95.22 62.15 95.19 62.21 95.18 62.22 95.14 62.29 95.1 62.36 95.08 62.39 95.06 62.42 95.01 62.49 94.97 62.56 94.97 62.56 94.93 62.63 94.88 62.69 94.86 62.73 94.84 62.76 94.79 62.83 94.75 62.89 94.75 62.9 94.7 62.97 94.65 63.03 94.64 63.05 94.61 63.1 94.56 63.17 94.54 63.2 94.51 63.24 94.46 63.3 94.43 63.35 94.41 63.37 94.36 63.44 94.32 63.49 94.31 63.51 94.25 63.58 94.21 63.63 94.2 63.64 94.15 63.71 94.1 63.77 94.09 63.78 94.04 63.85 93.99 63.91 93.98 63.91 93.93 63.98 93.88 64.04 93.87 64.05 93.81 64.12 93.77 64.16 93.75 64.19 93.69 64.25 93.66 64.29 93.63 64.32 93.57 64.39 93.55 64.41 93.51 64.46 93.45 64.52 93.44 64.53 93.38 64.59 93.33 64.64 93.32 64.66 93.25 64.73 93.23 64.75 93.18 64.8 93.12 64.86 93.12 64.86 93.05 64.93 93.01 64.97 92.98 65 92.91 65.07 92.9 65.08 92.84 65.13 92.79 65.18 92.76 65.2 92.69 65.27 92.68 65.28 92.62 65.34 92.57 65.38 92.54 65.41 92.46 65.47 92.46 65.47 92.38 65.54 92.35 65.57 92.3 65.61 92.24 65.66 92.22 65.68 92.14 65.74 92.13 65.75 92.06 65.81 92.03 65.84 91.97 65.88 91.92 65.92 91.89 65.95 91.81 66.01 91.8 66.02 91.71 66.08 91.7 66.09 91.62 66.15 91.59 66.17 91.53 66.22 91.48 66.25 91.43 66.29 91.37 66.33 91.34 66.35 91.26 66.41 91.24 66.42 91.15 66.48 91.14 66.49 91.04 66.55 91.04 66.56 90.94 66.63 90.93 66.63 90.83 66.69 90.82 66.7 90.72 66.76 90.72 66.77 90.62 66.83 90.61 66.83 90.5 66.9 90.5 66.9 90.39 66.96 90.39 66.97 90.28 67.03 90.28 67.03 90.17 67.09 90.16 67.1 90.06 67.15 90.04 67.17 89.95 67.21 89.91 67.24 89.84 67.27 89.79 67.3 89.73 67.33 89.66 67.37 89.62 67.39 89.53 67.44 89.52 67.45 89.41 67.5 89.39 67.51 89.3 67.55 89.26 67.57 89.19 67.61 89.12 67.64 89.08 67.66 88.97 67.71 88.97 67.71 88.86 67.76 88.82 67.78 88.75 67.81 88.67 67.85 88.64 67.86 88.53 67.91 88.52 67.91 88.42 67.95 88.36 67.98 88.31 68 88.21 68.04 88.19 68.05 88.1 68.09 88.03 68.12 87.99 68.13 87.88 68.17 87.85 68.18 87.77 68.22 87.67 68.25 87.66 68.26 87.55 68.3 87.49 68.32 87.44 68.34 87.33 68.38 87.3 68.39 87.22 68.41 87.11 68.45 87.1 68.46 87.01 68.49 86.9 68.52 86.9 68.52 86.79 68.56 86.69 68.59 86.68 68.59 86.57 68.63 86.47 68.66 86.46 68.66 86.35 68.69 86.25 68.73 86.24 68.73 86.13 68.76 86.02 68.79 86.01 68.79 85.91 68.82 85.8 68.85 85.76 68.86 85.7 68.88 85.59 68.91 85.51 68.93 85.48 68.94 85.37 68.97 85.26 68.99 85.24 69 85.15 69.02 85.04 69.05 84.96 69.06 84.93 69.07 84.82 69.1 84.71 69.12 84.66 69.13 84.6 69.15 84.5 69.17 84.39 69.19 84.35 69.2 84.28 69.22 84.17 69.24 84.06 69.26 84.02 69.27 83.95 69.28 83.84 69.3 83.73 69.32 83.66 69.34 83.62 69.34 83.51 69.36 83.4 69.38 83.29 69.4 83.28 69.4 83.19 69.42 83.08 69.44 82.97 69.46 82.87 69.47 82.86 69.47 82.75 69.49 82.64 69.51 82.53 69.52 82.42 69.54 82.42 69.54 82.31 69.56 82.2 69.57 82.09 69.59 81.99 69.6 81.93 69.61 81.88 69.61 81.77 69.63 81.66 69.64 81.55 69.65 81.44 69.67 81.37 69.67 81.33 69.68 81.22 69.69 81.11 69.7 81 69.71 80.89 69.73 80.78 69.74 80.72 69.74 80.68 69.75 80.57 69.76 80.46 69.77 80.35 69.78 80.24 69.79 80.13 69.79 80.02 69.8 79.93 69.81 79.91 69.81 79.8 69.82 79.69 69.83 79.58 69.84 79.48 69.84 79.37 69.85 79.26 69.86 79.15 69.86 79.04 69.87 78.93 69.87 78.86 69.88 78.82 69.88 78.71 69.89 78.6 69.89 78.49 69.9 78.38 69.9 78.27 69.9 78.17 69.91 78.06 69.91 77.95 69.92 77.84 69.92 77.73 69.92 77.62 69.93 77.51 69.93 77.4 69.93 77.29 69.93 77.18 69.93 77.07 69.94 76.97 69.94 76.86 69.94 76.75 69.94 76.64 69.94 76.53 69.94 76.42 69.94 76.31 69.94 76.2 69.94 76.09 69.94 75.98 69.94 75.87 69.94 75.76 69.94 75.66 69.94 75.55 69.94 75.44 69.93 75.33 69.93 75.22 69.93 75.11 69.93 75 69.93 74.89 69.92 74.78 69.92 74.67 69.92 74.56 69.91 74.46 69.91 74.35 69.91 74.24 69.9 74.13 69.9 74.02 69.89 73.91 69.89 73.8 69.88 73.69 69.88 73.67 69.88 73.58 69.87 73.47 69.87 73.36 69.86 73.25 69.86 73.15 69.85 73.04 69.85 72.93 69.84 72.82 69.83 72.71 69.83 72.6 69.82" id="img-fcb1ec8f-33"/>
      </g>
      <g class="geometry" id="img-fcb1ec8f-34">
        <g stroke-width="0.3" id="img-fcb1ec8f-35">
          <use xlink:href="#img-fcb1ec8f-36" x="67.59" y="34.29" id="img-fcb1ec8f-37" class="color_accepted" fill="#00BFFF" stroke="#FFFFFF"/>
          <use xlink:href="#img-fcb1ec8f-36" x="61.31" y="34.68" id="img-fcb1ec8f-38" class="color_accepted" fill="#00BFFF" stroke="#FFFFFF"/>
          <use xlink:href="#img-fcb1ec8f-36" x="56.03" y="34.49" id="img-fcb1ec8f-39" class="color_accepted" fill="#00BFFF" stroke="#FFFFFF"/>
          <use xlink:href="#img-fcb1ec8f-36" x="49" y="39.63" id="img-fcb1ec8f-40" class="color_accepted" fill="#00BFFF" stroke="#FFFFFF"/>
          <use xlink:href="#img-fcb1ec8f-36" x="42.97" y="40.62" id="img-fcb1ec8f-41" class="color_accepted" fill="#00BFFF" stroke="#FFFFFF"/>
          <use xlink:href="#img-fcb1ec8f-36" x="42.47" y="47.55" id="img-fcb1ec8f-42" class="color_accepted" fill="#00BFFF" stroke="#FFFFFF"/>
          <use xlink:href="#img-fcb1ec8f-36" x="48" y="52.3" id="img-fcb1ec8f-43" class="color_accepted" fill="#00BFFF" stroke="#FFFFFF"/>
          <use xlink:href="#img-fcb1ec8f-36" x="52.01" y="58.44" id="img-fcb1ec8f-44" class="color_accepted" fill="#00BFFF" stroke="#FFFFFF"/>
          <use xlink:href="#img-fcb1ec8f-36" x="66.08" y="64.18" id="img-fcb1ec8f-45" class="color_accepted" fill="#00BFFF" stroke="#FFFFFF"/>
          <use xlink:href="#img-fcb1ec8f-36" x="71.11" y="67.15" id="img-fcb1ec8f-46" class="color_accepted" fill="#00BFFF" stroke="#FFFFFF"/>
          <use xlink:href="#img-fcb1ec8f-36" x="82.16" y="68.54" id="img-fcb1ec8f-47" class="color_accepted" fill="#00BFFF" stroke="#FFFFFF"/>
          <use xlink:href="#img-fcb1ec8f-36" x="88.44" y="67.35" id="img-fcb1ec8f-48" class="color_accepted" fill="#00BFFF" stroke="#FFFFFF"/>
          <use xlink:href="#img-fcb1ec8f-36" x="93.21" y="59.83" id="img-fcb1ec8f-49" class="color_accepted" fill="#00BFFF" stroke="#FFFFFF"/>
          <use xlink:href="#img-fcb1ec8f-36" x="97.48" y="58.24" id="img-fcb1ec8f-50" class="color_accepted" fill="#00BFFF" stroke="#FFFFFF"/>
          <use xlink:href="#img-fcb1ec8f-36" x="89.19" y="40.03" id="img-fcb1ec8f-51" class="color_accepted" fill="#00BFFF" stroke="#FFFFFF"/>
          <use xlink:href="#img-fcb1ec8f-36" x="79.4" y="37.46" id="img-fcb1ec8f-52" class="color_accepted" fill="#00BFFF" stroke="#FFFFFF"/>
          <use xlink:href="#img-fcb1ec8f-36" x="72.61" y="38.64" id="img-fcb1ec8f-53" class="color_accepted" fill="#00BFFF" stroke="#FFFFFF"/>
          <use xlink:href="#img-fcb1ec8f-36" x="63.32" y="31.12" id="img-fcb1ec8f-54" class="color_accepted" fill="#00BFFF" stroke="#FFFFFF"/>
          <use xlink:href="#img-fcb1ec8f-36" x="57.79" y="34.29" id="img-fcb1ec8f-55" class="color_accepted" fill="#00BFFF" stroke="#FFFFFF"/>
          <use xlink:href="#img-fcb1ec8f-36" x="44.48" y="36.07" id="img-fcb1ec8f-56" class="color_accepted" fill="#00BFFF" stroke="#FFFFFF"/>
          <use xlink:href="#img-fcb1ec8f-36" x="38.95" y="37.06" id="img-fcb1ec8f-57" class="color_accepted" fill="#00BFFF" stroke="#FFFFFF"/>
          <use xlink:href="#img-fcb1ec8f-36" x="37.95" y="44.19" id="img-fcb1ec8f-58" class="color_accepted" fill="#00BFFF" stroke="#FFFFFF"/>
          <use xlink:href="#img-fcb1ec8f-36" x="39.45" y="53.1" id="img-fcb1ec8f-59" class="color_accepted" fill="#00BFFF" stroke="#FFFFFF"/>
          <use xlink:href="#img-fcb1ec8f-36" x="46.99" y="60.62" id="img-fcb1ec8f-60" class="color_accepted" fill="#00BFFF" stroke="#FFFFFF"/>
          <use xlink:href="#img-fcb1ec8f-36" x="60.3" y="63.98" id="img-fcb1ec8f-61" class="color_accepted" fill="#00BFFF" stroke="#FFFFFF"/>
          <use xlink:href="#img-fcb1ec8f-36" x="74.12" y="69.53" id="img-fcb1ec8f-62" class="color_accepted" fill="#00BFFF" stroke="#FFFFFF"/>
          <use xlink:href="#img-fcb1ec8f-36" x="85.68" y="67.74" id="img-fcb1ec8f-63" class="color_accepted" fill="#00BFFF" stroke="#FFFFFF"/>
          <use xlink:href="#img-fcb1ec8f-36" x="94.72" y="67.74" id="img-fcb1ec8f-64" class="color_accepted" fill="#00BFFF" stroke="#FFFFFF"/>
          <use xlink:href="#img-fcb1ec8f-36" x="59.3" y="38.45" id="img-fcb1ec8f-65" class="color_accepted" fill="#00BFFF" stroke="#FFFFFF"/>
          <use xlink:href="#img-fcb1ec8f-36" x="52.52" y="32.11" id="img-fcb1ec8f-66" class="color_accepted" fill="#00BFFF" stroke="#FFFFFF"/>
          <use xlink:href="#img-fcb1ec8f-36" x="53.77" y="27.16" id="img-fcb1ec8f-67" class="color_accepted" fill="#00BFFF" stroke="#FFFFFF"/>
          <use xlink:href="#img-fcb1ec8f-36" x="58.29" y="31.52" id="img-fcb1ec8f-68" class="color_accepted" fill="#00BFFF" stroke="#FFFFFF"/>
          <use xlink:href="#img-fcb1ec8f-36" x="57.79" y="35.67" id="img-fcb1ec8f-69" class="color_accepted" fill="#00BFFF" stroke="#FFFFFF"/>
          <use xlink:href="#img-fcb1ec8f-36" x="53.02" y="40.43" id="img-fcb1ec8f-70" class="color_accepted" fill="#00BFFF" stroke="#FFFFFF"/>
          <use xlink:href="#img-fcb1ec8f-36" x="49.5" y="44.78" id="img-fcb1ec8f-71" class="color_accepted" fill="#00BFFF" stroke="#FFFFFF"/>
          <use xlink:href="#img-fcb1ec8f-36" x="52.27" y="52.5" id="img-fcb1ec8f-72" class="color_accepted" fill="#00BFFF" stroke="#FFFFFF"/>
          <use xlink:href="#img-fcb1ec8f-36" x="55.03" y="59.03" id="img-fcb1ec8f-73" class="color_accepted" fill="#00BFFF" stroke="#FFFFFF"/>
          <use xlink:href="#img-fcb1ec8f-36" x="62.57" y="58.24" id="img-fcb1ec8f-74" class="color_accepted" fill="#00BFFF" stroke="#FFFFFF"/>
          <use xlink:href="#img-fcb1ec8f-36" x="68.09" y="57.65" id="img-fcb1ec8f-75" class="color_accepted" fill="#00BFFF" stroke="#FFFFFF"/>
          <use xlink:href="#img-fcb1ec8f-36" x="75.38" y="64.38" id="img-fcb1ec8f-76" class="color_accepted" fill="#00BFFF" stroke="#FFFFFF"/>
          <use xlink:href="#img-fcb1ec8f-36" x="78.14" y="59.43" id="img-fcb1ec8f-77" class="color_accepted" fill="#00BFFF" stroke="#FFFFFF"/>
          <use xlink:href="#img-fcb1ec8f-36" x="86.43" y="58.24" id="img-fcb1ec8f-78" class="color_accepted" fill="#00BFFF" stroke="#FFFFFF"/>
          <use xlink:href="#img-fcb1ec8f-36" x="93.46" y="57.05" id="img-fcb1ec8f-79" class="color_accepted" fill="#00BFFF" stroke="#FFFFFF"/>
          <use xlink:href="#img-fcb1ec8f-36" x="85.42" y="52.9" id="img-fcb1ec8f-80" class="color_accepted" fill="#00BFFF" stroke="#FFFFFF"/>
          <use xlink:href="#img-fcb1ec8f-36" x="92.71" y="48.94" id="img-fcb1ec8f-81" class="color_accepted" fill="#00BFFF" stroke="#FFFFFF"/>
          <use xlink:href="#img-fcb1ec8f-36" x="90.45" y="45.97" id="img-fcb1ec8f-82" class="color_accepted" fill="#00BFFF" stroke="#FFFFFF"/>
          <use xlink:href="#img-fcb1ec8f-36" x="96.98" y="41.22" id="img-fcb1ec8f-83" class="color_accepted" fill="#00BFFF" stroke="#FFFFFF"/>
          <use xlink:href="#img-fcb1ec8f-36" x="75.13" y="39.04" id="img-fcb1ec8f-84" class="color_accepted" fill="#00BFFF" stroke="#FFFFFF"/>
          <use xlink:href="#img-fcb1ec8f-36" x="84.67" y="35.08" id="img-fcb1ec8f-85" class="color_accepted" fill="#00BFFF" stroke="#FFFFFF"/>
          <use xlink:href="#img-fcb1ec8f-36" x="79.4" y="34.49" id="img-fcb1ec8f-86" class="color_accepted" fill="#00BFFF" stroke="#FFFFFF"/>
          <use xlink:href="#img-fcb1ec8f-36" x="71.36" y="37.65" id="img-fcb1ec8f-87" class="color_accepted" fill="#00BFFF" stroke="#FFFFFF"/>
          <use xlink:href="#img-fcb1ec8f-36" x="65.08" y="42.41" id="img-fcb1ec8f-88" class="color_accepted" fill="#00BFFF" stroke="#FFFFFF"/>
          <use xlink:href="#img-fcb1ec8f-36" x="61.31" y="38.25" id="img-fcb1ec8f-89" class="color_accepted" fill="#00BFFF" stroke="#FFFFFF"/>
          <use xlink:href="#img-fcb1ec8f-36" x="56.29" y="43.59" id="img-fcb1ec8f-90" class="color_accepted" fill="#00BFFF" stroke="#FFFFFF"/>
          <use xlink:href="#img-fcb1ec8f-36" x="56.29" y="48.54" id="img-fcb1ec8f-91" class="color_accepted" fill="#00BFFF" stroke="#FFFFFF"/>
          <use xlink:href="#img-fcb1ec8f-36" x="46.24" y="47.35" id="img-fcb1ec8f-92" class="color_accepted" fill="#00BFFF" stroke="#FFFFFF"/>
          <use xlink:href="#img-fcb1ec8f-36" x="55.78" y="53.69" id="img-fcb1ec8f-93" class="color_accepted" fill="#00BFFF" stroke="#FFFFFF"/>
          <use xlink:href="#img-fcb1ec8f-36" x="59.3" y="60.62" id="img-fcb1ec8f-94" class="color_accepted" fill="#00BFFF" stroke="#FFFFFF"/>
          <use xlink:href="#img-fcb1ec8f-36" x="73.37" y="27.95" id="img-fcb1ec8f-95" class="color_rejected" fill="#FFB6C1" stroke="#FFFFFF"/>
          <use xlink:href="#img-fcb1ec8f-36" x="75.13" y="32.11" id="img-fcb1ec8f-96" class="color_rejected" fill="#FFB6C1" stroke="#FFFFFF"/>
          <use xlink:href="#img-fcb1ec8f-36" x="78.39" y="36.47" id="img-fcb1ec8f-97" class="color_rejected" fill="#FFB6C1" stroke="#FFFFFF"/>
          <use xlink:href="#img-fcb1ec8f-36" x="87.43" y="32.7" id="img-fcb1ec8f-98" class="color_rejected" fill="#FFB6C1" stroke="#FFFFFF"/>
          <use xlink:href="#img-fcb1ec8f-36" x="92.21" y="33.5" id="img-fcb1ec8f-99" class="color_rejected" fill="#FFB6C1" stroke="#FFFFFF"/>
          <use xlink:href="#img-fcb1ec8f-36" x="91.7" y="37.06" id="img-fcb1ec8f-100" class="color_rejected" fill="#FFB6C1" stroke="#FFFFFF"/>
          <use xlink:href="#img-fcb1ec8f-36" x="98.74" y="39.63" id="img-fcb1ec8f-101" class="color_rejected" fill="#FFB6C1" stroke="#FFFFFF"/>
          <use xlink:href="#img-fcb1ec8f-36" x="105.77" y="43.4" id="img-fcb1ec8f-102" class="color_rejected" fill="#FFB6C1" stroke="#FFFFFF"/>
          <use xlink:href="#img-fcb1ec8f-36" x="101.25" y="45.77" id="img-fcb1ec8f-103" class="color_rejected" fill="#FFB6C1" stroke="#FFFFFF"/>
          <use xlink:href="#img-fcb1ec8f-36" x="107.28" y="50.92" id="img-fcb1ec8f-104" class="color_rejected" fill="#FFB6C1" stroke="#FFFFFF"/>
          <use xlink:href="#img-fcb1ec8f-36" x="106.27" y="52.9" id="img-fcb1ec8f-105" class="color_rejected" fill="#FFB6C1" stroke="#FFFFFF"/>
          <use xlink:href="#img-fcb1ec8f-36" x="103.01" y="55.47" id="img-fcb1ec8f-106" class="color_rejected" fill="#FFB6C1" stroke="#FFFFFF"/>
          <use xlink:href="#img-fcb1ec8f-36" x="104.52" y="58.84" id="img-fcb1ec8f-107" class="color_rejected" fill="#FFB6C1" stroke="#FFFFFF"/>
          <use xlink:href="#img-fcb1ec8f-36" x="102.51" y="63.19" id="img-fcb1ec8f-108" class="color_rejected" fill="#FFB6C1" stroke="#FFFFFF"/>
          <use xlink:href="#img-fcb1ec8f-36" x="101.5" y="67.35" id="img-fcb1ec8f-109" class="color_rejected" fill="#FFB6C1" stroke="#FFFFFF"/>
          <use xlink:href="#img-fcb1ec8f-36" x="99.99" y="68.34" id="img-fcb1ec8f-110" class="color_rejected" fill="#FFB6C1" stroke="#FFFFFF"/>
          <use xlink:href="#img-fcb1ec8f-36" x="91.2" y="73.29" id="img-fcb1ec8f-111" class="color_rejected" fill="#FFB6C1" stroke="#FFFFFF"/>
          <use xlink:href="#img-fcb1ec8f-36" x="87.94" y="69.33" id="img-fcb1ec8f-112" class="color_rejected" fill="#FFB6C1" stroke="#FFFFFF"/>
          <use xlink:href="#img-fcb1ec8f-36" x="85.68" y="64.58" id="img-fcb1ec8f-113" class="color_rejected" fill="#FFB6C1" stroke="#FFFFFF"/>
          <use xlink:href="#img-fcb1ec8f-36" x="80.65" y="68.93" id="img-fcb1ec8f-114" class="color_rejected" fill="#FFB6C1" stroke="#FFFFFF"/>
          <use xlink:href="#img-fcb1ec8f-36" x="77.89" y="74.08" id="img-fcb1ec8f-115" class="color_rejected" fill="#FFB6C1" stroke="#FFFFFF"/>
          <use xlink:href="#img-fcb1ec8f-36" x="69.1" y="73.68" id="img-fcb1ec8f-116" class="color_rejected" fill="#FFB6C1" stroke="#FFFFFF"/>
          <use xlink:href="#img-fcb1ec8f-36" x="71.86" y="68.93" id="img-fcb1ec8f-117" class="color_rejected" fill="#FFB6C1" stroke="#FFFFFF"/>
          <use xlink:href="#img-fcb1ec8f-36" x="59.55" y="65.37" id="img-fcb1ec8f-118" class="color_rejected" fill="#FFB6C1" stroke="#FFFFFF"/>
          <use xlink:href="#img-fcb1ec8f-36" x="47.49" y="64.38" id="img-fcb1ec8f-119" class="color_rejected" fill="#FFB6C1" stroke="#FFFFFF"/>
          <use xlink:href="#img-fcb1ec8f-36" x="48.25" y="60.22" id="img-fcb1ec8f-120" class="color_rejected" fill="#FFB6C1" stroke="#FFFFFF"/>
          <use xlink:href="#img-fcb1ec8f-36" x="32.92" y="60.22" id="img-fcb1ec8f-121" class="color_rejected" fill="#FFB6C1" stroke="#FFFFFF"/>
          <use xlink:href="#img-fcb1ec8f-36" x="34.93" y="52.11" id="img-fcb1ec8f-122" class="color_rejected" fill="#FFB6C1" stroke="#FFFFFF"/>
          <use xlink:href="#img-fcb1ec8f-36" x="32.42" y="45.37" id="img-fcb1ec8f-123" class="color_rejected" fill="#FFB6C1" stroke="#FFFFFF"/>
          <use xlink:href="#img-fcb1ec8f-36" x="34.93" y="34.68" id="img-fcb1ec8f-124" class="color_rejected" fill="#FFB6C1" stroke="#FFFFFF"/>
          <use xlink:href="#img-fcb1ec8f-36" x="47.74" y="34.09" id="img-fcb1ec8f-125" class="color_rejected" fill="#FFB6C1" stroke="#FFFFFF"/>
          <use xlink:href="#img-fcb1ec8f-36" x="48.75" y="28.35" id="img-fcb1ec8f-126" class="color_rejected" fill="#FFB6C1" stroke="#FFFFFF"/>
          <use xlink:href="#img-fcb1ec8f-36" x="43.22" y="28.75" id="img-fcb1ec8f-127" class="color_rejected" fill="#FFB6C1" stroke="#FFFFFF"/>
          <use xlink:href="#img-fcb1ec8f-36" x="41.46" y="34.09" id="img-fcb1ec8f-128" class="color_rejected" fill="#FFB6C1" stroke="#FFFFFF"/>
          <use xlink:href="#img-fcb1ec8f-36" x="69.85" y="32.11" id="img-fcb1ec8f-129" class="color_rejected" fill="#FFB6C1" stroke="#FFFFFF"/>
          <use xlink:href="#img-fcb1ec8f-36" x="67.84" y="28.35" id="img-fcb1ec8f-130" class="color_rejected" fill="#FFB6C1" stroke="#FFFFFF"/>
          <use xlink:href="#img-fcb1ec8f-36" x="60.81" y="26.37" id="img-fcb1ec8f-131" class="color_rejected" fill="#FFB6C1" stroke="#FFFFFF"/>
          <use xlink:href="#img-fcb1ec8f-36" x="61.81" y="23.2" id="img-fcb1ec8f-132" class="color_rejected" fill="#FFB6C1" stroke="#FFFFFF"/>
          <use xlink:href="#img-fcb1ec8f-36" x="77.89" y="23.8" id="img-fcb1ec8f-133" class="color_rejected" fill="#FFB6C1" stroke="#FFFFFF"/>
          <use xlink:href="#img-fcb1ec8f-36" x="82.66" y="30.92" id="img-fcb1ec8f-134" class="color_rejected" fill="#FFB6C1" stroke="#FFFFFF"/>
          <use xlink:href="#img-fcb1ec8f-36" x="93.21" y="29.14" id="img-fcb1ec8f-135" class="color_rejected" fill="#FFB6C1" stroke="#FFFFFF"/>
          <use xlink:href="#img-fcb1ec8f-36" x="101.25" y="35.28" id="img-fcb1ec8f-136" class="color_rejected" fill="#FFB6C1" stroke="#FFFFFF"/>
          <use xlink:href="#img-fcb1ec8f-36" x="94.72" y="35.87" id="img-fcb1ec8f-137" class="color_rejected" fill="#FFB6C1" stroke="#FFFFFF"/>
          <use xlink:href="#img-fcb1ec8f-36" x="112.05" y="50.52" id="img-fcb1ec8f-138" class="color_rejected" fill="#FFB6C1" stroke="#FFFFFF"/>
          <use xlink:href="#img-fcb1ec8f-36" x="63.32" y="68.93" id="img-fcb1ec8f-139" class="color_rejected" fill="#FFB6C1" stroke="#FFFFFF"/>
          <use xlink:href="#img-fcb1ec8f-36" x="55.03" y="70.52" id="img-fcb1ec8f-140" class="color_rejected" fill="#FFB6C1" stroke="#FFFFFF"/>
          <use xlink:href="#img-fcb1ec8f-36" x="58.8" y="63.19" id="img-fcb1ec8f-141" class="color_rejected" fill="#FFB6C1" stroke="#FFFFFF"/>
          <use xlink:href="#img-fcb1ec8f-36" x="43.98" y="61.41" id="img-fcb1ec8f-142" class="color_rejected" fill="#FFB6C1" stroke="#FFFFFF"/>
          <use xlink:href="#img-fcb1ec8f-36" x="44.98" y="56.86" id="img-fcb1ec8f-143" class="color_rejected" fill="#FFB6C1" stroke="#FFFFFF"/>
          <use xlink:href="#img-fcb1ec8f-36" x="52.77" y="54.88" id="img-fcb1ec8f-144" class="color_rejected" fill="#FFB6C1" stroke="#FFFFFF"/>
          <use xlink:href="#img-fcb1ec8f-36" x="38.7" y="55.07" id="img-fcb1ec8f-145" class="color_rejected" fill="#FFB6C1" stroke="#FFFFFF"/>
          <use xlink:href="#img-fcb1ec8f-36" x="36.44" y="59.03" id="img-fcb1ec8f-146" class="color_rejected" fill="#FFB6C1" stroke="#FFFFFF"/>
          <use xlink:href="#img-fcb1ec8f-36" x="39.2" y="64.58" id="img-fcb1ec8f-147" class="color_rejected" fill="#FFB6C1" stroke="#FFFFFF"/>
          <use xlink:href="#img-fcb1ec8f-36" x="33.68" y="55.47" id="img-fcb1ec8f-148" class="color_rejected" fill="#FFB6C1" stroke="#FFFFFF"/>
          <use xlink:href="#img-fcb1ec8f-36" x="29.16" y="44.78" id="img-fcb1ec8f-149" class="color_rejected" fill="#FFB6C1" stroke="#FFFFFF"/>
          <use xlink:href="#img-fcb1ec8f-36" x="33.93" y="38.64" id="img-fcb1ec8f-150" class="color_rejected" fill="#FFB6C1" stroke="#FFFFFF"/>
          <use xlink:href="#img-fcb1ec8f-36" x="39.45" y="39.83" id="img-fcb1ec8f-151" class="color_rejected" fill="#FFB6C1" stroke="#FFFFFF"/>
          <use xlink:href="#img-fcb1ec8f-36" x="44.23" y="26.17" id="img-fcb1ec8f-152" class="color_rejected" fill="#FFB6C1" stroke="#FFFFFF"/>
          <use xlink:href="#img-fcb1ec8f-36" x="65.08" y="26.17" id="img-fcb1ec8f-153" class="color_rejected" fill="#FFB6C1" stroke="#FFFFFF"/>
          <use xlink:href="#img-fcb1ec8f-36" x="92.94" y="54.06" id="img-fcb1ec8f-154" class="color_rejected" fill="#FFB6C1" stroke="#FFFFFF"/>
        </g>
      </g>
    </g>
  </g>
</g>
  <g class="guide ylabels" font-size="2.82" font-family="'PT Sans Caption','Helvetica Neue','Helvetica',sans-serif" fill="#6C606B" id="img-fcb1ec8f-155">
    <text x="18.74" y="80.32" text-anchor="end" dy="0.35em" id="img-fcb1ec8f-156">-1.0</text>
    <text x="18.74" y="66.77" text-anchor="end" dy="0.35em" id="img-fcb1ec8f-157">-0.5</text>
    <text x="18.74" y="53.23" text-anchor="end" dy="0.35em" id="img-fcb1ec8f-158">0.0</text>
    <text x="18.74" y="39.69" text-anchor="end" dy="0.35em" id="img-fcb1ec8f-159">0.5</text>
    <text x="18.74" y="26.15" text-anchor="end" dy="0.35em" id="img-fcb1ec8f-160">1.0</text>
    <text x="18.74" y="12.61" text-anchor="end" dy="0.35em" id="img-fcb1ec8f-161">1.5</text>
  </g>
  <g font-size="3.88" font-family="'PT Sans','Helvetica Neue','Helvetica',sans-serif" fill="#564A55" stroke="#000000" stroke-opacity="0.000" id="img-fcb1ec8f-162">
    <text x="8.81" y="44.46" text-anchor="middle" dy="0.35em" transform="rotate(-90, 8.81, 46.46)" id="img-fcb1ec8f-163">test2</text>
  </g>
  <g font-size="3.88" font-family="'PT Sans','Helvetica Neue','Helvetica',sans-serif" fill="#564A55" stroke="#000000" stroke-opacity="0.000" id="img-fcb1ec8f-164">
    <text x="76.26" y="5" text-anchor="middle" dy="0.6em" id="img-fcb1ec8f-165">Regularization with λ = 1</text>
  </g>
</g>
<defs>
  <clipPath id="img-fcb1ec8f-13">
  <path d="M19.75,10.61 L 132.77 10.61 132.77 82.32 19.75 82.32" />
</clipPath>
  <g id="img-fcb1ec8f-36">
    <circle cx="0" cy="0" r="0.9" id="img-fcb1ec8f-166"/>
  </g>
</defs>
</svg>
