<?xml version="1.0" encoding="UTF-8"?>
<svg xmlns="http://www.w3.org/2000/svg"
     xmlns:xlink="http://www.w3.org/1999/xlink"
     xmlns:gadfly="http://www.gadflyjl.org/ns"
     version="1.2"
     width="152.4mm" height="101.6mm" viewBox="0 0 152.4 101.6"
     stroke="none"
     fill="#000000"
     stroke-width="0.3"
     font-size="3.88"
>
<g class="plotroot xscalable yscalable" id="img-421a3d1c-1">
  <g font-size="3.88" font-family="'PT Sans','Helvetica Neue','Helvetica',sans-serif" fill="#564A55" stroke="#000000" stroke-opacity="0.000" id="img-421a3d1c-2">
    <text x="76.26" y="89.99" text-anchor="middle" dy="0.6em">test1</text>
  </g>
  <g class="guide xlabels" font-size="2.82" font-family="'PT Sans Caption','Helvetica Neue','Helvetica',sans-serif" fill="#6C606B" id="img-421a3d1c-3">
    <text x="21.75" y="83.32" text-anchor="middle" dy="0.6em">-1.0</text>
    <text x="43.55" y="83.32" text-anchor="middle" dy="0.6em">-0.5</text>
    <text x="65.35" y="83.32" text-anchor="middle" dy="0.6em">0.0</text>
    <text x="87.16" y="83.32" text-anchor="middle" dy="0.6em">0.5</text>
    <text x="108.96" y="83.32" text-anchor="middle" dy="0.6em">1.0</text>
    <text x="130.77" y="83.32" text-anchor="middle" dy="0.6em">1.5</text>
  </g>
  <g class="guide colorkey" id="img-421a3d1c-4">
    <g fill="#4C404B" font-size="2.82" font-family="'PT Sans','Helvetica Neue','Helvetica',sans-serif" id="img-421a3d1c-5">
      <text x="136.58" y="46.46" dy="0.35em" id="img-421a3d1c-6" class="color_accepted">accepted</text>
      <text x="136.58" y="50.09" dy="0.35em" id="img-421a3d1c-7" class="color_rejected">rejected</text>
    </g>
    <g stroke="#000000" stroke-opacity="0.000" id="img-421a3d1c-8">
      <rect x="133.77" y="45.56" width="1.81" height="1.81" id="img-421a3d1c-9" class="color_accepted" fill="#00BFFF"/>
      <rect x="133.77" y="49.18" width="1.81" height="1.81" id="img-421a3d1c-10" class="color_rejected" fill="#FFB6C1"/>
    </g>
    <g fill="#362A35" font-size="3.88" font-family="'PT Sans','Helvetica Neue','Helvetica',sans-serif" stroke="#000000" stroke-opacity="0.000" id="img-421a3d1c-11">
      <text x="133.77" y="42.64" id="img-421a3d1c-12">result</text>
    </g>
  </g>
<g clip-path="url(#img-421a3d1c-13)">
  <g id="img-421a3d1c-14">
    <g pointer-events="visible" opacity="1" fill="#000000" fill-opacity="0.000" stroke="#000000" stroke-opacity="0.000" class="guide background" id="img-421a3d1c-15">
      <rect x="19.75" y="10.61" width="113.02" height="71.7" id="img-421a3d1c-16"/>
    </g>
    <g class="guide ygridlines xfixed" stroke-dasharray="0.5,0.5" stroke-width="0.2" stroke="#D0D0E0" id="img-421a3d1c-17">
      <path fill="none" d="M19.75,80.32 L 132.77 80.32" id="img-421a3d1c-18"/>
      <path fill="none" d="M19.75,66.77 L 132.77 66.77" id="img-421a3d1c-19"/>
      <path fill="none" d="M19.75,53.23 L 132.77 53.23" id="img-421a3d1c-20"/>
      <path fill="none" d="M19.75,39.69 L 132.77 39.69" id="img-421a3d1c-21"/>
      <path fill="none" d="M19.75,26.15 L 132.77 26.15" id="img-421a3d1c-22"/>
      <path fill="none" d="M19.75,12.61 L 132.77 12.61" id="img-421a3d1c-23"/>
    </g>
    <g class="guide xgridlines yfixed" stroke-dasharray="0.5,0.5" stroke-width="0.2" stroke="#D0D0E0" id="img-421a3d1c-24">
      <path fill="none" d="M21.75,10.61 L 21.75 82.32" id="img-421a3d1c-25"/>
      <path fill="none" d="M43.55,10.61 L 43.55 82.32" id="img-421a3d1c-26"/>
      <path fill="none" d="M65.35,10.61 L 65.35 82.32" id="img-421a3d1c-27"/>
      <path fill="none" d="M87.16,10.61 L 87.16 82.32" id="img-421a3d1c-28"/>
      <path fill="none" d="M108.96,10.61 L 108.96 82.32" id="img-421a3d1c-29"/>
      <path fill="none" d="M130.77,10.61 L 130.77 82.32" id="img-421a3d1c-30"/>
    </g>
    <g class="plotpanel" id="img-421a3d1c-31">
      <g stroke-width="0.35" fill="#000000" fill-opacity="0.000" stroke-dasharray="none" id="img-421a3d1c-32">
        <path fill="none" d="M91.09,49.61 L 91.04 49.56 91.03 49.55 90.97 49.48 90.93 49.44 90.91 49.41 90.85 49.34 90.82 49.32 90.79 49.28 90.72 49.21 90.72 49.2 90.66 49.14 90.61 49.08 90.6 49.07 90.53 49 90.5 48.97 90.47 48.94 90.4 48.87 90.39 48.86 90.33 48.8 90.28 48.75 90.27 48.73 90.2 48.67 90.17 48.64 90.13 48.6 90.06 48.53 90.06 48.53 89.99 48.46 89.95 48.42 89.92 48.39 89.85 48.33 89.84 48.32 89.78 48.26 89.73 48.22 89.71 48.19 89.63 48.12 89.62 48.12 89.56 48.06 89.52 48.01 89.49 47.99 89.41 47.92 89.41 47.91 89.34 47.85 89.3 47.82 89.26 47.78 89.19 47.72 89.19 47.72 89.11 47.65 89.08 47.62 89.03 47.58 88.97 47.53 88.95 47.51 88.87 47.45 88.86 47.43 88.79 47.38 88.75 47.34 88.71 47.31 88.64 47.25 88.63 47.24 88.55 47.17 88.53 47.16 88.47 47.11 88.42 47.07 88.39 47.04 88.31 46.98 88.3 46.97 88.22 46.9 88.21 46.89 88.13 46.84 88.1 46.81 88.05 46.77 87.99 46.72 87.96 46.7 87.88 46.64 87.88 46.63 87.79 46.56 87.77 46.55 87.7 46.5 87.66 46.47 87.61 46.43 87.55 46.39 87.52 46.36 87.44 46.31 87.43 46.29 87.33 46.23 87.33 46.23 87.24 46.16 87.22 46.15 87.14 46.09 87.11 46.07 87.05 46.02 87.01 45.99 86.95 45.96 86.9 45.92 86.85 45.89 86.79 45.84 86.75 45.82 86.68 45.77 86.65 45.75 86.57 45.7 86.55 45.68 86.46 45.63 86.44 45.62 86.35 45.56 86.34 45.55 86.24 45.49 86.23 45.48 86.13 45.42 86.11 45.41 86.02 45.36 86 45.35 85.91 45.3 85.88 45.28 85.8 45.24 85.75 45.21 85.7 45.18 85.62 45.14 85.59 45.12 85.48 45.07 85.48 45.07 85.37 45.02 85.33 45.01 85.26 44.98 85.15 44.94 85.15 44.94 85.04 44.91 84.93 44.88 84.84 44.87 84.82 44.87 84.75 44.87 84.71 44.87 84.6 44.91 84.56 44.94 84.5 45.01 84.5 45.02 84.47 45.07 84.46 45.14 84.45 45.21 84.45 45.28 84.45 45.35 84.46 45.41 84.47 45.48 84.48 45.55 84.49 45.62 84.5 45.63 84.51 45.68 84.53 45.75 84.54 45.82 84.56 45.89 84.58 45.96 84.6 46.02 84.6 46.03 84.62 46.09 84.65 46.16 84.67 46.23 84.69 46.29 84.71 46.36 84.71 46.36 84.74 46.43 84.76 46.5 84.79 46.56 84.81 46.63 84.82 46.66 84.84 46.7 84.86 46.77 84.89 46.84 84.92 46.9 84.93 46.95 84.94 46.97 84.97 47.04 84.99 47.11 85.02 47.17 85.04 47.23 85.05 47.24 85.07 47.31 85.1 47.38 85.13 47.45 85.15 47.5 85.16 47.51 85.18 47.58 85.21 47.65 85.24 47.72 85.26 47.77 85.26 47.78 85.29 47.85 85.32 47.92 85.35 47.99 85.37 48.04 85.37 48.06 85.4 48.12 85.43 48.19 85.46 48.26 85.48 48.31 85.48 48.33 85.51 48.39 85.54 48.46 85.56 48.53 85.59 48.59 85.59 48.6 85.62 48.67 85.65 48.73 85.67 48.8 85.7 48.86 85.7 48.87 85.73 48.94 85.75 49 85.78 49.07 85.8 49.14 85.81 49.14 85.83 49.21 85.86 49.28 85.89 49.34 85.91 49.41 85.91 49.41 85.94 49.48 85.97 49.55 85.99 49.61 86.02 49.68 86.02 49.7 86.04 49.75 86.07 49.82 86.1 49.89 86.12 49.95 86.13 49.98 86.15 50.02 86.17 50.09 86.2 50.16 86.22 50.22 86.24 50.27 86.25 50.29 86.27 50.36 86.3 50.43 86.32 50.5 86.35 50.56 86.35 50.57 86.37 50.63 86.4 50.7 86.42 50.77 86.45 50.83 86.46 50.87 86.47 50.9 86.5 50.97 86.52 51.04 86.54 51.11 86.57 51.17 86.57 51.18 86.59 51.24 86.62 51.31 86.64 51.38 86.66 51.44 86.68 51.49 86.69 51.51 86.71 51.58 86.73 51.65 86.75 51.72 86.78 51.78 86.79 51.81 86.8 51.85 86.82 51.92 86.85 51.99 86.87 52.05 86.89 52.12 86.9 52.14 86.91 52.19 86.93 52.26 86.96 52.33 86.98 52.39 87 52.46 87.01 52.48 87.02 52.53 87.04 52.6 87.06 52.66 87.09 52.73 87.11 52.8 87.11 52.83 87.13 52.87 87.15 52.94 87.17 53 87.19 53.07 87.21 53.14 87.22 53.19 87.23 53.21 87.25 53.27 87.27 53.34 87.29 53.41 87.31 53.48 87.33 53.55 87.33 53.55 87.35 53.61 87.37 53.68 87.39 53.75 87.41 53.82 87.43 53.88 87.44 53.93 87.45 53.95 87.47 54.02 87.49 54.09 87.5 54.16 87.52 54.22 87.54 54.29 87.55 54.32 87.56 54.36 87.58 54.43 87.6 54.49 87.62 54.56 87.63 54.63 87.65 54.7 87.66 54.73 87.67 54.77 87.69 54.83 87.71 54.9 87.73 54.97 87.74 55.04 87.76 55.1 87.77 55.14 87.78 55.17 87.8 55.24 87.81 55.31 87.83 55.38 87.85 55.44 87.87 55.51 87.88 55.55 87.88 55.58 87.9 55.65 87.92 55.71 87.94 55.78 87.96 55.85 87.97 55.92 87.99 55.97 87.99 55.99 88.01 56.05 88.03 56.12 88.05 56.19 88.06 56.26 88.08 56.32 88.1 56.38 88.1 56.39 88.12 56.46 88.14 56.53 88.16 56.6 88.18 56.66 88.19 56.73 88.21 56.77 88.21 56.8 88.23 56.87 88.25 56.93 88.28 57 88.3 57.07 88.31 57.13 88.32 57.14 88.34 57.21 88.36 57.27 88.39 57.34 88.41 57.41 88.42 57.45 88.44 57.48 88.46 57.54 88.49 57.61 88.52 57.68 88.53 57.72 88.55 57.75 88.58 57.81 88.61 57.88 88.64 57.94 88.65 57.95 88.68 58.02 88.73 58.09 88.75 58.13 88.77 58.15 88.82 58.22 88.86 58.27 88.88 58.29 88.94 58.36 88.97 58.39 89.02 58.42 89.08 58.47 89.11 58.49 89.19 58.54 89.25 58.56 89.3 58.58 89.41 58.61 89.52 58.62 89.62 58.63 89.73 58.62 89.84 58.6 89.95 58.58 90.02 58.56 90.06 58.55 90.17 58.51 90.22 58.49 90.28 58.47 90.37 58.42 90.39 58.42 90.5 58.36 90.51 58.36 90.61 58.3 90.63 58.29 90.72 58.24 90.74 58.22 90.82 58.17 90.85 58.15 90.93 58.1 90.95 58.09 91.04 58.02 91.04 58.02 91.13 57.95 91.15 57.94 91.22 57.88 91.26 57.85 91.3 57.81 91.37 57.76 91.38 57.75 91.46 57.68 91.48 57.66 91.54 57.61 91.59 57.56 91.61 57.54 91.68 57.48 91.7 57.46 91.75 57.41 91.81 57.35 91.81 57.34 91.88 57.27 91.92 57.23 91.94 57.21 92 57.14 92.03 57.11 92.06 57.07 92.12 57 92.13 56.98 92.17 56.93 92.23 56.87 92.24 56.85 92.28 56.8 92.33 56.73 92.35 56.7 92.38 56.66 92.43 56.6 92.46 56.55 92.48 56.53 92.52 56.46 92.57 56.39 92.57 56.38 92.61 56.32 92.65 56.26 92.68 56.2 92.69 56.19 92.73 56.12 92.76 56.05 92.79 56 92.8 55.99 92.83 55.92 92.87 55.85 92.9 55.78 92.9 55.78 92.93 55.71 92.96 55.65 92.99 55.58 93.01 55.52 93.01 55.51 93.04 55.44 93.06 55.38 93.08 55.31 93.11 55.24 93.12 55.2 93.13 55.17 93.14 55.1 93.16 55.04 93.18 54.97 93.19 54.9 93.21 54.83 93.22 54.77 93.23 54.73 93.23 54.7 93.24 54.63 93.25 54.56 93.26 54.49 93.26 54.43 93.27 54.36 93.27 54.29 93.28 54.22 93.28 54.16 93.28 54.09 93.28 54.02 93.28 53.95 93.27 53.88 93.27 53.82 93.26 53.75 93.26 53.68 93.25 53.61 93.24 53.55 93.23 53.48 93.23 53.45 93.22 53.41 93.21 53.34 93.19 53.27 93.18 53.21 93.16 53.14 93.15 53.07 93.13 53 93.12 52.96 93.11 52.94 93.09 52.87 93.07 52.8 93.05 52.73 93.03 52.66 93.01 52.61 93 52.6 92.98 52.53 92.95 52.46 92.92 52.39 92.9 52.33 92.9 52.33 92.87 52.26 92.84 52.19 92.81 52.12 92.79 52.08 92.78 52.05 92.74 51.99 92.71 51.92 92.68 51.86 92.67 51.85 92.64 51.78 92.6 51.72 92.57 51.66 92.57 51.65 92.53 51.58 92.49 51.51 92.46 51.46 92.45 51.44 92.41 51.38 92.37 51.31 92.35 51.28 92.33 51.24 92.28 51.17 92.24 51.11 92.24 51.11 92.2 51.04 92.15 50.97 92.13 50.95 92.1 50.9 92.06 50.83 92.03 50.79 92.01 50.77 91.96 50.7 91.92 50.64 91.91 50.63 91.86 50.56 91.81 50.5 91.81 50.49 91.76 50.43 91.71 50.36 91.7 50.35 91.66 50.29 91.6 50.22 91.59 50.21 91.55 50.16 91.49 50.09 91.48 50.07 91.44 50.02 91.38 49.95 91.37 49.94 91.33 49.89 91.27 49.82 91.26 49.81 91.21 49.75 91.15 49.68 91.15 49.68 91.09 49.61" id="img-421a3d1c-33" class="geometry color_0.0" stroke="#00BFFF"/>
        <path fill="none" d="M101.45,64.39 L 101.42 64.46 101.41 64.48 101.39 64.52 101.36 64.59 101.33 64.66 101.3 64.71 101.29 64.73 101.26 64.8 101.22 64.86 101.19 64.92 101.19 64.93 101.15 65 101.11 65.07 101.08 65.11 101.07 65.13 101.03 65.2 100.98 65.27 100.97 65.28 100.94 65.34 100.89 65.41 100.86 65.45 100.85 65.47 100.8 65.54 100.76 65.6 100.75 65.61 100.69 65.68 100.65 65.74 100.64 65.74 100.59 65.81 100.54 65.87 100.53 65.88 100.47 65.95 100.43 66 100.41 66.02 100.35 66.08 100.32 66.12 100.29 66.15 100.22 66.22 100.21 66.23 100.15 66.29 100.1 66.34 100.08 66.35 100.01 66.42 99.99 66.44 99.94 66.49 99.88 66.54 99.86 66.56 99.78 66.63 99.77 66.63 99.7 66.69 99.66 66.72 99.61 66.76 99.56 66.81 99.53 66.83 99.45 66.89 99.44 66.9 99.35 66.96 99.34 66.97 99.25 67.03 99.23 67.05 99.15 67.1 99.12 67.12 99.05 67.17 99.01 67.19 98.94 67.24 98.9 67.26 98.83 67.3 98.79 67.33 98.72 67.37 98.68 67.39 98.6 67.44 98.57 67.45 98.48 67.51 98.46 67.51 98.35 67.57 98.35 67.57 98.25 67.63 98.22 67.64 98.14 67.68 98.08 67.71 98.03 67.73 97.93 67.78 97.92 67.78 97.81 67.83 97.78 67.85 97.7 67.88 97.62 67.91 97.59 67.93 97.48 67.97 97.46 67.98 97.37 68.01 97.28 68.05 97.26 68.06 97.15 68.1 97.1 68.12 97.05 68.13 96.94 68.17 96.9 68.18 96.83 68.21 96.72 68.24 96.69 68.25 96.61 68.28 96.5 68.31 96.47 68.32 96.39 68.34 96.28 68.37 96.24 68.39 96.17 68.4 96.06 68.43 95.98 68.46 95.95 68.46 95.84 68.49 95.74 68.52 95.7 68.52 95.63 68.54 95.52 68.57 95.41 68.59 95.4 68.59 95.3 68.61 95.19 68.63 95.08 68.65 95.06 68.66 94.97 68.67 94.86 68.69 94.75 68.71 94.67 68.73 94.64 68.73 94.54 68.75 94.43 68.76 94.32 68.78 94.22 68.79 94.21 68.8 94.1 68.81 93.99 68.82 93.88 68.84 93.77 68.85 93.66 68.86 93.65 68.86 93.55 68.87 93.44 68.88 93.33 68.89 93.23 68.9 93.12 68.91 93.01 68.92 92.9 68.93 92.85 68.93 92.79 68.93 92.68 68.94 92.57 68.95 92.46 68.95 92.35 68.96 92.24 68.96 92.13 68.96 92.03 68.97 91.92 68.97 91.81 68.97 91.7 68.97 91.59 68.98 91.48 68.98 91.37 68.98 91.26 68.98 91.15 68.98 91.04 68.98 90.93 68.97 90.82 68.97 90.72 68.97 90.61 68.97 90.5 68.96 90.39 68.96 90.28 68.96 90.17 68.95 90.06 68.95 89.95 68.94 89.84 68.94 89.73 68.93 89.68 68.93 89.62 68.93 89.52 68.92 89.41 68.91 89.3 68.91 89.19 68.9 89.08 68.89 88.97 68.88 88.86 68.88 88.75 68.87 88.67 68.86 88.64 68.86 88.53 68.85 88.42 68.84 88.31 68.83 88.21 68.82 88.1 68.81 87.99 68.8 87.88 68.79 87.87 68.79 87.77 68.78 87.66 68.77 87.55 68.76 87.44 68.75 87.33 68.74 87.22 68.73 87.12 68.73 87.11 68.73 87.01 68.72 86.9 68.71 86.79 68.7 86.68 68.69 86.57 68.68 86.46 68.67 86.35 68.66 86.32 68.66 86.24 68.65 86.13 68.64 86.02 68.64 85.91 68.63 85.8 68.62 85.7 68.62 85.59 68.61 85.48 68.61 85.37 68.61 85.26 68.6 85.15 68.6 85.04 68.6 84.93 68.6 84.82 68.6 84.71 68.6 84.6 68.6 84.5 68.6 84.39 68.61 84.28 68.61 84.17 68.62 84.06 68.63 83.95 68.64 83.84 68.64 83.73 68.65 83.7 68.66 83.62 68.67 83.51 68.68 83.4 68.69 83.29 68.7 83.19 68.72 83.12 68.73 83.08 68.73 82.97 68.75 82.86 68.76 82.75 68.78 82.67 68.79 82.64 68.8 82.53 68.82 82.42 68.83 82.31 68.85 82.26 68.86 82.2 68.87 82.09 68.89 81.99 68.91 81.88 68.93 81.87 68.93 81.77 68.95 81.66 68.97 81.55 68.99 81.48 69 81.44 69 81.33 69.02 81.22 69.04 81.11 69.06 81.09 69.06 81 69.08 80.89 69.1 80.78 69.12 80.69 69.13 80.68 69.13 80.57 69.15 80.46 69.17 80.35 69.19 80.26 69.2 80.24 69.2 80.13 69.22 80.02 69.23 79.91 69.25 79.8 69.27 79.78 69.27 79.69 69.28 79.58 69.29 79.48 69.31 79.37 69.32 79.26 69.33 79.23 69.34 79.15 69.34 79.04 69.36 78.93 69.37 78.82 69.38 78.71 69.39 78.6 69.4 78.52 69.4 78.49 69.41 78.38 69.41 78.27 69.42 78.17 69.43 78.06 69.44 77.95 69.44 77.84 69.45 77.73 69.45 77.62 69.46 77.51 69.46 77.4 69.47 77.29 69.47 77.23 69.47 77.18 69.47 77.07 69.47 76.97 69.48 76.86 69.48 76.75 69.48 76.64 69.48 76.53 69.48 76.42 69.48 76.31 69.47 76.2 69.47 76.15 69.47 76.09 69.47 75.98 69.47 75.87 69.46 75.76 69.46 75.66 69.45 75.55 69.45 75.44 69.44 75.33 69.44 75.22 69.43 75.11 69.42 75 69.42 74.89 69.41 74.83 69.4 74.78 69.4 74.67 69.39 74.56 69.38 74.46 69.37 74.35 69.36 74.24 69.35 74.13 69.34 74.11 69.34 74.02 69.33 73.91 69.31 73.8 69.3 73.69 69.29 73.58 69.27 73.53 69.27 73.47 69.26 73.36 69.25 73.25 69.23 73.15 69.21 73.05 69.2 73.04 69.2 72.93 69.18 72.82 69.17 72.71 69.15 72.61 69.13 72.6 69.13 72.49 69.11 72.38 69.09 72.27 69.08 72.21 69.06 72.16 69.06 72.05 69.04 71.95 69.02 71.85 69 71.84 69 71.73 68.97 71.62 68.95 71.51 68.93 71.5 68.93 71.4 68.91 71.29 68.89 71.18 68.86 71.18 68.86 71.07 68.84 70.96 68.81 70.87 68.79 70.85 68.79 70.74 68.77 70.64 68.74 70.57 68.73 70.53 68.71 70.42 68.69 70.31 68.66 70.29 68.66 70.2 68.64 70.09 68.61 70.02 68.59 69.98 68.58 69.87 68.55 69.76 68.53 69.75 68.52 69.65 68.5 69.54 68.47 69.5 68.46 69.44 68.44 69.33 68.41 69.25 68.39 69.22 68.38 69.11 68.35 69.01 68.32 69 68.32 68.89 68.28 68.78 68.25 68.77 68.25 68.67 68.22 68.56 68.19 68.55 68.18 68.45 68.16 68.34 68.12 68.32 68.12 68.23 68.09 68.13 68.06 68.1 68.05 68.02 68.02 67.91 67.99 67.89 67.98 67.8 67.95 67.69 67.92 67.68 67.91 67.58 67.88 67.47 67.85 67.47 67.84 67.36 67.81 67.27 67.78 67.25 67.77 67.14 67.73 67.07 67.71 67.03 67.7 66.93 67.66 66.88 67.64 66.82 67.62 66.71 67.58 66.69 67.57 66.6 67.54 66.5 67.51 66.49 67.5 66.38 67.46 66.31 67.44 66.27 67.42 66.16 67.38 66.13 67.37 66.05 67.34 65.95 67.3 65.94 67.3 65.83 67.26 65.77 67.24 65.72 67.22 65.62 67.17 65.6 67.17 65.51 67.13 65.42 67.1 65.4 67.09 65.29 67.05 65.25 67.03 65.18 67 65.08 66.96 65.07 66.96 64.96 66.91 64.92 66.9 64.85 66.87 64.75 66.83 64.74 66.82 64.63 66.78 64.59 66.76 64.52 66.73 64.43 66.69 64.42 66.69 64.31 66.64 64.27 66.63 64.2 66.59 64.12 66.56 64.09 66.54 63.98 66.5 63.96 66.49 63.87 66.45 63.81 66.42 63.76 66.4 63.66 66.35 63.65 66.35 63.54 66.3 63.51 66.29 63.43 66.25 63.36 66.22 63.32 66.2 63.21 66.15 63.21 66.15 63.11 66.1 63.07 66.08 63 66.05 62.93 66.02 62.89 66 62.78 65.95 62.78 65.94 62.67 65.89 62.64 65.88 62.56 65.84 62.5 65.81 62.45 65.79 62.37 65.74 62.34 65.73 62.23 65.68 62.23 65.68 62.12 65.62 62.1 65.61 62.01 65.57 61.96 65.54 61.91 65.51 61.83 65.47 61.8 65.45 61.7 65.41 61.69 65.4 61.58 65.34 61.57 65.34 61.47 65.28 61.44 65.27 61.36 65.22 61.32 65.2 61.25 65.17 61.19 65.13 61.14 65.11 61.07 65.07 61.03 65.05 60.95 65 60.92 64.99 60.82 64.93 60.81 64.93 60.7 64.86 60.7 64.86 60.6 64.8 60.59 64.8 60.49 64.74 60.47 64.73 60.38 64.67 60.35 64.66 60.27 64.61 60.24 64.59 60.16 64.54 60.13 64.52 60.05 64.48 60.01 64.46 59.94 64.41 59.9 64.39 59.83 64.34 59.79 64.32 59.72 64.28 59.69 64.25 59.61 64.21 59.58 64.19 59.5 64.14 59.48 64.12 59.4 64.06 59.37 64.05 59.29 63.99 59.27 63.98 59.18 63.92 59.17 63.91 59.07 63.85 59.07 63.84 58.98 63.78 58.96 63.77 58.88 63.71 58.85 63.69 58.79 63.64 58.74 63.61 58.7 63.58 58.63 63.53 58.61 63.51 58.52 63.44 58.52 63.44 58.43 63.37 58.41 63.36 58.34 63.3 58.3 63.27 58.26 63.24 58.19 63.18 58.18 63.17 58.1 63.1 58.09 63.09 58.02 63.03 57.98 62.99 57.95 62.97 57.87 62.9 57.87 62.89 57.8 62.83 57.76 62.79 57.73 62.76 57.66 62.69 57.65 62.69 57.59 62.63 57.54 62.58 57.52 62.56 57.46 62.49 57.43 62.46 57.4 62.42 57.33 62.36 57.32 62.34 57.27 62.29 57.22 62.22 57.21 62.22 57.16 62.15 57.1 62.09 57.1 62.08 57.05 62.02 56.99 61.95 56.99 61.95 56.94 61.88 56.89 61.81 56.88 61.81 56.83 61.75 56.78 61.68 56.78 61.67 56.73 61.61 56.68 61.54 56.67 61.53 56.63 61.47 56.58 61.41 56.56 61.38 56.52 61.34 56.47 61.27 56.45 61.24 56.42 61.2 56.37 61.14 56.34 61.09 56.32 61.07 56.27 61 56.23 60.95 56.22 60.93 56.16 60.86 56.12 60.81 56.11 60.8 56.06 60.73 56.01 60.67 56.01 60.66 55.95 60.59 55.9 60.53 55.9 60.53 55.84 60.46 55.79 60.4 55.79 60.39 55.73 60.32 55.68 60.26 55.68 60.25 55.62 60.19 55.58 60.13 55.56 60.12 55.51 60.05 55.47 60 55.45 59.98 55.39 59.92 55.36 59.88 55.33 59.85 55.27 59.78 55.25 59.75 55.21 59.71 55.15 59.64 55.14 59.63 55.09 59.58 55.03 59.51 55.03 59.51 54.97 59.44 54.92 59.39 54.91 59.37 54.85 59.31 54.81 59.27 54.78 59.24 54.72 59.17 54.7 59.15 54.66 59.1 54.6 59.03 54.59 59.03 54.53 58.97 54.48 58.92 54.47 58.9 54.4 58.83 54.38 58.8 54.34 58.76 54.27 58.7 54.27 58.69 54.21 58.63 54.16 58.58 54.14 58.56 54.08 58.49 54.05 58.46 54.01 58.42 53.94 58.36 53.94 58.35 53.88 58.29 53.83 58.24 53.81 58.22 53.74 58.15 53.72 58.13 53.67 58.09 53.61 58.02 53.61 58.02 53.54 57.95 53.5 57.91 53.47 57.88 53.4 57.81 53.39 57.8 53.34 57.75 53.28 57.7 53.27 57.68 53.2 57.61 53.17 57.59 53.13 57.54 53.07 57.48 53.06 57.48 52.99 57.41 52.96 57.37 52.92 57.34 52.85 57.27 52.85 57.27 52.78 57.21 52.74 57.16 52.71 57.14 52.65 57.07 52.63 57.05 52.58 57 52.52 56.95 52.51 56.93 52.44 56.87 52.41 56.84 52.37 56.8 52.3 56.74 52.3 56.73 52.22 56.66 52.19 56.63 52.15 56.6 52.08 56.53 52.08 56.53 52.01 56.46 51.97 56.42 51.94 56.39 51.87 56.32 51.87 56.32 51.8 56.26 51.76 56.21 51.73 56.19 51.66 56.12 51.65 56.11 51.59 56.05 51.54 56 51.52 55.99 51.45 55.92 51.43 55.9 51.38 55.85 51.32 55.8 51.3 55.78 51.23 55.71 51.21 55.69 51.16 55.65 51.1 55.59 51.09 55.58 51.02 55.51 50.99 55.49 50.95 55.44 50.88 55.38 50.88 55.38 50.8 55.31 50.77 55.28 50.73 55.24 50.66 55.18 50.66 55.17 50.59 55.1 50.56 55.07 50.52 55.04 50.45 54.97 50.45 54.97 50.37 54.9 50.34 54.87 50.3 54.83 50.23 54.77 50.23 54.76 50.16 54.7 50.12 54.66 50.08 54.63 50.01 54.56 50.01 54.56 49.94 54.49 49.9 54.46 49.87 54.43 49.79 54.36 49.79 54.36 49.72 54.29 49.68 54.26 49.65 54.22 49.58 54.16 49.57 54.15 49.5 54.09 49.46 54.05 49.43 54.02 49.36 53.95 49.36 53.95 49.28 53.88 49.25 53.85 49.21 53.82 49.14 53.75 49.14 53.75 49.06 53.68 49.03 53.65 48.99 53.61 48.92 53.55 48.91 53.55 48.84 53.48 48.81 53.45 48.77 53.41 48.7 53.35 48.69 53.34 48.62 53.27 48.59 53.25 48.54 53.21 48.48 53.15 48.47 53.14 48.39 53.07 48.37 53.05 48.32 53 48.26 52.96 48.24 52.94 48.16 52.87 48.15 52.86 48.09 52.8 48.05 52.76 48.01 52.73 47.94 52.66 47.94 52.66 47.86 52.6 47.83 52.57 47.78 52.53 47.72 52.47 47.7 52.46 47.63 52.39 47.61 52.38 47.55 52.33 47.5 52.28 47.47 52.26 47.39 52.19 47.39 52.19 47.31 52.12 47.28 52.1 47.23 52.05 47.17 52.01 47.15 51.99 47.07 51.92 47.06 51.91 46.99 51.85 46.95 51.82 46.91 51.78 46.85 51.73 46.82 51.72 46.74 51.65 46.74 51.64 46.65 51.58 46.63 51.56 46.57 51.51 46.52 51.47 46.48 51.44 46.41 51.39 46.4 51.38 46.31 51.31 46.3 51.3 46.22 51.24 46.19 51.22 46.13 51.17 46.08 51.14 46.04 51.11 45.97 51.06 45.95 51.04 45.86 50.98 45.85 50.97 45.75 50.9 45.75 50.9 45.66 50.83 45.64 50.83 45.55 50.77 45.54 50.75 45.45 50.7 45.43 50.68 45.34 50.63 45.32 50.61 45.23 50.56 45.21 50.55 45.12 50.5 45.1 50.48 45 50.43 44.99 50.42 44.88 50.36 44.87 50.36 44.77 50.31 44.74 50.29 44.66 50.26 44.59 50.22 44.55 50.21 44.44 50.16 44.42 50.16 44.34 50.12 44.23 50.09 44.23 50.09 44.12 50.06 44.01 50.03 43.94 50.02 43.9 50.01 43.79 50 43.68 50 43.57 50.01 43.49 50.02 43.46 50.03 43.35 50.06 43.29 50.09 43.24 50.11 43.18 50.16 43.13 50.2 43.11 50.22 43.05 50.29 43.03 50.33 43 50.36 42.97 50.43 42.94 50.5 42.92 50.56 42.92 50.58 42.9 50.63 42.89 50.7 42.89 50.77 42.88 50.83 42.88 50.9 42.88 50.97 42.89 51.04 42.89 51.11 42.9 51.17 42.91 51.24 42.92 51.25 42.93 51.31 42.94 51.38 42.96 51.44 42.98 51.51 43 51.58 43.02 51.65 43.03 51.66 43.04 51.72 43.07 51.78 43.09 51.85 43.12 51.92 43.13 51.95 43.15 51.99 43.18 52.05 43.21 52.12 43.24 52.19 43.24 52.19 43.28 52.26 43.31 52.33 43.35 52.39 43.35 52.41 43.38 52.46 43.42 52.53 43.46 52.6 43.46 52.61 43.5 52.66 43.53 52.73 43.57 52.79 43.58 52.8 43.62 52.87 43.66 52.94 43.68 52.97 43.7 53 43.75 53.07 43.79 53.14 43.79 53.14 43.84 53.21 43.88 53.27 43.9 53.3 43.93 53.34 43.98 53.41 44.01 53.45 44.02 53.48 44.07 53.55 44.12 53.61 44.12 53.61 44.17 53.68 44.22 53.75 44.23 53.75 44.27 53.82 44.33 53.88 44.34 53.9 44.38 53.95 44.43 54.02 44.44 54.04 44.49 54.09 44.54 54.16 44.55 54.17 44.59 54.22 44.65 54.29 44.66 54.31 44.71 54.36 44.76 54.43 44.77 54.44 44.82 54.49 44.88 54.56 44.88 54.57 44.93 54.63 44.99 54.7 44.99 54.7 45.05 54.77 45.1 54.82 45.11 54.83 45.17 54.9 45.21 54.95 45.23 54.97 45.29 55.04 45.32 55.07 45.35 55.1 45.41 55.17 45.43 55.19 45.47 55.24 45.53 55.31 45.54 55.31 45.6 55.38 45.64 55.43 45.66 55.44 45.72 55.51 45.75 55.55 45.78 55.58 45.85 55.65 45.86 55.66 45.91 55.71 45.97 55.78 45.98 55.78 46.04 55.85 46.08 55.89 46.11 55.92 46.17 55.99 46.19 56 46.24 56.05 46.3 56.12 46.3 56.12 46.37 56.19 46.41 56.23 46.44 56.26 46.5 56.32 46.52 56.34 46.57 56.39 46.63 56.45 46.64 56.46 46.7 56.53 46.74 56.56 46.77 56.6 46.84 56.66 46.85 56.67 46.91 56.73 46.95 56.78 46.97 56.8 47.04 56.87 47.06 56.89 47.11 56.93 47.17 56.99 47.18 57 47.25 57.07 47.28 57.1 47.32 57.14 47.39 57.21 47.39 57.21 47.46 57.27 47.5 57.32 47.52 57.34 47.59 57.41 47.61 57.42 47.66 57.48 47.72 57.53 47.73 57.54 47.8 57.61 47.83 57.64 47.87 57.68 47.94 57.74 47.94 57.75 48.01 57.81 48.05 57.85 48.08 57.88 48.15 57.95 48.15 57.96 48.22 58.02 48.26 58.07 48.28 58.09 48.35 58.15 48.37 58.17 48.42 58.22 48.48 58.28 48.49 58.29 48.56 58.36 48.59 58.39 48.62 58.42 48.69 58.49 48.7 58.5 48.76 58.56 48.81 58.62 48.82 58.63 48.89 58.7 48.92 58.73 48.95 58.76 49.01 58.83 49.03 58.85 49.08 58.9 49.14 58.96 49.14 58.97 49.2 59.03 49.25 59.09 49.26 59.1 49.32 59.17 49.36 59.21 49.38 59.24 49.43 59.31 49.46 59.35 49.48 59.37 49.54 59.44 49.57 59.49 49.59 59.51 49.63 59.58 49.68 59.64 49.68 59.66 49.72 59.71 49.75 59.78 49.79 59.85 49.79 59.86 49.81 59.92 49.83 59.98 49.85 60.05 49.85 60.12 49.84 60.19 49.82 60.25 49.79 60.29 49.77 60.32 49.68 60.39 49.68 60.39 49.57 60.44 49.5 60.46 49.46 60.47 49.36 60.49 49.25 60.5 49.14 60.5 49.03 60.5 48.92 60.5 48.81 60.49 48.7 60.48 48.59 60.47 48.5 60.46 48.48 60.46 48.37 60.44 48.26 60.42 48.15 60.4 48.1 60.39 48.05 60.38 47.94 60.35 47.83 60.33 47.79 60.32 47.72 60.3 47.61 60.28 47.52 60.25 47.5 60.25 47.39 60.22 47.28 60.19 47.28 60.19 47.17 60.16 47.06 60.12 47.05 60.12 46.95 60.09 46.85 60.05 46.84 60.05 46.74 60.02 46.64 59.98 46.63 59.98 46.52 59.94 46.45 59.92 46.41 59.9 46.3 59.86 46.27 59.85 46.19 59.82 46.09 59.78 46.08 59.78 45.97 59.73 45.92 59.71 45.86 59.69 45.76 59.64 45.75 59.64 45.64 59.6 45.6 59.58 45.54 59.55 45.45 59.51 45.43 59.5 45.32 59.45 45.3 59.44 45.21 59.4 45.15 59.37 45.1 59.35 45.01 59.31 44.99 59.3 44.88 59.24 44.87 59.24 44.77 59.19 44.73 59.17 44.66 59.13 44.6 59.1 44.55 59.08 44.47 59.03 44.44 59.02 44.34 58.97 44.34 58.96 44.23 58.9 44.22 58.9 44.12 58.84 44.1 58.83 44.01 58.78 43.98 58.76 43.9 58.72 43.86 58.7 43.79 58.66 43.74 58.63 43.68 58.59 43.63 58.56 43.57 58.52 43.52 58.49 43.46 58.46 43.41 58.42 43.35 58.39 43.3 58.36 43.24 58.32 43.2 58.29 43.13 58.25 43.09 58.22 43.03 58.18 42.99 58.15 42.92 58.1 42.89 58.09 42.81 58.03 42.79 58.02 42.7 57.95 42.69 57.95 42.6 57.88 42.59 57.88 42.51 57.81 42.48 57.8 42.41 57.75 42.37 57.72 42.32 57.68 42.26 57.63 42.23 57.61 42.15 57.55 42.14 57.54 42.06 57.48 42.04 57.47 41.97 57.41 41.93 57.38 41.89 57.34 41.83 57.29 41.8 57.27 41.72 57.21 41.72 57.2 41.64 57.14 41.61 57.11 41.56 57.07 41.5 57.02 41.48 57 41.4 56.93 41.39 56.92 41.33 56.87 41.28 56.82 41.25 56.8 41.18 56.73 41.17 56.72 41.11 56.66 41.06 56.62 41.03 56.6 40.96 56.53 40.95 56.52 40.89 56.46 40.84 56.41 40.82 56.39 40.75 56.32 40.73 56.3 40.69 56.26 40.62 56.19 40.62 56.19 40.55 56.12 40.52 56.08 40.49 56.05 40.43 55.99 40.41 55.96 40.36 55.92 40.3 55.85 40.3 55.85 40.24 55.78 40.19 55.72 40.18 55.71 40.12 55.65 40.08 55.6 40.06 55.58 40 55.51 39.97 55.47 39.95 55.44 39.89 55.38 39.86 55.34 39.83 55.31 39.78 55.24 39.75 55.21 39.73 55.17 39.67 55.1 39.64 55.07 39.62 55.04 39.57 54.97 39.53 54.92 39.52 54.9 39.47 54.83 39.42 54.78 39.41 54.77 39.37 54.7 39.32 54.63 39.32 54.63 39.27 54.56 39.22 54.49 39.21 54.47 39.18 54.43 39.13 54.36 39.1 54.31 39.08 54.29 39.04 54.22 38.99 54.16 38.99 54.15 38.95 54.09 38.91 54.02 38.88 53.98 38.86 53.95 38.82 53.88 38.78 53.82 38.77 53.8 38.74 53.75 38.7 53.68 38.66 53.62 38.66 53.61 38.62 53.55 38.58 53.48 38.55 53.43 38.54 53.41 38.5 53.34 38.47 53.27 38.44 53.23 38.43 53.21 38.39 53.14 38.36 53.07 38.33 53.03 38.32 53 38.29 52.94 38.25 52.87 38.22 52.81 38.22 52.8 38.18 52.73 38.15 52.66 38.11 52.6 38.11 52.6 38.08 52.53 38.05 52.46 38.02 52.39 38.01 52.37 37.99 52.33 37.95 52.26 37.92 52.19 37.9 52.13 37.89 52.12 37.86 52.05 37.83 51.99 37.8 51.92 37.79 51.89 37.77 51.85 37.74 51.78 37.71 51.72 37.68 51.65 37.68 51.63 37.66 51.58 37.63 51.51 37.6 51.44 37.57 51.38 37.57 51.37 37.54 51.31 37.52 51.24 37.49 51.17 37.46 51.11 37.46 51.11 37.43 51.04 37.41 50.97 37.38 50.9 37.35 50.83 37.35 50.83 37.33 50.77 37.3 50.7 37.27 50.63 37.25 50.56 37.24 50.55 37.22 50.5 37.2 50.43 37.17 50.36 37.14 50.29 37.13 50.26 37.12 50.22 37.09 50.16 37.07 50.09 37.04 50.02 37.02 49.97 37.02 49.95 36.99 49.89 36.97 49.82 36.94 49.75 36.92 49.68 36.91 49.68 36.89 49.61 36.87 49.55 36.84 49.48 36.82 49.41 36.81 49.38 36.79 49.34 36.77 49.28 36.74 49.21 36.72 49.14 36.7 49.09 36.69 49.07 36.67 49 36.64 48.94 36.62 48.87 36.59 48.8 36.59 48.79 36.57 48.73 36.54 48.67 36.52 48.6 36.49 48.53 36.48 48.49 36.47 48.46 36.44 48.39 36.42 48.33 36.39 48.26 36.37 48.2 36.37 48.19 36.34 48.12 36.32 48.06 36.29 47.99 36.27 47.92 36.26 47.9 36.24 47.85 36.22 47.78 36.2 47.72 36.17 47.65 36.15 47.59 36.15 47.58 36.12 47.51 36.1 47.45 36.07 47.38 36.05 47.31 36.04 47.29 36.03 47.24 36 47.17 35.98 47.11 35.95 47.04 35.93 46.98 35.93 46.97 35.91 46.9 35.88 46.84 35.86 46.77 35.84 46.7 35.82 46.66 35.81 46.63 35.79 46.56 35.77 46.5 35.75 46.43 35.72 46.36 35.71 46.33 35.7 46.29 35.68 46.23 35.66 46.16 35.64 46.09 35.61 46.02 35.6 46 35.59 45.96 35.57 45.89 35.55 45.82 35.53 45.75 35.51 45.68 35.5 45.64 35.49 45.62 35.47 45.55 35.45 45.48 35.43 45.41 35.41 45.35 35.39 45.28 35.39 45.27 35.37 45.21 35.35 45.14 35.33 45.07 35.32 45.01 35.3 44.94 35.28 44.87 35.28 44.86 35.26 44.8 35.25 44.74 35.23 44.67 35.21 44.6 35.2 44.53 35.18 44.46 35.17 44.41 35.17 44.4 35.15 44.33 35.14 44.26 35.12 44.19 35.11 44.13 35.1 44.06 35.08 43.99 35.07 43.92 35.06 43.87 35.06 43.85 35.04 43.79 35.03 43.72 35.02 43.65 35.01 43.58 35 43.52 34.99 43.45 34.98 43.38 34.97 43.31 34.96 43.24 34.96 43.18 34.95 43.12 34.95 43.11 34.94 43.04 34.94 42.97 34.93 42.91 34.92 42.84 34.92 42.77 34.91 42.7 34.91 42.63 34.91 42.57 34.9 42.5 34.9 42.43 34.9 42.36 34.9 42.3 34.9 42.23 34.9 42.16 34.9 42.09 34.9 42.02 34.9 41.96 34.91 41.89 34.91 41.82 34.91 41.75 34.92 41.69 34.92 41.62 34.93 41.55 34.94 41.48 34.94 41.41 34.95 41.35 34.95 41.35 34.96 41.28 34.97 41.21 34.98 41.14 34.99 41.08 35.01 41.01 35.02 40.94 35.03 40.87 35.05 40.8 35.06 40.76 35.06 40.74 35.08 40.67 35.1 40.6 35.12 40.53 35.14 40.47 35.16 40.4 35.17 40.37 35.18 40.33 35.2 40.26 35.23 40.19 35.25 40.13 35.28 40.07 35.28 40.06 35.31 39.99 35.34 39.92 35.37 39.86 35.39 39.82 35.4 39.79 35.44 39.72 35.47 39.65 35.5 39.6 35.51 39.58 35.54 39.52 35.58 39.45 35.6 39.41 35.63 39.38 35.67 39.31 35.71 39.25 35.71 39.24 35.76 39.18 35.81 39.11 35.82 39.09 35.86 39.04 35.91 38.97 35.93 38.95 35.97 38.91 36.03 38.84 36.04 38.82 36.09 38.77 36.15 38.7 36.15 38.7 36.21 38.64 36.26 38.59 36.28 38.57 36.35 38.5 36.37 38.49 36.43 38.43 36.48 38.39 36.51 38.36 36.59 38.3 36.59 38.3 36.68 38.23 36.7 38.21 36.77 38.16 36.81 38.13 36.86 38.09 36.91 38.06 36.96 38.03 37.02 37.99 37.07 37.96 37.13 37.92 37.18 37.89 37.24 37.86 37.3 37.82 37.35 37.79 37.43 37.75 37.46 37.74 37.56 37.69 37.57 37.68 37.68 37.63 37.7 37.62 37.79 37.58 37.86 37.55 37.9 37.54 38.01 37.49 38.02 37.48 38.11 37.45 38.2 37.42 38.22 37.41 38.33 37.37 38.4 37.35 38.44 37.33 38.55 37.3 38.61 37.28 38.66 37.26 38.77 37.23 38.84 37.21 38.88 37.2 38.99 37.17 39.09 37.14 39.1 37.14 39.21 37.12 39.32 37.09 39.37 37.08 39.42 37.06 39.53 37.04 39.64 37.02 39.68 37.01 39.75 36.99 39.86 36.97 39.97 36.95 40 36.94 40.08 36.93 40.19 36.9 40.3 36.88 40.35 36.87 40.41 36.86 40.52 36.84 40.62 36.82 40.7 36.81 40.73 36.8 40.84 36.78 40.95 36.76 41.05 36.74 41.06 36.74 41.17 36.71 41.28 36.69 41.38 36.67 41.39 36.67 41.5 36.65 41.61 36.62 41.7 36.6 41.72 36.6 41.83 36.57 41.93 36.55 42 36.53 42.04 36.52 42.15 36.5 42.26 36.47 42.27 36.47 42.37 36.44 42.48 36.41 42.54 36.4 42.59 36.39 42.7 36.36 42.78 36.33 42.81 36.32 42.92 36.29 43.02 36.26 43.03 36.26 43.13 36.23 43.24 36.2 43.24 36.19 43.35 36.16 43.45 36.13 43.46 36.12 43.57 36.09 43.65 36.06 43.68 36.05 43.79 36.01 43.85 35.99 43.9 35.97 44.01 35.94 44.04 35.92 44.12 35.9 44.22 35.86 44.23 35.85 44.34 35.81 44.4 35.79 44.44 35.77 44.55 35.73 44.57 35.72 44.66 35.68 44.74 35.65 44.77 35.64 44.88 35.59 44.9 35.59 44.99 35.55 45.06 35.52 45.1 35.5 45.21 35.45 45.22 35.45 45.32 35.41 45.37 35.38 45.43 35.36 45.52 35.31 45.54 35.31 45.64 35.26 45.67 35.25 45.75 35.21 45.81 35.18 45.86 35.16 45.96 35.11 45.97 35.1 46.08 35.05 46.1 35.04 46.19 35 46.24 34.98 46.3 34.95 46.37 34.91 46.41 34.89 46.51 34.84 46.52 34.84 46.63 34.78 46.64 34.77 46.74 34.72 46.77 34.71 46.85 34.67 46.9 34.64 46.95 34.61 47.03 34.57 47.06 34.55 47.15 34.5 47.17 34.49 47.27 34.43 47.28 34.43 47.39 34.37 47.4 34.37 47.5 34.31 47.51 34.3 47.61 34.24 47.63 34.23 47.72 34.18 47.75 34.16 47.83 34.12 47.86 34.1 47.94 34.05 47.97 34.03 48.05 33.98 48.08 33.96 48.15 33.91 48.19 33.89 48.26 33.84 48.3 33.82 48.37 33.77 48.4 33.76 48.48 33.7 48.5 33.69 48.59 33.63 48.6 33.62 48.7 33.55 48.7 33.55 48.79 33.49 48.81 33.47 48.88 33.42 48.92 33.39 48.97 33.35 49.03 33.31 49.06 33.28 49.14 33.22 49.15 33.21 49.23 33.15 49.25 33.13 49.31 33.08 49.36 33.04 49.39 33.01 49.46 32.94 49.46 32.94 49.54 32.88 49.57 32.84 49.61 32.81 49.67 32.74 49.68 32.73 49.74 32.67 49.79 32.61 49.8 32.6 49.86 32.54 49.9 32.48 49.91 32.47 49.97 32.4 50.01 32.34 50.02 32.33 50.06 32.27 50.11 32.2 50.12 32.18 50.15 32.13 50.19 32.06 50.22 31.99 50.23 31.99 50.26 31.93 50.29 31.86 50.32 31.79 50.34 31.73 50.34 31.72 50.36 31.66 50.38 31.59 50.4 31.52 50.42 31.45 50.43 31.38 50.44 31.32 50.45 31.28 50.45 31.25 50.46 31.18 50.46 31.11 50.47 31.05 50.47 30.98 50.47 30.91 50.47 30.84 50.46 30.77 50.46 30.71 50.46 30.64 50.45 30.57 50.45 30.53 50.44 30.5 50.44 30.44 50.43 30.37 50.42 30.3 50.41 30.23 50.4 30.16 50.39 30.1 50.38 30.03 50.37 29.96 50.36 29.89 50.35 29.83 50.35 29.76 50.34 29.69 50.34 29.69 50.33 29.62 50.32 29.55 50.32 29.49 50.31 29.42 50.3 29.35 50.3 29.28 50.3 29.22 50.29 29.15 50.29 29.08 50.29 29.01 50.29 28.94 50.3 28.88 50.3 28.81 50.31 28.74 50.32 28.67 50.32 28.61 50.33 28.54 50.34 28.53 50.35 28.47 50.36 28.4 50.38 28.33 50.4 28.27 50.42 28.2 50.44 28.13 50.45 28.12 50.47 28.06 50.49 28 50.52 27.93 50.56 27.86 50.56 27.86 50.59 27.79 50.63 27.72 50.66 27.67 50.67 27.66 50.72 27.59 50.77 27.52 50.77 27.51 50.82 27.45 50.87 27.39 50.88 27.38 50.93 27.32 50.99 27.26 51 27.25 51.07 27.18 51.1 27.15 51.14 27.11 51.21 27.05 51.22 27.05 51.3 26.98 51.32 26.97 51.39 26.91 51.43 26.89 51.49 26.84 51.54 26.81 51.6 26.78 51.65 26.75 51.71 26.71 51.76 26.68 51.83 26.64 51.87 26.62 51.97 26.57 51.97 26.57 52.08 26.52 52.12 26.5 52.19 26.47 52.28 26.44 52.3 26.43 52.41 26.39 52.47 26.37 52.52 26.35 52.63 26.32 52.68 26.3 52.74 26.28 52.85 26.25 52.92 26.23 52.96 26.22 53.07 26.2 53.17 26.17 53.21 26.17 53.28 26.15 53.39 26.13 53.5 26.11 53.59 26.1 53.61 26.1 53.72 26.08 53.83 26.07 53.94 26.05 54.05 26.04 54.16 26.03 54.19 26.03 54.27 26.03 54.38 26.02 54.48 26.01 54.59 26.01 54.7 26.01 54.81 26 54.92 26 55.03 26 55.14 26.01 55.25 26.01 55.36 26.01 55.47 26.02 55.58 26.02 55.68 26.03 55.71 26.03 55.79 26.04 55.9 26.05 56.01 26.05 56.12 26.07 56.23 26.08 56.34 26.09 56.42 26.1 56.45 26.1 56.56 26.12 56.67 26.13 56.78 26.15 56.89 26.16 56.9 26.17 56.99 26.18 57.1 26.2 57.21 26.22 57.3 26.23 57.32 26.24 57.43 26.26 57.54 26.28 57.64 26.3 57.65 26.3 57.76 26.33 57.87 26.35 57.96 26.37 57.98 26.37 58.09 26.4 58.19 26.42 58.25 26.44 58.3 26.45 58.41 26.48 58.52 26.5 58.52 26.51 58.63 26.54 58.74 26.56 58.77 26.57 58.85 26.59 58.96 26.63 59.01 26.64 59.07 26.66 59.18 26.69 59.24 26.71 59.29 26.72 59.4 26.76 59.46 26.78 59.5 26.79 59.61 26.82 59.67 26.84 59.72 26.86 59.83 26.9 59.88 26.91 59.94 26.93 60.05 26.97 60.07 26.98 60.16 27.01 60.27 27.05 60.27 27.05 60.38 27.09 60.45 27.11 60.49 27.13 60.6 27.17 60.63 27.18 60.7 27.21 60.81 27.25 60.81 27.25 60.92 27.29 60.98 27.32 61.03 27.34 61.14 27.38 61.15 27.39 61.25 27.43 61.32 27.45 61.36 27.47 61.47 27.52 61.48 27.52 61.58 27.56 61.64 27.59 61.69 27.61 61.8 27.66 61.8 27.66 61.91 27.71 61.95 27.72 62.01 27.75 62.1 27.79 62.12 27.8 62.23 27.85 62.25 27.86 62.34 27.91 62.39 27.93 62.45 27.96 62.53 28 62.56 28.01 62.67 28.06 62.67 28.06 62.78 28.12 62.81 28.13 62.89 28.17 62.95 28.2 63 28.22 63.08 28.27 63.11 28.28 63.21 28.33 63.21 28.34 63.32 28.39 63.34 28.4 63.43 28.45 63.47 28.47 63.54 28.51 63.6 28.54 63.65 28.57 63.72 28.61 63.76 28.63 63.85 28.67 63.87 28.69 63.97 28.74 63.98 28.75 64.09 28.81 64.09 28.81 64.2 28.87 64.21 28.88 64.31 28.93 64.33 28.94 64.42 29 64.44 29.01 64.52 29.06 64.56 29.08 64.63 29.13 64.67 29.15 64.74 29.19 64.78 29.22 64.85 29.26 64.89 29.28 64.96 29.33 65 29.35 65.07 29.39 65.11 29.42 65.18 29.46 65.22 29.49 65.29 29.53 65.32 29.55 65.4 29.6 65.43 29.62 65.51 29.67 65.53 29.69 65.62 29.75 65.63 29.76 65.72 29.82 65.74 29.83 65.83 29.89 65.84 29.89 65.94 29.96 65.94 29.97 66.03 30.03 66.05 30.04 66.13 30.1 66.16 30.12 66.23 30.16 66.27 30.19 66.32 30.23 66.38 30.27 66.42 30.3 66.49 30.35 66.51 30.37 66.6 30.43 66.6 30.44 66.7 30.5 66.71 30.51 66.79 30.57 66.82 30.59 66.88 30.64 66.93 30.68 66.97 30.71 67.03 30.76 67.06 30.77 67.14 30.84 67.14 30.84 67.23 30.91 67.25 30.93 67.32 30.98 67.36 31.01 67.4 31.05 67.47 31.1 67.49 31.11 67.57 31.18 67.58 31.19 67.65 31.25 67.69 31.28 67.74 31.32 67.8 31.37 67.82 31.38 67.9 31.45 67.91 31.46 67.98 31.52 68.02 31.55 68.06 31.59 68.13 31.64 68.14 31.66 68.22 31.72 68.23 31.73 68.3 31.79 68.34 31.83 68.38 31.86 68.45 31.92 68.46 31.93 68.54 31.99 68.56 32.01 68.62 32.06 68.67 32.11 68.7 32.13 68.77 32.2 68.78 32.2 68.85 32.27 68.89 32.3 68.93 32.33 69 32.39 69.01 32.4 69.09 32.47 69.11 32.49 69.16 32.54 69.22 32.58 69.24 32.6 69.32 32.67 69.33 32.68 69.4 32.74 69.44 32.77 69.48 32.81 69.54 32.86 69.56 32.88 69.64 32.94 69.65 32.96 69.72 33.01 69.76 33.05 69.8 33.08 69.87 33.14 69.88 33.15 69.96 33.21 69.98 33.23 70.04 33.28 70.09 33.32 70.13 33.35 70.2 33.41 70.21 33.42 70.29 33.49 70.31 33.5 70.38 33.55 70.42 33.58 70.47 33.62 70.53 33.67 70.55 33.69 70.64 33.75 70.64 33.76 70.73 33.82 70.74 33.83 70.82 33.89 70.85 33.92 70.91 33.96 70.96 34 71.01 34.03 71.07 34.08 71.1 34.1 71.18 34.15 71.19 34.16 71.29 34.23 71.29 34.23 71.39 34.3 71.4 34.31 71.48 34.37 71.51 34.38 71.58 34.43 71.62 34.46 71.68 34.5 71.73 34.53 71.79 34.57 71.84 34.6 71.89 34.64 71.95 34.67 71.99 34.71 72.05 34.75 72.1 34.77 72.16 34.81 72.2 34.84 72.27 34.88 72.31 34.91 72.38 34.95 72.42 34.98 72.49 35.02 72.53 35.04 72.6 35.09 72.64 35.11 72.71 35.15 72.76 35.18 72.82 35.22 72.87 35.25 72.93 35.28 72.99 35.31 73.04 35.34 73.11 35.38 73.15 35.41 73.23 35.45 73.25 35.47 73.35 35.52 73.36 35.53 73.47 35.59 73.47 35.59 73.58 35.65 73.59 35.65 73.69 35.71 73.72 35.72 73.8 35.76 73.85 35.79 73.91 35.82 73.98 35.86 74.02 35.87 74.12 35.92 74.13 35.93 74.24 35.98 74.26 35.99 74.35 36.03 74.4 36.06 74.46 36.08 74.55 36.13 74.56 36.13 74.67 36.18 74.71 36.2 74.78 36.23 74.87 36.26 74.89 36.27 75 36.32 75.05 36.33 75.11 36.36 75.22 36.39 75.24 36.4 75.33 36.43 75.44 36.46 75.47 36.47 75.55 36.48 75.66 36.51 75.76 36.52 75.87 36.53 75.98 36.52 76.09 36.5 76.18 36.47 76.2 36.46 76.29 36.4 76.31 36.38 76.35 36.33 76.41 36.26 76.42 36.24 76.45 36.2 76.48 36.13 76.51 36.06 76.53 36.02 76.54 35.99 76.57 35.92 76.6 35.86 76.62 35.79 76.64 35.76 76.65 35.72 76.68 35.65 76.72 35.59 76.75 35.53 76.76 35.52 76.79 35.45 76.84 35.38 76.86 35.36 76.89 35.31 76.94 35.25 76.97 35.22 77.01 35.18 77.07 35.11 77.08 35.11 77.15 35.04 77.18 35.02 77.24 34.98 77.29 34.94 77.34 34.91 77.4 34.87 77.46 34.84 77.51 34.81 77.59 34.77 77.62 34.76 77.73 34.71 77.75 34.71 77.84 34.67 77.93 34.64 77.95 34.63 78.06 34.6 78.15 34.57 78.17 34.57 78.27 34.54 78.38 34.51 78.43 34.5 78.49 34.49 78.6 34.47 78.71 34.45 78.79 34.43 78.82 34.43 78.93 34.41 79.04 34.4 79.15 34.39 79.26 34.38 79.36 34.37 79.37 34.37 79.48 34.36 79.58 34.35 79.69 34.34 79.8 34.34 79.91 34.33 80.02 34.33 80.13 34.33 80.24 34.32 80.35 34.32 80.46 34.32 80.57 34.32 80.68 34.33 80.78 34.33 80.89 34.33 81 34.33 81.11 34.34 81.22 34.34 81.33 34.35 81.44 34.35 81.55 34.36 81.62 34.37 81.66 34.37 81.77 34.38 81.88 34.39 81.99 34.4 82.09 34.4 82.2 34.42 82.31 34.43 82.39 34.43 82.42 34.44 82.53 34.45 82.64 34.46 82.75 34.47 82.86 34.49 82.97 34.5 82.97 34.5 83.08 34.52 83.19 34.53 83.29 34.55 83.4 34.56 83.45 34.57 83.51 34.58 83.62 34.6 83.73 34.61 83.84 34.63 83.87 34.64 83.95 34.65 84.06 34.67 84.17 34.69 84.26 34.71 84.28 34.71 84.39 34.73 84.5 34.75 84.6 34.77 84.62 34.77 84.71 34.79 84.82 34.81 84.93 34.84 84.95 34.84 85.04 34.86 85.15 34.88 85.26 34.91 85.27 34.91 85.37 34.93 85.48 34.96 85.57 34.98 85.59 34.98 85.7 35.01 85.8 35.03 85.85 35.04 85.91 35.06 86.02 35.09 86.13 35.11 86.13 35.11 86.24 35.14 86.35 35.17 86.39 35.18 86.46 35.2 86.57 35.23 86.64 35.25 86.68 35.26 86.79 35.29 86.88 35.31 86.9 35.32 87.01 35.35 87.11 35.38 87.12 35.38 87.22 35.41 87.33 35.45 87.35 35.45 87.44 35.48 87.55 35.51 87.57 35.52 87.66 35.55 87.77 35.58 87.79 35.59 87.88 35.62 87.99 35.65 88 35.65 88.1 35.69 88.2 35.72 88.21 35.72 88.31 35.76 88.4 35.79 88.42 35.8 88.53 35.84 88.6 35.86 88.64 35.87 88.75 35.91 88.79 35.92 88.86 35.95 88.97 35.99 88.97 35.99 89.08 36.03 89.15 36.06 89.19 36.07 89.3 36.11 89.33 36.13 89.41 36.16 89.51 36.2 89.52 36.2 89.62 36.24 89.68 36.26 89.73 36.29 89.84 36.33 89.85 36.33 89.95 36.37 90.01 36.4 90.06 36.42 90.17 36.47 90.17 36.47 90.28 36.51 90.33 36.53 90.39 36.56 90.49 36.6 90.5 36.61 90.61 36.65 90.64 36.67 90.72 36.7 90.79 36.74 90.82 36.75 90.93 36.8 90.94 36.81 91.04 36.85 91.09 36.87 91.15 36.91 91.23 36.94 91.26 36.96 91.37 37.01 91.37 37.01 91.48 37.06 91.51 37.08 91.59 37.12 91.64 37.14 91.7 37.17 91.78 37.21 91.81 37.23 91.91 37.28 91.92 37.28 92.03 37.34 92.04 37.35 92.13 37.4 92.17 37.42 92.24 37.46 92.3 37.48 92.35 37.51 92.42 37.55 92.46 37.57 92.54 37.62 92.57 37.63 92.67 37.69 92.68 37.7 92.79 37.75 92.79 37.76 92.9 37.82 92.9 37.82 93.01 37.88 93.02 37.89 93.12 37.95 93.13 37.96 93.23 38.01 93.25 38.03 93.33 38.08 93.36 38.09 93.44 38.15 93.47 38.16 93.55 38.21 93.58 38.23 93.66 38.28 93.68 38.3 93.77 38.35 93.79 38.36 93.88 38.42 93.89 38.43 93.99 38.5 94 38.5 94.1 38.57 94.1 38.57 94.2 38.64 94.21 38.64 94.3 38.7 94.32 38.72 94.39 38.77 94.43 38.79 94.49 38.84 94.54 38.87 94.59 38.91 94.64 38.95 94.68 38.97 94.75 39.03 94.77 39.04 94.86 39.11 94.87 39.11 94.96 39.18 94.97 39.19 95.05 39.25 95.08 39.27 95.13 39.31 95.19 39.36 95.22 39.38 95.3 39.44 95.31 39.45 95.39 39.52 95.41 39.53 95.48 39.58 95.52 39.62 95.56 39.65 95.63 39.71 95.64 39.72 95.72 39.79 95.74 39.8 95.8 39.86 95.84 39.89 95.88 39.92 95.95 39.99 95.96 39.99 96.04 40.06 96.06 40.08 96.11 40.13 96.17 40.18 96.19 40.19 96.26 40.26 96.28 40.28 96.34 40.33 96.39 40.38 96.41 40.4 96.48 40.47 96.5 40.48 96.55 40.53 96.61 40.59 96.62 40.6 96.69 40.67 96.72 40.7 96.76 40.74 96.83 40.8 96.83 40.8 96.89 40.87 96.94 40.92 96.96 40.94 97.02 41.01 97.05 41.03 97.09 41.08 97.15 41.14 97.15 41.15 97.21 41.21 97.26 41.26 97.28 41.28 97.34 41.35 97.37 41.39 97.4 41.41 97.46 41.48 97.48 41.51 97.52 41.55 97.57 41.62 97.59 41.64 97.63 41.69 97.69 41.75 97.7 41.77 97.74 41.82 97.8 41.89 97.81 41.9 97.85 41.96 97.91 42.02 97.92 42.04 97.96 42.09 98.01 42.16 98.03 42.18 98.07 42.23 98.12 42.3 98.14 42.32 98.17 42.36 98.22 42.43 98.25 42.47 98.27 42.5 98.31 42.57 98.35 42.62 98.36 42.63 98.41 42.7 98.46 42.77 98.46 42.78 98.5 42.84 98.55 42.91 98.57 42.94 98.59 42.97 98.64 43.04 98.68 43.11 98.68 43.11 98.72 43.18 98.77 43.24 98.79 43.29 98.81 43.31 98.85 43.38 98.89 43.45 98.9 43.47 98.93 43.52 98.97 43.58 99.01 43.65 99.01 43.66 99.04 43.72 99.08 43.79 99.12 43.85 99.12 43.85 99.16 43.92 99.19 43.99 99.23 44.06 99.23 44.06 99.26 44.13 99.3 44.19 99.33 44.26 99.34 44.27 99.36 44.33 99.4 44.4 99.43 44.46 99.45 44.5 99.46 44.53 99.49 44.6 99.52 44.67 99.55 44.74 99.56 44.74 99.58 44.8 99.61 44.87 99.64 44.94 99.66 45 99.67 45.01 99.7 45.07 99.72 45.14 99.75 45.21 99.77 45.27 99.78 45.28 99.8 45.35 99.83 45.41 99.85 45.48 99.88 45.55 99.88 45.56 99.9 45.62 99.92 45.68 99.95 45.75 99.97 45.82 99.99 45.89 99.99 45.89 100.01 45.96 100.03 46.02 100.06 46.09 100.08 46.16 100.1 46.23 100.1 46.24 100.12 46.29 100.13 46.36 100.15 46.43 100.17 46.5 100.19 46.56 100.21 46.63 100.21 46.65 100.22 46.7 100.24 46.77 100.26 46.84 100.27 46.9 100.29 46.97 100.3 47.04 100.32 47.11 100.32 47.12 100.33 47.17 100.34 47.24 100.36 47.31 100.37 47.38 100.38 47.45 100.4 47.51 100.41 47.58 100.42 47.65 100.43 47.7 100.43 47.72 100.44 47.78 100.45 47.85 100.46 47.92 100.47 47.99 100.48 48.06 100.49 48.12 100.5 48.19 100.51 48.26 100.52 48.33 100.53 48.39 100.53 48.46 100.54 48.49 100.54 48.53 100.55 48.6 100.56 48.67 100.56 48.73 100.57 48.8 100.57 48.87 100.58 48.94 100.59 49 100.59 49.07 100.6 49.14 100.6 49.21 100.61 49.28 100.61 49.34 100.61 49.41 100.62 49.48 100.62 49.55 100.62 49.61 100.63 49.68 100.63 49.75 100.63 49.82 100.64 49.89 100.64 49.95 100.64 50.02 100.64 50.09 100.65 50.16 100.65 50.19 100.65 50.22 100.65 50.29 100.65 50.36 100.65 50.43 100.65 50.5 100.65 50.56 100.66 50.63 100.66 50.7 100.66 50.77 100.66 50.83 100.66 50.9 100.66 50.97 100.66 51.04 100.66 51.11 100.66 51.17 100.66 51.24 100.66 51.31 100.66 51.38 100.66 51.44 100.66 51.51 100.66 51.58 100.66 51.65 100.66 51.72 100.66 51.78 100.67 51.85 100.67 51.92 100.67 51.99 100.67 52.05 100.67 52.12 100.67 52.19 100.67 52.26 100.67 52.33 100.67 52.39 100.67 52.46 100.67 52.53 100.68 52.6 100.68 52.66 100.68 52.73 100.68 52.8 100.68 52.87 100.69 52.94 100.69 53 100.69 53.07 100.7 53.14 100.7 53.21 100.7 53.27 100.71 53.34 100.71 53.41 100.71 53.48 100.72 53.55 100.72 53.61 100.73 53.68 100.73 53.75 100.74 53.82 100.74 53.88 100.75 53.95 100.76 54.01 100.76 54.02 100.76 54.09 100.77 54.16 100.78 54.22 100.78 54.29 100.79 54.36 100.8 54.43 100.81 54.49 100.82 54.56 100.82 54.63 100.83 54.7 100.84 54.77 100.85 54.83 100.86 54.9 100.86 54.92 100.87 54.97 100.88 55.04 100.89 55.1 100.9 55.17 100.91 55.24 100.92 55.31 100.94 55.38 100.95 55.44 100.96 55.51 100.97 55.58 100.97 55.59 100.98 55.65 101 55.71 101.01 55.78 101.02 55.85 101.04 55.92 101.05 55.99 101.06 56.05 101.08 56.12 101.08 56.15 101.09 56.19 101.1 56.26 101.12 56.32 101.13 56.39 101.15 56.46 101.16 56.53 101.18 56.6 101.19 56.66 101.19 56.67 101.21 56.73 101.22 56.8 101.23 56.87 101.25 56.93 101.27 57 101.28 57.07 101.3 57.14 101.3 57.16 101.31 57.21 101.33 57.27 101.34 57.34 101.36 57.41 101.37 57.48 101.39 57.54 101.4 57.61 101.41 57.65 101.42 57.68 101.43 57.75 101.45 57.81 101.46 57.88 101.48 57.95 101.49 58.02 101.51 58.09 101.52 58.14 101.52 58.15 101.54 58.22 101.55 58.29 101.57 58.36 101.58 58.42 101.59 58.49 101.61 58.56 101.62 58.63 101.63 58.66 101.64 58.7 101.65 58.76 101.66 58.83 101.68 58.9 101.69 58.97 101.7 59.03 101.72 59.1 101.73 59.17 101.74 59.22 101.74 59.24 101.75 59.31 101.76 59.37 101.78 59.44 101.79 59.51 101.8 59.58 101.81 59.64 101.82 59.71 101.83 59.78 101.84 59.85 101.85 59.89 101.85 59.92 101.86 59.98 101.87 60.05 101.88 60.12 101.89 60.19 101.89 60.25 101.9 60.32 101.91 60.39 101.92 60.46 101.92 60.53 101.93 60.59 101.94 60.66 101.94 60.73 101.95 60.8 101.95 60.86 101.96 60.93 101.96 60.93 101.96 61 101.96 61.07 101.97 61.14 101.97 61.2 101.97 61.27 101.97 61.34 101.98 61.41 101.98 61.47 101.98 61.54 101.98 61.61 101.98 61.68 101.98 61.75 101.97 61.81 101.97 61.88 101.97 61.95 101.97 62.02 101.96 62.08 101.96 62.15 101.96 62.21 101.96 62.22 101.95 62.29 101.94 62.36 101.94 62.42 101.93 62.49 101.92 62.56 101.92 62.63 101.91 62.69 101.9 62.76 101.89 62.83 101.88 62.9 101.87 62.97 101.85 63.03 101.85 63.07 101.84 63.1 101.83 63.17 101.81 63.24 101.8 63.3 101.78 63.37 101.77 63.44 101.75 63.51 101.74 63.55 101.73 63.58 101.71 63.64 101.69 63.71 101.67 63.78 101.65 63.85 101.63 63.91 101.63 63.92 101.61 63.98 101.58 64.05 101.56 64.12 101.53 64.19 101.52 64.22 101.51 64.25 101.48 64.32 101.45 64.39" id="img-421a3d1c-34" class="geometry color_0.0" stroke="#00BFFF"/>
      </g>
      <g class="geometry" id="img-421a3d1c-35">
        <g stroke-width="0.3" id="img-421a3d1c-36">
          <use xlink:href="#img-421a3d1c-37" x="67.59" y="34.29" id="img-421a3d1c-38" class="color_accepted" fill="#00BFFF" stroke="#FFFFFF"/>
          <use xlink:href="#img-421a3d1c-37" x="61.31" y="34.68" id="img-421a3d1c-39" class="color_accepted" fill="#00BFFF" stroke="#FFFFFF"/>
          <use xlink:href="#img-421a3d1c-37" x="56.03" y="34.49" id="img-421a3d1c-40" class="color_accepted" fill="#00BFFF" stroke="#FFFFFF"/>
          <use xlink:href="#img-421a3d1c-37" x="49" y="39.63" id="img-421a3d1c-41" class="color_accepted" fill="#00BFFF" stroke="#FFFFFF"/>
          <use xlink:href="#img-421a3d1c-37" x="42.97" y="40.62" id="img-421a3d1c-42" class="color_accepted" fill="#00BFFF" stroke="#FFFFFF"/>
          <use xlink:href="#img-421a3d1c-37" x="42.47" y="47.55" id="img-421a3d1c-43" class="color_accepted" fill="#00BFFF" stroke="#FFFFFF"/>
          <use xlink:href="#img-421a3d1c-37" x="48" y="52.3" id="img-421a3d1c-44" class="color_accepted" fill="#00BFFF" stroke="#FFFFFF"/>
          <use xlink:href="#img-421a3d1c-37" x="52.01" y="58.44" id="img-421a3d1c-45" class="color_accepted" fill="#00BFFF" stroke="#FFFFFF"/>
          <use xlink:href="#img-421a3d1c-37" x="66.08" y="64.18" id="img-421a3d1c-46" class="color_accepted" fill="#00BFFF" stroke="#FFFFFF"/>
          <use xlink:href="#img-421a3d1c-37" x="71.11" y="67.15" id="img-421a3d1c-47" class="color_accepted" fill="#00BFFF" stroke="#FFFFFF"/>
          <use xlink:href="#img-421a3d1c-37" x="82.16" y="68.54" id="img-421a3d1c-48" class="color_accepted" fill="#00BFFF" stroke="#FFFFFF"/>
          <use xlink:href="#img-421a3d1c-37" x="88.44" y="67.35" id="img-421a3d1c-49" class="color_accepted" fill="#00BFFF" stroke="#FFFFFF"/>
          <use xlink:href="#img-421a3d1c-37" x="93.21" y="59.83" id="img-421a3d1c-50" class="color_accepted" fill="#00BFFF" stroke="#FFFFFF"/>
          <use xlink:href="#img-421a3d1c-37" x="97.48" y="58.24" id="img-421a3d1c-51" class="color_accepted" fill="#00BFFF" stroke="#FFFFFF"/>
          <use xlink:href="#img-421a3d1c-37" x="89.19" y="40.03" id="img-421a3d1c-52" class="color_accepted" fill="#00BFFF" stroke="#FFFFFF"/>
          <use xlink:href="#img-421a3d1c-37" x="79.4" y="37.46" id="img-421a3d1c-53" class="color_accepted" fill="#00BFFF" stroke="#FFFFFF"/>
          <use xlink:href="#img-421a3d1c-37" x="72.61" y="38.64" id="img-421a3d1c-54" class="color_accepted" fill="#00BFFF" stroke="#FFFFFF"/>
          <use xlink:href="#img-421a3d1c-37" x="63.32" y="31.12" id="img-421a3d1c-55" class="color_accepted" fill="#00BFFF" stroke="#FFFFFF"/>
          <use xlink:href="#img-421a3d1c-37" x="57.79" y="34.29" id="img-421a3d1c-56" class="color_accepted" fill="#00BFFF" stroke="#FFFFFF"/>
          <use xlink:href="#img-421a3d1c-37" x="44.48" y="36.07" id="img-421a3d1c-57" class="color_accepted" fill="#00BFFF" stroke="#FFFFFF"/>
          <use xlink:href="#img-421a3d1c-37" x="38.95" y="37.06" id="img-421a3d1c-58" class="color_accepted" fill="#00BFFF" stroke="#FFFFFF"/>
          <use xlink:href="#img-421a3d1c-37" x="37.95" y="44.19" id="img-421a3d1c-59" class="color_accepted" fill="#00BFFF" stroke="#FFFFFF"/>
          <use xlink:href="#img-421a3d1c-37" x="39.45" y="53.1" id="img-421a3d1c-60" class="color_accepted" fill="#00BFFF" stroke="#FFFFFF"/>
          <use xlink:href="#img-421a3d1c-37" x="46.99" y="60.62" id="img-421a3d1c-61" class="color_accepted" fill="#00BFFF" stroke="#FFFFFF"/>
          <use xlink:href="#img-421a3d1c-37" x="60.3" y="63.98" id="img-421a3d1c-62" class="color_accepted" fill="#00BFFF" stroke="#FFFFFF"/>
          <use xlink:href="#img-421a3d1c-37" x="74.12" y="69.53" id="img-421a3d1c-63" class="color_accepted" fill="#00BFFF" stroke="#FFFFFF"/>
          <use xlink:href="#img-421a3d1c-37" x="85.68" y="67.74" id="img-421a3d1c-64" class="color_accepted" fill="#00BFFF" stroke="#FFFFFF"/>
          <use xlink:href="#img-421a3d1c-37" x="94.72" y="67.74" id="img-421a3d1c-65" class="color_accepted" fill="#00BFFF" stroke="#FFFFFF"/>
          <use xlink:href="#img-421a3d1c-37" x="59.3" y="38.45" id="img-421a3d1c-66" class="color_accepted" fill="#00BFFF" stroke="#FFFFFF"/>
          <use xlink:href="#img-421a3d1c-37" x="52.52" y="32.11" id="img-421a3d1c-67" class="color_accepted" fill="#00BFFF" stroke="#FFFFFF"/>
          <use xlink:href="#img-421a3d1c-37" x="53.77" y="27.16" id="img-421a3d1c-68" class="color_accepted" fill="#00BFFF" stroke="#FFFFFF"/>
          <use xlink:href="#img-421a3d1c-37" x="58.29" y="31.52" id="img-421a3d1c-69" class="color_accepted" fill="#00BFFF" stroke="#FFFFFF"/>
          <use xlink:href="#img-421a3d1c-37" x="57.79" y="35.67" id="img-421a3d1c-70" class="color_accepted" fill="#00BFFF" stroke="#FFFFFF"/>
          <use xlink:href="#img-421a3d1c-37" x="53.02" y="40.43" id="img-421a3d1c-71" class="color_accepted" fill="#00BFFF" stroke="#FFFFFF"/>
          <use xlink:href="#img-421a3d1c-37" x="49.5" y="44.78" id="img-421a3d1c-72" class="color_accepted" fill="#00BFFF" stroke="#FFFFFF"/>
          <use xlink:href="#img-421a3d1c-37" x="52.27" y="52.5" id="img-421a3d1c-73" class="color_accepted" fill="#00BFFF" stroke="#FFFFFF"/>
          <use xlink:href="#img-421a3d1c-37" x="55.03" y="59.03" id="img-421a3d1c-74" class="color_accepted" fill="#00BFFF" stroke="#FFFFFF"/>
          <use xlink:href="#img-421a3d1c-37" x="62.57" y="58.24" id="img-421a3d1c-75" class="color_accepted" fill="#00BFFF" stroke="#FFFFFF"/>
          <use xlink:href="#img-421a3d1c-37" x="68.09" y="57.65" id="img-421a3d1c-76" class="color_accepted" fill="#00BFFF" stroke="#FFFFFF"/>
          <use xlink:href="#img-421a3d1c-37" x="75.38" y="64.38" id="img-421a3d1c-77" class="color_accepted" fill="#00BFFF" stroke="#FFFFFF"/>
          <use xlink:href="#img-421a3d1c-37" x="78.14" y="59.43" id="img-421a3d1c-78" class="color_accepted" fill="#00BFFF" stroke="#FFFFFF"/>
          <use xlink:href="#img-421a3d1c-37" x="86.43" y="58.24" id="img-421a3d1c-79" class="color_accepted" fill="#00BFFF" stroke="#FFFFFF"/>
          <use xlink:href="#img-421a3d1c-37" x="93.46" y="57.05" id="img-421a3d1c-80" class="color_accepted" fill="#00BFFF" stroke="#FFFFFF"/>
          <use xlink:href="#img-421a3d1c-37" x="85.42" y="52.9" id="img-421a3d1c-81" class="color_accepted" fill="#00BFFF" stroke="#FFFFFF"/>
          <use xlink:href="#img-421a3d1c-37" x="92.71" y="48.94" id="img-421a3d1c-82" class="color_accepted" fill="#00BFFF" stroke="#FFFFFF"/>
          <use xlink:href="#img-421a3d1c-37" x="90.45" y="45.97" id="img-421a3d1c-83" class="color_accepted" fill="#00BFFF" stroke="#FFFFFF"/>
          <use xlink:href="#img-421a3d1c-37" x="96.98" y="41.22" id="img-421a3d1c-84" class="color_accepted" fill="#00BFFF" stroke="#FFFFFF"/>
          <use xlink:href="#img-421a3d1c-37" x="75.13" y="39.04" id="img-421a3d1c-85" class="color_accepted" fill="#00BFFF" stroke="#FFFFFF"/>
          <use xlink:href="#img-421a3d1c-37" x="84.67" y="35.08" id="img-421a3d1c-86" class="color_accepted" fill="#00BFFF" stroke="#FFFFFF"/>
          <use xlink:href="#img-421a3d1c-37" x="79.4" y="34.49" id="img-421a3d1c-87" class="color_accepted" fill="#00BFFF" stroke="#FFFFFF"/>
          <use xlink:href="#img-421a3d1c-37" x="71.36" y="37.65" id="img-421a3d1c-88" class="color_accepted" fill="#00BFFF" stroke="#FFFFFF"/>
          <use xlink:href="#img-421a3d1c-37" x="65.08" y="42.41" id="img-421a3d1c-89" class="color_accepted" fill="#00BFFF" stroke="#FFFFFF"/>
          <use xlink:href="#img-421a3d1c-37" x="61.31" y="38.25" id="img-421a3d1c-90" class="color_accepted" fill="#00BFFF" stroke="#FFFFFF"/>
          <use xlink:href="#img-421a3d1c-37" x="56.29" y="43.59" id="img-421a3d1c-91" class="color_accepted" fill="#00BFFF" stroke="#FFFFFF"/>
          <use xlink:href="#img-421a3d1c-37" x="56.29" y="48.54" id="img-421a3d1c-92" class="color_accepted" fill="#00BFFF" stroke="#FFFFFF"/>
          <use xlink:href="#img-421a3d1c-37" x="46.24" y="47.35" id="img-421a3d1c-93" class="color_accepted" fill="#00BFFF" stroke="#FFFFFF"/>
          <use xlink:href="#img-421a3d1c-37" x="55.78" y="53.69" id="img-421a3d1c-94" class="color_accepted" fill="#00BFFF" stroke="#FFFFFF"/>
          <use xlink:href="#img-421a3d1c-37" x="59.3" y="60.62" id="img-421a3d1c-95" class="color_accepted" fill="#00BFFF" stroke="#FFFFFF"/>
          <use xlink:href="#img-421a3d1c-37" x="73.37" y="27.95" id="img-421a3d1c-96" class="color_rejected" fill="#FFB6C1" stroke="#FFFFFF"/>
          <use xlink:href="#img-421a3d1c-37" x="75.13" y="32.11" id="img-421a3d1c-97" class="color_rejected" fill="#FFB6C1" stroke="#FFFFFF"/>
          <use xlink:href="#img-421a3d1c-37" x="78.39" y="36.47" id="img-421a3d1c-98" class="color_rejected" fill="#FFB6C1" stroke="#FFFFFF"/>
          <use xlink:href="#img-421a3d1c-37" x="87.43" y="32.7" id="img-421a3d1c-99" class="color_rejected" fill="#FFB6C1" stroke="#FFFFFF"/>
          <use xlink:href="#img-421a3d1c-37" x="92.21" y="33.5" id="img-421a3d1c-100" class="color_rejected" fill="#FFB6C1" stroke="#FFFFFF"/>
          <use xlink:href="#img-421a3d1c-37" x="91.7" y="37.06" id="img-421a3d1c-101" class="color_rejected" fill="#FFB6C1" stroke="#FFFFFF"/>
          <use xlink:href="#img-421a3d1c-37" x="98.74" y="39.63" id="img-421a3d1c-102" class="color_rejected" fill="#FFB6C1" stroke="#FFFFFF"/>
          <use xlink:href="#img-421a3d1c-37" x="105.77" y="43.4" id="img-421a3d1c-103" class="color_rejected" fill="#FFB6C1" stroke="#FFFFFF"/>
          <use xlink:href="#img-421a3d1c-37" x="101.25" y="45.77" id="img-421a3d1c-104" class="color_rejected" fill="#FFB6C1" stroke="#FFFFFF"/>
          <use xlink:href="#img-421a3d1c-37" x="107.28" y="50.92" id="img-421a3d1c-105" class="color_rejected" fill="#FFB6C1" stroke="#FFFFFF"/>
          <use xlink:href="#img-421a3d1c-37" x="106.27" y="52.9" id="img-421a3d1c-106" class="color_rejected" fill="#FFB6C1" stroke="#FFFFFF"/>
          <use xlink:href="#img-421a3d1c-37" x="103.01" y="55.47" id="img-421a3d1c-107" class="color_rejected" fill="#FFB6C1" stroke="#FFFFFF"/>
          <use xlink:href="#img-421a3d1c-37" x="104.52" y="58.84" id="img-421a3d1c-108" class="color_rejected" fill="#FFB6C1" stroke="#FFFFFF"/>
          <use xlink:href="#img-421a3d1c-37" x="102.51" y="63.19" id="img-421a3d1c-109" class="color_rejected" fill="#FFB6C1" stroke="#FFFFFF"/>
          <use xlink:href="#img-421a3d1c-37" x="101.5" y="67.35" id="img-421a3d1c-110" class="color_rejected" fill="#FFB6C1" stroke="#FFFFFF"/>
          <use xlink:href="#img-421a3d1c-37" x="99.99" y="68.34" id="img-421a3d1c-111" class="color_rejected" fill="#FFB6C1" stroke="#FFFFFF"/>
          <use xlink:href="#img-421a3d1c-37" x="91.2" y="73.29" id="img-421a3d1c-112" class="color_rejected" fill="#FFB6C1" stroke="#FFFFFF"/>
          <use xlink:href="#img-421a3d1c-37" x="87.94" y="69.33" id="img-421a3d1c-113" class="color_rejected" fill="#FFB6C1" stroke="#FFFFFF"/>
          <use xlink:href="#img-421a3d1c-37" x="85.68" y="64.58" id="img-421a3d1c-114" class="color_rejected" fill="#FFB6C1" stroke="#FFFFFF"/>
          <use xlink:href="#img-421a3d1c-37" x="80.65" y="68.93" id="img-421a3d1c-115" class="color_rejected" fill="#FFB6C1" stroke="#FFFFFF"/>
          <use xlink:href="#img-421a3d1c-37" x="77.89" y="74.08" id="img-421a3d1c-116" class="color_rejected" fill="#FFB6C1" stroke="#FFFFFF"/>
          <use xlink:href="#img-421a3d1c-37" x="69.1" y="73.68" id="img-421a3d1c-117" class="color_rejected" fill="#FFB6C1" stroke="#FFFFFF"/>
          <use xlink:href="#img-421a3d1c-37" x="71.86" y="68.93" id="img-421a3d1c-118" class="color_rejected" fill="#FFB6C1" stroke="#FFFFFF"/>
          <use xlink:href="#img-421a3d1c-37" x="59.55" y="65.37" id="img-421a3d1c-119" class="color_rejected" fill="#FFB6C1" stroke="#FFFFFF"/>
          <use xlink:href="#img-421a3d1c-37" x="47.49" y="64.38" id="img-421a3d1c-120" class="color_rejected" fill="#FFB6C1" stroke="#FFFFFF"/>
          <use xlink:href="#img-421a3d1c-37" x="48.25" y="60.22" id="img-421a3d1c-121" class="color_rejected" fill="#FFB6C1" stroke="#FFFFFF"/>
          <use xlink:href="#img-421a3d1c-37" x="32.92" y="60.22" id="img-421a3d1c-122" class="color_rejected" fill="#FFB6C1" stroke="#FFFFFF"/>
          <use xlink:href="#img-421a3d1c-37" x="34.93" y="52.11" id="img-421a3d1c-123" class="color_rejected" fill="#FFB6C1" stroke="#FFFFFF"/>
          <use xlink:href="#img-421a3d1c-37" x="32.42" y="45.37" id="img-421a3d1c-124" class="color_rejected" fill="#FFB6C1" stroke="#FFFFFF"/>
          <use xlink:href="#img-421a3d1c-37" x="34.93" y="34.68" id="img-421a3d1c-125" class="color_rejected" fill="#FFB6C1" stroke="#FFFFFF"/>
          <use xlink:href="#img-421a3d1c-37" x="47.74" y="34.09" id="img-421a3d1c-126" class="color_rejected" fill="#FFB6C1" stroke="#FFFFFF"/>
          <use xlink:href="#img-421a3d1c-37" x="48.75" y="28.35" id="img-421a3d1c-127" class="color_rejected" fill="#FFB6C1" stroke="#FFFFFF"/>
          <use xlink:href="#img-421a3d1c-37" x="43.22" y="28.75" id="img-421a3d1c-128" class="color_rejected" fill="#FFB6C1" stroke="#FFFFFF"/>
          <use xlink:href="#img-421a3d1c-37" x="41.46" y="34.09" id="img-421a3d1c-129" class="color_rejected" fill="#FFB6C1" stroke="#FFFFFF"/>
          <use xlink:href="#img-421a3d1c-37" x="69.85" y="32.11" id="img-421a3d1c-130" class="color_rejected" fill="#FFB6C1" stroke="#FFFFFF"/>
          <use xlink:href="#img-421a3d1c-37" x="67.84" y="28.35" id="img-421a3d1c-131" class="color_rejected" fill="#FFB6C1" stroke="#FFFFFF"/>
          <use xlink:href="#img-421a3d1c-37" x="60.81" y="26.37" id="img-421a3d1c-132" class="color_rejected" fill="#FFB6C1" stroke="#FFFFFF"/>
          <use xlink:href="#img-421a3d1c-37" x="61.81" y="23.2" id="img-421a3d1c-133" class="color_rejected" fill="#FFB6C1" stroke="#FFFFFF"/>
          <use xlink:href="#img-421a3d1c-37" x="77.89" y="23.8" id="img-421a3d1c-134" class="color_rejected" fill="#FFB6C1" stroke="#FFFFFF"/>
          <use xlink:href="#img-421a3d1c-37" x="82.66" y="30.92" id="img-421a3d1c-135" class="color_rejected" fill="#FFB6C1" stroke="#FFFFFF"/>
          <use xlink:href="#img-421a3d1c-37" x="93.21" y="29.14" id="img-421a3d1c-136" class="color_rejected" fill="#FFB6C1" stroke="#FFFFFF"/>
          <use xlink:href="#img-421a3d1c-37" x="101.25" y="35.28" id="img-421a3d1c-137" class="color_rejected" fill="#FFB6C1" stroke="#FFFFFF"/>
          <use xlink:href="#img-421a3d1c-37" x="94.72" y="35.87" id="img-421a3d1c-138" class="color_rejected" fill="#FFB6C1" stroke="#FFFFFF"/>
          <use xlink:href="#img-421a3d1c-37" x="112.05" y="50.52" id="img-421a3d1c-139" class="color_rejected" fill="#FFB6C1" stroke="#FFFFFF"/>
          <use xlink:href="#img-421a3d1c-37" x="63.32" y="68.93" id="img-421a3d1c-140" class="color_rejected" fill="#FFB6C1" stroke="#FFFFFF"/>
          <use xlink:href="#img-421a3d1c-37" x="55.03" y="70.52" id="img-421a3d1c-141" class="color_rejected" fill="#FFB6C1" stroke="#FFFFFF"/>
          <use xlink:href="#img-421a3d1c-37" x="58.8" y="63.19" id="img-421a3d1c-142" class="color_rejected" fill="#FFB6C1" stroke="#FFFFFF"/>
          <use xlink:href="#img-421a3d1c-37" x="43.98" y="61.41" id="img-421a3d1c-143" class="color_rejected" fill="#FFB6C1" stroke="#FFFFFF"/>
          <use xlink:href="#img-421a3d1c-37" x="44.98" y="56.86" id="img-421a3d1c-144" class="color_rejected" fill="#FFB6C1" stroke="#FFFFFF"/>
          <use xlink:href="#img-421a3d1c-37" x="52.77" y="54.88" id="img-421a3d1c-145" class="color_rejected" fill="#FFB6C1" stroke="#FFFFFF"/>
          <use xlink:href="#img-421a3d1c-37" x="38.7" y="55.07" id="img-421a3d1c-146" class="color_rejected" fill="#FFB6C1" stroke="#FFFFFF"/>
          <use xlink:href="#img-421a3d1c-37" x="36.44" y="59.03" id="img-421a3d1c-147" class="color_rejected" fill="#FFB6C1" stroke="#FFFFFF"/>
          <use xlink:href="#img-421a3d1c-37" x="39.2" y="64.58" id="img-421a3d1c-148" class="color_rejected" fill="#FFB6C1" stroke="#FFFFFF"/>
          <use xlink:href="#img-421a3d1c-37" x="33.68" y="55.47" id="img-421a3d1c-149" class="color_rejected" fill="#FFB6C1" stroke="#FFFFFF"/>
          <use xlink:href="#img-421a3d1c-37" x="29.16" y="44.78" id="img-421a3d1c-150" class="color_rejected" fill="#FFB6C1" stroke="#FFFFFF"/>
          <use xlink:href="#img-421a3d1c-37" x="33.93" y="38.64" id="img-421a3d1c-151" class="color_rejected" fill="#FFB6C1" stroke="#FFFFFF"/>
          <use xlink:href="#img-421a3d1c-37" x="39.45" y="39.83" id="img-421a3d1c-152" class="color_rejected" fill="#FFB6C1" stroke="#FFFFFF"/>
          <use xlink:href="#img-421a3d1c-37" x="44.23" y="26.17" id="img-421a3d1c-153" class="color_rejected" fill="#FFB6C1" stroke="#FFFFFF"/>
          <use xlink:href="#img-421a3d1c-37" x="65.08" y="26.17" id="img-421a3d1c-154" class="color_rejected" fill="#FFB6C1" stroke="#FFFFFF"/>
          <use xlink:href="#img-421a3d1c-37" x="92.94" y="54.06" id="img-421a3d1c-155" class="color_rejected" fill="#FFB6C1" stroke="#FFFFFF"/>
        </g>
      </g>
    </g>
  </g>
</g>
  <g class="guide ylabels" font-size="2.82" font-family="'PT Sans Caption','Helvetica Neue','Helvetica',sans-serif" fill="#6C606B" id="img-421a3d1c-156">
    <text x="18.74" y="80.32" text-anchor="end" dy="0.35em" id="img-421a3d1c-157">-1.0</text>
    <text x="18.74" y="66.77" text-anchor="end" dy="0.35em" id="img-421a3d1c-158">-0.5</text>
    <text x="18.74" y="53.23" text-anchor="end" dy="0.35em" id="img-421a3d1c-159">0.0</text>
    <text x="18.74" y="39.69" text-anchor="end" dy="0.35em" id="img-421a3d1c-160">0.5</text>
    <text x="18.74" y="26.15" text-anchor="end" dy="0.35em" id="img-421a3d1c-161">1.0</text>
    <text x="18.74" y="12.61" text-anchor="end" dy="0.35em" id="img-421a3d1c-162">1.5</text>
  </g>
  <g font-size="3.88" font-family="'PT Sans','Helvetica Neue','Helvetica',sans-serif" fill="#564A55" stroke="#000000" stroke-opacity="0.000" id="img-421a3d1c-163">
    <text x="8.81" y="44.46" text-anchor="middle" dy="0.35em" transform="rotate(-90, 8.81, 46.46)" id="img-421a3d1c-164">test2</text>
  </g>
  <g font-size="3.88" font-family="'PT Sans','Helvetica Neue','Helvetica',sans-serif" fill="#564A55" stroke="#000000" stroke-opacity="0.000" id="img-421a3d1c-165">
    <text x="76.26" y="5" text-anchor="middle" dy="0.6em" id="img-421a3d1c-166">Regularization with  = 0</text>
  </g>
</g>
<defs>
  <clipPath id="img-421a3d1c-13">
  <path d="M19.75,10.61 L 132.77 10.61 132.77 82.32 19.75 82.32" />
</clipPath>
  <g id="img-421a3d1c-37">
    <circle cx="0" cy="0" r="0.9" id="img-421a3d1c-167"/>
  </g>
</defs>
</svg>
