<?xml version="1.0" encoding="UTF-8"?>
<svg xmlns="http://www.w3.org/2000/svg"
     xmlns:xlink="http://www.w3.org/1999/xlink"
     xmlns:gadfly="http://www.gadflyjl.org/ns"
     version="1.2"
     width="152.4mm" height="101.6mm" viewBox="0 0 152.4 101.6"
     stroke="none"
     fill="#000000"
     stroke-width="0.3"
     font-size="3.88"
>
<g class="plotroot xscalable yscalable" id="img-23605c38-1">
  <g font-size="3.88" font-family="'PT Sans','Helvetica Neue','Helvetica',sans-serif" fill="#564A55" stroke="#000000" stroke-opacity="0.000" id="img-23605c38-2">
    <text x="83.24" y="89.99" text-anchor="middle" dy="0.6em">Population</text>
  </g>
  <g class="guide xlabels" font-size="2.82" font-family="'PT Sans Caption','Helvetica Neue','Helvetica',sans-serif" fill="#6C606B" id="img-23605c38-3">
    <text x="21.07" y="83.32" text-anchor="middle" dy="0.6em">0</text>
    <text x="45.94" y="83.32" text-anchor="middle" dy="0.6em">5</text>
    <text x="70.8" y="83.32" text-anchor="middle" dy="0.6em">10</text>
    <text x="95.67" y="83.32" text-anchor="middle" dy="0.6em">15</text>
    <text x="120.53" y="83.32" text-anchor="middle" dy="0.6em">20</text>
    <text x="145.4" y="83.32" text-anchor="middle" dy="0.6em">25</text>
  </g>
<g clip-path="url(#img-23605c38-4)">
  <g id="img-23605c38-5">
    <g pointer-events="visible" opacity="1" fill="#000000" fill-opacity="0.000" stroke="#000000" stroke-opacity="0.000" class="guide background" id="img-23605c38-6">
      <rect x="19.07" y="5" width="128.33" height="77.32"/>
    </g>
    <g class="guide ygridlines xfixed" stroke-dasharray="0.5,0.5" stroke-width="0.2" stroke="#D0D0E0" id="img-23605c38-7">
      <path fill="none" d="M19.07,80.31 L 147.4 80.31"/>
      <path fill="none" d="M19.07,61.99 L 147.4 61.99"/>
      <path fill="none" d="M19.07,43.66 L 147.4 43.66"/>
      <path fill="none" d="M19.07,25.33 L 147.4 25.33"/>
      <path fill="none" d="M19.07,7 L 147.4 7"/>
    </g>
    <g class="guide xgridlines yfixed" stroke-dasharray="0.5,0.5" stroke-width="0.2" stroke="#D0D0E0" id="img-23605c38-8">
      <path fill="none" d="M21.07,5 L 21.07 82.32"/>
      <path fill="none" d="M45.94,5 L 45.94 82.32"/>
      <path fill="none" d="M70.8,5 L 70.8 82.32"/>
      <path fill="none" d="M95.67,5 L 95.67 82.32"/>
      <path fill="none" d="M120.53,5 L 120.53 82.32"/>
      <path fill="none" d="M145.4,5 L 145.4 82.32"/>
    </g>
    <g class="plotpanel" id="img-23605c38-9">
      <g class="geometry" id="img-23605c38-10">
        <g class="color_RGBA{Float32}(0.0f0,0.74736935f0,1.0f0,1.0f0)" stroke="#FFFFFF" stroke-width="0.3" fill="#00BFFF" id="img-23605c38-11">
          <use xlink:href="#img-23605c38-12" x="51.46" y="29.74"/>
          <use xlink:href="#img-23605c38-12" x="48.56" y="45.25"/>
          <use xlink:href="#img-23605c38-12" x="63.44" y="36.95"/>
          <use xlink:href="#img-23605c38-12" x="55.9" y="40.26"/>
          <use xlink:href="#img-23605c38-12" x="50.21" y="49.48"/>
          <use xlink:href="#img-23605c38-12" x="62.76" y="40.2"/>
          <use xlink:href="#img-23605c38-12" x="58.25" y="54.02"/>
          <use xlink:href="#img-23605c38-12" x="63.73" y="39.99"/>
          <use xlink:href="#img-23605c38-12" x="53.33" y="49.89"/>
          <use xlink:href="#img-23605c38-12" x="46.21" y="54.99"/>
          <use xlink:href="#img-23605c38-12" x="49.47" y="56.03"/>
          <use xlink:href="#img-23605c38-12" x="91.51" y="33.57"/>
          <use xlink:href="#img-23605c38-12" x="49.59" y="56.2"/>
          <use xlink:href="#img-23605c38-12" x="62.89" y="48.74"/>
          <use xlink:href="#img-23605c38-12" x="49.12" y="60.67"/>
          <use xlink:href="#img-23605c38-12" x="47.82" y="55.55"/>
          <use xlink:href="#img-23605c38-12" x="52.73" y="52.26"/>
          <use xlink:href="#img-23605c38-12" x="46.58" y="60.96"/>
          <use xlink:href="#img-23605c38-12" x="53.05" y="55.29"/>
          <use xlink:href="#img-23605c38-12" x="56.24" y="52.11"/>
          <use xlink:href="#img-23605c38-12" x="51.85" y="56.23"/>
          <use xlink:href="#img-23605c38-12" x="121.88" y="22.09"/>
          <use xlink:href="#img-23605c38-12" x="48.37" y="54.17"/>
          <use xlink:href="#img-23605c38-12" x="52.53" y="52.48"/>
          <use xlink:href="#img-23605c38-12" x="48.75" y="56.34"/>
          <use xlink:href="#img-23605c38-12" x="115.29" y="20.49"/>
          <use xlink:href="#img-23605c38-12" x="84.87" y="37.24"/>
          <use xlink:href="#img-23605c38-12" x="75.56" y="49.07"/>
          <use xlink:href="#img-23605c38-12" x="86.6" y="35.06"/>
          <use xlink:href="#img-23605c38-12" x="131.49" y="17.73"/>
          <use xlink:href="#img-23605c38-12" x="47.19" y="64.22"/>
          <use xlink:href="#img-23605c38-12" x="53.84" y="51"/>
          <use xlink:href="#img-23605c38-12" x="67.06" y="39.75"/>
          <use xlink:href="#img-23605c38-12" x="50.37" y="58.6"/>
          <use xlink:href="#img-23605c38-12" x="61.91" y="49.99"/>
          <use xlink:href="#img-23605c38-12" x="60.53" y="53.62"/>
          <use xlink:href="#img-23605c38-12" x="61.33" y="54.44"/>
          <use xlink:href="#img-23605c38-12" x="48.95" y="55.77"/>
          <use xlink:href="#img-23605c38-12" x="84.91" y="43.44"/>
          <use xlink:href="#img-23605c38-12" x="52.67" y="51.91"/>
          <use xlink:href="#img-23605c38-12" x="47.96" y="60.97"/>
          <use xlink:href="#img-23605c38-12" x="55.3" y="54.82"/>
          <use xlink:href="#img-23605c38-12" x="79.3" y="52.12"/>
          <use xlink:href="#img-23605c38-12" x="49.79" y="57.51"/>
          <use xlink:href="#img-23605c38-12" x="59.98" y="49.65"/>
          <use xlink:href="#img-23605c38-12" x="56.35" y="60.07"/>
          <use xlink:href="#img-23605c38-12" x="46.29" y="52.58"/>
          <use xlink:href="#img-23605c38-12" x="49.92" y="58.61"/>
          <use xlink:href="#img-23605c38-12" x="79.26" y="47.32"/>
          <use xlink:href="#img-23605c38-12" x="48.63" y="60.12"/>
          <use xlink:href="#img-23605c38-12" x="58.57" y="49.61"/>
          <use xlink:href="#img-23605c38-12" x="47.47" y="58.61"/>
          <use xlink:href="#img-23605c38-12" x="57.99" y="54.13"/>
          <use xlink:href="#img-23605c38-12" x="58.88" y="52.83"/>
          <use xlink:href="#img-23605c38-12" x="52.57" y="59.38"/>
          <use xlink:href="#img-23605c38-12" x="52.7" y="64.59"/>
          <use xlink:href="#img-23605c38-12" x="52.27" y="57.45"/>
          <use xlink:href="#img-23605c38-12" x="49.12" y="53.55"/>
          <use xlink:href="#img-23605c38-12" x="67.37" y="54.72"/>
          <use xlink:href="#img-23605c38-12" x="68.09" y="52.06"/>
          <use xlink:href="#img-23605c38-12" x="64.96" y="52.51"/>
          <use xlink:href="#img-23605c38-12" x="46.83" y="63.35"/>
          <use xlink:href="#img-23605c38-12" x="126.89" y="29.12"/>
          <use xlink:href="#img-23605c38-12" x="95.21" y="39.89"/>
          <use xlink:href="#img-23605c38-12" x="115.36" y="30.73"/>
          <use xlink:href="#img-23605c38-12" x="56.97" y="53.03"/>
          <use xlink:href="#img-23605c38-12" x="62.32" y="51.46"/>
          <use xlink:href="#img-23605c38-12" x="71.98" y="47.73"/>
          <use xlink:href="#img-23605c38-12" x="48.42" y="60.12"/>
          <use xlink:href="#img-23605c38-12" x="122.23" y="23.51"/>
          <use xlink:href="#img-23605c38-12" x="71.48" y="49.74"/>
          <use xlink:href="#img-23605c38-12" x="57.55" y="54.61"/>
          <use xlink:href="#img-23605c38-12" x="50.94" y="59.64"/>
          <use xlink:href="#img-23605c38-12" x="57.01" y="55.86"/>
          <use xlink:href="#img-23605c38-12" x="46.07" y="66.9"/>
          <use xlink:href="#img-23605c38-12" x="53.64" y="61.44"/>
          <use xlink:href="#img-23605c38-12" x="58.56" y="54.87"/>
          <use xlink:href="#img-23605c38-12" x="46.12" y="51.54"/>
          <use xlink:href="#img-23605c38-12" x="72.17" y="49.61"/>
          <use xlink:href="#img-23605c38-12" x="46.47" y="58.21"/>
          <use xlink:href="#img-23605c38-12" x="49.56" y="61.11"/>
          <use xlink:href="#img-23605c38-12" x="46.87" y="61.61"/>
          <use xlink:href="#img-23605c38-12" x="52.68" y="60.74"/>
          <use xlink:href="#img-23605c38-12" x="69.65" y="48.16"/>
          <use xlink:href="#img-23605c38-12" x="53.48" y="52.19"/>
          <use xlink:href="#img-23605c38-12" x="63.43" y="54.21"/>
          <use xlink:href="#img-23605c38-12" x="66.73" y="49.53"/>
          <use xlink:href="#img-23605c38-12" x="50.92" y="60.29"/>
          <use xlink:href="#img-23605c38-12" x="48.53" y="61.71"/>
          <use xlink:href="#img-23605c38-12" x="46.23" y="56.81"/>
          <use xlink:href="#img-23605c38-12" x="49.46" y="58.6"/>
          <use xlink:href="#img-23605c38-12" x="59.05" y="54.11"/>
          <use xlink:href="#img-23605c38-12" x="50.27" y="48.78"/>
          <use xlink:href="#img-23605c38-12" x="47.46" y="58.34"/>
          <use xlink:href="#img-23605c38-12" x="62.32" y="61.72"/>
          <use xlink:href="#img-23605c38-12" x="87.68" y="45.39"/>
          <use xlink:href="#img-23605c38-12" x="48.11" y="60.86"/>
        </g>
      </g>
    </g>
  </g>
</g>
  <g class="guide ylabels" font-size="2.82" font-family="'PT Sans Caption','Helvetica Neue','Helvetica',sans-serif" fill="#6C606B" id="img-23605c38-13">
    <text x="18.07" y="80.31" text-anchor="end" dy="0.35em">-10</text>
    <text x="18.07" y="61.99" text-anchor="end" dy="0.35em">0</text>
    <text x="18.07" y="43.66" text-anchor="end" dy="0.35em">10</text>
    <text x="18.07" y="25.33" text-anchor="end" dy="0.35em">20</text>
    <text x="18.07" y="7" text-anchor="end" dy="0.35em">30</text>
  </g>
  <g font-size="3.88" font-family="'PT Sans','Helvetica Neue','Helvetica',sans-serif" fill="#564A55" stroke="#000000" stroke-opacity="0.000" id="img-23605c38-14">
    <text x="8.81" y="41.66" text-anchor="middle" dy="0.35em" transform="rotate(-90, 8.81, 43.66)">Profit</text>
  </g>
</g>
<defs>
  <clipPath id="img-23605c38-4">
  <path d="M19.07,5 L 147.4 5 147.4 82.32 19.07 82.32" />
</clipPath>
  <g id="img-23605c38-12">
    <circle cx="0" cy="0" r="0.9"/>
  </g>
</defs>
</svg>
